<?xml version="1.0" standalone="no"?>
<!DOCTYPE svg PUBLIC "-//W3C//DTD SVG 1.1//EN" "http://www.w3.org/Graphics/SVG/1.1/DTD/svg11.dtd" >
<svg xmlns="http://www.w3.org/2000/svg" xmlns:xlink="http://www.w3.org/1999/xlink" version="1.1">
<metadata>
Created by FontForge 20201107 at Mon Nov 24 18:59:09 2025
 By 
Copyright (c) 2016 by Eduardo Manso. All rights reserved.
</metadata>
<defs>
<font id="CiutadellaRounded-SmBd" horiz-adv-x="1036" >
  <font-face 
    font-family="Ciutadella Rounded"
    font-weight="600"
    font-stretch="normal"
    units-per-em="2048"
    panose-1="0 0 0 0 0 0 0 0 0 0"
    ascent="1536"
    descent="-512"
    x-height="1004"
    cap-height="1356"
    bbox="-274 -522 2806 1837"
    underline-thickness="184"
    underline-position="-192"
    unicode-range="U+000D-FF19"
  />
<missing-glyph horiz-adv-x="1722" 
d="M164 672q0 142 55 270.5t148 221.5t222 147.5t271 54.5t271 -54.5t222 -147.5t148 -221.5t55 -270.5t-55.5 -270t-149 -220.5t-222.5 -147t-271 -54.5t-270.5 54.5t-221.5 147t-147.5 220.5t-54.5 270zM262 672q0 -122 47 -233.5t126.5 -191.5t190 -127.5t232.5 -47.5
t233 47.5t191 127.5t127 191.5t47 233.5t-47 233.5t-126.5 192.5t-190 128.5t-232.5 47.5t-233 -47.5t-191 -128.5t-127 -192.5t-47 -233.5zM1051 295l-189 188l-188 -188q-25 -25 -43 -25q-21 0 -43 25l-105 106q-22 22 -22 39q0 22 24 43l189 189l-189 188q-26 23 -26 45
q0 17 22 39l105 107q19 22 43 22q21 0 45 -24l188 -189l189 189q26 26 45 26q17 0 39 -22l106 -105q23 -20 23 -45q0 -21 -25 -43l-188 -188l188 -189q25 -29 25 -43q0 -21 -25 -43l-106 -104q-23 -23 -39 -23q-18 0 -43 25z" />
    <glyph glyph-name="fi" unicode="fi" horiz-adv-x="1179" 
d="M963 1178h-371q-77 0 -114.5 -36.5t-37.5 -101.5v-47h496q54 0 86.5 -32.5t32.5 -86.5v-763q0 -54 -34.5 -87.5t-88.5 -33.5t-88.5 33.5t-34.5 87.5v675h-369v-675q0 -54 -34.5 -87.5t-88.5 -33.5t-88 33.5t-34 87.5v675h-50q-47 0 -74.5 28.5t-27.5 74.5t27.5 75
t74.5 29h50v33q0 178 93.5 269t274.5 91h400q46 0 74 -29.5t28 -76.5q0 -46 -28 -74t-74 -28z" />
    <glyph glyph-name="fl" unicode="fl" horiz-adv-x="1183" 
d="M43 891q0 46 27.5 74t74.5 28h50v33q0 178 93.5 269t274.5 91h371q54 0 87.5 -33t33.5 -87v-1155q0 -54 -34.5 -87.5t-88.5 -33.5t-88.5 33.5t-34.5 87.5v1067h-217q-77 0 -114.5 -36.5t-37.5 -101.5v-47h117q46 0 74 -28t28 -74q0 -47 -28 -76t-74 -29h-117v-675
q0 -54 -34.5 -87.5t-88.5 -33.5t-88 33.5t-34 87.5v675h-50q-47 0 -74.5 28.5t-27.5 76.5z" />
    <glyph glyph-name=".notdef" horiz-adv-x="1722" 
d="M164 672q0 142 55 270.5t148 221.5t222 147.5t271 54.5t271 -54.5t222 -147.5t148 -221.5t55 -270.5t-55.5 -270t-149 -220.5t-222.5 -147t-271 -54.5t-270.5 54.5t-221.5 147t-147.5 220.5t-54.5 270zM262 672q0 -122 47 -233.5t126.5 -191.5t190 -127.5t232.5 -47.5
t233 47.5t191 127.5t127 191.5t47 233.5t-47 233.5t-126.5 192.5t-190 128.5t-232.5 47.5t-233 -47.5t-191 -128.5t-127 -192.5t-47 -233.5zM1051 295l-189 188l-188 -188q-25 -25 -43 -25q-21 0 -43 25l-105 106q-22 22 -22 39q0 22 24 43l189 189l-189 188q-26 23 -26 45
q0 17 22 39l105 107q19 22 43 22q21 0 45 -24l188 -189l189 189q26 26 45 26q17 0 39 -22l106 -105q23 -20 23 -45q0 -21 -25 -43l-188 -188l188 -189q25 -29 25 -43q0 -21 -25 -43l-106 -104q-23 -23 -39 -23q-18 0 -43 25z" />
    <glyph glyph-name=".null" horiz-adv-x="0" 
 />
    <glyph glyph-name="nonmarkingreturn" horiz-adv-x="682" 
 />
    <glyph glyph-name="NULL" horiz-adv-x="0" 
 />
    <glyph glyph-name="NULL" horiz-adv-x="0" 
 />
    <glyph glyph-name="CR" unicode="&#xd;" horiz-adv-x="0" 
 />
    <glyph glyph-name="space" unicode=" " horiz-adv-x="403" 
 />
    <glyph glyph-name="exclam" unicode="!" horiz-adv-x="522" 
d="M387 1004l-45 -558q-3 -33 -25.5 -53t-56.5 -20q-33 0 -55 20t-25 53l-47 558v227q0 57 35 91t92 34t92 -34t35 -91v-227zM117 123q0 61 41.5 103t101.5 42q62 0 104 -42t42 -103q0 -60 -42.5 -101.5t-103.5 -41.5q-60 0 -101.5 41.5t-41.5 101.5z" />
    <glyph glyph-name="quotedbl" unicode="&#x22;" horiz-adv-x="784" 
d="M559 864q-35 0 -59.5 21.5t-28.5 56.5q-27 199 -27 262v39q0 51 32 82t83 31q53 0 85 -31t32 -82v-39q0 -63 -27 -262q-6 -35 -30.5 -56.5t-59.5 -21.5zM223 864q-35 0 -59.5 21.5t-28.5 56.5q-29 214 -29 262v39q0 51 33 82t84 31t84 -31t33 -82v-39q0 -63 -27 -262
q-6 -35 -30.5 -56.5t-59.5 -21.5z" />
    <glyph glyph-name="numbersign" unicode="#" horiz-adv-x="1351" 
d="M924 342l-54 -279q-5 -32 -29 -52.5t-59 -20.5q-44 0 -69 30t-17 74l45 248h-254l-53 -279q-5 -32 -29 -52.5t-59 -20.5q-44 0 -69 30t-17 74l45 248h-155q-35 0 -55.5 22t-20.5 58q0 34 20.5 56t55.5 22h186l63 346h-188q-35 0 -55.5 22t-20.5 56q0 35 20.5 57.5
t55.5 22.5h217l53 278q5 33 29 53.5t59 20.5q44 0 69 -30.5t17 -74.5l-45 -247h254l54 278q5 33 29 53.5t59 20.5q44 0 69 -30.5t17 -74.5l-45 -247h157q34 0 55 -22t21 -56q0 -35 -21 -57.5t-55 -22.5h-188l-64 -346h191q34 0 55 -21t21 -55q0 -36 -21.5 -59t-54.5 -23
h-219zM580 846l-64 -346h256l64 346h-256z" />
    <glyph glyph-name="dollar" unicode="$" horiz-adv-x="1052" 
d="M809 924q-44 0 -76 26t-43 68q-16 63 -59 100t-111 37q-78 0 -121 -41.5t-43 -107.5q0 -45 24.5 -86t82.5 -64l178 -70q56 -22 96 -41.5t87.5 -53.5t77 -73t49.5 -98t20 -131q0 -164 -97 -272.5t-262 -130.5v-127q0 -40 -25.5 -65t-66.5 -25q-40 0 -67 25.5t-27 64.5v131
q-134 22 -222.5 100t-111.5 193q-12 63 23 109t94 46q44 0 78.5 -28t44.5 -74q18 -72 64.5 -107.5t129.5 -35.5q93 0 144 46.5t51 122.5q0 125 -127 175l-193 75q-292 116 -292 375q0 138 84.5 241t232.5 130v129q0 39 27 64.5t67 25.5q41 0 66.5 -25t25.5 -65v-129
q113 -11 212 -100t108 -211q3 -52 -33.5 -87.5t-89.5 -35.5z" />
    <glyph glyph-name="percent" unicode="%" horiz-adv-x="1314" 
d="M590 1126v-215q0 -106 -67 -172.5t-185 -66.5t-185 66.5t-67 172.5v215q0 106 67 173t185 67t185 -67t67 -173zM743 672l-358 -643q-22 -39 -70 -39q-35 0 -58.5 24t-23.5 58q0 19 11 41l329 563l357 641q19 39 71 39q34 0 58 -24t24 -58q0 -17 -12 -41zM254 1122v-207
q0 -42 22 -68t62 -26t62 26t22 68v207q0 43 -22 69t-62 26t-62 -26t-22 -69zM1229 434v-215q0 -105 -67.5 -172t-184.5 -67q-118 0 -185 66.5t-67 172.5v215q0 106 67 173t185 67q117 0 184.5 -67t67.5 -173zM891 430v-207q0 -42 23 -68t63 -26q39 0 61.5 26t22.5 68v207
q0 42 -22.5 68t-61.5 26q-40 0 -63 -26t-23 -68z" />
    <glyph glyph-name="ampersand" unicode="&#x26;" horiz-adv-x="1206" 
d="M1149 690q0 -42 -27 -69t-69 -27h-47v-203q0 -183 -123.5 -297t-327.5 -114q-212 0 -337.5 105.5t-125.5 285.5q0 121 56.5 204.5t158.5 126.5q-82 41 -128 115t-46 176q0 166 113.5 269.5t302.5 103.5q155 0 259.5 -77t139.5 -206q14 -56 -18.5 -104.5t-98.5 -48.5
q-41 0 -70.5 25t-43.5 65q-22 62 -59 94.5t-101 32.5q-80 0 -125 -44.5t-45 -127.5q0 -184 205 -184h461q42 0 69 -29t27 -72zM563 193q95 0 149 53.5t54 144.5v203h-176q-118 0 -179 -53t-61 -148q0 -98 54.5 -149t158.5 -51z" />
    <glyph glyph-name="quotesingle" unicode="'" horiz-adv-x="456" 
d="M227 864q-37 0 -62.5 21.5t-29.5 56.5q-29 214 -29 262v39q0 51 34 82t87 31t87 -31t34 -82v-39q0 -70 -26 -262q-6 -35 -32 -56.5t-63 -21.5z" />
    <glyph glyph-name="parenleft" unicode="(" horiz-adv-x="651" 
d="M121 201v938q0 177 87 285.5t251 134.5q52 8 92.5 -24.5t40.5 -88.5q0 -41 -22 -72.5t-58 -40.5q-137 -37 -137 -182v-963q0 -145 137 -182q36 -9 58 -40.5t22 -71.5q0 -55 -41 -88t-92 -25q-164 28 -251 135.5t-87 284.5z" />
    <glyph glyph-name="parenright" unicode=")" horiz-adv-x="651" 
d="M530 1139v-938q0 -177 -86.5 -284.5t-250.5 -135.5q-51 -8 -92.5 25t-41.5 88q0 40 22 71.5t58 40.5q137 37 137 182v963q0 145 -137 182q-36 9 -58 40.5t-22 72.5q0 56 40.5 88.5t93.5 24.5q164 -26 250.5 -134.5t86.5 -285.5z" />
    <glyph glyph-name="asterisk" unicode="*" horiz-adv-x="802" 
d="M479 1282q0 -51 -53 -207q35 41 83 88.5t69 61.5q32 20 61.5 12.5t48.5 -39.5t10 -61.5t-43 -49.5q-46 -26 -206 -57q160 -31 206 -57q34 -19 43 -49t-10 -62t-48.5 -39t-61.5 13q-22 13 -68.5 60t-81.5 89q51 -156 51 -205q0 -39 -20 -60.5t-58 -21.5t-57.5 21.5
t-19.5 60.5q0 24 17 89t34 116q-110 -126 -152 -149q-32 -21 -60.5 -14t-47.5 40q-20 32 -12 61t42 48q21 12 87 30t120 29q-164 32 -207 60q-70 42 -32 108q42 70 110 27q23 -14 69.5 -62t82.5 -90q-51 167 -51 209q0 39 19.5 60.5t57.5 21.5t58 -21.5t20 -60.5z" />
    <glyph glyph-name="plus" unicode="+" horiz-adv-x="997" 
d="M621 961v-181h196q49 0 78 -31t29 -81q0 -48 -29 -78.5t-78 -30.5h-196v-182q0 -54 -33.5 -87.5t-87.5 -33.5t-88.5 33.5t-34.5 87.5v182h-197q-49 0 -77.5 30.5t-28.5 78.5q0 50 28.5 81t77.5 31h197v181q0 54 33 87t86 33q55 0 90 -33.5t35 -86.5z" />
    <glyph glyph-name="comma" unicode="," horiz-adv-x="493" 
d="M352 88l-131 -246q-27 -53 -76 -53q-42 0 -63 30t-8 81l63 270q11 45 40.5 71.5t74.5 26.5q73 0 104.5 -55.5t-4.5 -124.5z" />
    <glyph glyph-name="hyphen" unicode="-" horiz-adv-x="729" 
d="M109 530q0 50 29.5 80.5t78.5 30.5h297q47 0 77 -31t30 -80t-29.5 -78.5t-77.5 -29.5h-297q-49 0 -78.5 29t-29.5 79z" />
    <glyph glyph-name="period" unicode="." horiz-adv-x="479" 
d="M96 123q0 61 42 103t102 42t102.5 -42t42.5 -103q0 -60 -42.5 -101.5t-102.5 -41.5t-102 41.5t-42 101.5z" />
    <glyph glyph-name="slash" unicode="/" horiz-adv-x="948" 
d="M850 1430l-537 -1590q-11 -35 -40 -56.5t-68 -21.5q-46 0 -79.5 33t-33.5 80q0 21 8 41l535 1589q11 34 40.5 56t67.5 22q47 0 80 -33t33 -80q0 -16 -6 -40z" />
    <glyph glyph-name="zero" unicode="0" horiz-adv-x="1126" 
d="M1010 936v-526q0 -197 -123 -313.5t-324 -116.5q-200 0 -322 116.5t-122 313.5v526q0 200 116 315t328 115q201 0 324 -116.5t123 -313.5zM373 932v-518q0 -94 50.5 -149.5t139.5 -55.5q90 0 140.5 55.5t50.5 149.5v518q0 94 -50.5 149.5t-140.5 55.5q-89 0 -139.5 -55.5
t-50.5 -149.5z" />
    <glyph glyph-name="one" unicode="1" horiz-adv-x="878" 
d="M86 1231q0 51 31 83t80 32h276q51 0 81 -30t30 -81v-1012h143q45 0 74.5 -32t29.5 -80t-29.5 -79.5t-74.5 -31.5h-534q-47 0 -77 31.5t-30 79.5q0 49 30 80.5t77 31.5h137v895h-133q-49 0 -80 31.5t-31 81.5z" />
    <glyph glyph-name="two" unicode="2" horiz-adv-x="1083" 
d="M889 233q50 0 81 -33t31 -85q0 -51 -30.5 -83t-81.5 -32h-696q-44 0 -71.5 27t-27.5 71v11q0 155 47.5 265t182.5 199l237 158q156 103 156 248q0 73 -47 115.5t-135 42.5q-83 0 -127.5 -36.5t-67.5 -109.5q-15 -46 -42.5 -65t-76.5 -19q-54 0 -88 36t-29 87
q12 149 139.5 242.5t301.5 93.5q198 0 317 -102t119 -273q0 -140 -63 -241.5t-189 -184.5l-240 -159q-102 -67 -112 -173h512z" />
    <glyph glyph-name="three" unicode="3" horiz-adv-x="1077" 
d="M389 690q0 41 29 71t67 30h29q98 0 142 44t44 132q0 80 -46.5 125t-129.5 45q-71 0 -110.5 -32.5t-65.5 -94.5q-39 -90 -117 -90q-53 0 -86.5 35t-33.5 87q0 34 8 58q41 121 149 193.5t262 72.5q194 0 309 -103t115 -268q0 -205 -151 -295q83 -41 129.5 -123.5
t46.5 -201.5q0 -180 -123.5 -287.5t-327.5 -107.5q-181 0 -293 87t-139 236q-11 67 26.5 108.5t92.5 41.5q93 0 121 -99q22 -76 65 -114.5t123 -38.5q93 0 143 52t50 148q0 93 -51.5 142t-151.5 49h-29q-38 0 -67 29t-29 69z" />
    <glyph glyph-name="four" unicode="4" horiz-adv-x="1142" 
d="M762 1364q75 0 120.5 -42.5t45.5 -102.5v-717h51q47 0 75.5 -31.5t28.5 -79.5q0 -46 -28.5 -75t-75.5 -29h-51v-172q0 -57 -34 -91t-91 -34t-92 34t-35 91v172h-496q-57 0 -95 35t-38 92q0 56 18 99t54 95l434 633q27 38 48.5 60.5t64 42.5t96.5 20zM297 502h379v549z
" />
    <glyph glyph-name="five" unicode="5" horiz-adv-x="1069" 
d="M934 1233q0 -49 -30.5 -80t-78.5 -31h-458v-342q84 70 225 70q179 0 287 -113.5t108 -310.5q0 -208 -122 -327t-324 -119q-153 0 -263.5 62.5t-150.5 170.5q-23 65 7 116.5t102 51.5q67 0 106 -72q20 -36 37.5 -56.5t56.5 -38t94 -17.5q94 0 144.5 59t50.5 164
q0 103 -45 163t-139 60q-52 0 -84 -11t-82 -40q-56 -29 -109 -29q-57 0 -94 36t-37 93v531q0 55 33.5 89t89.5 34h567q47 0 78 -32t31 -81z" />
    <glyph glyph-name="six" unicode="6" horiz-adv-x="1099" 
d="M1008 401q0 -200 -122 -310.5t-325 -110.5q-201 0 -322.5 114t-121.5 320v510q0 205 119 323.5t331 118.5q158 0 263 -66.5t145 -189.5q18 -55 -16 -108.5t-97 -53.5q-81 0 -112 78q-46 119 -179 119q-95 0 -146.5 -52.5t-51.5 -146.5v-209q100 78 237 78
q183 0 290.5 -111t107.5 -303zM563 606q-112 0 -190 -82v-108q0 -108 48.5 -164.5t137.5 -56.5q90 0 138 52.5t48 145.5q0 96 -45.5 154.5t-136.5 58.5z" />
    <glyph glyph-name="seven" unicode="7" horiz-adv-x="948" 
d="M864 1079l-389 -1001q-14 -40 -46.5 -64t-76.5 -24q-71 0 -106 53t-10 117l376 962h-450q-49 0 -79 30.5t-30 80.5t30 81.5t79 31.5h618q57 0 89 -29t32 -80q0 -65 -37 -158z" />
    <glyph glyph-name="eight" unicode="8" horiz-adv-x="1085" 
d="M963 991q0 -106 -42 -180t-114 -113q84 -37 133 -118t49 -203q0 -180 -122 -288.5t-324 -108.5q-201 0 -323 108.5t-122 288.5q0 122 48.5 202t132.5 117q-158 86 -158 295q0 167 115 271t307 104t306 -104t114 -271zM373 973q0 -90 42 -139.5t128 -49.5q168 0 168 189
q0 83 -44 128.5t-124 45.5q-83 0 -126.5 -45t-43.5 -129zM356 391q0 -97 49 -149t138 -52q90 0 138 52t48 149t-47 150t-139 53q-93 0 -140 -53t-47 -150z" />
    <glyph glyph-name="nine" unicode="9" horiz-adv-x="1097" 
d="M537 739q112 0 190 82v76q0 124 -49 189t-139 65t-137.5 -52.5t-47.5 -146.5q0 -96 45.5 -154.5t137.5 -58.5zM92 944q0 199 123 310.5t322 111.5q203 0 323.5 -120.5t120.5 -344.5v-479q0 -205 -119 -323.5t-330 -118.5q-157 0 -262.5 66.5t-142.5 189.5q-18 59 14 110
t99 51q78 0 110 -78q49 -118 178 -118q95 0 147 52.5t52 147.5v205q-101 -76 -238 -76q-183 0 -290 111.5t-107 302.5z" />
    <glyph glyph-name="colon" unicode=":" horiz-adv-x="524" 
d="M117 879q0 60 42.5 102.5t102.5 42.5t102 -42.5t42 -102.5t-42 -102t-102 -42t-102.5 42t-42.5 102zM117 123q0 61 42.5 103t102.5 42t102 -42t42 -103q0 -60 -42 -101.5t-102 -41.5t-102.5 41.5t-42.5 101.5z" />
    <glyph glyph-name="semicolon" unicode=";" horiz-adv-x="544" 
d="M139 879q0 60 42.5 102.5t103.5 42.5q60 0 101.5 -42.5t41.5 -102.5t-41.5 -102t-101.5 -42q-61 0 -103.5 42t-42.5 102zM371 88l-133 -246q-24 -53 -76 -53q-40 0 -62 30.5t-10 80.5l66 270q11 46 40 72t74 26q73 0 105 -56t-4 -124z" />
    <glyph glyph-name="less" unicode="&#x3c;" horiz-adv-x="1007" 
d="M752 295l-570 221q-52 21 -81 59.5t-29 90.5t29 91t81 60l570 221q18 6 39 6q44 0 74 -30t30 -74q0 -70 -76 -98l-461 -168l461 -170q34 -13 55 -40t21 -65q0 -47 -30 -79.5t-74 -32.5q-15 0 -39 8z" />
    <glyph glyph-name="equal" unicode="=" horiz-adv-x="1064" 
d="M115 911q0 50 29.5 80.5t78.5 30.5h621q47 0 76.5 -31.5t29.5 -81.5q0 -47 -29.5 -76.5t-76.5 -29.5h-621q-49 0 -78.5 29.5t-29.5 78.5zM115 434q0 50 29.5 81.5t78.5 31.5h621q47 0 76.5 -31.5t29.5 -81.5q0 -49 -29 -77.5t-77 -28.5h-621q-50 0 -79 28.5t-29 77.5z
" />
    <glyph glyph-name="greater" unicode="&#x3e;" horiz-adv-x="1007" 
d="M256 1036l569 -221q52 -21 81.5 -59.5t29.5 -89.5q0 -52 -29.5 -91.5t-81.5 -60.5l-569 -221q-18 -6 -39 -6q-44 0 -74 30t-30 74q0 70 75 98l461 168l-461 170q-75 28 -75 105q0 47 30 79.5t74 32.5q15 0 39 -8z" />
    <glyph glyph-name="question" unicode="?" horiz-adv-x="1011" 
d="M494 371q-45 0 -79 32.5t-36 75.5q-1 28 3 54.5t9.5 46.5t19 43.5t22.5 37.5t30.5 37t32.5 34t37.5 36.5t37.5 36.5q35 33 53.5 54.5t35 55t16.5 68.5q0 70 -45.5 112t-128.5 42q-77 0 -124.5 -38.5t-55.5 -105.5q-6 -45 -40.5 -74.5t-80.5 -29.5q-51 0 -86 34.5
t-35 88.5q0 154 123 254t305 100q195 0 312.5 -102t117.5 -271q0 -162 -158 -309q-9 -8 -33.5 -31.5t-34 -32.5t-28.5 -28.5t-27.5 -32t-20.5 -31t-19 -36t-11 -37.5q-9 -37 -40.5 -60.5t-71.5 -23.5zM352 121q0 59 41 100t99 41q60 0 100.5 -41t40.5 -100
q0 -60 -40.5 -100.5t-100.5 -40.5q-59 0 -99.5 40.5t-40.5 100.5z" />
    <glyph glyph-name="at" unicode="@" horiz-adv-x="1638" 
d="M1169 764l-79 -445q-17 -90 12.5 -127.5t103.5 -37.5q142 0 142 204v297q0 200 -141.5 320.5t-379.5 120.5q-240 0 -380 -120t-140 -321v-362q0 -201 140 -320.5t380 -119.5h107q41 0 65.5 -26.5t24.5 -68.5t-24.5 -68t-65.5 -26h-107q-331 0 -528 177.5t-197 475.5v314
q0 304 187 478.5t538 174.5q330 0 526.5 -177.5t196.5 -475.5v-248q0 -108 -30.5 -189t-82.5 -126t-112.5 -66.5t-128.5 -21.5q-127 0 -210 52t-97 156q-37 -48 -89.5 -78t-111.5 -30q-129 0 -186.5 89t-30.5 228l33 172q28 148 95 222.5t183 74.5q68 0 118.5 -28.5
t74.5 -75.5l16 43q21 55 88 55q43 0 70 -26t20 -70zM768 244q50 0 84 36t45 95l35 190q11 58 -18.5 94.5t-88.5 36.5q-48 0 -77.5 -36t-40.5 -97l-33 -186q-11 -61 12.5 -97t81.5 -36z" />
    <glyph glyph-name="A" unicode="A" horiz-adv-x="1138" 
d="M1075 164q6 -27 6 -45q0 -56 -32 -92.5t-86 -36.5q-48 0 -80.5 26.5t-46.5 71.5l-54 180h-442l-53 -184q-11 -41 -44 -67.5t-79 -26.5q-53 0 -82 34.5t-29 86.5q0 15 6 39l342 1075q19 61 63 96t105 35t105 -35t65 -96zM561 1030l-160 -547h322z" />
    <glyph glyph-name="B" unicode="B" horiz-adv-x="1173" 
d="M150 125v1096q0 57 33.5 91t90.5 34h365q187 0 304.5 -97.5t117.5 -257.5q0 -217 -195 -297v-2q110 -37 169 -118.5t59 -200.5q0 -170 -116.5 -271.5t-303.5 -101.5h-400q-57 0 -90.5 34t-33.5 91zM606 1139h-203v-348h205q90 0 141.5 46.5t51.5 131.5q0 81 -52.5 125.5
t-142.5 44.5zM633 580h-230v-373h228q95 0 147.5 49.5t52.5 136.5q0 84 -53.5 135.5t-144.5 51.5z" />
    <glyph glyph-name="C" unicode="C" horiz-adv-x="1134" 
d="M911 479q60 0 96 -45.5t25 -107.5q-28 -161 -149.5 -253.5t-300.5 -92.5q-211 0 -340 121.5t-129 326.5v490q0 209 123.5 328.5t347.5 119.5q179 0 299 -91.5t149 -248.5q11 -61 -23.5 -107.5t-99.5 -46.5q-95 0 -118 93q-21 86 -71.5 129t-139.5 43q-98 0 -154.5 -61
t-56.5 -163v-481q0 -102 56.5 -162.5t154.5 -60.5q90 0 141 43t72 129q24 98 118 98z" />
    <glyph glyph-name="D" unicode="D" horiz-adv-x="1210" 
d="M614 1346q228 0 357 -123t129 -336v-428q0 -213 -129 -336t-357 -123h-340q-57 0 -90.5 34t-33.5 91v1096q0 57 33.5 91t90.5 34h340zM614 1116h-208v-887h208q109 0 169.5 63t60.5 171v420q0 108 -60.5 170.5t-169.5 62.5z" />
    <glyph glyph-name="E" unicode="E" horiz-adv-x="1075" 
d="M809 571h-403v-342h479q50 0 81 -32t31 -82q0 -51 -30.5 -83t-81.5 -32h-611q-57 0 -90.5 34t-33.5 91v1096q0 57 33.5 91t90.5 34h592q50 0 81.5 -31t31.5 -82t-32 -84t-81 -33h-460v-319h403q51 0 81 -32t30 -83t-30 -81t-81 -30z" />
    <glyph glyph-name="F" unicode="F" horiz-adv-x="1040" 
d="M807 535h-401v-420q0 -56 -36 -90.5t-94 -34.5q-57 0 -91.5 34t-34.5 91v1106q0 57 33.5 91t90.5 34h592q49 0 81 -33t32 -84q0 -49 -31.5 -81t-81.5 -32h-460v-354h401q50 0 81.5 -32.5t31.5 -82.5q0 -51 -31 -81.5t-82 -30.5z" />
    <glyph glyph-name="G" unicode="G" horiz-adv-x="1142" 
d="M598 586q0 43 26.5 70.5t69.5 27.5h250q44 0 71 -28t27 -72v-162q0 -203 -125.5 -322.5t-332.5 -119.5q-211 0 -341 121.5t-130 326.5v490q0 208 126.5 328t348.5 120q180 0 299 -89.5t147 -244.5q10 -59 -21.5 -102t-94.5 -43q-45 0 -77 22.5t-42 61.5q-22 85 -73 125.5
t-140 40.5q-102 0 -159.5 -61t-57.5 -163v-481q0 -102 57 -162.5t156 -60.5q106 0 164.5 58.5t58.5 156.5v59h-111q-42 0 -69 29t-27 74z" />
    <glyph glyph-name="H" unicode="H" horiz-adv-x="1226" 
d="M1077 1231v-1116q0 -57 -36 -91t-93 -34t-92 34t-35 91v454h-415v-454q0 -56 -37 -90.5t-95 -34.5q-57 0 -90.5 34t-33.5 91v1116q0 57 34.5 91t91.5 34q58 0 94 -34.5t36 -90.5v-432h415v432q0 57 35 91t92 34q56 0 92.5 -34.5t36.5 -90.5z" />
    <glyph glyph-name="I" unicode="I" horiz-adv-x="555" 
d="M406 1231v-1116q0 -56 -36 -90.5t-94 -34.5q-57 0 -91.5 34t-34.5 91v1116q0 57 34.5 91t91.5 34q59 0 94.5 -34t35.5 -91z" />
    <glyph glyph-name="J" unicode="J" horiz-adv-x="1021" 
d="M160 487q111 0 129 -120q11 -73 54 -115.5t114 -42.5q81 0 124.5 48.5t43.5 133.5v840q0 57 35 91t92 34t93 -34t36 -91v-844q0 -187 -116.5 -297t-307.5 -110q-183 0 -296.5 101t-123.5 275q-3 53 32.5 92t90.5 39z" />
    <glyph glyph-name="K" unicode="K" horiz-adv-x="1138" 
d="M1024 1174l-270 -394l313 -606q12 -27 12 -55q0 -54 -37.5 -91.5t-91.5 -37.5q-41 0 -73.5 24t-49.5 58l-243 489l-178 -250v-196q0 -56 -36 -90.5t-94 -34.5q-57 0 -91.5 34t-34.5 91v1116q0 57 33.5 91t90.5 34q58 0 95 -34.5t37 -90.5v-533l411 602q37 56 103 56
q51 0 85.5 -35t34.5 -86q0 -35 -16 -61z" />
    <glyph glyph-name="L" unicode="L" horiz-adv-x="960" 
d="M406 1231v-1002h423q51 0 82 -32t31 -82q0 -51 -31 -83t-82 -32h-553q-57 0 -91.5 34t-34.5 91v1106q0 57 34.5 91t91.5 34q58 0 94 -34.5t36 -90.5z" />
    <glyph glyph-name="M" unicode="M" horiz-adv-x="1376" 
d="M412 1272l278 -512l275 512q25 42 56.5 63t80.5 21q56 0 90.5 -34t34.5 -91v-1122q0 -53 -36.5 -86t-90.5 -33t-87.5 32.5t-33.5 86.5v729l-184 -342q-39 -66 -109 -66q-71 0 -111 64l-188 350v-742q0 -50 -34 -81t-85 -31q-52 0 -85 31t-33 81v1129q0 57 33 91t89 34
q94 0 140 -84z" />
    <glyph glyph-name="N" unicode="N" horiz-adv-x="1218" 
d="M1069 1243v-1128q0 -57 -33.5 -91t-89.5 -34q-81 0 -123 73l-440 787v-748q0 -50 -32.5 -81t-84.5 -31q-51 0 -83.5 30.5t-32.5 81.5v1129q0 57 36 91t93 34q45 0 76 -19t55 -65l426 -756v727q0 51 31.5 82t82.5 31q52 0 85.5 -31.5t33.5 -81.5z" />
    <glyph glyph-name="O" unicode="O" horiz-adv-x="1173" 
d="M1061 918v-490q0 -205 -130 -326.5t-343 -121.5q-214 0 -344.5 121.5t-130.5 326.5v490q0 209 124 328.5t351 119.5q213 0 343 -121.5t130 -326.5zM369 913v-481q0 -102 58 -162.5t161 -60.5q102 0 159.5 60.5t57.5 162.5v481q0 102 -57.5 163t-159.5 61
q-103 0 -161 -60.5t-58 -163.5z" />
    <glyph glyph-name="P" unicode="P" horiz-adv-x="1142" 
d="M150 115v1106q0 57 33.5 91t90.5 34h344q203 0 334 -121t131 -316q0 -204 -130.5 -327t-334.5 -123h-212v-344q0 -56 -36 -90.5t-94 -34.5q-57 0 -91.5 34t-34.5 91zM596 1122h-190v-440h190q105 0 166 59.5t61 161.5q0 100 -61 159.5t-166 59.5z" />
    <glyph glyph-name="Q" unicode="Q" horiz-adv-x="1175" 
d="M983 -123q16 -21 16 -63q0 -53 -36.5 -90t-90.5 -37q-68 0 -108 63l-152 232q-6 -2 -24 -2q-214 0 -344.5 121.5t-130.5 326.5v490q0 209 124 328.5t351 119.5q213 0 343 -121.5t130 -326.5v-490q0 -126 -52.5 -223.5t-146.5 -153.5zM369 913v-481q0 -102 58 -162.5
t161 -60.5q102 0 159.5 60.5t57.5 162.5v481q0 102 -57.5 163t-159.5 61q-103 0 -161 -60.5t-58 -163.5z" />
    <glyph glyph-name="R" unicode="R" horiz-adv-x="1175" 
d="M870 553l174 -393q9 -22 9 -41q0 -53 -39 -91t-92 -38q-39 0 -71.5 23t-47.5 59l-185 422h-212v-379q0 -56 -36 -90.5t-94 -34.5q-57 0 -91.5 34t-34.5 91v1106q0 57 33.5 91t90.5 34h349q202 0 331 -115.5t129 -302.5q0 -128 -56.5 -224.5t-156.5 -150.5zM596 1122h-190
v-405h190q105 0 166 55.5t61 149.5q0 92 -61 146t-166 54z" />
    <glyph glyph-name="S" unicode="S" horiz-adv-x="1091" 
d="M858 920q-43 0 -74 23t-45 61q-58 151 -198 151q-87 0 -137 -41.5t-50 -107.5q0 -46 29.5 -87t97.5 -65l191 -70q48 -18 84 -33.5t78 -40t71 -53.5t54.5 -67t38 -88.5t12.5 -110.5q0 -184 -127 -297.5t-336 -113.5q-180 0 -302 79t-159 220q-16 62 18 111.5t103 49.5
q81 0 115 -98q25 -73 75 -111t144 -38q103 0 161 47t58 122q0 121 -148 177l-204 77q-148 57 -225 145.5t-77 225.5q0 160 119 269.5t316 109.5q166 0 280.5 -76.5t149.5 -210.5q17 -62 -16 -110.5t-97 -48.5z" />
    <glyph glyph-name="T" unicode="T" horiz-adv-x="974" 
d="M27 1231q0 51 31 83t81 32h695q50 0 81 -32.5t31 -84.5q0 -50 -30.5 -81.5t-81.5 -31.5h-220v-1001q0 -57 -35 -91t-92 -34t-92 34t-35 91v1001h-221q-49 0 -80.5 32.5t-31.5 82.5z" />
    <glyph glyph-name="U" unicode="U" horiz-adv-x="1204" 
d="M936 1356q56 0 91.5 -34.5t35.5 -90.5v-803q0 -205 -127 -326.5t-334 -121.5t-334 121.5t-127 326.5v803q0 57 35 91t92 34t92 -34t35 -91v-799q0 -102 55 -162.5t152 -60.5q96 0 151.5 60.5t55.5 162.5v799q0 57 35 91t92 34z" />
    <glyph glyph-name="V" unicode="V" horiz-adv-x="1079" 
d="M1022 1194l-313 -1073q-17 -59 -63 -95t-107 -36t-105.5 36t-62.5 95l-310 1059q-8 27 -8 45q0 55 37.5 93t91.5 38q46 0 81 -28t44 -71l240 -890l239 893q11 42 43 69t74 27q53 0 89 -36t36 -89q0 -13 -6 -37z" />
    <glyph glyph-name="W" unicode="W" horiz-adv-x="1488" 
d="M1427 1214l-249 -1110q-12 -53 -50 -83.5t-90 -30.5q-54 0 -92 31t-47 83l-156 807l-153 -807q-9 -52 -46.5 -83t-90.5 -31t-91.5 31t-48.5 83l-250 1104q-2 6 -2 25q0 53 35.5 88t87.5 35q46 0 79.5 -29.5t41.5 -75.5l158 -821l151 803q9 52 46 83.5t90 31.5
q54 0 91 -31t46 -84l149 -795l160 822q9 43 41 69.5t76 26.5q50 0 83.5 -34t33.5 -85q0 -11 -3 -23z" />
    <glyph glyph-name="X" unicode="X" horiz-adv-x="1062" 
d="M303 1292l236 -399l239 399q40 64 103 64q46 0 80 -33t34 -78q0 -36 -16 -57l-301 -479l323 -537q17 -30 17 -61q0 -51 -35 -86t-86 -35q-70 0 -113 67l-262 447l-264 -451q-34 -63 -100 -63q-47 0 -81 32t-34 78q0 33 14 58l324 534l-291 482q-16 28 -16 61q0 51 35 86
t86 35q70 0 108 -64z" />
    <glyph glyph-name="Y" unicode="Y" horiz-adv-x="1040" 
d="M977 1188l-330 -645v-428q0 -57 -35 -91t-92 -34t-92 34t-35 91v424l-325 641q-13 26 -13 53q0 51 35.5 87t85.5 36q36 0 65 -18.5t44 -49.5l241 -502l244 508q13 29 41.5 45.5t62.5 16.5q47 0 81 -34.5t34 -80.5q4 -25 -12 -53z" />
    <glyph glyph-name="Z" unicode="Z" horiz-adv-x="980" 
d="M805 1346q42 0 72 -23.5t30 -67.5q0 -15 -3.5 -31.5t-11.5 -35t-13 -29t-14.5 -28.5t-10.5 -19l-471 -887h428q51 0 81 -30.5t30 -81.5t-30 -82t-81 -31h-651q-42 0 -69.5 22.5t-27.5 67.5q0 50 48 143l471 887h-396q-50 0 -80 31t-30 82t30 82t80 31h619z" />
    <glyph glyph-name="bracketleft" unicode="[" horiz-adv-x="673" 
d="M397 1337v-1335h99q49 0 80.5 -32.5t31.5 -82.5q0 -51 -31 -82.5t-81 -31.5h-230q-57 0 -90 33.5t-33 89.5v1548q0 56 33 89.5t90 33.5h230q49 0 80.5 -33t31.5 -84q0 -50 -31.5 -81.5t-80.5 -31.5h-99z" />
    <glyph glyph-name="backslash" unicode="\" horiz-adv-x="956" 
d="M635 -160l-537 1590q-6 24 -6 40q0 47 34 80t81 33q39 0 70 -22t42 -56l535 -1589q8 -16 8 -41q0 -47 -34 -80t-83 -33q-39 0 -69 22t-41 56z" />
    <glyph glyph-name="bracketright" unicode="]" horiz-adv-x="673" 
d="M276 2v1335h-98q-49 0 -80.5 31.5t-31.5 81.5q0 51 31.5 84t80.5 33h230q57 0 89.5 -33.5t32.5 -89.5v-1548q0 -56 -32.5 -89.5t-89.5 -33.5h-230q-50 0 -81 31.5t-31 82.5q0 50 31.5 82.5t80.5 32.5h98z" />
    <glyph glyph-name="asciicircum" unicode="^" horiz-adv-x="948" 
d="M625 717l-160 366l-154 -360q-12 -30 -38 -49t-58 -19q-41 0 -69.5 28t-28.5 69q0 29 8 45l211 467q43 92 137 92q48 0 83.5 -25t55.5 -67l209 -463q8 -16 8 -39q0 -44 -32 -75.5t-76 -31.5q-33 0 -58.5 16.5t-37.5 45.5z" />
    <glyph glyph-name="underscore" unicode="_" horiz-adv-x="1413" 
d="M111 -152q0 39 24 65t62 26h1020q38 0 62 -26t24 -65t-24 -64.5t-62 -25.5h-1020q-38 0 -62 25.5t-24 64.5z" />
    <glyph glyph-name="grave" unicode="`" horiz-adv-x="466" 
d="M375 1270q19 -24 25 -36.5t6 -31.5q0 -31 -22.5 -54.5t-57.5 -23.5q-27 0 -50 19l-176 143q-37 29 -37 76q0 44 30 73t75 29t78 -41z" />
    <glyph glyph-name="a" unicode="a" 
d="M498 195q75 0 120.5 50t45.5 126v260q0 78 -45.5 128t-120.5 50q-74 0 -115 -48t-41 -126v-268q0 -76 41 -124t115 -48zM686 68l-6 26q-83 -114 -244 -114q-164 0 -253 106.5t-89 282.5v266q0 176 89 282.5t253 106.5q158 0 244 -115l6 27q9 38 40.5 58t70.5 20
q52 0 82 -33t30 -88v-784q0 -54 -30 -86.5t-82 -32.5q-40 0 -71.5 19.5t-39.5 58.5z" />
    <glyph glyph-name="b" unicode="b" 
d="M125 109v1159q0 54 34 87.5t91 33.5q54 0 88.5 -33.5t34.5 -87.5v-340q86 96 227 96q164 0 252 -106.5t88 -282.5v-266q0 -176 -88 -282.5t-252 -106.5q-160 0 -246 114l-6 -28q-17 -76 -108 -76q-54 0 -84.5 32.5t-30.5 86.5zM539 195q74 0 114.5 48t40.5 124v268
q0 78 -40.5 126t-114.5 48q-75 0 -120.5 -50t-45.5 -128v-260q0 -76 45.5 -126t120.5 -50z" />
    <glyph glyph-name="c" unicode="c" horiz-adv-x="970" 
d="M776 395q58 0 91 -45t18 -104q-32 -125 -133.5 -195.5t-249.5 -70.5q-188 0 -300 109t-112 294v238q0 185 111 294t301 109q136 0 238.5 -67t138.5 -173q20 -58 -10.5 -108.5t-96.5 -50.5q-43 0 -69 18.5t-46 58.5q-28 59 -64.5 86t-90.5 27q-80 0 -122 -49t-42 -129
v-272q0 -80 42.5 -128.5t125.5 -48.5q118 0 160 125q27 82 110 82z" />
    <glyph glyph-name="d" unicode="d" 
d="M498 195q75 0 120.5 50t45.5 126v260q0 78 -45.5 128t-120.5 50q-74 0 -115 -48t-41 -126v-268q0 -76 41 -124t115 -48zM909 1276v-1167q0 -54 -30 -86.5t-82 -32.5q-41 0 -72 18.5t-39 57.5l-6 28q-83 -114 -244 -114q-164 0 -253 106.5t-89 282.5v266q0 176 89 282.5
t253 106.5q142 0 228 -96v348q0 54 33.5 87.5t88.5 33.5q54 0 88.5 -33.5t34.5 -87.5z" />
    <glyph glyph-name="e" unicode="e" horiz-adv-x="972" 
d="M770 356q55 0 84.5 -43.5t11.5 -105.5q-30 -106 -129.5 -166.5t-236.5 -60.5q-185 0 -297.5 108.5t-112.5 290.5v242q0 183 111.5 293t294.5 110q175 0 283 -110t108 -293v-43q0 -58 -33 -90.5t-88 -32.5h-434v-103q0 -77 46 -125.5t126 -48.5q62 0 100 29.5t66 79.5
q22 38 43 53.5t57 15.5zM332 649v-24h321v24q0 78 -42.5 128t-114.5 50q-76 0 -120 -50t-44 -128z" />
    <glyph glyph-name="f" unicode="f" horiz-adv-x="698" 
d="M39 891q0 46 28 74t74 28h54v33q0 177 94 268.5t268 91.5h18q46 0 75.5 -29t29.5 -75t-29.5 -75t-75.5 -29h-16q-119 0 -119 -138v-47h125q46 0 74.5 -28t28.5 -74t-28.5 -75.5t-74.5 -29.5h-125v-675q0 -54 -34.5 -87.5t-88.5 -33.5t-88 33.5t-34 87.5v675h-54
q-45 0 -73.5 29.5t-28.5 75.5z" />
    <glyph glyph-name="g" unicode="g" 
d="M498 233q75 0 120.5 50.5t45.5 128.5v219q0 78 -45.5 128t-120.5 50q-74 0 -115 -48t-41 -126v-227q0 -78 41 -126.5t115 -48.5zM680 909l6 23q11 41 41.5 61.5t69.5 20.5q52 0 82 -33t30 -88v-926q0 -171 -109.5 -270.5t-293.5 -99.5q-127 0 -223.5 46t-141.5 124
q-18 38 -16.5 76.5t31 68t77.5 29.5q65 0 107 -60q26 -39 62 -61.5t96 -22.5q82 0 124 43t42 119v154q-85 -95 -228 -95q-164 0 -253 107t-89 283v227q0 176 89 282.5t253 106.5q158 0 244 -115z" />
    <glyph glyph-name="h" unicode="h" horiz-adv-x="1058" 
d="M250 -10q-57 0 -91 33.5t-34 87.5v1165q0 54 34.5 87.5t90.5 33.5q54 0 88.5 -33.5t34.5 -87.5v-352q90 100 235 100q163 0 247.5 -102t84.5 -273v-538q0 -54 -34.5 -87.5t-88.5 -33.5q-55 0 -89 33.5t-34 87.5v524q0 78 -40.5 126t-114.5 48q-75 0 -120.5 -50
t-45.5 -128v-520q0 -54 -34.5 -87.5t-88.5 -33.5z" />
    <glyph glyph-name="i" unicode="i" horiz-adv-x="497" 
d="M109 1274q0 59 40.5 99t100.5 40q58 0 98.5 -40.5t40.5 -98.5t-40.5 -98.5t-98.5 -40.5q-60 0 -100.5 40t-40.5 99zM250 1014q54 0 88.5 -34t34.5 -89v-780q0 -54 -34.5 -87.5t-88.5 -33.5q-56 0 -90.5 33.5t-34.5 87.5v780q0 55 34.5 89t90.5 34z" />
    <glyph glyph-name="j" unicode="j" horiz-adv-x="497" 
d="M109 1274q0 58 40.5 98.5t98.5 40.5t98.5 -40.5t40.5 -98.5t-40.5 -98.5t-98.5 -40.5t-98.5 40.5t-40.5 98.5zM-4 -195q129 15 129 144v942q0 55 33.5 89t89.5 34q55 0 90 -34t35 -89v-928q0 -179 -97 -272.5t-266 -93.5q-51 0 -80.5 29t-29.5 77q0 43 25 69.5t71 32.5z
" />
    <glyph glyph-name="k" unicode="k" horiz-adv-x="991" 
d="M821 -10q-35 0 -63 17.5t-43 47.5l-223 377l-119 -119v-202q0 -54 -34.5 -87.5t-88.5 -33.5q-57 0 -91 33.5t-34 87.5v1165q0 54 34.5 87.5t90.5 33.5q55 0 89 -33.5t34 -87.5v-662l352 361q39 39 80 39q43 0 76.5 -32.5t33.5 -80.5q0 -44 -26 -67l-223 -228l256 -434
q18 -36 18 -61q0 -51 -34.5 -86t-84.5 -35z" />
    <glyph glyph-name="l" unicode="l" horiz-adv-x="503" 
d="M252 1397q54 0 88.5 -33.5t34.5 -87.5v-1165q0 -54 -34.5 -87.5t-88.5 -33.5t-88.5 33.5t-34.5 87.5v1165q0 54 34.5 87.5t88.5 33.5z" />
    <glyph glyph-name="m" unicode="m" horiz-adv-x="1605" 
d="M348 936l6 -31q88 119 250 119q202 0 281 -164q37 75 108.5 119.5t167.5 44.5q161 0 244.5 -102t83.5 -273v-538q0 -54 -34.5 -87.5t-90.5 -33.5q-54 0 -88.5 33.5t-34.5 87.5v524q0 78 -39 126t-110 48t-116.5 -47.5t-45.5 -118.5v-532q0 -54 -34.5 -87.5t-88.5 -33.5
t-88.5 33.5t-34.5 87.5v524q0 77 -40 125.5t-112 48.5t-115.5 -49.5t-43.5 -126.5v-522q0 -54 -34.5 -87.5t-88.5 -33.5q-56 0 -90.5 33.5t-34.5 87.5v782q0 55 31 88t84 33q39 0 70 -20t38 -58z" />
    <glyph glyph-name="n" unicode="n" horiz-adv-x="1058" 
d="M348 936l6 -31q91 119 254 119t247.5 -102t84.5 -273v-538q0 -54 -34.5 -87.5t-88.5 -33.5t-88.5 33.5t-34.5 87.5v524q0 78 -40.5 126t-114.5 48q-75 0 -120.5 -50t-45.5 -128v-520q0 -54 -34.5 -87.5t-88.5 -33.5q-57 0 -91 33.5t-34 87.5v782q0 55 31 88t84 33
q39 0 70 -20t38 -58z" />
    <glyph glyph-name="o" unicode="o" horiz-adv-x="999" 
d="M907 621v-238q0 -185 -111.5 -294t-295.5 -109t-297 109t-113 294v238q0 183 113 293t297 110t295.5 -109.5t111.5 -293.5zM338 637v-272q0 -78 43.5 -127.5t118.5 -49.5t118.5 49.5t43.5 127.5v272q0 78 -43.5 128t-118.5 50t-118.5 -50t-43.5 -128z" />
    <glyph glyph-name="p" unicode="p" 
d="M539 809q-75 0 -120.5 -50t-45.5 -128v-260q0 -76 45.5 -126t120.5 -50q74 0 114.5 48t40.5 124v268q0 78 -40.5 126t-114.5 48zM348 936l6 -29q89 117 246 117q164 0 252 -106.5t88 -282.5v-266q0 -176 -88 -282.5t-252 -106.5q-144 0 -227 96v-348q0 -54 -34 -87.5
t-89 -33.5q-54 0 -89.5 33.5t-35.5 87.5v1165q0 55 31 88t84 33q40 0 69.5 -19.5t38.5 -58.5z" />
    <glyph glyph-name="q" unicode="q" 
d="M680 907l6 29q9 38 40.5 58t70.5 20q52 0 82 -33t30 -88v-1165q0 -54 -33.5 -87.5t-87.5 -33.5t-89 33.5t-35 87.5v348q-83 -96 -228 -96q-164 0 -253 106.5t-89 282.5v266q0 176 89 282.5t253 106.5q159 0 244 -117zM498 809q-74 0 -115 -48t-41 -126v-268
q0 -76 41 -124t115 -48q75 0 120.5 50t45.5 126v260q0 78 -45.5 128t-120.5 50z" />
    <glyph glyph-name="r" unicode="r" horiz-adv-x="688" 
d="M348 936l10 -47q36 59 87 93t108 34q46 0 78.5 -31t32.5 -78q0 -50 -30.5 -79t-80.5 -35q-81 -10 -130.5 -53.5t-49.5 -127.5v-501q0 -54 -34 -87.5t-89 -33.5q-54 0 -89.5 33.5t-35.5 87.5v782q0 55 31 88t84 33q92 0 108 -78z" />
    <glyph glyph-name="s" unicode="s" horiz-adv-x="923" 
d="M510 381l-178 55q-108 34 -173 104.5t-65 184.5q0 122 102.5 210.5t266.5 88.5q129 0 220 -44.5t134 -125.5q31 -54 3.5 -110t-91.5 -56q-38 0 -63 17t-50 53q-30 44 -63 64t-88 20q-61 0 -102 -27t-41 -72q0 -33 20.5 -56t77.5 -40l143 -43q63 -19 109 -41t88 -57
t64 -87t22 -120q0 -143 -105 -231t-284 -88q-145 0 -246 56t-133 154q-18 53 12 98.5t88 45.5q34 0 56.5 -15.5t44.5 -52.5q27 -46 66.5 -74t109.5 -28q159 0 159 110q0 40 -24.5 65t-79.5 42z" />
    <glyph glyph-name="t" unicode="t" horiz-adv-x="677" 
d="M25 889q0 46 28 75t74 29h88v164q0 54 33.5 87.5t87.5 33.5t89.5 -33.5t35.5 -87.5v-164h90q46 0 74 -28t28 -74t-28.5 -75.5t-73.5 -29.5h-90v-675q0 -54 -35.5 -87.5t-89.5 -33.5t-87.5 33.5t-33.5 87.5v675h-88q-46 0 -74 28.5t-28 74.5z" />
    <glyph glyph-name="u" unicode="u" horiz-adv-x="1046" 
d="M698 66l-8 30q-39 -54 -104 -85t-146 -31q-159 0 -241 96.5t-82 259.5v555q0 55 33.5 89t89.5 34q55 0 90 -34t35 -89v-541q0 -70 37.5 -112.5t107.5 -42.5q75 0 120.5 50t45.5 126v520q0 55 33.5 89t87.5 34q55 0 90 -34t35 -89v-782q0 -54 -30.5 -86.5t-84.5 -32.5
q-37 0 -68.5 21t-40.5 55z" />
    <glyph glyph-name="v" unicode="v" horiz-adv-x="952" 
d="M174 1014q41 0 74 -25t45 -65l188 -629l193 625q12 41 42 67.5t70 26.5q61 0 96.5 -48.5t16.5 -105.5l-256 -756q-40 -122 -168 -122q-126 0 -166 122l-250 740q-22 63 13.5 116.5t101.5 53.5z" />
    <glyph glyph-name="w" unicode="w" horiz-adv-x="1396" 
d="M1329 844l-223 -748q-13 -49 -51 -77.5t-88 -28.5q-51 0 -87.5 28.5t-48.5 77.5l-133 510l-131 -510q-12 -49 -48.5 -77.5t-86.5 -28.5q-51 0 -88.5 28t-52.5 78l-225 756q-5 20 -5 37q0 51 35 88t86 37q50 0 81.5 -32.5t41.5 -78.5l137 -567l138 579q11 44 44 71.5
t78 27.5q44 0 78 -28t45 -71l138 -575l141 578q9 43 39.5 69.5t75.5 26.5q42 0 72.5 -25.5t41.5 -66.5q9 -31 -4 -78z" />
    <glyph glyph-name="x" unicode="x" horiz-adv-x="940" 
d="M772 -10q-63 0 -100 53l-209 301l-197 -287q-15 -21 -25.5 -33t-30 -23t-42.5 -11q-48 0 -83.5 32t-35.5 76q0 33 19 58l260 342l-248 338q-21 24 -21 61q0 48 36 82.5t87 34.5q58 0 97 -53l198 -287l189 272q15 21 25.5 33t30 23.5t42.5 11.5q47 0 82 -32.5t35 -78.5
q0 -37 -21 -61l-252 -324l264 -356q17 -20 17 -56q0 -48 -34 -82t-83 -34z" />
    <glyph glyph-name="y" unicode="y" horiz-adv-x="950" 
d="M897 860l-395 -1163q-12 -40 -42 -65t-69 -25q-55 0 -89 41.5t-17 93.5l80 231l-308 871q-22 62 14 116t101 54q41 0 74 -25t45 -65l190 -611l191 609q12 41 42 66.5t70 25.5q60 0 96.5 -48.5t16.5 -105.5z" />
    <glyph glyph-name="z" unicode="z" horiz-adv-x="894" 
d="M770 801l-391 -600h356q44 0 71.5 -28.5t27.5 -72.5t-27.5 -72t-71.5 -28h-588q-40 0 -63 21t-23 59q0 13 2.5 25.5t4.5 20.5t9 21.5t9 17t13 20t12 18.5l393 598h-334q-45 0 -72.5 28.5t-27.5 73.5t27.5 73t72.5 28h565q41 0 63.5 -20t22.5 -56q0 -26 -9 -51.5
t-16 -36.5t-26 -39z" />
    <glyph glyph-name="braceleft" unicode="{" horiz-adv-x="733" 
d="M201 170v258q0 63 -17 95t-73 50q-80 24 -80 99q0 38 17.5 61.5t60.5 36.5q58 18 75 49.5t17 95.5v254q0 168 86.5 270t253.5 124q53 6 93 -27t40 -88q0 -41 -20 -73t-58 -38q-75 -12 -107 -53.5t-32 -116.5v-256q0 -162 -125 -239q125 -83 125 -242v-258
q0 -76 31.5 -117.5t107.5 -54.5q38 -7 58 -37.5t20 -71.5q0 -55 -40.5 -87.5t-90.5 -26.5q-169 23 -255.5 124.5t-86.5 268.5z" />
    <glyph glyph-name="bar" unicode="|" horiz-adv-x="522" 
d="M379 1462v-1585q0 -52 -33 -83.5t-86 -31.5t-85 31.5t-32 83.5v1585q0 52 32 83.5t85 31.5t86 -31.5t33 -83.5z" />
    <glyph glyph-name="braceright" unicode="}" horiz-adv-x="733" 
d="M532 428v-258q0 -167 -86.5 -268.5t-255.5 -124.5q-50 -6 -90.5 26.5t-40.5 87.5q0 41 20 71.5t58 37.5q76 13 107.5 54.5t31.5 117.5v258q0 159 125 242q-125 77 -125 239v256q0 75 -32 116.5t-107 53.5q-38 6 -58 38t-20 73q0 55 40.5 88t93.5 27q167 -21 253 -123.5
t86 -270.5v-254q0 -64 17.5 -95.5t75.5 -49.5q43 -13 60 -36.5t17 -61.5t-18 -62t-61 -37q-56 -18 -73.5 -50t-17.5 -95z" />
    <glyph glyph-name="asciitilde" unicode="~" horiz-adv-x="1083" 
d="M979 647q-123 -174 -256 -174q-57 0 -101 19t-112 63q-29 19 -44.5 28.5t-41.5 19t-51 9.5q-36 0 -67.5 -25.5t-67.5 -74.5q-19 -27 -62 -27q-35 0 -60.5 26.5t-25.5 61.5q0 28 25 60q53 77 121.5 123.5t144.5 46.5q96 0 207 -76q49 -33 75.5 -46t57.5 -13q59 0 119 82
q25 36 67 36q36 0 62 -26t26 -62q0 -29 -16 -51z" />
    <glyph glyph-name="uni00A0" unicode="&#xa0;" horiz-adv-x="403" 
 />
    <glyph glyph-name="exclamdown" unicode="&#xa1;" horiz-adv-x="499" 
d="M250 735q-60 0 -102 42.5t-42 103.5q0 60 42 101.5t102 41.5q61 0 103 -41.5t42 -101.5q0 -62 -42 -104t-103 -42zM332 557l45 -557v-227q0 -57 -35 -91t-92 -34t-92 34t-35 91v227l47 557q3 33 25 53.5t55 20.5q34 0 56.5 -20t25.5 -54z" />
    <glyph glyph-name="cent" unicode="&#xa2;" horiz-adv-x="985" 
d="M496 1376q42 0 69 -25.5t27 -64.5v-98q105 -17 181 -76t108 -149q21 -57 -9.5 -108.5t-93.5 -51.5q-36 0 -66.5 21t-47.5 57q-25 53 -62 79.5t-98 26.5q-76 0 -120 -49.5t-44 -126.5v-274q0 -77 44 -127t120 -50q66 0 104.5 29.5t59.5 87.5q31 82 114 82q56 0 89 -46
t16 -101q-29 -104 -105.5 -169.5t-189.5 -82.5v-101q0 -40 -26.5 -65t-67.5 -25q-40 0 -66 25t-26 65v101q-144 28 -229 132.5t-85 262.5v238q0 158 84.5 261.5t229.5 131.5v100q0 40 25 65t65 25z" />
    <glyph glyph-name="sterling" unicode="&#xa3;" horiz-adv-x="1153" 
d="M82 588q0 43 27 71.5t71 28.5h37v258q0 192 116 306t302 114q161 0 269 -87t136 -241q10 -58 -23 -104.5t-97 -46.5q-45 0 -77 25.5t-44 74.5q-20 76 -57.5 114t-104.5 38q-80 0 -123 -53.5t-43 -143.5v-254h244q42 0 69 -28.5t27 -71.5q0 -44 -26.5 -72.5t-69.5 -28.5
h-244v-264h483q51 0 81 -31t30 -81q0 -51 -30 -81t-81 -30h-761q-51 0 -81 31t-30 82q0 50 30 80t81 30h24v264h-37q-44 0 -71 28t-27 73z" />
    <glyph glyph-name="currency" unicode="&#xa4;" horiz-adv-x="1249" 
d="M119 293q0 45 33 78l102 94q-51 88 -51 205v24q0 119 47 205l-98 92q-33 33 -33 78q0 44 30.5 76.5t73.5 32.5q48 0 80 -37l92 -99q99 52 230 52q124 0 225 -56l96 103q32 37 80 37q43 0 73.5 -32.5t30.5 -76.5q0 -46 -32 -78l-103 -96q52 -90 52 -201v-24
q0 -113 -52 -203l103 -96q32 -32 32 -78q0 -43 -31 -75t-73 -32q-45 0 -80 35l-96 103q-102 -54 -225 -54q-124 0 -226 54l-96 -103q-35 -35 -80 -35q-42 0 -73 32t-31 75zM446 692v-18q0 -80 48 -128t131 -48q81 0 129.5 48t48.5 128v18q0 78 -48.5 126t-129.5 48
q-83 0 -131 -47.5t-48 -126.5z" />
    <glyph glyph-name="yen" unicode="&#xa5;" horiz-adv-x="1138" 
d="M217 643q-33 0 -53.5 20.5t-20.5 53.5q0 34 20.5 56t53.5 22h94l-196 391q-9 20 -9 47q0 51 35 87t86 36q35 0 64.5 -18.5t44.5 -49.5l231 -491l234 497q13 28 41.5 45t60.5 17q49 0 83 -34.5t34 -80.5q0 -24 -10 -47l-201 -399h111q33 0 53 -22t20 -56q0 -33 -20 -53.5
t-53 -20.5h-189l-43 -88v-29h232q33 0 53 -21.5t20 -55.5q0 -33 -20 -53.5t-53 -20.5h-232v-260q0 -57 -36 -91t-93 -34t-92 34t-35 91v260h-215q-33 0 -53.5 20.5t-20.5 53.5q0 34 20.5 55.5t53.5 21.5h217v27l-45 90h-172z" />
    <glyph glyph-name="brokenbar" unicode="&#xa6;" horiz-adv-x="544" 
d="M145 942v512q0 55 35.5 89t91.5 34q55 0 91 -34t36 -89v-512q0 -55 -36 -89t-91 -34q-56 0 -91.5 34t-35.5 89zM145 -115v512q0 55 34.5 89t90.5 34t92.5 -34t36.5 -89v-512q0 -55 -36 -89t-91 -34q-56 0 -91.5 34t-35.5 89z" />
    <glyph glyph-name="section" unicode="&#xa7;" horiz-adv-x="1050" 
d="M864 438l-475 180q-287 110 -287 367q0 162 112.5 271.5t301.5 109.5q161 0 275.5 -77.5t142.5 -227.5q10 -49 -21.5 -91t-87.5 -42q-95 0 -116 82q-22 79 -67 115t-126 36q-87 0 -132.5 -41.5t-45.5 -109.5q0 -50 29 -95.5t96 -72.5l244 -97q226 -90 243 -264
q4 -36 -22.5 -47t-63.5 4zM188 522l476 -180q286 -109 286 -367q0 -162 -112 -271.5t-301 -109.5q-161 0 -275.5 78t-142.5 228q-10 49 21 91t87 42q96 0 117 -82q22 -79 67 -115.5t126 -36.5q86 0 132 41.5t46 110.5q0 50 -29 95.5t-96 72.5l-244 96q-227 91 -244 264
q-4 36 22.5 47t63.5 -4z" />
    <glyph glyph-name="dieresis" unicode="&#xa8;" horiz-adv-x="610" 
d="M328 1253q0 51 35 85t86 34t85.5 -34t34.5 -85t-34.5 -88t-85.5 -37t-86 37t-35 88zM41 1253q0 51 36 85t87 34t85 -34t34 -85q0 -52 -34.5 -88.5t-84.5 -36.5q-51 0 -87 37t-36 88z" />
    <glyph glyph-name="copyright" unicode="&#xa9;" horiz-adv-x="1558" 
d="M84 670q0 142 54.5 271t147.5 222t221.5 148t270.5 55q189 0 349.5 -93t254 -253.5t93.5 -349.5q0 -142 -55 -270.5t-148.5 -221t-222.5 -147t-271 -54.5q-189 0 -349 92.5t-252.5 252t-92.5 348.5zM221 670q0 -115 44 -219.5t119 -180t178 -120t216 -44.5t216 44.5
t178 120t119 180t44 219.5t-44 220t-118.5 181t-177.5 121t-217 45q-151 0 -279.5 -76t-203 -206.5t-74.5 -284.5zM1010 602q47 0 75.5 -40t14.5 -87q-25 -93 -108.5 -147t-203.5 -54q-152 0 -244.5 89t-92.5 237v145q0 150 92.5 239t244.5 89q115 0 197 -51t111 -133
q16 -47 -9.5 -89t-80.5 -42q-59 0 -86 59q-36 80 -129 80q-63 0 -99.5 -37.5t-36.5 -99.5v-172q0 -63 37 -102.5t99 -39.5q94 0 124 82q28 74 95 74z" />
    <glyph glyph-name="ordfeminine" unicode="&#xaa;" horiz-adv-x="647" 
d="M379 883q-45 -49 -113 -49q-83 0 -125.5 55t-42.5 145v121q0 91 42.5 146t125.5 55q75 0 113 -51l2 10q3 18 23.5 29.5t48.5 11.5q38 0 56.5 -18t18.5 -46v-395q0 -28 -18.5 -45.5t-56.5 -17.5q-28 0 -48.5 11t-23.5 29zM311 971q26 0 42 17.5t16 45.5v121q0 28 -16 46
t-42 18q-24 0 -37.5 -18t-13.5 -48v-117q0 -30 13.5 -47.5t37.5 -17.5z" />
    <glyph glyph-name="guillemotleft" unicode="&#xab;" horiz-adv-x="780" 
d="M365 715l-66 -238l68 -239q14 -52 -7.5 -84.5t-70.5 -32.5q-68 0 -94 69l-76 205q-21 60 -21 82q0 10 2.5 22t5 20t7 21t6.5 19l76 207q26 70 92 70q49 0 70.5 -35t7.5 -86zM647 715l-63 -238l65 -241q14 -50 -7.5 -82.5t-70.5 -32.5q-68 0 -94 69l-74 205q-22 63 -22 82
q0 13 3 26t10.5 32t8.5 24l74 207q26 70 92 70q49 0 70.5 -34.5t7.5 -86.5z" />
    <glyph glyph-name="logicalnot" unicode="&#xac;" horiz-adv-x="1073" 
d="M100 670q0 48 29 79t76 31h631q47 0 75.5 -29.5t28.5 -76.5v-299q0 -54 -33.5 -86.5t-87.5 -32.5q-56 0 -89.5 32.5t-33.5 86.5v184h-491q-47 0 -76 31.5t-29 79.5z" />
    <glyph glyph-name="uni00AD" unicode="&#xad;" horiz-adv-x="729" 
d="M109 530q0 48 29.5 79.5t76.5 31.5h301q47 0 76 -31.5t29 -79.5t-29 -78t-76 -30h-301q-47 0 -76.5 30.5t-29.5 77.5z" />
    <glyph glyph-name="registered" unicode="&#xae;" horiz-adv-x="1089" 
d="M102 922q0 185 128.5 314.5t312.5 129.5q185 0 314.5 -130t129.5 -314q0 -183 -130 -312t-314 -129t-312.5 129t-128.5 312zM213 922q0 -141 96 -238.5t234 -97.5t234.5 97.5t96.5 238.5t-96.5 240.5t-234.5 99.5t-234 -99.5t-96 -240.5zM668 881l43 -111q4 -16 4 -22
q0 -26 -17.5 -43t-42.5 -17q-43 0 -55 39l-47 131h-68v-113q0 -26 -15.5 -41.5t-41.5 -15.5t-41.5 15.5t-15.5 41.5v345q0 26 15.5 41.5t41.5 15.5h141q73 0 120.5 -38.5t47.5 -102.5q0 -80 -69 -125zM555 1057h-70v-113h70q29 0 45 16t16 41q0 56 -61 56z" />
    <glyph glyph-name="macron" unicode="&#xaf;" horiz-adv-x="573" 
d="M31 1241q0 38 24 62t62 24h340q38 0 62 -24t24 -62q0 -40 -24 -64t-62 -24h-340q-38 0 -62 25t-24 63z" />
    <glyph glyph-name="degree" unicode="&#xb0;" horiz-adv-x="905" 
d="M78 991q0 155 109 265t264 110q157 0 266.5 -110t109.5 -265q0 -157 -109.5 -266t-266.5 -109q-155 0 -264 109t-109 266zM268 991q0 -82 53 -138t130 -56t130.5 56.5t53.5 137.5q0 79 -54 136t-130 57t-129.5 -57t-53.5 -136z" />
    <glyph glyph-name="plusminus" unicode="&#xb1;" horiz-adv-x="1067" 
d="M653 987v-141h228q36 0 59 -24.5t23 -63.5q0 -37 -22.5 -60.5t-59.5 -23.5h-228v-137q0 -51 -32.5 -82t-85.5 -31q-51 0 -82 31t-31 82v137h-227q-38 0 -60 23.5t-22 60.5q0 39 22 63.5t60 24.5h227v141q0 52 31 83.5t82 31.5q53 0 85.5 -31.5t32.5 -83.5zM113 283
q0 34 20 55.5t53 21.5h686q33 0 53.5 -21.5t20.5 -55.5q0 -35 -20 -56.5t-54 -21.5h-686q-34 0 -53.5 21.5t-19.5 56.5z" />
    <glyph glyph-name="twosuperior" unicode="&#xb2;" horiz-adv-x="589" 
d="M59 1059v6q0 140 95 201l129 84q71 48 71 108q0 28 -16 44t-45 16t-44 -12t-28 -40q-27 -53 -78 -53q-31 0 -54 20t-23 54q0 72 67 125t164 53q104 0 166.5 -54t62.5 -145q0 -76 -32.5 -129.5t-100.5 -95.5l-104 -65q-31 -19 -37 -43h211q34 0 54 -20.5t20 -55.5
q0 -34 -20 -54t-54 -20h-328q-34 0 -55 21t-21 55z" />
    <glyph glyph-name="threesuperior" unicode="&#xb3;" horiz-adv-x="579" 
d="M207 1329q0 25 15.5 43.5t39.5 18.5h12q68 0 68 65q0 66 -61 66q-38 0 -60 -39q-27 -49 -74 -49q-32 0 -54.5 21.5t-22.5 53.5q0 68 68.5 114t148.5 46q101 0 161 -53t60 -137q0 -99 -70 -144q80 -43 80 -155q0 -92 -64 -147.5t-171 -55.5q-81 0 -149 44t-68 114
q0 31 21.5 54t55.5 23q47 0 74 -49q12 -23 25.5 -34t38.5 -11q67 0 67 78q0 70 -74 70h-12q-24 0 -39.5 18.5t-15.5 44.5z" />
    <glyph glyph-name="acute" unicode="&#xb4;" horiz-adv-x="466" 
d="M92 1270l129 153q33 41 78 41q44 0 74 -29t30 -73q0 -48 -36 -76l-177 -143q-23 -19 -49 -19q-37 0 -59.5 23.5t-22.5 54.5q0 18 6.5 30.5t26.5 37.5z" />
    <glyph glyph-name="mu" unicode="&#xb5;" horiz-adv-x="1048" 
d="M717 66l-8 30q-88 -116 -252 -116q-54 0 -88 24l12 -262v-14q0 -54 -34.5 -87.5t-90.5 -33.5q-54 0 -87.5 33.5t-33.5 87.5v1163q0 55 33.5 89t87.5 34q56 0 90.5 -34t34.5 -89v-541q0 -70 38.5 -112.5t108.5 -42.5q74 0 119 50t45 126v520q0 55 34 89t89 34t90 -34
t35 -89v-782q0 -54 -30.5 -86.5t-84.5 -32.5q-38 0 -68.5 21t-39.5 55z" />
    <glyph glyph-name="paragraph" unicode="&#xb6;" horiz-adv-x="1128" 
d="M571 1122v-655q0 -82 -102 -68q-181 25 -289 148t-108 323q0 216 139.5 346t361.5 130h277q54 0 87.5 -33.5t33.5 -87.5v-1342q0 -53 -37 -87t-92 -34q-56 0 -90.5 33.5t-34.5 87.5v1239h-146z" />
    <glyph glyph-name="periodcentered" unicode="&#xb7;" horiz-adv-x="491" 
d="M102 569q0 61 42 103.5t102 42.5t102.5 -42.5t42.5 -103.5q0 -60 -42.5 -101.5t-102.5 -41.5t-102 41.5t-42 101.5z" />
    <glyph glyph-name="cedilla" unicode="&#xb8;" horiz-adv-x="491" 
d="M260 -82h25q79 0 122.5 -39t43.5 -108q0 -71 -45 -112.5t-121 -41.5h-185q-24 0 -39.5 17t-15.5 42q0 26 15 42t40 16h162q39 0 39 35q0 32 -39 32h-88q-34 0 -52.5 18t-8.5 52l59 209l123 -47z" />
    <glyph glyph-name="onesuperior" unicode="&#xb9;" horiz-adv-x="493" 
d="M53 1585q0 32 20 53t52 21h145q32 0 52 -20t20 -52v-459h57q31 0 50.5 -19t19.5 -50q0 -32 -19.5 -52t-50.5 -20h-276q-31 0 -50.5 20t-19.5 52q0 31 19.5 50t50.5 19h53v385h-51q-32 0 -52 20.5t-20 51.5z" />
    <glyph glyph-name="ordmasculine" unicode="&#xba;" horiz-adv-x="618" 
d="M524 1147v-109q0 -93 -59.5 -150t-155.5 -57q-97 0 -156 56.5t-59 150.5v109q0 95 59 151t156 56q96 0 155.5 -56.5t59.5 -150.5zM256 1159v-131q0 -28 13.5 -44.5t39.5 -16.5q25 0 40.5 16.5t15.5 44.5v131q0 28 -15.5 45t-40.5 17q-26 0 -39.5 -17t-13.5 -45z" />
    <glyph glyph-name="guillemotright" unicode="&#xbb;" horiz-adv-x="780" 
d="M481 477l-65 238q-14 51 7.5 86t70.5 35q66 0 92 -70l76 -207q20 -63 20 -82q0 -24 -20 -82l-76 -205q-26 -69 -94 -69q-49 0 -70.5 32.5t-7.5 84.5zM197 477l-64 238q-14 52 7.5 86.5t70.5 34.5q66 0 92 -70l74 -207q1 -5 8.5 -24t10.5 -32t3 -26q0 -19 -22 -82
l-74 -205q-26 -69 -94 -69q-49 0 -70.5 32.5t-7.5 82.5z" />
    <glyph glyph-name="onequarter" unicode="&#xbc;" horiz-adv-x="1361" 
d="M1116 1231l-328 -559l-358 -643q-24 -39 -70 -39q-35 0 -59.5 23.5t-24.5 58.5q0 23 13 43l327 561l359 641q20 39 67 39q35 0 59.5 -23.5t24.5 -58.5q0 -23 -10 -43zM86 1272q0 32 20 53t52 21h145q32 0 52 -20t20 -52v-459h57q31 0 50.5 -19.5t19.5 -50.5
q0 -32 -19.5 -51.5t-50.5 -19.5h-276q-31 0 -50.5 19.5t-19.5 51.5q0 31 19.5 50.5t50.5 19.5h53v385h-51q-32 0 -52 20.5t-20 51.5zM1112 682q44 0 71 -21t27 -55v-338h17q29 0 47 -19.5t18 -49.5q0 -31 -18 -49.5t-47 -18.5h-17v-61q0 -35 -23.5 -57.5t-60.5 -22.5
q-35 0 -57 22.5t-22 57.5v61h-218q-37 0 -61.5 23t-24.5 57q0 43 12.5 72t41.5 71l182 258q26 37 55.5 53.5t77.5 16.5zM899 268h148v209z" />
    <glyph glyph-name="onehalf" unicode="&#xbd;" horiz-adv-x="1366" 
d="M1114 1231l-328 -559l-358 -643q-24 -39 -70 -39q-35 0 -59.5 23.5t-24.5 58.5q0 23 13 43l327 561l359 641q20 39 67 39q35 0 59.5 -23.5t24.5 -58.5q0 -23 -10 -43zM82 1272q0 32 20 53t52 21h145q32 0 52 -20t20 -52v-459h57q31 0 50.5 -19.5t19.5 -50.5
q0 -32 -19.5 -51.5t-50.5 -19.5h-276q-31 0 -50.5 19.5t-19.5 51.5q0 31 19.5 50.5t50.5 19.5h53v385h-51q-32 0 -52 20.5t-20 51.5zM809 76v6q0 141 94 201l129 84q34 23 53 47.5t19 60.5q0 28 -16.5 44t-45.5 16t-43.5 -12t-27.5 -40q-27 -53 -78 -53q-31 0 -54.5 20
t-23.5 54q0 72 67.5 125t164.5 53q104 0 166.5 -54t62.5 -145q0 -76 -32.5 -129.5t-100.5 -95.5l-105 -65q-31 -19 -37 -43h211q34 0 54 -20.5t20 -55.5q0 -34 -20 -54t-54 -20h-327q-34 0 -55 21t-21 55z" />
    <glyph glyph-name="threequarters" unicode="&#xbe;" horiz-adv-x="1345" 
d="M1100 1231l-328 -559l-358 -643q-24 -39 -70 -39q-35 0 -59.5 23.5t-24.5 58.5q0 25 12 43l328 561l358 641q9 17 27.5 28t40.5 11q35 0 59.5 -23.5t24.5 -58.5q0 -23 -10 -43zM238 1026q0 25 15.5 43t39.5 18h12q68 0 68 66t-62 66q-37 0 -59 -39q-28 -50 -74 -50
q-32 0 -55 22t-23 54q0 68 68.5 114t148.5 46q101 0 161.5 -53t60.5 -137q0 -99 -70 -144q80 -43 80 -155q0 -92 -64.5 -147.5t-171.5 -55.5q-81 0 -149 43.5t-68 113.5q0 31 22 54.5t56 23.5q47 0 74 -49q12 -24 25 -34.5t38 -10.5q68 0 68 78q0 70 -74 70h-12
q-24 0 -39.5 18.5t-15.5 44.5zM1096 682q44 0 71 -21t27 -55v-338h16q29 0 47.5 -19.5t18.5 -49.5q0 -31 -18.5 -49.5t-47.5 -18.5h-16v-61q0 -35 -23.5 -57.5t-60.5 -22.5q-35 0 -57.5 22.5t-22.5 57.5v61h-217q-37 0 -61.5 23t-24.5 57q0 43 12 72.5t41 70.5l183 258
q26 37 55.5 53.5t77.5 16.5zM883 268h147v209z" />
    <glyph glyph-name="questiondown" unicode="&#xbf;" horiz-adv-x="1001" 
d="M653 883q0 -59 -40.5 -100.5t-98.5 -41.5q-60 0 -100.5 41.5t-40.5 100.5q0 60 40.5 100.5t100.5 40.5q59 0 99 -40.5t40 -100.5zM512 633q45 0 79 -33t36 -76q1 -32 -2.5 -60t-16 -55t-21.5 -44.5t-32.5 -44t-34.5 -38.5t-43 -42t-43 -41q-51 -49 -77.5 -89t-26.5 -90
q0 -70 45.5 -111.5t128.5 -41.5q77 0 124.5 38t55.5 105q6 46 40.5 75.5t80.5 29.5q51 0 86 -34.5t35 -88.5q0 -154 -123 -254t-305 -100q-195 0 -312.5 101.5t-117.5 270.5q0 162 157 309q7 7 33.5 31.5t34.5 32.5t28 29t28 32.5t20.5 30.5t19 36.5t10.5 37.5q9 37 41 60.5
t72 23.5z" />
    <glyph glyph-name="Agrave" unicode="&#xc0;" horiz-adv-x="1138" 
d="M633 1581q19 -24 25 -36.5t6 -31.5q0 -31 -22.5 -55t-57.5 -24q-29 0 -49 20l-177 141q-36 31 -36 78q0 44 30 73.5t74 29.5t78 -43zM1075 164q6 -27 6 -45q0 -56 -32 -92.5t-86 -36.5q-48 0 -80.5 26.5t-46.5 71.5l-54 180h-442l-53 -184q-11 -41 -44 -67.5t-79 -26.5
q-53 0 -82 34.5t-29 86.5q0 15 6 39l342 1075q19 61 63 96t105 35t105 -35t65 -96zM561 1030l-160 -547h322z" />
    <glyph glyph-name="Aacute" unicode="&#xc1;" horiz-adv-x="1138" 
d="M500 1581l129 152q34 43 78 43t74 -29.5t30 -73.5q0 -51 -37 -78l-176 -141q-28 -20 -49 -20q-37 0 -59.5 24t-22.5 55q0 18 6.5 30.5t26.5 37.5zM1075 164q6 -27 6 -45q0 -56 -32 -92.5t-86 -36.5q-48 0 -80.5 26.5t-46.5 71.5l-54 180h-442l-53 -184q-11 -41 -44 -67.5
t-79 -26.5q-53 0 -82 34.5t-29 86.5q0 15 6 39l342 1075q19 61 63 96t105 35t105 -35t65 -96zM561 1030l-160 -547h322z" />
    <glyph glyph-name="Acircumflex" unicode="&#xc2;" horiz-adv-x="1138" 
d="M823 1530q19 -27 19 -47q0 -25 -19 -43.5t-45 -18.5q-28 0 -53 21l-160 139l-157 -139q-29 -21 -50 -21q-26 0 -44.5 18.5t-18.5 43.5q0 22 18 47l170 209q35 49 84 49t88 -49zM1075 164q6 -27 6 -45q0 -56 -32 -92.5t-86 -36.5q-48 0 -80.5 26.5t-46.5 71.5l-54 180
h-442l-53 -184q-11 -41 -44 -67.5t-79 -26.5q-53 0 -82 34.5t-29 86.5q0 15 6 39l342 1075q19 61 63 96t105 35t105 -35t65 -96zM561 1030l-160 -547h322z" />
    <glyph glyph-name="Atilde" unicode="&#xc3;" horiz-adv-x="1138" 
d="M762 1645q10 43 61 43q32 0 53 -21t21 -57q0 -87 -49 -136t-123 -49q-55 0 -119 31l-88 43q-42 21 -65 21q-8 0 -14.5 -1t-12 -4t-10 -5.5t-8.5 -7.5t-6.5 -8t-5.5 -9t-4.5 -8.5t-4 -8t-2.5 -6.5q-21 -43 -70 -43q-32 0 -52.5 22t-20.5 56q0 84 53.5 136.5t136.5 52.5
q50 0 109 -27l84 -41q60 -29 80 -29q42 0 57 56zM1075 164q6 -27 6 -45q0 -56 -32 -92.5t-86 -36.5q-48 0 -80.5 26.5t-46.5 71.5l-54 180h-442l-53 -184q-11 -41 -44 -67.5t-79 -26.5q-53 0 -82 34.5t-29 86.5q0 15 6 39l342 1075q19 61 63 96t105 35t105 -35t65 -96z
M561 1030l-160 -547h322z" />
    <glyph glyph-name="Adieresis" unicode="&#xc4;" horiz-adv-x="1138" 
d="M592 1567q0 52 35 86.5t86 34.5t86 -34.5t35 -86.5q0 -51 -35 -87t-86 -36t-86 36t-35 87zM305 1567q0 52 35.5 86.5t87.5 34.5q51 0 85 -34.5t34 -86.5q0 -51 -34 -87t-85 -36t-87 36t-36 87zM1075 164q6 -27 6 -45q0 -56 -32 -92.5t-86 -36.5q-48 0 -80.5 26.5
t-46.5 71.5l-54 180h-442l-53 -184q-11 -41 -44 -67.5t-79 -26.5q-53 0 -82 34.5t-29 86.5q0 15 6 39l342 1075q19 61 63 96t105 35t105 -35t65 -96zM561 1030l-160 -547h322z" />
    <glyph glyph-name="Aring" unicode="&#xc5;" horiz-adv-x="1138" 
d="M1075 164q6 -18 6 -45q0 -56 -32 -92.5t-86 -36.5q-48 0 -80.5 26.5t-46.5 71.5l-54 180h-442l-53 -184q-11 -41 -44 -67.5t-79 -26.5q-53 0 -82 34.5t-29 86.5q0 15 6 39l342 1075q10 33 27 53q-80 58 -80 166q0 89 61 150t158 61q98 0 161 -61t63 -150q0 -106 -80 -166
q21 -29 28 -53zM567 1348q40 0 64 27t24 69q0 41 -24 66.5t-64 25.5q-39 0 -62.5 -26t-23.5 -66q0 -42 23.5 -69t62.5 -27zM561 1030l-160 -547h322z" />
    <glyph glyph-name="AE" unicode="&#xc6;" horiz-adv-x="1714" 
d="M455 457h319v657zM774 125v115h-414l-86 -183q-14 -30 -45 -48.5t-67 -18.5q-51 0 -84 37t-33 86q0 28 12 55l541 1075q23 46 69 74.5t97 28.5h741q51 0 82 -33t31 -84q0 -50 -31 -81.5t-82 -31.5h-477v-319h422q49 0 80 -32.5t31 -82.5q0 -51 -30.5 -81t-80.5 -30h-422
v-342h496q51 0 81.5 -31t30.5 -81q0 -52 -31 -84.5t-81 -32.5h-627q-56 0 -89.5 34t-33.5 91z" />
    <glyph glyph-name="Ccedilla" unicode="&#xc7;" horiz-adv-x="1134" 
d="M584 -82h24q79 0 122.5 -39t43.5 -108q0 -71 -45 -112.5t-121 -41.5h-184q-24 0 -39.5 17t-15.5 42q0 26 15 42t40 16h162q39 0 39 35q0 32 -39 32h-88q-34 0 -53 18t-9 52l33 119q-164 31 -259 146.5t-95 291.5v490q0 209 123.5 328.5t347.5 119.5q179 0 299 -91.5
t149 -248.5q11 -61 -23.5 -107.5t-99.5 -46.5q-95 0 -118 93q-21 86 -71.5 129t-139.5 43q-98 0 -154.5 -61t-56.5 -163v-481q0 -102 56.5 -162.5t154.5 -60.5q90 0 141 43t72 129q24 98 118 98q60 0 96 -45.5t25 -107.5q-28 -156 -144 -248t-288 -98z" />
    <glyph glyph-name="Egrave" unicode="&#xc8;" horiz-adv-x="1075" 
d="M633 1581q19 -24 25 -36.5t6 -31.5q0 -31 -22.5 -55t-57.5 -24q-29 0 -49 20l-177 141q-36 31 -36 78q0 44 30 73.5t74 29.5t78 -43zM809 571h-403v-342h479q50 0 81 -32t31 -82q0 -51 -30.5 -83t-81.5 -32h-611q-57 0 -90.5 34t-33.5 91v1096q0 57 33.5 91t90.5 34h592
q50 0 81.5 -31t31.5 -82t-32 -84t-81 -33h-460v-319h403q51 0 81 -32t30 -83t-30 -81t-81 -30z" />
    <glyph glyph-name="Eacute" unicode="&#xc9;" horiz-adv-x="1075" 
d="M502 1581l129 152q34 43 78 43t74 -29.5t30 -73.5q0 -51 -37 -78l-176 -141q-28 -20 -49 -20q-37 0 -59.5 24t-22.5 55q0 18 6.5 30.5t26.5 37.5zM809 571h-403v-342h479q50 0 81 -32t31 -82q0 -51 -30.5 -83t-81.5 -32h-611q-57 0 -90.5 34t-33.5 91v1096q0 57 33.5 91
t90.5 34h592q50 0 81.5 -31t31.5 -82t-32 -84t-81 -33h-460v-319h403q51 0 81 -32t30 -83t-30 -81t-81 -30z" />
    <glyph glyph-name="Ecircumflex" unicode="&#xca;" horiz-adv-x="1075" 
d="M823 1530q19 -27 19 -47q0 -25 -19 -43.5t-45 -18.5q-28 0 -53 21l-160 139l-157 -139q-29 -21 -50 -21q-26 0 -44.5 18.5t-18.5 43.5q0 22 18 47l170 209q35 49 84 49t88 -49zM809 571h-403v-342h479q50 0 81 -32t31 -82q0 -51 -30.5 -83t-81.5 -32h-611q-57 0 -90.5 34
t-33.5 91v1096q0 57 33.5 91t90.5 34h592q50 0 81.5 -31t31.5 -82t-32 -84t-81 -33h-460v-319h403q51 0 81 -32t30 -83t-30 -81t-81 -30z" />
    <glyph glyph-name="Edieresis" unicode="&#xcb;" horiz-adv-x="1075" 
d="M592 1567q0 52 35 86.5t86 34.5t86 -34.5t35 -86.5q0 -51 -35 -87t-86 -36t-86 36t-35 87zM305 1567q0 52 35.5 86.5t87.5 34.5q51 0 85 -34.5t34 -86.5q0 -51 -34 -87t-85 -36t-87 36t-36 87zM809 571h-403v-342h479q50 0 81 -32t31 -82q0 -51 -30.5 -83t-81.5 -32h-611
q-57 0 -90.5 34t-33.5 91v1096q0 57 33.5 91t90.5 34h592q50 0 81.5 -31t31.5 -82t-32 -84t-81 -33h-460v-319h403q51 0 81 -32t30 -83t-30 -81t-81 -30z" />
    <glyph glyph-name="Igrave" unicode="&#xcc;" horiz-adv-x="555" 
d="M344 1581q19 -24 25 -36.5t6 -31.5q0 -31 -22.5 -55t-57.5 -24q-29 0 -49 20l-176 141q-37 32 -37 78q0 44 30 73.5t74 29.5t78 -43zM406 1231v-1116q0 -56 -36 -90.5t-94 -34.5q-57 0 -91.5 34t-34.5 91v1116q0 57 34.5 91t91.5 34q59 0 94.5 -34t35.5 -91z" />
    <glyph glyph-name="Iacute" unicode="&#xcd;" horiz-adv-x="555" 
d="M213 1581l129 152q34 43 78 43t74 -29.5t30 -73.5q0 -51 -37 -78l-176 -141q-28 -20 -49 -20q-37 0 -59.5 24t-22.5 55q0 18 6.5 30.5t26.5 37.5zM406 1231v-1116q0 -56 -36 -90.5t-94 -34.5q-57 0 -91.5 34t-34.5 91v1116q0 57 34.5 91t91.5 34q59 0 94.5 -34t35.5 -91z
" />
    <glyph glyph-name="Icircumflex" unicode="&#xce;" horiz-adv-x="555" 
d="M532 1530q19 -27 19 -47q0 -25 -19 -43.5t-45 -18.5q-29 0 -53 21l-160 139l-157 -139q-29 -21 -49 -21q-26 0 -45 18.5t-19 43.5q0 20 19 47l170 209q35 49 83 49q50 0 89 -49zM406 1231v-1116q0 -56 -36 -90.5t-94 -34.5q-57 0 -91.5 34t-34.5 91v1116q0 57 34.5 91
t91.5 34q59 0 94.5 -34t35.5 -91z" />
    <glyph glyph-name="Idieresis" unicode="&#xcf;" horiz-adv-x="555" 
d="M301 1567q0 52 35 86.5t86 34.5t86 -34.5t35 -86.5q0 -51 -35 -87t-86 -36t-86 36t-35 87zM14 1567q0 52 35.5 86.5t87.5 34.5q51 0 85 -34.5t34 -86.5q0 -51 -34 -87t-85 -36t-87 36t-36 87zM406 1231v-1116q0 -56 -36 -90.5t-94 -34.5q-57 0 -91.5 34t-34.5 91v1116
q0 57 34.5 91t91.5 34q59 0 94.5 -34t35.5 -91z" />
    <glyph glyph-name="Eth" unicode="&#xd0;" horiz-adv-x="1220" 
d="M625 1346q228 0 356.5 -123t128.5 -336v-428q0 -213 -128.5 -336t-356.5 -123h-340q-57 0 -91 34t-34 91v453h-47q-44 0 -72.5 29t-28.5 75q0 45 28.5 74.5t72.5 29.5h47v435q0 57 34 91t91 34h340zM625 1116h-209v-330h119q44 0 72 -29.5t28 -74.5q0 -46 -28 -75
t-72 -29h-119v-349h209q109 0 169 62.5t60 171.5v420q0 108 -60 170.5t-169 62.5z" />
    <glyph glyph-name="Ntilde" unicode="&#xd1;" horiz-adv-x="1218" 
d="M801 1645q10 43 61 43q32 0 53 -21t21 -57q0 -87 -49 -136t-123 -49q-55 0 -119 31l-88 43q-42 21 -65 21q-8 0 -14.5 -1t-12 -4t-10 -5.5t-8.5 -7.5t-6.5 -8t-5.5 -9t-4.5 -8.5t-4 -8t-2.5 -6.5q-21 -43 -70 -43q-32 0 -52.5 22t-20.5 56q0 84 53.5 136.5t136.5 52.5
q50 0 109 -27l84 -41q60 -29 79 -29q43 0 58 56zM1069 1243v-1128q0 -57 -33.5 -91t-89.5 -34q-81 0 -123 73l-440 787v-748q0 -50 -32.5 -81t-84.5 -31q-51 0 -83.5 30.5t-32.5 81.5v1129q0 57 36 91t93 34q45 0 76 -19t55 -65l426 -756v727q0 51 31.5 82t82.5 31
q52 0 85.5 -31.5t33.5 -81.5z" />
    <glyph glyph-name="Ograve" unicode="&#xd2;" horiz-adv-x="1173" 
d="M649 1581q19 -24 25 -36.5t6 -31.5q0 -31 -22.5 -55t-57.5 -24q-29 0 -49 20l-176 141q-37 32 -37 78q0 44 30 73.5t74 29.5t78 -43zM1061 918v-490q0 -205 -130 -326.5t-343 -121.5q-214 0 -344.5 121.5t-130.5 326.5v490q0 209 124 328.5t351 119.5q213 0 343 -121.5
t130 -326.5zM369 913v-481q0 -102 58 -162.5t161 -60.5q102 0 159.5 60.5t57.5 162.5v481q0 102 -57.5 163t-159.5 61q-103 0 -161 -60.5t-58 -163.5z" />
    <glyph glyph-name="Oacute" unicode="&#xd3;" horiz-adv-x="1173" 
d="M524 1581l129 152q34 43 78 43t74.5 -29.5t30.5 -73.5q0 -51 -37 -78l-176 -141q-28 -20 -50 -20q-36 0 -58.5 24t-22.5 55q0 18 6.5 31t25.5 37zM1061 918v-490q0 -205 -130 -326.5t-343 -121.5q-214 0 -344.5 121.5t-130.5 326.5v490q0 209 124 328.5t351 119.5
q213 0 343 -121.5t130 -326.5zM369 913v-481q0 -102 58 -162.5t161 -60.5q102 0 159.5 60.5t57.5 162.5v481q0 102 -57.5 163t-159.5 61q-103 0 -161 -60.5t-58 -163.5z" />
    <glyph glyph-name="Ocircumflex" unicode="&#xd4;" horiz-adv-x="1173" 
d="M842 1530q18 -25 18 -47q0 -25 -18.5 -43.5t-44.5 -18.5q-29 0 -54 21l-159 139l-158 -139q-29 -21 -49 -21q-26 0 -45 18.5t-19 43.5q0 20 19 47l170 209q35 49 84 49t88 -49zM1061 918v-490q0 -205 -130 -326.5t-343 -121.5q-214 0 -344.5 121.5t-130.5 326.5v490
q0 209 124 328.5t351 119.5q213 0 343 -121.5t130 -326.5zM369 913v-481q0 -102 58 -162.5t161 -60.5q102 0 159.5 60.5t57.5 162.5v481q0 102 -57.5 163t-159.5 61q-103 0 -161 -60.5t-58 -163.5z" />
    <glyph glyph-name="Otilde" unicode="&#xd5;" horiz-adv-x="1173" 
d="M780 1645q10 43 62 43q32 0 52.5 -21t20.5 -57q0 -87 -49 -136t-123 -49q-54 0 -118 31l-88 43q-42 21 -66 21q-8 0 -14.5 -1t-12 -4t-10 -5.5t-8.5 -7.5t-6.5 -8t-5.5 -9t-4.5 -8.5t-4 -8t-2.5 -6.5q-21 -43 -69 -43q-32 0 -53 22t-21 56q0 84 54 136.5t137 52.5
q49 0 108 -27l84 -41q60 -29 80 -29q42 0 57 56zM1061 918v-490q0 -205 -130 -326.5t-343 -121.5q-214 0 -344.5 121.5t-130.5 326.5v490q0 209 124 328.5t351 119.5q213 0 343 -121.5t130 -326.5zM369 913v-481q0 -102 58 -162.5t161 -60.5q102 0 159.5 60.5t57.5 162.5
v481q0 102 -57.5 163t-159.5 61q-103 0 -161 -60.5t-58 -163.5z" />
    <glyph glyph-name="Odieresis" unicode="&#xd6;" horiz-adv-x="1173" 
d="M610 1567q0 52 35 86.5t86 34.5t86 -34.5t35 -86.5q0 -51 -35 -87t-86 -36t-86 36t-35 87zM324 1567q0 52 35.5 86.5t86.5 34.5t85 -34.5t34 -86.5q0 -51 -34 -87t-85 -36t-86.5 36t-35.5 87zM1061 918v-490q0 -205 -130 -326.5t-343 -121.5q-214 0 -344.5 121.5
t-130.5 326.5v490q0 209 124 328.5t351 119.5q213 0 343 -121.5t130 -326.5zM369 913v-481q0 -102 58 -162.5t161 -60.5q102 0 159.5 60.5t57.5 162.5v481q0 102 -57.5 163t-159.5 61q-103 0 -161 -60.5t-58 -163.5z" />
    <glyph glyph-name="multiply" unicode="&#xd7;" horiz-adv-x="935" 
d="M166 530l139 140l-139 139q-37 37 -36 81t38 81t80 37t80 -37l139 -140l141 144q37 37 81 37t81 -37t37 -81t-37 -81l-143 -143l145 -144q37 -37 37 -80.5t-37 -80.5t-80 -37t-80 37l-147 143l-139 -139q-37 -37 -80 -37t-80 37t-37 80.5t37 80.5z" />
    <glyph glyph-name="Oslash" unicode="&#xd8;" horiz-adv-x="1173" 
d="M362 920v-494q0 -24 3 -45l368 717q-57 45 -145 45q-105 0 -165.5 -61t-60.5 -162zM811 920q0 17 -4 45l-367 -717q57 -45 148 -45q104 0 163.5 61t59.5 162v494zM1012 1364l-68 -133q117 -123 117 -313v-490q0 -205 -130 -326.5t-343 -121.5q-140 0 -250 55l-49 -98
q-21 -48 -68 -48q-28 0 -46.5 18.5t-18.5 47.5q0 16 6 31l65 131q-114 117 -114 311v490q0 209 124 328.5t351 119.5q142 0 246 -55l51 102q21 47 69 47q28 0 47 -18t19 -47q0 -18 -8 -31z" />
    <glyph glyph-name="Ugrave" unicode="&#xd9;" horiz-adv-x="1204" 
d="M666 1581q19 -23 24.5 -36t5.5 -32q0 -31 -22.5 -55t-57.5 -24q-29 0 -49 20l-176 141q-37 32 -37 78q0 44 30.5 73.5t74.5 29.5t78 -43zM936 1356q56 0 91.5 -34.5t35.5 -90.5v-803q0 -205 -127 -326.5t-334 -121.5t-334 121.5t-127 326.5v803q0 57 35 91t92 34t92 -34
t35 -91v-799q0 -102 55 -162.5t152 -60.5q96 0 151.5 60.5t55.5 162.5v799q0 57 35 91t92 34z" />
    <glyph glyph-name="Uacute" unicode="&#xda;" horiz-adv-x="1204" 
d="M535 1581l129 152q34 43 77 43q44 0 74.5 -29.5t30.5 -73.5q0 -51 -37 -78l-176 -141q-28 -20 -49 -20q-37 0 -59.5 24t-22.5 55q0 18 6.5 30.5t26.5 37.5zM936 1356q56 0 91.5 -34.5t35.5 -90.5v-803q0 -205 -127 -326.5t-334 -121.5t-334 121.5t-127 326.5v803
q0 57 35 91t92 34t92 -34t35 -91v-799q0 -102 55 -162.5t152 -60.5q96 0 151.5 60.5t55.5 162.5v799q0 57 35 91t92 34z" />
    <glyph glyph-name="Ucircumflex" unicode="&#xdb;" horiz-adv-x="1204" 
d="M858 1530q19 -27 19 -47q0 -25 -19 -43.5t-45 -18.5q-28 0 -53 21l-160 139l-158 -139q-29 -21 -49 -21q-26 0 -44.5 18.5t-18.5 43.5q0 22 18 47l170 209q35 49 84 49t88 -49zM936 1356q56 0 91.5 -34.5t35.5 -90.5v-803q0 -205 -127 -326.5t-334 -121.5t-334 121.5
t-127 326.5v803q0 57 35 91t92 34t92 -34t35 -91v-799q0 -102 55 -162.5t152 -60.5q96 0 151.5 60.5t55.5 162.5v799q0 57 35 91t92 34z" />
    <glyph glyph-name="Udieresis" unicode="&#xdc;" horiz-adv-x="1204" 
d="M625 1567q0 52 34.5 86.5t85.5 34.5t86 -34.5t35 -86.5q0 -51 -35 -87t-86 -36t-85.5 36t-34.5 87zM338 1567q0 52 35.5 86.5t87.5 34.5q51 0 85 -34.5t34 -86.5q0 -51 -34 -87t-85 -36t-87 36t-36 87zM936 1356q56 0 91.5 -34.5t35.5 -90.5v-803q0 -205 -127 -326.5
t-334 -121.5t-334 121.5t-127 326.5v803q0 57 35 91t92 34t92 -34t35 -91v-799q0 -102 55 -162.5t152 -60.5q96 0 151.5 60.5t55.5 162.5v799q0 57 35 91t92 34z" />
    <glyph glyph-name="Yacute" unicode="&#xdd;" horiz-adv-x="1040" 
d="M457 1581l129 152q34 43 78 43t74 -29.5t30 -73.5q0 -51 -37 -78l-176 -141q-28 -20 -49 -20q-37 0 -59.5 24t-22.5 55q0 18 6.5 30.5t26.5 37.5zM977 1188l-330 -645v-428q0 -57 -35 -91t-92 -34t-92 34t-35 91v424l-325 641q-13 26 -13 53q0 51 35.5 87t85.5 36
q36 0 65 -18.5t44 -49.5l241 -502l244 508q13 29 41.5 45.5t62.5 16.5q47 0 81 -34.5t34 -80.5q4 -25 -12 -53z" />
    <glyph glyph-name="Thorn" unicode="&#xde;" horiz-adv-x="1148" 
d="M406 1231v-115h212q203 0 334 -121t131 -317q0 -203 -130.5 -327t-334.5 -124h-212v-112q0 -56 -37 -90.5t-95 -34.5q-57 0 -90.5 34t-33.5 91v1116q0 57 34.5 91t91.5 34q58 0 94 -34.5t36 -90.5zM596 891h-190v-438h190q105 0 166 59.5t61 161.5q0 99 -61 158t-166 59z
" />
    <glyph glyph-name="germandbls" unicode="&#xdf;" horiz-adv-x="1048" 
d="M467 96q0 40 20.5 69.5t57.5 35.5l14 2q72 11 115 66.5t43 140.5q0 175 -174 213q-35 7 -55.5 35t-20.5 67q0 85 84 106q135 32 135 177q0 80 -40 127t-120 47q-157 0 -157 -185v-888q0 -54 -33.5 -86.5t-87.5 -32.5t-88.5 32.5t-34.5 86.5v874q0 193 104.5 298
t298.5 105q188 0 299 -96.5t111 -257.5q0 -107 -52 -183.5t-147 -113.5v-4q110 -39 171 -127t61 -215q0 -117 -54 -208.5t-142 -139t-191 -47.5h-17q-43 0 -71.5 29t-28.5 73z" />
    <glyph glyph-name="agrave" unicode="&#xe0;" 
d="M567 1270q19 -24 25 -36.5t6 -31.5q0 -31 -22.5 -54.5t-57.5 -23.5q-26 0 -49 19l-176 143q-37 29 -37 76q0 44 30 73t74 29q45 0 78 -41zM498 195q75 0 120.5 50t45.5 126v260q0 78 -45.5 128t-120.5 50q-74 0 -115 -48t-41 -126v-268q0 -76 41 -124t115 -48zM686 68
l-6 26q-83 -114 -244 -114q-164 0 -253 106.5t-89 282.5v266q0 176 89 282.5t253 106.5q158 0 244 -115l6 27q9 38 40.5 58t70.5 20q52 0 82 -33t30 -88v-784q0 -54 -30 -86.5t-82 -32.5q-40 0 -71.5 19.5t-39.5 58.5z" />
    <glyph glyph-name="aacute" unicode="&#xe1;" 
d="M438 1270l129 153q33 41 78 41t75 -29t30 -73q0 -47 -37 -76l-176 -143q-23 -19 -50 -19q-37 0 -59 23.5t-22 54.5q0 18 6.5 31t25.5 37zM498 195q75 0 120.5 50t45.5 126v260q0 78 -45.5 128t-120.5 50q-74 0 -115 -48t-41 -126v-268q0 -76 41 -124t115 -48zM686 68
l-6 26q-83 -114 -244 -114q-164 0 -253 106.5t-89 282.5v266q0 176 89 282.5t253 106.5q158 0 244 -115l6 27q9 38 40.5 58t70.5 20q52 0 82 -33t30 -88v-784q0 -54 -30 -86.5t-82 -32.5q-40 0 -71.5 19.5t-39.5 58.5z" />
    <glyph glyph-name="acircumflex" unicode="&#xe2;" 
d="M758 1217q18 -25 18 -46q0 -26 -18.5 -44.5t-44.5 -18.5q-28 0 -54 22l-159 138l-158 -138q-26 -22 -49 -22q-26 0 -45 18.5t-19 44.5q0 23 19 46l170 208q36 50 84 50t88 -50zM498 195q75 0 120.5 50t45.5 126v260q0 78 -45.5 128t-120.5 50q-74 0 -115 -48t-41 -126
v-268q0 -76 41 -124t115 -48zM686 68l-6 26q-83 -114 -244 -114q-164 0 -253 106.5t-89 282.5v266q0 176 89 282.5t253 106.5q158 0 244 -115l6 27q9 38 40.5 58t70.5 20q52 0 82 -33t30 -88v-784q0 -54 -30 -86.5t-82 -32.5q-40 0 -71.5 19.5t-39.5 58.5z" />
    <glyph glyph-name="atilde" unicode="&#xe3;" 
d="M694 1337q10 43 62 43q32 0 52.5 -19.5t20.5 -55.5q0 -87 -49 -136t-123 -49q-54 0 -118 31l-88 43q-40 20 -66 20q-16 0 -28.5 -5t-21 -18.5t-10 -16t-8.5 -17.5q-21 -43 -69 -43q-32 0 -53 22t-21 56q0 84 54 136t137 52q52 0 108 -26l84 -41q60 -29 80 -29q41 0 57 53
zM498 195q75 0 120.5 50t45.5 126v260q0 78 -45.5 128t-120.5 50q-74 0 -115 -48t-41 -126v-268q0 -76 41 -124t115 -48zM686 68l-6 26q-83 -114 -244 -114q-164 0 -253 106.5t-89 282.5v266q0 176 89 282.5t253 106.5q158 0 244 -115l6 27q9 38 40.5 58t70.5 20
q52 0 82 -33t30 -88v-784q0 -54 -30 -86.5t-82 -32.5q-40 0 -71.5 19.5t-39.5 58.5z" />
    <glyph glyph-name="adieresis" unicode="&#xe4;" 
d="M524 1253q0 51 35 85t86 34t86 -34t35 -85t-35 -88t-86 -37t-86 37t-35 88zM238 1253q0 51 35.5 85t86.5 34t85 -34t34 -85q0 -52 -34.5 -88.5t-84.5 -36.5q-51 0 -86.5 37t-35.5 88zM498 195q75 0 120.5 50t45.5 126v260q0 78 -45.5 128t-120.5 50q-74 0 -115 -48
t-41 -126v-268q0 -76 41 -124t115 -48zM686 68l-6 26q-83 -114 -244 -114q-164 0 -253 106.5t-89 282.5v266q0 176 89 282.5t253 106.5q158 0 244 -115l6 27q9 38 40.5 58t70.5 20q52 0 82 -33t30 -88v-784q0 -54 -30 -86.5t-82 -32.5q-40 0 -71.5 19.5t-39.5 58.5z" />
    <glyph glyph-name="aring" unicode="&#xe5;" 
d="M500 1079q-97 0 -158 61t-61 150t61 150t158 61q98 0 160.5 -61t62.5 -150t-62.5 -150t-160.5 -61zM500 1196q40 0 64 26.5t24 67.5t-24 66.5t-64 25.5q-39 0 -62.5 -26t-23.5 -66q0 -41 23.5 -67.5t62.5 -26.5zM498 195q75 0 120.5 50t45.5 126v260q0 78 -45.5 128
t-120.5 50q-74 0 -115 -48t-41 -126v-268q0 -76 41 -124t115 -48zM686 68l-6 26q-83 -114 -244 -114q-164 0 -253 106.5t-89 282.5v266q0 176 89 282.5t253 106.5q158 0 244 -115l6 27q9 38 40.5 58t70.5 20q52 0 82 -33t30 -88v-784q0 -54 -30 -86.5t-82 -32.5
q-40 0 -71.5 19.5t-39.5 58.5z" />
    <glyph glyph-name="ae" unicode="&#xe6;" horiz-adv-x="1509" 
d="M1036 -20q-106 0 -189 44.5t-130 127.5q-37 -78 -117.5 -125t-196.5 -47q-149 0 -238 75t-89 221q0 147 95 218t259 71h197v103q0 70 -41 112.5t-115 42.5q-107 0 -166 -112q-37 -70 -110 -70q-53 0 -82.5 46.5t-12.5 103.5q36 103 136.5 168t234.5 65q188 0 283 -125
q103 125 276 125q176 0 284.5 -110t108.5 -293v-43q0 -58 -32.5 -90.5t-87.5 -32.5h-435v-103q0 -77 46 -125.5t126 -48.5q62 0 100 29.5t66 79.5q22 37 43 53t58 16q55 0 84.5 -43.5t11.5 -105.5q-30 -106 -130 -166.5t-237 -60.5zM868 649v-24h322v24q0 78 -43 128
t-117 50q-75 0 -118.5 -50t-43.5 -128zM465 174q79 0 120.5 49.5t41.5 128.5v41h-150q-32 0 -56 -4t-47 -15.5t-35.5 -34t-12.5 -56.5q0 -109 139 -109z" />
    <glyph glyph-name="ccedilla" unicode="&#xe7;" horiz-adv-x="970" 
d="M498 -82h24q79 0 122.5 -39t43.5 -108q0 -71 -45 -112.5t-121 -41.5h-184q-24 0 -39.5 17t-15.5 42q0 26 15 42t40 16h162q39 0 39 35q0 32 -39 32h-88q-34 0 -53 18t-9 52l35 123q-138 31 -216.5 133t-78.5 256v238q0 185 111 294t301 109q136 0 238.5 -67t138.5 -173
q20 -58 -10.5 -108.5t-96.5 -50.5q-43 0 -69 18.5t-46 58.5q-28 59 -64.5 86t-90.5 27q-80 0 -122 -49t-42 -129v-272q0 -80 42.5 -128.5t125.5 -48.5q118 0 160 125q27 82 110 82q58 0 91 -45t18 -104q-32 -121 -130 -191t-239 -75z" />
    <glyph glyph-name="egrave" unicode="&#xe8;" horiz-adv-x="972" 
d="M555 1270q19 -24 25 -36.5t6 -31.5q0 -31 -22.5 -54.5t-57.5 -23.5q-26 0 -49 19l-176 143q-37 29 -37 76q0 44 30 73t74 29q45 0 78 -41zM770 356q55 0 84.5 -43.5t11.5 -105.5q-30 -106 -129.5 -166.5t-236.5 -60.5q-185 0 -297.5 108.5t-112.5 290.5v242
q0 183 111.5 293t294.5 110q175 0 283 -110t108 -293v-43q0 -58 -33 -90.5t-88 -32.5h-434v-103q0 -77 46 -125.5t126 -48.5q62 0 100 29.5t66 79.5q22 38 43 53.5t57 15.5zM332 649v-24h321v24q0 78 -42.5 128t-114.5 50q-76 0 -120 -50t-44 -128z" />
    <glyph glyph-name="eacute" unicode="&#xe9;" horiz-adv-x="972" 
d="M426 1270l129 153q33 41 78 41q44 0 74 -29t30 -73q0 -47 -37 -76l-176 -143q-23 -19 -49 -19q-37 0 -59.5 23.5t-22.5 54.5q0 18 6.5 30.5t26.5 37.5zM770 356q55 0 84.5 -43.5t11.5 -105.5q-30 -106 -129.5 -166.5t-236.5 -60.5q-185 0 -297.5 108.5t-112.5 290.5v242
q0 183 111.5 293t294.5 110q175 0 283 -110t108 -293v-43q0 -58 -33 -90.5t-88 -32.5h-434v-103q0 -77 46 -125.5t126 -48.5q62 0 100 29.5t66 79.5q22 38 43 53.5t57 15.5zM332 649v-24h321v24q0 78 -42.5 128t-114.5 50q-76 0 -120 -50t-44 -128z" />
    <glyph glyph-name="ecircumflex" unicode="&#xea;" horiz-adv-x="972" 
d="M745 1217q19 -27 19 -46q0 -26 -19 -44.5t-45 -18.5q-27 0 -53 22l-160 138l-157 -138q-26 -22 -49 -22q-26 0 -45 18.5t-19 44.5q0 23 19 46l170 208q36 50 83 50q49 0 89 -50zM770 356q55 0 84.5 -43.5t11.5 -105.5q-30 -106 -129.5 -166.5t-236.5 -60.5
q-185 0 -297.5 108.5t-112.5 290.5v242q0 183 111.5 293t294.5 110q175 0 283 -110t108 -293v-43q0 -58 -33 -90.5t-88 -32.5h-434v-103q0 -77 46 -125.5t126 -48.5q62 0 100 29.5t66 79.5q22 38 43 53.5t57 15.5zM332 649v-24h321v24q0 78 -42.5 128t-114.5 50
q-76 0 -120 -50t-44 -128z" />
    <glyph glyph-name="edieresis" unicode="&#xeb;" horiz-adv-x="972" 
d="M514 1253q0 51 35 85t86 34t86 -34t35 -85t-35 -88t-86 -37t-86 37t-35 88zM227 1253q0 51 36 85t87 34t85 -34t34 -85q0 -52 -34.5 -88.5t-84.5 -36.5q-51 0 -87 37t-36 88zM770 356q55 0 84.5 -43.5t11.5 -105.5q-30 -106 -129.5 -166.5t-236.5 -60.5
q-185 0 -297.5 108.5t-112.5 290.5v242q0 183 111.5 293t294.5 110q175 0 283 -110t108 -293v-43q0 -58 -33 -90.5t-88 -32.5h-434v-103q0 -77 46 -125.5t126 -48.5q62 0 100 29.5t66 79.5q22 38 43 53.5t57 15.5zM332 649v-24h321v24q0 78 -42.5 128t-114.5 50
q-76 0 -120 -50t-44 -128z" />
    <glyph glyph-name="igrave" unicode="&#xec;" horiz-adv-x="497" 
d="M311 1270q19 -24 25 -36.5t6 -31.5q0 -31 -22.5 -54.5t-57.5 -23.5q-26 0 -49 19l-176 143q-37 29 -37 76q0 44 30 73t74 29q45 0 78 -41zM248 1014q55 0 90 -34t35 -89v-780q0 -54 -34.5 -87.5t-88.5 -33.5q-56 0 -90.5 33.5t-34.5 87.5v780q0 55 34.5 89t88.5 34z" />
    <glyph glyph-name="iacute" unicode="&#xed;" horiz-adv-x="497" 
d="M182 1270l129 153q33 41 78 41t75 -29t30 -73q0 -47 -37 -76l-176 -143q-23 -19 -50 -19q-37 0 -59 23.5t-22 54.5q0 18 6.5 31t25.5 37zM248 1014q55 0 90 -34t35 -89v-780q0 -54 -34.5 -87.5t-88.5 -33.5q-56 0 -90.5 33.5t-34.5 87.5v780q0 55 34.5 89t88.5 34z" />
    <glyph glyph-name="icircumflex" unicode="&#xee;" horiz-adv-x="497" 
d="M504 1217q18 -25 18 -46q0 -26 -18.5 -44.5t-44.5 -18.5q-27 0 -53 22l-160 138l-158 -138q-26 -22 -49 -22q-26 0 -45 18.5t-19 44.5q0 23 19 46l170 208q36 50 84 50t88 -50zM248 1014q55 0 90 -34t35 -89v-780q0 -54 -34.5 -87.5t-88.5 -33.5q-56 0 -90.5 33.5
t-34.5 87.5v780q0 55 34.5 89t88.5 34z" />
    <glyph glyph-name="idieresis" unicode="&#xef;" horiz-adv-x="497" 
d="M272 1253q0 51 35 85t86 34t86 -34t35 -85t-35 -88t-86 -37t-86 37t-35 88zM-14 1253q0 51 36 85t87 34t84.5 -34t33.5 -85q0 -52 -34 -88.5t-84 -36.5q-51 0 -87 37t-36 88zM248 1014q55 0 90 -34t35 -89v-780q0 -54 -34.5 -87.5t-88.5 -33.5q-56 0 -90.5 33.5
t-34.5 87.5v780q0 55 34.5 89t88.5 34z" />
    <glyph glyph-name="eth" unicode="&#xf0;" horiz-adv-x="1021" 
d="M850 1219l-66 -23q125 -191 125 -434v-379q0 -185 -112 -294t-295 -109q-184 0 -297 109t-113 294v238q0 186 93 294.5t259 108.5q141 0 220 -102q-21 125 -82 211l-115 -37q-27 -9 -33 -9q-28 0 -44.5 17t-16.5 45q0 46 41 59l84 27l-25 33q-20 23 -20 55
q0 41 28.5 68.5t69.5 27.5t82 -41l69 -78l95 31q15 6 32 6q28 0 45 -16.5t17 -42.5q0 -46 -41 -59zM338 637v-272q0 -78 44 -127.5t120 -49.5q75 0 118.5 49.5t43.5 127.5v272q0 78 -43.5 128t-118.5 50q-76 0 -120 -50t-44 -128z" />
    <glyph glyph-name="ntilde" unicode="&#xf1;" horiz-adv-x="1058" 
d="M729 1337q10 43 62 43q32 0 52.5 -19.5t20.5 -55.5q0 -87 -49 -136t-123 -49q-55 0 -119 31l-88 43q-40 20 -65 20q-16 0 -28.5 -5t-21 -18.5t-10 -16t-8.5 -17.5q-21 -43 -69 -43q-32 0 -53 22t-21 56q0 84 53.5 136t136.5 52q53 0 109 -26l84 -41q60 -29 80 -29
q41 0 57 53zM348 936l6 -31q91 119 254 119t247.5 -102t84.5 -273v-538q0 -54 -34.5 -87.5t-88.5 -33.5t-88.5 33.5t-34.5 87.5v524q0 78 -40.5 126t-114.5 48q-75 0 -120.5 -50t-45.5 -128v-520q0 -54 -34.5 -87.5t-88.5 -33.5q-57 0 -91 33.5t-34 87.5v782q0 55 31 88
t84 33q39 0 70 -20t38 -58z" />
    <glyph glyph-name="ograve" unicode="&#xf2;" horiz-adv-x="999" 
d="M561 1270q19 -24 25 -36.5t6 -31.5q0 -31 -22.5 -54.5t-57.5 -23.5q-26 0 -49 19l-176 143q-37 29 -37 76q0 44 30 73t74 29q45 0 78 -41zM907 621v-238q0 -185 -111.5 -294t-295.5 -109t-297 109t-113 294v238q0 183 113 293t297 110t295.5 -109.5t111.5 -293.5z
M338 637v-272q0 -78 43.5 -127.5t118.5 -49.5t118.5 49.5t43.5 127.5v272q0 78 -43.5 128t-118.5 50t-118.5 -50t-43.5 -128z" />
    <glyph glyph-name="oacute" unicode="&#xf3;" horiz-adv-x="999" 
d="M434 1270l129 153q33 41 78 41q44 0 74 -29t30 -73q0 -48 -36 -76l-177 -143q-23 -19 -49 -19q-37 0 -59.5 23.5t-22.5 54.5q0 18 6.5 30.5t26.5 37.5zM907 621v-238q0 -185 -111.5 -294t-295.5 -109t-297 109t-113 294v238q0 183 113 293t297 110t295.5 -109.5
t111.5 -293.5zM338 637v-272q0 -78 43.5 -127.5t118.5 -49.5t118.5 49.5t43.5 127.5v272q0 78 -43.5 128t-118.5 50t-118.5 -50t-43.5 -128z" />
    <glyph glyph-name="ocircumflex" unicode="&#xf4;" horiz-adv-x="999" 
d="M754 1217q18 -25 18 -46q0 -26 -18.5 -44.5t-44.5 -18.5q-28 0 -54 22l-159 138l-158 -138q-26 -22 -49 -22q-26 0 -45 18.5t-19 44.5q0 23 19 46l170 208q36 50 84 50t88 -50zM907 621v-238q0 -185 -111.5 -294t-295.5 -109t-297 109t-113 294v238q0 183 113 293
t297 110t295.5 -109.5t111.5 -293.5zM338 637v-272q0 -78 43.5 -127.5t118.5 -49.5t118.5 49.5t43.5 127.5v272q0 78 -43.5 128t-118.5 50t-118.5 -50t-43.5 -128z" />
    <glyph glyph-name="otilde" unicode="&#xf5;" horiz-adv-x="999" 
d="M692 1337q10 43 62 43q32 0 52.5 -19.5t20.5 -55.5q0 -87 -49 -136t-123 -49q-54 0 -118 31l-88 43q-40 20 -66 20q-16 0 -28.5 -5t-21 -18.5t-10 -16t-8.5 -17.5q-21 -43 -69 -43q-32 0 -53 22t-21 56q0 84 53.5 136t136.5 52q53 0 109 -26l84 -41q60 -29 80 -29
q41 0 57 53zM907 621v-238q0 -185 -111.5 -294t-295.5 -109t-297 109t-113 294v238q0 183 113 293t297 110t295.5 -109.5t111.5 -293.5zM338 637v-272q0 -78 43.5 -127.5t118.5 -49.5t118.5 49.5t43.5 127.5v272q0 78 -43.5 128t-118.5 50t-118.5 -50t-43.5 -128z" />
    <glyph glyph-name="odieresis" unicode="&#xf6;" horiz-adv-x="999" 
d="M522 1253q0 51 35 85t86 34t86 -34t35 -85t-35 -88t-86 -37t-86 37t-35 88zM236 1253q0 51 35.5 85t86.5 34t85 -34t34 -85q0 -52 -34.5 -88.5t-84.5 -36.5q-51 0 -86.5 37t-35.5 88zM907 621v-238q0 -185 -111.5 -294t-295.5 -109t-297 109t-113 294v238q0 183 113 293
t297 110t295.5 -109.5t111.5 -293.5zM338 637v-272q0 -78 43.5 -127.5t118.5 -49.5t118.5 49.5t43.5 127.5v272q0 78 -43.5 128t-118.5 50t-118.5 -50t-43.5 -128z" />
    <glyph glyph-name="divide" unicode="&#xf7;" horiz-adv-x="1021" 
d="M385 991q0 51 37 88t88 37t88 -37t37 -88t-37 -88t-88 -37t-88 37t-37 88zM86 670q0 48 27.5 77t72.5 29h648q46 0 74 -29.5t28 -76.5q0 -46 -27.5 -75.5t-74.5 -29.5h-648q-45 0 -72.5 29.5t-27.5 75.5zM385 350q0 51 37 89t88 38t88 -38t37 -89q0 -50 -37 -87.5
t-88 -37.5t-88 37.5t-37 87.5z" />
    <glyph glyph-name="oslash" unicode="&#xf8;" horiz-adv-x="999" 
d="M332 643v-283q0 -24 2 -36l260 471q-40 24 -94 24q-78 0 -123 -49t-45 -127zM668 643q0 13 -4 37l-261 -471q40 -27 97 -27q78 0 123 50t45 128v283zM907 621v-238q0 -185 -111.5 -294t-295.5 -109q-111 0 -195 38l-45 -84q-11 -22 -24 -33.5t-37 -11.5q-29 0 -46.5 17
t-17.5 45q0 16 8 29l58 110q-111 111 -111 293v238q0 183 113 293t297 110q108 0 192 -41l45 84q11 22 25 33.5t39 11.5q28 0 44.5 -16.5t16.5 -44.5q0 -16 -8 -29l-57 -111q110 -110 110 -290z" />
    <glyph glyph-name="ugrave" unicode="&#xf9;" horiz-adv-x="1046" 
d="M582 1270q19 -23 24.5 -36t5.5 -32q0 -31 -22.5 -54.5t-57.5 -23.5q-26 0 -49 19l-176 143q-37 29 -37 76q0 44 30 73t75 29t78 -41zM698 66l-8 30q-39 -54 -104 -85t-146 -31q-159 0 -241 96.5t-82 259.5v555q0 55 33.5 89t89.5 34q55 0 90 -34t35 -89v-541
q0 -70 37.5 -112.5t107.5 -42.5q75 0 120.5 50t45.5 126v520q0 55 33.5 89t87.5 34q55 0 90 -34t35 -89v-782q0 -54 -30.5 -86.5t-84.5 -32.5q-37 0 -68.5 21t-40.5 55z" />
    <glyph glyph-name="uacute" unicode="&#xfa;" horiz-adv-x="1046" 
d="M457 1270l129 153q33 41 78 41q44 0 74 -29t30 -73q0 -47 -37 -76l-176 -143q-23 -19 -49 -19q-37 0 -59.5 23.5t-22.5 54.5q0 18 6.5 30.5t26.5 37.5zM698 66l-8 30q-39 -54 -104 -85t-146 -31q-159 0 -241 96.5t-82 259.5v555q0 55 33.5 89t89.5 34q55 0 90 -34t35 -89
v-541q0 -70 37.5 -112.5t107.5 -42.5q75 0 120.5 50t45.5 126v520q0 55 33.5 89t87.5 34q55 0 90 -34t35 -89v-782q0 -54 -30.5 -86.5t-84.5 -32.5q-37 0 -68.5 21t-40.5 55z" />
    <glyph glyph-name="ucircumflex" unicode="&#xfb;" horiz-adv-x="1046" 
d="M774 1217q19 -27 19 -46q0 -26 -19 -44.5t-45 -18.5q-27 0 -53 22l-160 138l-158 -138q-26 -22 -49 -22q-26 0 -44.5 18.5t-18.5 44.5q0 24 18 46l170 208q36 50 84 50t88 -50zM698 66l-8 30q-39 -54 -104 -85t-146 -31q-159 0 -241 96.5t-82 259.5v555q0 55 33.5 89
t89.5 34q55 0 90 -34t35 -89v-541q0 -70 37.5 -112.5t107.5 -42.5q75 0 120.5 50t45.5 126v520q0 55 33.5 89t87.5 34q55 0 90 -34t35 -89v-782q0 -54 -30.5 -86.5t-84.5 -32.5q-37 0 -68.5 21t-40.5 55z" />
    <glyph glyph-name="udieresis" unicode="&#xfc;" horiz-adv-x="1046" 
d="M543 1253q0 51 35 85t86 34t85.5 -34t34.5 -85t-34.5 -88t-85.5 -37t-86 37t-35 88zM256 1253q0 51 36 85t87 34t85 -34t34 -85q0 -52 -34.5 -88.5t-84.5 -36.5q-51 0 -87 37t-36 88zM698 66l-8 30q-39 -54 -104 -85t-146 -31q-159 0 -241 96.5t-82 259.5v555
q0 55 33.5 89t89.5 34q55 0 90 -34t35 -89v-541q0 -70 37.5 -112.5t107.5 -42.5q75 0 120.5 50t45.5 126v520q0 55 33.5 89t87.5 34q55 0 90 -34t35 -89v-782q0 -54 -30.5 -86.5t-84.5 -32.5q-37 0 -68.5 21t-40.5 55z" />
    <glyph glyph-name="yacute" unicode="&#xfd;" horiz-adv-x="950" 
d="M414 1270l129 153q33 41 78 41q44 0 74 -29t30 -73q0 -47 -37 -76l-176 -143q-23 -19 -49 -19q-37 0 -59.5 23.5t-22.5 54.5q0 18 6.5 30.5t26.5 37.5zM897 860l-395 -1163q-12 -40 -42 -65t-69 -25q-55 0 -89 41.5t-17 93.5l80 231l-308 871q-22 62 14 116t101 54
q41 0 74 -25t45 -65l190 -611l191 609q12 41 42 66.5t70 25.5q60 0 96.5 -48.5t16.5 -105.5z" />
    <glyph glyph-name="thorn" unicode="&#xfe;" 
d="M539 809q-75 0 -120.5 -50t-45.5 -128v-260q0 -76 45.5 -126t120.5 -50q74 0 114.5 48t40.5 124v268q0 78 -40.5 126t-114.5 48zM373 1276v-348q83 96 227 96q164 0 252 -106.5t88 -282.5v-266q0 -176 -88 -282.5t-252 -106.5q-146 0 -227 94v-346q0 -54 -35.5 -87.5
t-89.5 -33.5t-88.5 33.5t-34.5 87.5v1548q0 54 34.5 87.5t88.5 33.5t89.5 -33.5t35.5 -87.5z" />
    <glyph glyph-name="ydieresis" unicode="&#xff;" horiz-adv-x="950" 
d="M500 1253q0 51 35 85t86 34t85.5 -34t34.5 -85t-34.5 -88t-85.5 -37t-86 37t-35 88zM213 1253q0 51 36 85t87 34t85 -34t34 -85q0 -52 -34.5 -88.5t-84.5 -36.5q-51 0 -87 37t-36 88zM897 860l-395 -1163q-12 -40 -42 -65t-69 -25q-55 0 -89 41.5t-17 93.5l80 231
l-308 871q-22 62 14 116t101 54q41 0 74 -25t45 -65l190 -611l191 609q12 41 42 66.5t70 25.5q60 0 96.5 -48.5t16.5 -105.5z" />
    <glyph glyph-name="Amacron" unicode="&#x100;" horiz-adv-x="1138" 
d="M313 1563q0 40 24 64t62 24h340q38 0 62 -24t24 -64q0 -38 -24 -62t-62 -24h-340q-38 0 -62 24t-24 62zM1075 164q6 -27 6 -45q0 -56 -32 -92.5t-86 -36.5q-48 0 -80.5 26.5t-46.5 71.5l-54 180h-442l-53 -184q-11 -41 -44 -67.5t-79 -26.5q-53 0 -82 34.5t-29 86.5
q0 15 6 39l342 1075q19 61 63 96t105 35t105 -35t65 -96zM561 1030l-160 -547h322z" />
    <glyph glyph-name="amacron" unicode="&#x101;" 
d="M246 1241q0 38 24 62t62 24h340q38 0 62 -24t24 -62q0 -40 -24 -64t-62 -24h-340q-38 0 -62 25t-24 63zM498 195q75 0 120.5 50t45.5 126v260q0 78 -45.5 128t-120.5 50q-74 0 -115 -48t-41 -126v-268q0 -76 41 -124t115 -48zM686 68l-6 26q-83 -114 -244 -114
q-164 0 -253 106.5t-89 282.5v266q0 176 89 282.5t253 106.5q158 0 244 -115l6 27q9 38 40.5 58t70.5 20q52 0 82 -33t30 -88v-784q0 -54 -30 -86.5t-82 -32.5q-40 0 -71.5 19.5t-39.5 58.5z" />
    <glyph glyph-name="Abreve" unicode="&#x102;" horiz-adv-x="1138" 
d="M735 1700q33 0 54 -21t18 -53q-5 -86 -72.5 -145.5t-167.5 -59.5q-101 0 -167.5 59t-71.5 146q-3 32 17.5 53t53.5 21q35 0 53.5 -17t20.5 -45q2 -39 26.5 -63.5t67.5 -24.5q42 0 67 24.5t28 63.5q4 62 73 62zM1075 164q6 -27 6 -45q0 -56 -32 -92.5t-86 -36.5
q-48 0 -80.5 26.5t-46.5 71.5l-54 180h-442l-53 -184q-11 -41 -44 -67.5t-79 -26.5q-53 0 -82 34.5t-29 86.5q0 15 6 39l342 1075q19 61 63 96t105 35t105 -35t65 -96zM561 1030l-160 -547h322z" />
    <glyph glyph-name="abreve" unicode="&#x103;" 
d="M668 1389q32 0 53 -20.5t18 -51.5q-5 -88 -72 -147.5t-167 -59.5q-101 0 -168 59.5t-72 147.5q-3 30 18 51t54 21q35 0 53.5 -17t20.5 -45q2 -39 26.5 -63.5t67.5 -24.5q42 0 66.5 24.5t27.5 63.5q2 28 20.5 45t53.5 17zM498 195q75 0 120.5 50t45.5 126v260
q0 78 -45.5 128t-120.5 50q-74 0 -115 -48t-41 -126v-268q0 -76 41 -124t115 -48zM686 68l-6 26q-83 -114 -244 -114q-164 0 -253 106.5t-89 282.5v266q0 176 89 282.5t253 106.5q158 0 244 -115l6 27q9 38 40.5 58t70.5 20q52 0 82 -33t30 -88v-784q0 -54 -30 -86.5
t-82 -32.5q-40 0 -71.5 19.5t-39.5 58.5z" />
    <glyph glyph-name="Aogonek" unicode="&#x104;" horiz-adv-x="1138" 
d="M991 -395h-71q-97 0 -148 45.5t-51 118.5q0 83 47.5 149t114.5 100q-30 21 -47 70l-54 180h-442l-53 -184q-11 -41 -44 -67.5t-79 -26.5q-53 0 -82 34.5t-29 86.5q0 15 6 39l342 1075q19 61 63 96t105 35t105 -35t65 -96l336 -1061q6 -27 6 -45q0 -48 -27 -84.5
t-69 -42.5q-119 -89 -119 -180q0 -32 21 -50t63 -18h41q30 0 49 -19t19 -49q0 -31 -19 -51t-49 -20zM561 1030l-160 -547h322z" />
    <glyph glyph-name="aogonek" unicode="&#x105;" 
d="M842 -395h-70q-97 0 -149 46t-52 118q0 77 44 141t108 102q-29 18 -37 54l-6 28q-83 -114 -244 -114q-164 0 -253 106.5t-89 282.5v266q0 176 89 282.5t253 106.5q158 0 244 -115l6 27q28 78 111 78q52 0 82 -33t30 -88v-784q0 -42 -17.5 -71.5t-49.5 -39.5
q-125 -92 -125 -186q0 -32 21 -50t63 -18h41q30 0 48.5 -19t18.5 -49q0 -31 -18.5 -51t-48.5 -20zM498 195q75 0 120.5 50t45.5 126v260q0 78 -45.5 128t-120.5 50q-74 0 -115 -48t-41 -126v-268q0 -76 41 -124t115 -48z" />
    <glyph glyph-name="Cacute" unicode="&#x106;" horiz-adv-x="1134" 
d="M512 1581l129 152q34 43 78 43t74 -29.5t30 -73.5q0 -51 -37 -78l-176 -141q-28 -20 -49 -20q-37 0 -59.5 24t-22.5 55q0 18 6.5 30.5t26.5 37.5zM911 479q60 0 96 -45.5t25 -107.5q-28 -161 -149.5 -253.5t-300.5 -92.5q-211 0 -340 121.5t-129 326.5v490
q0 209 123.5 328.5t347.5 119.5q179 0 299 -91.5t149 -248.5q11 -61 -23.5 -107.5t-99.5 -46.5q-95 0 -118 93q-21 86 -71.5 129t-139.5 43q-98 0 -154.5 -61t-56.5 -163v-481q0 -102 56.5 -162.5t154.5 -60.5q90 0 141 43t72 129q24 98 118 98z" />
    <glyph glyph-name="cacute" unicode="&#x107;" horiz-adv-x="970" 
d="M428 1270l129 153q33 41 78 41q44 0 74 -29t30 -73q0 -47 -37 -76l-176 -143q-23 -19 -49 -19q-37 0 -59.5 23.5t-22.5 54.5q0 18 6.5 30.5t26.5 37.5zM776 395q58 0 91 -45t18 -104q-32 -125 -133.5 -195.5t-249.5 -70.5q-188 0 -300 109t-112 294v238q0 185 111 294
t301 109q136 0 238.5 -67t138.5 -173q20 -58 -10.5 -108.5t-96.5 -50.5q-43 0 -69 18.5t-46 58.5q-28 59 -64.5 86t-90.5 27q-80 0 -122 -49t-42 -129v-272q0 -80 42.5 -128.5t125.5 -48.5q118 0 160 125q27 82 110 82z" />
    <glyph glyph-name="Ccircumflex" unicode="&#x108;" horiz-adv-x="1134" 
d="M831 1530q19 -27 19 -47q0 -25 -19 -43.5t-45 -18.5q-28 0 -53 21l-160 139l-157 -139q-29 -21 -49 -21q-26 0 -45 18.5t-19 43.5q0 20 19 47l170 209q35 49 83 49q50 0 89 -49zM911 479q60 0 96 -45.5t25 -107.5q-28 -161 -149.5 -253.5t-300.5 -92.5q-211 0 -340 121.5
t-129 326.5v490q0 209 123.5 328.5t347.5 119.5q179 0 299 -91.5t149 -248.5q11 -61 -23.5 -107.5t-99.5 -46.5q-95 0 -118 93q-21 86 -71.5 129t-139.5 43q-98 0 -154.5 -61t-56.5 -163v-481q0 -102 56.5 -162.5t154.5 -60.5q90 0 141 43t72 129q24 98 118 98z" />
    <glyph glyph-name="ccircumflex" unicode="&#x109;" horiz-adv-x="970" 
d="M748 1217q18 -25 18 -46q0 -26 -19 -44.5t-45 -18.5q-27 0 -53 22l-160 138l-157 -138q-26 -22 -49 -22q-26 0 -45 18.5t-19 44.5q0 23 19 46l170 208q36 50 84 50t88 -50zM776 395q58 0 91 -45t18 -104q-32 -125 -133.5 -195.5t-249.5 -70.5q-188 0 -300 109t-112 294
v238q0 185 111 294t301 109q136 0 238.5 -67t138.5 -173q20 -58 -10.5 -108.5t-96.5 -50.5q-43 0 -69 18.5t-46 58.5q-28 59 -64.5 86t-90.5 27q-80 0 -122 -49t-42 -129v-272q0 -80 42.5 -128.5t125.5 -48.5q118 0 160 125q27 82 110 82z" />
    <glyph glyph-name="Cdotaccent" unicode="&#x10a;" horiz-adv-x="1134" 
d="M434 1587q0 59 40 99t99 40q60 0 101 -40t41 -99t-41 -100t-101 -41q-58 0 -98.5 41t-40.5 100zM911 479q60 0 96 -45.5t25 -107.5q-28 -161 -149.5 -253.5t-300.5 -92.5q-211 0 -340 121.5t-129 326.5v490q0 209 123.5 328.5t347.5 119.5q179 0 299 -91.5t149 -248.5
q11 -61 -23.5 -107.5t-99.5 -46.5q-95 0 -118 93q-21 86 -71.5 129t-139.5 43q-98 0 -154.5 -61t-56.5 -163v-481q0 -102 56.5 -162.5t154.5 -60.5q90 0 141 43t72 129q24 98 118 98z" />
    <glyph glyph-name="cdotaccent" unicode="&#x10b;" horiz-adv-x="970" 
d="M348 1257q0 59 40.5 100.5t98.5 41.5q60 0 101 -41.5t41 -100.5t-41 -99t-101 -40q-59 0 -99 40t-40 99zM776 395q58 0 91 -45t18 -104q-32 -125 -133.5 -195.5t-249.5 -70.5q-188 0 -300 109t-112 294v238q0 185 111 294t301 109q136 0 238.5 -67t138.5 -173
q20 -58 -10.5 -108.5t-96.5 -50.5q-43 0 -69 18.5t-46 58.5q-28 59 -64.5 86t-90.5 27q-80 0 -122 -49t-42 -129v-272q0 -80 42.5 -128.5t125.5 -48.5q118 0 160 125q27 82 110 82z" />
    <glyph glyph-name="Ccaron" unicode="&#x10c;" horiz-adv-x="1134" 
d="M492 1458l-170 209q-19 23 -19 47q0 25 19 43.5t45 18.5q31 0 55 -21l158 -139l159 139q29 21 49 21q25 0 43.5 -18.5t18.5 -43.5t-16 -47l-170 -209q-39 -49 -86 -49q-51 0 -86 49zM911 479q60 0 96 -45.5t25 -107.5q-28 -161 -149.5 -253.5t-300.5 -92.5
q-211 0 -340 121.5t-129 326.5v490q0 209 123.5 328.5t347.5 119.5q179 0 299 -91.5t149 -248.5q11 -61 -23.5 -107.5t-99.5 -46.5q-95 0 -118 93q-21 86 -71.5 129t-139.5 43q-98 0 -154.5 -61t-56.5 -163v-481q0 -102 56.5 -162.5t154.5 -60.5q90 0 141 43t72 129
q24 98 118 98z" />
    <glyph glyph-name="ccaron" unicode="&#x10d;" horiz-adv-x="970" 
d="M406 1151l-170 207q-19 27 -19 47q0 25 19 43t45 18q32 0 55 -20l158 -137l159 137q23 20 49 20q25 0 43.5 -17.5t18.5 -43.5t-16 -45l-170 -209q-19 -24 -38 -37.5t-48 -13.5q-45 0 -86 51zM776 395q58 0 91 -45t18 -104q-32 -125 -133.5 -195.5t-249.5 -70.5
q-188 0 -300 109t-112 294v238q0 185 111 294t301 109q136 0 238.5 -67t138.5 -173q20 -58 -10.5 -108.5t-96.5 -50.5q-43 0 -69 18.5t-46 58.5q-28 59 -64.5 86t-90.5 27q-80 0 -122 -49t-42 -129v-272q0 -80 42.5 -128.5t125.5 -48.5q118 0 160 125q27 82 110 82z" />
    <glyph glyph-name="Dcaron" unicode="&#x10e;" horiz-adv-x="1210" 
d="M449 1458l-170 209q-19 23 -19 47q0 25 19 43.5t45 18.5q30 0 55 -21l158 -139l159 139q29 21 49 21q25 0 43.5 -18.5t18.5 -43.5t-16 -47l-170 -209q-39 -49 -86 -49q-51 0 -86 49zM614 1346q228 0 357 -123t129 -336v-428q0 -213 -129 -336t-357 -123h-340
q-57 0 -90.5 34t-33.5 91v1096q0 57 33.5 91t90.5 34h340zM614 1116h-208v-887h208q109 0 169.5 63t60.5 171v420q0 108 -60.5 170.5t-169.5 62.5z" />
    <glyph glyph-name="dcaron" unicode="&#x10f;" 
d="M1210 1260l-71 -173q-20 -49 -72 -49q-32 0 -53 20.5t-21 51.5q0 7 4 35l23 172q5 36 29.5 58t64.5 22q45 0 75 -27.5t30 -69.5q0 -19 -9 -40zM498 195q75 0 120.5 50t45.5 126v260q0 78 -45.5 128t-120.5 50q-74 0 -115 -48t-41 -126v-268q0 -76 41 -124t115 -48z
M909 1276v-1167q0 -54 -30 -86.5t-82 -32.5q-41 0 -72 18.5t-39 57.5l-6 28q-83 -114 -244 -114q-164 0 -253 106.5t-89 282.5v266q0 176 89 282.5t253 106.5q142 0 228 -96v348q0 54 33.5 87.5t88.5 33.5q54 0 88.5 -33.5t34.5 -87.5z" />
    <glyph glyph-name="Dcroat" unicode="&#x110;" horiz-adv-x="1253" 
d="M657 1346q226 0 355 -123t129 -336v-428q0 -213 -129 -336t-355 -123h-340q-57 0 -90.5 34t-33.5 91v453h-50q-44 0 -72 29.5t-28 74.5t28 74.5t72 29.5h50v435q0 57 33.5 91t90.5 34h340zM657 1116h-211v-330h119q45 0 74 -29.5t29 -74.5q0 -46 -28.5 -75t-74.5 -29
h-119v-349h211q109 0 169.5 63t60.5 171v420q0 108 -60.5 170.5t-169.5 62.5z" />
    <glyph glyph-name="dcroat" unicode="&#x111;" 
d="M498 195q75 0 120.5 50t45.5 126v260q0 78 -45.5 128t-120.5 50q-74 0 -115 -48t-41 -126v-268q0 -76 41 -124t115 -48zM909 1276v-21h62q33 0 53 -20t20 -53t-20 -53.5t-53 -20.5h-62v-999q0 -54 -30 -86.5t-82 -32.5q-41 0 -72 18.5t-39 57.5l-6 28q-83 -114 -244 -114
q-164 0 -253 106.5t-89 282.5v266q0 176 89 282.5t253 106.5q142 0 228 -96v180h-134q-33 0 -53 20.5t-20 53.5t20 53t53 20h134v21q0 54 33.5 87.5t88.5 33.5q54 0 88.5 -33.5t34.5 -87.5z" />
    <glyph glyph-name="Emacron" unicode="&#x112;" horiz-adv-x="1075" 
d="M307 1563q0 40 24 64t62 24h340q38 0 62 -24t24 -64q0 -38 -24 -62t-62 -24h-340q-38 0 -62 24t-24 62zM809 571h-403v-342h479q50 0 81 -32t31 -82q0 -51 -30.5 -83t-81.5 -32h-611q-57 0 -90.5 34t-33.5 91v1096q0 57 33.5 91t90.5 34h592q50 0 81.5 -31t31.5 -82
t-32 -84t-81 -33h-460v-319h403q51 0 81 -32t30 -83t-30 -81t-81 -30z" />
    <glyph glyph-name="emacron" unicode="&#x113;" horiz-adv-x="972" 
d="M233 1241q0 38 24 62t62 24h340q38 0 62 -24t24 -62q0 -40 -24 -64t-62 -24h-340q-38 0 -62 25t-24 63zM770 356q55 0 84.5 -43.5t11.5 -105.5q-30 -106 -129.5 -166.5t-236.5 -60.5q-185 0 -297.5 108.5t-112.5 290.5v242q0 183 111.5 293t294.5 110q175 0 283 -110
t108 -293v-43q0 -58 -33 -90.5t-88 -32.5h-434v-103q0 -77 46 -125.5t126 -48.5q62 0 100 29.5t66 79.5q22 38 43 53.5t57 15.5zM332 649v-24h321v24q0 78 -42.5 128t-114.5 50q-76 0 -120 -50t-44 -128z" />
    <glyph glyph-name="Ebreve" unicode="&#x114;" horiz-adv-x="1075" 
d="M735 1700q33 0 54 -21t18 -53q-5 -86 -72.5 -145.5t-167.5 -59.5q-101 0 -167.5 59t-71.5 146q-3 32 17.5 53t53.5 21q35 0 53.5 -17t20.5 -45q2 -39 26.5 -63.5t67.5 -24.5q42 0 67 24.5t28 63.5q4 62 73 62zM809 571h-403v-342h479q50 0 81 -32t31 -82q0 -51 -30.5 -83
t-81.5 -32h-611q-57 0 -90.5 34t-33.5 91v1096q0 57 33.5 91t90.5 34h592q50 0 81.5 -31t31.5 -82t-32 -84t-81 -33h-460v-319h403q51 0 81 -32t30 -83t-30 -81t-81 -30z" />
    <glyph glyph-name="ebreve" unicode="&#x115;" horiz-adv-x="972" 
d="M655 1389q33 0 54 -21t18 -51q-5 -87 -72.5 -147t-167.5 -60q-101 0 -167.5 59.5t-71.5 147.5q-3 31 17.5 51.5t53.5 20.5q35 0 53.5 -17t20.5 -45q2 -39 26.5 -63.5t67.5 -24.5q42 0 67 24.5t28 63.5q4 62 73 62zM770 356q55 0 84.5 -43.5t11.5 -105.5
q-30 -106 -129.5 -166.5t-236.5 -60.5q-185 0 -297.5 108.5t-112.5 290.5v242q0 183 111.5 293t294.5 110q175 0 283 -110t108 -293v-43q0 -58 -33 -90.5t-88 -32.5h-434v-103q0 -77 46 -125.5t126 -48.5q62 0 100 29.5t66 79.5q22 38 43 53.5t57 15.5zM332 649v-24h321v24
q0 78 -42.5 128t-114.5 50q-76 0 -120 -50t-44 -128z" />
    <glyph glyph-name="Edotaccent" unicode="&#x116;" horiz-adv-x="1075" 
d="M428 1587q0 59 40 99t99 40q60 0 101 -40t41 -99t-41 -100t-101 -41q-58 0 -98.5 41t-40.5 100zM809 571h-403v-342h479q50 0 81 -32t31 -82q0 -51 -30.5 -83t-81.5 -32h-611q-57 0 -90.5 34t-33.5 91v1096q0 57 33.5 91t90.5 34h592q50 0 81.5 -31t31.5 -82t-32 -84
t-81 -33h-460v-319h403q51 0 81 -32t30 -83t-30 -81t-81 -30z" />
    <glyph glyph-name="edotaccent" unicode="&#x117;" horiz-adv-x="972" 
d="M348 1257q0 59 40.5 100.5t98.5 41.5q60 0 101 -41.5t41 -100.5t-41 -99t-101 -40q-59 0 -99 40t-40 99zM770 356q55 0 84.5 -43.5t11.5 -105.5q-30 -106 -129.5 -166.5t-236.5 -60.5q-185 0 -297.5 108.5t-112.5 290.5v242q0 183 111.5 293t294.5 110q175 0 283 -110
t108 -293v-43q0 -58 -33 -90.5t-88 -32.5h-434v-103q0 -77 46 -125.5t126 -48.5q62 0 100 29.5t66 79.5q22 38 43 53.5t57 15.5zM332 649v-24h321v24q0 78 -42.5 128t-114.5 50q-76 0 -120 -50t-44 -128z" />
    <glyph glyph-name="Eogonek" unicode="&#x118;" horiz-adv-x="1075" 
d="M946 -324q0 -31 -18.5 -51t-48.5 -20h-70q-97 0 -149 46t-52 118q0 73 36 134t91 97h-461q-57 0 -90.5 34t-33.5 91v1096q0 57 33.5 91t90.5 34h592q50 0 81.5 -31t31.5 -82t-32 -84t-81 -33h-460v-319h403q51 0 81 -32t30 -83t-30 -81t-81 -30h-403v-342h479
q50 0 81 -32t31 -82q0 -51 -30.5 -83t-81.5 -32h-13q-118 -88 -118 -188q0 -32 21 -50t63 -18h41q30 0 48.5 -19t18.5 -49z" />
    <glyph glyph-name="eogonek" unicode="&#x119;" horiz-adv-x="972" 
d="M770 354q55 0 86 -46t10 -103q-26 -85 -123 -160q-106 -82 -106 -211q0 -41 21.5 -65.5t62.5 -24.5h41q31 0 49 -18t18 -50q0 -33 -18 -52t-49 -19h-72q-96 0 -147 51.5t-51 134.5q0 109 61 193q-20 -4 -53 -4q-185 0 -297.5 108.5t-112.5 290.5v242q0 183 111.5 293
t294.5 110q175 0 283 -110t108 -293v-43q0 -58 -33 -90.5t-88 -32.5h-434v-103q0 -77 46 -125.5t126 -48.5q111 0 162 107q22 37 44.5 53t59.5 16zM332 649v-24h321v24q0 78 -42.5 128t-114.5 50q-76 0 -120 -50t-44 -128z" />
    <glyph glyph-name="Ecaron" unicode="&#x11a;" horiz-adv-x="1075" 
d="M483 1458l-170 209q-18 22 -18 47t18.5 43.5t44.5 18.5q32 0 56 -21l157 -139l160 139q29 21 49 21q25 0 43.5 -18.5t18.5 -43.5q0 -23 -17 -47l-170 -209q-39 -49 -86 -49q-51 0 -86 49zM809 571h-403v-342h479q50 0 81 -32t31 -82q0 -51 -30.5 -83t-81.5 -32h-611
q-57 0 -90.5 34t-33.5 91v1096q0 57 33.5 91t90.5 34h592q50 0 81.5 -31t31.5 -82t-32 -84t-81 -33h-460v-319h403q51 0 81 -32t30 -83t-30 -81t-81 -30z" />
    <glyph glyph-name="ecaron" unicode="&#x11b;" horiz-adv-x="972" 
d="M406 1151l-170 207q-19 27 -19 47q0 25 19 43t45 18q32 0 55 -20l158 -137l159 137q23 20 49 20q25 0 43.5 -17.5t18.5 -43.5t-16 -45l-170 -209q-19 -24 -38 -37.5t-48 -13.5q-45 0 -86 51zM770 356q55 0 84.5 -43.5t11.5 -105.5q-30 -106 -129.5 -166.5t-236.5 -60.5
q-185 0 -297.5 108.5t-112.5 290.5v242q0 183 111.5 293t294.5 110q175 0 283 -110t108 -293v-43q0 -58 -33 -90.5t-88 -32.5h-434v-103q0 -77 46 -125.5t126 -48.5q62 0 100 29.5t66 79.5q22 38 43 53.5t57 15.5zM332 649v-24h321v24q0 78 -42.5 128t-114.5 50
q-76 0 -120 -50t-44 -128z" />
    <glyph glyph-name="Gcircumflex" unicode="&#x11c;" horiz-adv-x="1142" 
d="M831 1530q19 -27 19 -47q0 -25 -19 -43.5t-45 -18.5q-28 0 -53 21l-160 139l-157 -139q-29 -21 -49 -21q-26 0 -45 18.5t-19 43.5q0 20 19 47l170 209q35 49 83 49q50 0 89 -49zM598 586q0 43 26.5 70.5t69.5 27.5h250q44 0 71 -28t27 -72v-162q0 -203 -125.5 -322.5
t-332.5 -119.5q-211 0 -341 121.5t-130 326.5v490q0 208 126.5 328t348.5 120q180 0 299 -89.5t147 -244.5q10 -59 -21.5 -102t-94.5 -43q-45 0 -77 22.5t-42 61.5q-22 85 -73 125.5t-140 40.5q-102 0 -159.5 -61t-57.5 -163v-481q0 -102 57 -162.5t156 -60.5
q106 0 164.5 58.5t58.5 156.5v59h-111q-42 0 -69 29t-27 74z" />
    <glyph glyph-name="gcircumflex" unicode="&#x11d;" 
d="M762 1217q18 -25 18 -46q0 -26 -18.5 -44.5t-44.5 -18.5q-27 0 -53 22l-160 138l-158 -138q-26 -22 -49 -22q-26 0 -45 18.5t-19 44.5q0 23 19 46l170 208q36 50 84 50t88 -50zM498 233q75 0 120.5 50.5t45.5 128.5v219q0 78 -45.5 128t-120.5 50q-74 0 -115 -48
t-41 -126v-227q0 -78 41 -126.5t115 -48.5zM680 909l6 23q11 41 41.5 61.5t69.5 20.5q52 0 82 -33t30 -88v-926q0 -171 -109.5 -270.5t-293.5 -99.5q-127 0 -223.5 46t-141.5 124q-18 38 -16.5 76.5t31 68t77.5 29.5q65 0 107 -60q26 -39 62 -61.5t96 -22.5q82 0 124 43
t42 119v154q-85 -95 -228 -95q-164 0 -253 107t-89 283v227q0 176 89 282.5t253 106.5q158 0 244 -115z" />
    <glyph glyph-name="Gbreve" unicode="&#x11e;" horiz-adv-x="1142" 
d="M743 1700q33 0 54 -21t18 -53q-5 -86 -72.5 -145.5t-167.5 -59.5q-101 0 -167.5 59t-71.5 146q-3 32 18 53t54 21q69 0 73 -62q2 -39 26.5 -63.5t67.5 -24.5q42 0 67 24.5t28 63.5q4 62 73 62zM598 586q0 43 26.5 70.5t69.5 27.5h250q44 0 71 -28t27 -72v-162
q0 -203 -125.5 -322.5t-332.5 -119.5q-211 0 -341 121.5t-130 326.5v490q0 208 126.5 328t348.5 120q180 0 299 -89.5t147 -244.5q10 -59 -21.5 -102t-94.5 -43q-45 0 -77 22.5t-42 61.5q-22 85 -73 125.5t-140 40.5q-102 0 -159.5 -61t-57.5 -163v-481q0 -102 57 -162.5
t156 -60.5q106 0 164.5 58.5t58.5 156.5v59h-111q-42 0 -69 29t-27 74z" />
    <glyph glyph-name="gbreve" unicode="&#x11f;" 
d="M672 1389q32 0 53 -20.5t18 -51.5q-5 -88 -72 -147.5t-167 -59.5q-101 0 -168 59.5t-72 147.5q-3 30 18 51t54 21q35 0 53.5 -17t20.5 -45q2 -39 26.5 -63.5t67.5 -24.5q42 0 66.5 24.5t27.5 63.5q2 28 20.5 45t53.5 17zM498 233q75 0 120.5 50.5t45.5 128.5v219
q0 78 -45.5 128t-120.5 50q-74 0 -115 -48t-41 -126v-227q0 -78 41 -126.5t115 -48.5zM680 909l6 23q11 41 41.5 61.5t69.5 20.5q52 0 82 -33t30 -88v-926q0 -171 -109.5 -270.5t-293.5 -99.5q-127 0 -223.5 46t-141.5 124q-18 38 -16.5 76.5t31 68t77.5 29.5q65 0 107 -60
q26 -39 62 -61.5t96 -22.5q82 0 124 43t42 119v154q-85 -95 -228 -95q-164 0 -253 107t-89 283v227q0 176 89 282.5t253 106.5q158 0 244 -115z" />
    <glyph glyph-name="Gdotaccent" unicode="&#x120;" horiz-adv-x="1142" 
d="M436 1587q0 59 40 99t99 40q60 0 101 -40t41 -99t-41 -100t-101 -41q-58 0 -98.5 41t-40.5 100zM598 586q0 43 26.5 70.5t69.5 27.5h250q44 0 71 -28t27 -72v-162q0 -203 -125.5 -322.5t-332.5 -119.5q-211 0 -341 121.5t-130 326.5v490q0 208 126.5 328t348.5 120
q180 0 299 -89.5t147 -244.5q10 -59 -21.5 -102t-94.5 -43q-45 0 -77 22.5t-42 61.5q-22 85 -73 125.5t-140 40.5q-102 0 -159.5 -61t-57.5 -163v-481q0 -102 57 -162.5t156 -60.5q106 0 164.5 58.5t58.5 156.5v59h-111q-42 0 -69 29t-27 74z" />
    <glyph glyph-name="gdotaccent" unicode="&#x121;" 
d="M365 1257q0 59 40.5 100.5t98.5 41.5q60 0 100.5 -41.5t40.5 -100.5t-40.5 -99t-100.5 -40q-58 0 -98.5 40t-40.5 99zM498 233q75 0 120.5 50.5t45.5 128.5v219q0 78 -45.5 128t-120.5 50q-74 0 -115 -48t-41 -126v-227q0 -78 41 -126.5t115 -48.5zM680 909l6 23
q11 41 41.5 61.5t69.5 20.5q52 0 82 -33t30 -88v-926q0 -171 -109.5 -270.5t-293.5 -99.5q-127 0 -223.5 46t-141.5 124q-18 38 -16.5 76.5t31 68t77.5 29.5q65 0 107 -60q26 -39 62 -61.5t96 -22.5q82 0 124 43t42 119v154q-85 -95 -228 -95q-164 0 -253 107t-89 283v227
q0 176 89 282.5t253 106.5q158 0 244 -115z" />
    <glyph glyph-name="uni0122" unicode="&#x122;" horiz-adv-x="1142" 
d="M598 586q0 43 26.5 70.5t69.5 27.5h250q44 0 71 -28t27 -72v-162q0 -203 -125.5 -322.5t-332.5 -119.5q-211 0 -341 121.5t-130 326.5v490q0 208 126.5 328t348.5 120q180 0 299 -89.5t147 -244.5q10 -59 -21.5 -102t-94.5 -43q-45 0 -77 22.5t-42 61.5q-22 85 -73 125.5
t-140 40.5q-102 0 -159.5 -61t-57.5 -163v-481q0 -102 57 -162.5t156 -60.5q106 0 164.5 58.5t58.5 156.5v59h-111q-42 0 -69 29t-27 74zM698 -262l-96 -205q-25 -55 -82 -55q-36 0 -60 24t-24 60q0 12 6 39l47 209q9 40 38 64t69 24q47 0 79 -31t32 -80q0 -31 -9 -49z" />
    <glyph glyph-name="uni0123" unicode="&#x123;" 
d="M389 1282l96 205q25 55 82 55q36 0 60 -24t24 -60q0 -12 -6 -39l-47 -209q-9 -40 -37.5 -64t-68.5 -24q-47 0 -79 31t-32 80q0 33 8 49zM498 233q75 0 120.5 50.5t45.5 128.5v219q0 78 -45.5 128t-120.5 50q-74 0 -115 -48t-41 -126v-227q0 -78 41 -126.5t115 -48.5z
M680 909l6 23q11 41 41.5 61.5t69.5 20.5q52 0 82 -33t30 -88v-926q0 -171 -109.5 -270.5t-293.5 -99.5q-127 0 -223.5 46t-141.5 124q-18 38 -16.5 76.5t31 68t77.5 29.5q65 0 107 -60q26 -39 62 -61.5t96 -22.5q82 0 124 43t42 119v154q-85 -95 -228 -95q-164 0 -253 107
t-89 283v227q0 176 89 282.5t253 106.5q158 0 244 -115z" />
    <glyph glyph-name="Hcircumflex" unicode="&#x124;" horiz-adv-x="1226" 
d="M868 1530q19 -27 19 -47q0 -25 -19 -43.5t-45 -18.5q-29 0 -53 21l-160 139l-157 -139q-29 -21 -50 -21q-26 0 -44.5 18.5t-18.5 43.5q0 22 18 47l170 209q35 49 84 49t88 -49zM1077 1231v-1116q0 -57 -36 -91t-93 -34t-92 34t-35 91v454h-415v-454q0 -56 -37 -90.5
t-95 -34.5q-57 0 -90.5 34t-33.5 91v1116q0 57 34.5 91t91.5 34q58 0 94 -34.5t36 -90.5v-432h415v432q0 57 35 91t92 34q56 0 92.5 -34.5t36.5 -90.5z" />
    <glyph glyph-name="hcircumflex" unicode="&#x125;" horiz-adv-x="1058" 
d="M504 1530q18 -25 18 -45q0 -26 -18.5 -45t-44.5 -19t-53 23l-160 137l-158 -137q-27 -23 -49 -23q-26 0 -45 19t-19 45q0 22 19 45l170 209q35 49 84 49t88 -49zM250 -10q-57 0 -91 33.5t-34 87.5v1165q0 54 34.5 87.5t90.5 33.5q54 0 88.5 -33.5t34.5 -87.5v-352
q90 100 235 100q163 0 247.5 -102t84.5 -273v-538q0 -54 -34.5 -87.5t-88.5 -33.5q-55 0 -89 33.5t-34 87.5v524q0 78 -40.5 126t-114.5 48q-75 0 -120.5 -50t-45.5 -128v-520q0 -54 -34.5 -87.5t-88.5 -33.5z" />
    <glyph glyph-name="Hbar" unicode="&#x126;" horiz-adv-x="1236" 
d="M1081 1231v-98h66q33 0 53.5 -20.5t20.5 -53.5q0 -32 -21 -52t-53 -20h-66v-872q0 -57 -36 -91t-93 -34t-92 34t-35 91v454h-415v-454q0 -56 -36.5 -90.5t-94.5 -34.5q-57 0 -91 34t-34 91v872h-62q-34 0 -54 20t-20 52q0 34 20 54t54 20h62v98q0 57 35 91t92 34t93 -34
t36 -91v-98h415v98q0 57 35 91t92 34q56 0 92.5 -34.5t36.5 -90.5zM410 799h415v188h-415v-188z" />
    <glyph glyph-name="hbar" unicode="&#x127;" horiz-adv-x="1058" 
d="M250 -10q-57 0 -91 33.5t-34 87.5v997h-57q-33 0 -53.5 20.5t-20.5 53.5q0 32 20 52.5t54 20.5h57v21q0 54 34.5 87.5t90.5 33.5q54 0 88.5 -33.5t34.5 -87.5v-21h137q32 0 52 -20.5t20 -52.5t-20 -53t-52 -21h-137v-184q90 100 235 100q163 0 247.5 -102t84.5 -273v-538
q0 -54 -34.5 -87.5t-88.5 -33.5q-55 0 -89 33.5t-34 87.5v524q0 78 -40.5 126t-114.5 48q-75 0 -120.5 -50t-45.5 -128v-520q0 -54 -34.5 -87.5t-88.5 -33.5z" />
    <glyph glyph-name="Itilde" unicode="&#x128;" horiz-adv-x="555" 
d="M471 1645q10 43 61 43q32 0 53 -21t21 -57q0 -87 -49 -136t-123 -49q-55 0 -119 31l-88 43q-42 21 -65 21q-8 0 -14.5 -1t-12 -4t-10 -5.5t-8.5 -7.5t-6.5 -8t-5.5 -9t-4.5 -8.5t-4 -8t-2.5 -6.5q-21 -43 -69 -43q-32 0 -53 22t-21 56q0 84 53.5 136.5t136.5 52.5
q51 0 109 -27l84 -41q60 -29 80 -29q42 0 57 56zM406 1231v-1116q0 -56 -36 -90.5t-94 -34.5q-57 0 -91.5 34t-34.5 91v1116q0 57 34.5 91t91.5 34q59 0 94.5 -34t35.5 -91z" />
    <glyph glyph-name="itilde" unicode="&#x129;" horiz-adv-x="497" 
d="M442 1337q10 43 62 43q32 0 53 -20t21 -55q0 -87 -49 -136t-123 -49q-55 0 -119 31l-88 43q-40 20 -66 20q-9 0 -16.5 -2t-12.5 -4.5t-10.5 -7t-8.5 -8t-7 -10t-5 -9t-4 -9t-3 -7.5q-21 -43 -70 -43q-32 0 -53 22t-21 56q0 84 54 136t137 52q52 0 108 -26l84 -41
q60 -29 80 -29q41 0 57 53zM248 1014q55 0 90 -34t35 -89v-780q0 -54 -34.5 -87.5t-88.5 -33.5q-56 0 -90.5 33.5t-34.5 87.5v780q0 55 34.5 89t88.5 34z" />
    <glyph glyph-name="Imacron" unicode="&#x12a;" horiz-adv-x="555" 
d="M20 1563q0 40 24 64t62 24h340q38 0 62 -24t24 -64q0 -38 -24 -62t-62 -24h-340q-38 0 -62 24t-24 62zM406 1231v-1116q0 -56 -36 -90.5t-94 -34.5q-57 0 -91.5 34t-34.5 91v1116q0 57 34.5 91t91.5 34q59 0 94.5 -34t35.5 -91z" />
    <glyph glyph-name="imacron" unicode="&#x12b;" horiz-adv-x="497" 
d="M-6 1241q0 38 24 62t62 24h340q38 0 62 -24t24 -62q0 -40 -24 -64t-62 -24h-340q-38 0 -62 25t-24 63zM248 1014q55 0 90 -34t35 -89v-780q0 -54 -34.5 -87.5t-88.5 -33.5q-56 0 -90.5 33.5t-34.5 87.5v780q0 55 34.5 89t88.5 34z" />
    <glyph glyph-name="Iogonek" unicode="&#x12e;" horiz-adv-x="555" 
d="M338 -395h-72q-97 0 -147.5 45.5t-50.5 118.5q0 76 39 138.5t100 100.5q-57 37 -57 107v1116q0 57 34.5 91t91.5 34q59 0 94.5 -34t35.5 -91v-1116q0 -41 -20 -72t-54 -43q-119 -93 -119 -188q0 -32 21 -50t63 -18h41q29 0 48.5 -19.5t19.5 -48.5q0 -31 -19.5 -51
t-48.5 -20z" />
    <glyph glyph-name="iogonek" unicode="&#x12f;" horiz-adv-x="497" 
d="M109 1274q0 59 40.5 99t100.5 40q58 0 98.5 -40.5t40.5 -98.5t-40.5 -98.5t-98.5 -40.5q-60 0 -100.5 40t-40.5 99zM305 -395h-69q-97 0 -149 46t-52 118q0 77 40 139.5t101 101.5q-51 33 -51 101v780q0 55 34.5 89t90.5 34q54 0 88.5 -34t34.5 -89v-780q0 -39 -19.5 -69
t-52.5 -42q-121 -89 -121 -188q0 -32 21 -50t63 -18h41q29 0 48.5 -19.5t19.5 -48.5q0 -31 -19.5 -51t-48.5 -20z" />
    <glyph glyph-name="Idotaccent" unicode="&#x130;" horiz-adv-x="555" 
d="M135 1587q0 59 40.5 99t98.5 40q60 0 101 -40t41 -99t-41 -100t-101 -41q-58 0 -98.5 41t-40.5 100zM406 1231v-1116q0 -56 -36 -90.5t-94 -34.5q-57 0 -91.5 34t-34.5 91v1116q0 57 34.5 91t91.5 34q59 0 94.5 -34t35.5 -91z" />
    <glyph glyph-name="dotlessi" unicode="&#x131;" horiz-adv-x="497" 
d="M248 1014q55 0 90 -34t35 -89v-780q0 -54 -34.5 -87.5t-88.5 -33.5q-56 0 -90.5 33.5t-34.5 87.5v780q0 55 34.5 89t88.5 34z" />
    <glyph glyph-name="IJ" unicode="&#x132;" horiz-adv-x="1583" 
d="M406 1231v-1116q0 -56 -36 -90.5t-94 -34.5q-57 0 -91.5 34t-34.5 91v1116q0 57 34.5 91t91.5 34q59 0 94.5 -34t35.5 -91zM721 487q111 0 129 -120q11 -73 54 -115.5t114 -42.5q81 0 124.5 48.5t43.5 133.5v840q0 57 35 91t92 34t93 -34t36 -91v-844q0 -187 -116.5 -297
t-307.5 -110q-183 0 -296.5 101t-123.5 275q-3 53 32.5 92t90.5 39z" />
    <glyph glyph-name="ij" unicode="&#x133;" horiz-adv-x="1007" 
d="M618 1274q0 58 40.5 98.5t99.5 40.5q58 0 98.5 -40.5t40.5 -98.5t-40.5 -98.5t-98.5 -40.5q-59 0 -99.5 40.5t-40.5 98.5zM109 1274q0 59 40.5 99t100.5 40q58 0 98.5 -40.5t40.5 -98.5t-40.5 -98.5t-98.5 -40.5q-60 0 -100.5 40t-40.5 99zM506 -195q129 15 129 144v942
q0 55 33.5 89t89.5 34q55 0 90 -34t35 -89v-928q0 -179 -97 -272.5t-266 -93.5q-51 0 -80.5 29t-29.5 77q0 43 25 69.5t71 32.5zM250 1014q54 0 88.5 -34t34.5 -89v-780q0 -54 -34.5 -87.5t-88.5 -33.5q-56 0 -90.5 33.5t-34.5 87.5v780q0 55 34.5 89t90.5 34z" />
    <glyph glyph-name="Jcircumflex" unicode="&#x134;" horiz-adv-x="1021" 
d="M1008 1530q18 -25 18 -47q0 -25 -18.5 -43.5t-44.5 -18.5q-29 0 -54 21l-159 139l-158 -139q-29 -21 -49 -21q-26 0 -45 18.5t-19 43.5q0 20 19 47l170 209q35 49 84 49t88 -49zM160 487q111 0 129 -120q11 -73 54 -115.5t114 -42.5q81 0 124.5 48.5t43.5 133.5v840
q0 57 35 91t92 34t93 -34t36 -91v-844q0 -187 -116.5 -297t-307.5 -110q-183 0 -296.5 101t-123.5 275q-3 53 32.5 92t90.5 39z" />
    <glyph glyph-name="jcircumflex" unicode="&#x135;" horiz-adv-x="497" 
d="M504 1217q18 -25 18 -46q0 -26 -18.5 -44.5t-44.5 -18.5q-27 0 -53 22l-160 138l-158 -138q-26 -22 -49 -22q-26 0 -45 18.5t-19 44.5q0 23 19 46l170 208q36 50 84 50t88 -50zM-4 -195q129 15 129 144v942q0 55 33.5 89t89.5 34q55 0 90 -34t35 -89v-928
q0 -179 -97 -272.5t-266 -93.5q-46 0 -77 29.5t-31 76.5q0 42 26 69.5t68 32.5z" />
    <glyph glyph-name="uni0136" unicode="&#x136;" horiz-adv-x="1138" 
d="M1024 1174l-270 -394l313 -606q12 -27 12 -55q0 -54 -37.5 -91.5t-91.5 -37.5q-41 0 -73.5 24t-49.5 58l-243 489l-178 -250v-196q0 -56 -36 -90.5t-94 -34.5q-57 0 -91.5 34t-34.5 91v1116q0 57 33.5 91t90.5 34q58 0 95 -34.5t37 -90.5v-533l411 602q37 56 103 56
q51 0 85.5 -35t34.5 -86q0 -35 -16 -61zM692 -262l-96 -205q-25 -55 -82 -55q-36 0 -60 24t-24 60q0 12 6 39l47 209q9 40 38 64t69 24q47 0 78.5 -31t31.5 -80q0 -33 -8 -49z" />
    <glyph glyph-name="uni0137" unicode="&#x137;" horiz-adv-x="991" 
d="M821 -10q-35 0 -63 17.5t-43 47.5l-223 377l-119 -119v-202q0 -54 -34.5 -87.5t-88.5 -33.5q-57 0 -91 33.5t-34 87.5v1165q0 54 34.5 87.5t90.5 33.5q55 0 89 -33.5t34 -87.5v-662l352 361q39 39 80 39q43 0 76.5 -32.5t33.5 -80.5q0 -44 -26 -67l-223 -228l256 -434
q18 -36 18 -61q0 -51 -34.5 -86t-84.5 -35zM610 -262l-96 -205q-25 -55 -82 -55q-36 0 -60 24t-24 60q0 12 6 39l47 209q9 40 38 64t69 24q47 0 78.5 -31t31.5 -80q0 -33 -8 -49z" />
    <glyph glyph-name="kgreenlandic" unicode="&#x138;" horiz-adv-x="991" 
d="M821 -10q-35 0 -63 17.5t-43 47.5l-223 377l-119 -119v-202q0 -54 -34.5 -87.5t-88.5 -33.5q-57 0 -91 33.5t-34 87.5v780q0 54 34.5 87.5t90.5 33.5q55 0 89 -33.5t34 -87.5v-277l352 361q39 39 80 39q43 0 76.5 -32.5t33.5 -80.5q0 -44 -26 -67l-223 -228l256 -434
q18 -36 18 -61q0 -51 -34.5 -86t-84.5 -35z" />
    <glyph glyph-name="Lacute" unicode="&#x139;" horiz-adv-x="960" 
d="M205 1581l129 152q34 43 78 43t74 -29.5t30 -73.5q0 -51 -37 -78l-176 -141q-28 -20 -49 -20q-37 0 -59.5 24t-22.5 55q0 18 6.5 30.5t26.5 37.5zM406 1231v-1002h423q51 0 82 -32t31 -82q0 -51 -31 -83t-82 -32h-553q-57 0 -91.5 34t-34.5 91v1106q0 57 34.5 91t91.5 34
q58 0 94 -34.5t36 -90.5z" />
    <glyph glyph-name="lacute" unicode="&#x13a;" horiz-adv-x="503" 
d="M184 1597l129 152q34 43 78 43q45 0 75 -29t30 -73q0 -51 -37 -78l-176 -142q-28 -20 -50 -20q-36 0 -58.5 24.5t-22.5 55.5q0 18 6 30.5t26 36.5zM252 1397q54 0 88.5 -33.5t34.5 -87.5v-1165q0 -54 -34.5 -87.5t-88.5 -33.5t-88.5 33.5t-34.5 87.5v1165q0 54 34.5 87.5
t88.5 33.5z" />
    <glyph glyph-name="uni013B" unicode="&#x13b;" horiz-adv-x="960" 
d="M406 1231v-1002h423q51 0 82 -32t31 -82q0 -51 -31 -83t-82 -32h-553q-57 0 -91.5 34t-34.5 91v1106q0 57 34.5 91t91.5 34q58 0 94 -34.5t36 -90.5zM612 -262l-96 -205q-25 -55 -82 -55q-36 0 -60 24t-24 60q0 12 6 39l47 209q9 40 38 64t69 24q47 0 79 -31t32 -80
q0 -31 -9 -49z" />
    <glyph glyph-name="uni013C" unicode="&#x13c;" horiz-adv-x="503" 
d="M252 1397q54 0 88.5 -33.5t34.5 -87.5v-1165q0 -54 -34.5 -87.5t-88.5 -33.5t-88.5 33.5t-34.5 87.5v1165q0 54 34.5 87.5t88.5 33.5zM338 -262l-96 -205q-25 -55 -82 -55q-36 0 -60 24t-24 60q0 12 6 39l47 209q9 40 38 64t69 24q47 0 78.5 -31t31.5 -80q0 -33 -8 -49z
" />
    <glyph glyph-name="Lcaron" unicode="&#x13d;" horiz-adv-x="960" 
d="M406 1231v-1002h423q51 0 82 -32t31 -82q0 -51 -31 -83t-82 -32h-553q-57 0 -91.5 34t-34.5 91v1106q0 57 34.5 91t91.5 34q58 0 94 -34.5t36 -90.5zM733 1219l-71 -172q-21 -50 -72 -50q-32 0 -53 20.5t-21 51.5q0 7 4 35l23 172q5 36 29.5 58t64.5 22q45 0 74.5 -27
t29.5 -69q0 -22 -8 -41z" />
    <glyph glyph-name="lcaron" unicode="&#x13e;" horiz-adv-x="503" 
d="M252 1397q54 0 88.5 -33.5t34.5 -87.5v-1165q0 -54 -34.5 -87.5t-88.5 -33.5t-88.5 33.5t-34.5 87.5v1165q0 54 34.5 87.5t88.5 33.5zM676 1260l-72 -173q-20 -49 -72 -49q-32 0 -52.5 20.5t-20.5 51.5q0 7 4 35l22 172q5 36 30 58t65 22q45 0 74.5 -27.5t29.5 -69.5
q0 -21 -8 -40z" />
    <glyph glyph-name="Ldot" unicode="&#x13f;" horiz-adv-x="962" 
d="M406 1231v-1002h423q51 0 82 -32t31 -82q0 -51 -31 -83t-82 -32h-553q-57 0 -91.5 34t-34.5 91v1106q0 57 34.5 91t91.5 34q58 0 94 -34.5t36 -90.5zM614 698q0 61 42 103.5t102 42.5t102.5 -42.5t42.5 -103.5q0 -60 -42.5 -101.5t-102.5 -41.5t-102 41.5t-42 101.5z" />
    <glyph glyph-name="ldot" unicode="&#x140;" horiz-adv-x="753" 
d="M252 1397q54 0 88.5 -33.5t34.5 -87.5v-1165q0 -54 -34.5 -87.5t-88.5 -33.5t-88.5 33.5t-34.5 87.5v1165q0 54 34.5 87.5t88.5 33.5zM487 719q0 61 42 103t102 42t102.5 -42t42.5 -103q0 -60 -42.5 -102t-102.5 -42t-102 42t-42 102z" />
    <glyph glyph-name="Lslash" unicode="&#x141;" horiz-adv-x="974" 
d="M420 1231v-387l63 37q20 14 52 14q40 0 68 -28t28 -68q0 -53 -62 -90l-149 -86v-394h424q50 0 81 -32t31 -82q0 -51 -30.5 -83t-81.5 -32h-553q-57 0 -92 34t-35 91v352l-14 -8q-24 -12 -52 -12q-40 0 -68 28t-28 68q0 51 57 86l105 59v533q0 57 35 91t92 34t93 -34
t36 -91z" />
    <glyph glyph-name="lslash" unicode="&#x142;" horiz-adv-x="583" 
d="M293 1397q54 0 88.5 -33.5t34.5 -87.5v-404l12 9q21 12 51 12q40 0 67 -28t27 -68q0 -54 -61 -88l-96 -58v-540q0 -54 -34.5 -87.5t-88.5 -33.5t-88.5 33.5t-34.5 87.5v399l-10 -6q-21 -12 -51 -12q-40 0 -67.5 27t-27.5 67q0 55 56 86l100 57v547q0 54 34.5 87.5
t88.5 33.5z" />
    <glyph glyph-name="Nacute" unicode="&#x143;" horiz-adv-x="1218" 
d="M543 1581l129 152q34 43 78 43t74 -29.5t30 -73.5q0 -51 -37 -78l-176 -141q-28 -20 -49 -20q-37 0 -59.5 24t-22.5 55q0 18 6.5 30.5t26.5 37.5zM1069 1243v-1128q0 -57 -33.5 -91t-89.5 -34q-81 0 -123 73l-440 787v-748q0 -50 -32.5 -81t-84.5 -31q-51 0 -83.5 30.5
t-32.5 81.5v1129q0 57 36 91t93 34q45 0 76 -19t55 -65l426 -756v727q0 51 31.5 82t82.5 31q52 0 85.5 -31.5t33.5 -81.5z" />
    <glyph glyph-name="nacute" unicode="&#x144;" horiz-adv-x="1058" 
d="M471 1270l129 153q33 41 78 41q44 0 74 -29t30 -73q0 -47 -37 -76l-176 -143q-23 -19 -49 -19q-37 0 -59.5 23.5t-22.5 54.5q0 18 6.5 30.5t26.5 37.5zM348 936l6 -31q91 119 254 119t247.5 -102t84.5 -273v-538q0 -54 -34.5 -87.5t-88.5 -33.5t-88.5 33.5t-34.5 87.5
v524q0 78 -40.5 126t-114.5 48q-75 0 -120.5 -50t-45.5 -128v-520q0 -54 -34.5 -87.5t-88.5 -33.5q-57 0 -91 33.5t-34 87.5v782q0 55 31 88t84 33q39 0 70 -20t38 -58z" />
    <glyph glyph-name="uni0145" unicode="&#x145;" horiz-adv-x="1218" 
d="M1069 1243v-1128q0 -57 -33.5 -91t-89.5 -34q-81 0 -123 73l-440 787v-748q0 -50 -32.5 -81t-84.5 -31q-51 0 -83.5 30.5t-32.5 81.5v1129q0 57 36 91t93 34q45 0 76 -19t55 -65l426 -756v727q0 51 31.5 82t82.5 31q52 0 85.5 -31.5t33.5 -81.5zM727 -262l-96 -205
q-25 -55 -82 -55q-36 0 -60 24t-24 60q0 12 6 39l47 209q9 40 38 64t69 24q47 0 78.5 -31t31.5 -80q0 -33 -8 -49z" />
    <glyph glyph-name="uni0146" unicode="&#x146;" horiz-adv-x="1058" 
d="M348 936l6 -31q91 119 254 119t247.5 -102t84.5 -273v-538q0 -54 -34.5 -87.5t-88.5 -33.5t-88.5 33.5t-34.5 87.5v524q0 78 -40.5 126t-114.5 48q-75 0 -120.5 -50t-45.5 -128v-520q0 -54 -34.5 -87.5t-88.5 -33.5q-57 0 -91 33.5t-34 87.5v782q0 55 31 88t84 33
q39 0 70 -20t38 -58zM623 -262l-97 -205q-25 -55 -82 -55q-36 0 -60 24t-24 60q0 8 7 39l47 209q9 40 37.5 64t68.5 24q47 0 79 -31t32 -80q0 -33 -8 -49z" />
    <glyph glyph-name="Ncaron" unicode="&#x147;" horiz-adv-x="1218" 
d="M524 1458l-170 209q-18 22 -18 47t18.5 43.5t44.5 18.5q31 0 56 -21l157 -139l160 139q29 21 49 21q25 0 43.5 -18.5t18.5 -43.5q0 -23 -17 -47l-170 -209q-39 -49 -86 -49q-51 0 -86 49zM1069 1243v-1128q0 -57 -33.5 -91t-89.5 -34q-81 0 -123 73l-440 787v-748
q0 -50 -32.5 -81t-84.5 -31q-51 0 -83.5 30.5t-32.5 81.5v1129q0 57 36 91t93 34q45 0 76 -19t55 -65l426 -756v727q0 51 31.5 82t82.5 31q52 0 85.5 -31.5t33.5 -81.5z" />
    <glyph glyph-name="ncaron" unicode="&#x148;" horiz-adv-x="1058" 
d="M451 1151l-170 207q-19 27 -19 47q0 25 19 43t45 18q32 0 55 -20l158 -137l159 137q23 20 50 20q25 0 43 -17.5t18 -43.5t-16 -45l-170 -209q-19 -24 -38 -37.5t-48 -13.5q-45 0 -86 51zM348 936l6 -31q91 119 254 119t247.5 -102t84.5 -273v-538q0 -54 -34.5 -87.5
t-88.5 -33.5t-88.5 33.5t-34.5 87.5v524q0 78 -40.5 126t-114.5 48q-75 0 -120.5 -50t-45.5 -128v-520q0 -54 -34.5 -87.5t-88.5 -33.5q-57 0 -91 33.5t-34 87.5v782q0 55 31 88t84 33q39 0 70 -20t38 -58z" />
    <glyph glyph-name="napostrophe" unicode="&#x149;" horiz-adv-x="1134" 
d="M272 1227l-96 -205q-25 -55 -82 -55q-36 0 -60 24t-24 60q0 12 6 39l47 208q9 40 38 64t69 24q47 0 79 -30.5t32 -79.5q0 -31 -9 -49zM424 936l6 -31q91 119 254 119t247.5 -102t84.5 -273v-538q0 -54 -34.5 -87.5t-88.5 -33.5t-88.5 33.5t-34.5 87.5v524q0 78 -41 126
t-115 48q-75 0 -120 -50t-45 -128v-520q0 -54 -34.5 -87.5t-88.5 -33.5q-57 0 -91 33.5t-34 87.5v782q0 55 30.5 88t83.5 33q40 0 71 -20t38 -58z" />
    <glyph glyph-name="Omacron" unicode="&#x14c;" horiz-adv-x="1173" 
d="M332 1563q0 40 24 64t62 24h340q38 0 62 -24t24 -64q0 -38 -24 -62t-62 -24h-340q-38 0 -62 24t-24 62zM1061 918v-490q0 -205 -130 -326.5t-343 -121.5q-214 0 -344.5 121.5t-130.5 326.5v490q0 209 124 328.5t351 119.5q213 0 343 -121.5t130 -326.5zM369 913v-481
q0 -102 58 -162.5t161 -60.5q102 0 159.5 60.5t57.5 162.5v481q0 102 -57.5 163t-159.5 61q-103 0 -161 -60.5t-58 -163.5z" />
    <glyph glyph-name="omacron" unicode="&#x14d;" horiz-adv-x="999" 
d="M244 1241q0 38 24 62t62 24h340q38 0 62 -24t24 -62q0 -40 -24 -64t-62 -24h-340q-38 0 -62 25t-24 63zM907 621v-238q0 -185 -111.5 -294t-295.5 -109t-297 109t-113 294v238q0 183 113 293t297 110t295.5 -109.5t111.5 -293.5zM338 637v-272q0 -78 43.5 -127.5
t118.5 -49.5t118.5 49.5t43.5 127.5v272q0 78 -43.5 128t-118.5 50t-118.5 -50t-43.5 -128z" />
    <glyph glyph-name="Obreve" unicode="&#x14e;" horiz-adv-x="1173" 
d="M754 1700q33 0 53.5 -21t17.5 -53q-5 -86 -72 -145.5t-167 -59.5q-101 0 -168 59.5t-72 145.5q-3 32 18 53t54 21q35 0 53.5 -17t20.5 -45q2 -39 26.5 -63.5t67.5 -24.5q42 0 66.5 24.5t27.5 63.5q2 28 20.5 45t53.5 17zM1061 918v-490q0 -205 -130 -326.5t-343 -121.5
q-214 0 -344.5 121.5t-130.5 326.5v490q0 209 124 328.5t351 119.5q213 0 343 -121.5t130 -326.5zM369 913v-481q0 -102 58 -162.5t161 -60.5q102 0 159.5 60.5t57.5 162.5v481q0 102 -57.5 163t-159.5 61q-103 0 -161 -60.5t-58 -163.5z" />
    <glyph glyph-name="obreve" unicode="&#x14f;" horiz-adv-x="999" 
d="M666 1389q32 0 53 -20.5t18 -51.5q-5 -88 -72 -147.5t-167 -59.5q-101 0 -168 59.5t-72 147.5q-3 30 18 51t54 21q69 0 73 -62q2 -39 27 -63.5t68 -24.5q42 0 66.5 24.5t27.5 63.5q2 28 20.5 45t53.5 17zM907 621v-238q0 -185 -111.5 -294t-295.5 -109t-297 109t-113 294
v238q0 183 113 293t297 110t295.5 -109.5t111.5 -293.5zM338 637v-272q0 -78 43.5 -127.5t118.5 -49.5t118.5 49.5t43.5 127.5v272q0 78 -43.5 128t-118.5 50t-118.5 -50t-43.5 -128z" />
    <glyph glyph-name="Ohungarumlaut" unicode="&#x150;" horiz-adv-x="1173" 
d="M616 1604l-151 -144q-24 -24 -49 -24q-29 0 -48.5 18.5t-19.5 40.5q0 25 27 64l123 157q26 37 69 37q33 0 58.5 -23.5t25.5 -56.5q0 -34 -35 -69zM903 1589l-164 -131q-27 -24 -51 -24q-29 0 -47 18t-18 41q0 14 0.5 19.5t6 17t17.5 24.5l137 148q37 37 70 37
q34 0 58 -23t24 -57q0 -44 -33 -70zM1061 918v-490q0 -205 -130 -326.5t-343 -121.5q-214 0 -344.5 121.5t-130.5 326.5v490q0 209 124 328.5t351 119.5q213 0 343 -121.5t130 -326.5zM369 913v-481q0 -102 58 -162.5t161 -60.5q102 0 159.5 60.5t57.5 162.5v481
q0 102 -57.5 163t-159.5 61q-103 0 -161 -60.5t-58 -163.5z" />
    <glyph glyph-name="ohungarumlaut" unicode="&#x151;" horiz-adv-x="999" 
d="M535 1292l-152 -143q-25 -25 -49 -25q-29 0 -48.5 19t-19.5 41q0 29 27 63l123 158q26 37 69 37q33 0 58.5 -24t25.5 -56q0 -39 -34 -70zM821 1278l-164 -133q-31 -23 -51 -23q-29 0 -47 18.5t-18 41.5q0 37 26 63l135 144q33 38 70 38q34 0 58 -23.5t24 -55.5
q0 -44 -33 -70zM907 621v-238q0 -185 -111.5 -294t-295.5 -109t-297 109t-113 294v238q0 183 113 293t297 110t295.5 -109.5t111.5 -293.5zM338 637v-272q0 -78 43.5 -127.5t118.5 -49.5t118.5 49.5t43.5 127.5v272q0 78 -43.5 128t-118.5 50t-118.5 -50t-43.5 -128z" />
    <glyph glyph-name="OE" unicode="&#x152;" horiz-adv-x="1746" 
d="M369 913v-481q0 -102 58 -162.5t161 -60.5q100 0 158.5 60t58.5 159v485q0 102 -57.5 163t-159.5 61q-103 0 -161 -60.5t-58 -163.5zM1061 1116v-319h422q50 0 80 -31.5t30 -83.5q0 -51 -29.5 -81t-80.5 -30h-422v-342h498q50 0 81 -32t31 -82q0 -51 -30.5 -83t-81.5 -32
h-646q-40 0 -65 15.5t-25 45.5v5q-114 -86 -260 -86q-205 0 -327.5 121t-122.5 327v490q0 210 116.5 329t333.5 119q148 0 260 -88v2q0 30 26 48t62 18h627q51 0 82 -31t31 -82t-31 -84t-82 -33h-477z" />
    <glyph glyph-name="oe" unicode="&#x153;" horiz-adv-x="1544" 
d="M1071 -20q-90 0 -165.5 34.5t-123.5 96.5q-46 -62 -119 -96.5t-163 -34.5q-184 0 -297 109t-113 294v238q0 183 113 293t297 110q185 0 284 -135q99 135 281 135q176 0 284.5 -110t108.5 -293v-43q0 -58 -33 -90.5t-88 -32.5h-434v-103q0 -77 46 -125.5t126 -48.5
q62 0 100 29.5t66 79.5q22 38 43 53.5t57 15.5q55 0 85 -43.5t12 -105.5q-30 -106 -130 -166.5t-237 -60.5zM903 649v-24h322v24q0 78 -43 128t-117 50q-75 0 -118.5 -50t-43.5 -128zM338 637v-272q0 -78 43.5 -127.5t118.5 -49.5t118.5 49.5t43.5 127.5v272q0 78 -43.5 128
t-118.5 50t-118.5 -50t-43.5 -128z" />
    <glyph glyph-name="Racute" unicode="&#x154;" horiz-adv-x="1175" 
d="M475 1581l129 152q34 43 78 43t74 -29.5t30 -73.5q0 -52 -36 -78l-177 -141q-28 -20 -49 -20q-37 0 -59.5 24t-22.5 55q0 18 6.5 30.5t26.5 37.5zM870 553l174 -393q9 -22 9 -41q0 -53 -39 -91t-92 -38q-39 0 -71.5 23t-47.5 59l-185 422h-212v-379q0 -56 -36 -90.5
t-94 -34.5q-57 0 -91.5 34t-34.5 91v1106q0 57 33.5 91t90.5 34h349q202 0 331 -115.5t129 -302.5q0 -128 -56.5 -224.5t-156.5 -150.5zM596 1122h-190v-405h190q105 0 166 55.5t61 149.5q0 92 -61 146t-166 54z" />
    <glyph glyph-name="racute" unicode="&#x155;" horiz-adv-x="688" 
d="M299 1270l129 153q33 41 78 41q44 0 74 -29t30 -73q0 -47 -37 -76l-176 -143q-23 -19 -49 -19q-37 0 -59.5 23.5t-22.5 54.5q0 18 6.5 30.5t26.5 37.5zM348 936l10 -47q36 59 87 93t108 34q46 0 78.5 -31t32.5 -78q0 -50 -30.5 -79t-80.5 -35q-81 -10 -130.5 -53.5
t-49.5 -127.5v-501q0 -54 -34 -87.5t-89 -33.5q-54 0 -89.5 33.5t-35.5 87.5v782q0 55 31 88t84 33q92 0 108 -78z" />
    <glyph glyph-name="uni0156" unicode="&#x156;" horiz-adv-x="1175" 
d="M870 553l174 -393q9 -22 9 -41q0 -53 -39 -91t-92 -38q-39 0 -71.5 23t-47.5 59l-185 422h-212v-379q0 -56 -36 -90.5t-94 -34.5q-57 0 -91.5 34t-34.5 91v1106q0 57 33.5 91t90.5 34h349q202 0 331 -115.5t129 -302.5q0 -128 -56.5 -224.5t-156.5 -150.5zM596 1122h-190
v-405h190q105 0 166 55.5t61 149.5q0 92 -61 146t-166 54zM682 -262l-96 -205q-25 -55 -82 -55q-36 0 -60 24t-24 60q0 12 6 39l47 209q9 40 38 64t69 24q47 0 78.5 -31t31.5 -80q0 -33 -8 -49z" />
    <glyph glyph-name="uni0157" unicode="&#x157;" horiz-adv-x="688" 
d="M348 936l10 -47q36 59 87 93t108 34q46 0 78.5 -31t32.5 -78q0 -50 -30.5 -79t-80.5 -35q-81 -10 -130.5 -53.5t-49.5 -127.5v-501q0 -54 -34 -87.5t-89 -33.5q-54 0 -89.5 33.5t-35.5 87.5v782q0 55 31 88t84 33q92 0 108 -78zM344 -262l-96 -205q-25 -55 -82 -55
q-36 0 -60 24t-24 60q0 12 6 39l47 209q9 40 38 64t69 24q47 0 78.5 -31t31.5 -80q0 -33 -8 -49z" />
    <glyph glyph-name="Rcaron" unicode="&#x158;" horiz-adv-x="1175" 
d="M440 1458l-170 209q-18 22 -18 47t18.5 43.5t44.5 18.5q31 0 56 -21l157 -139l160 139q29 21 49 21q25 0 43.5 -18.5t18.5 -43.5q0 -23 -17 -47l-170 -209q-39 -49 -86 -49q-51 0 -86 49zM870 553l174 -393q9 -22 9 -41q0 -53 -39 -91t-92 -38q-39 0 -71.5 23t-47.5 59
l-185 422h-212v-379q0 -56 -36 -90.5t-94 -34.5q-57 0 -91.5 34t-34.5 91v1106q0 57 33.5 91t90.5 34h349q202 0 331 -115.5t129 -302.5q0 -128 -56.5 -224.5t-156.5 -150.5zM596 1122h-190v-405h190q105 0 166 55.5t61 149.5q0 92 -61 146t-166 54z" />
    <glyph glyph-name="rcaron" unicode="&#x159;" horiz-adv-x="688" 
d="M260 1151l-170 207q-18 25 -18 47q0 25 18.5 43t44.5 18q32 0 55 -20l158 -137l160 137q23 20 49 20q25 0 43 -17.5t18 -43.5t-16 -45l-170 -209q-19 -24 -38 -37.5t-48 -13.5q-45 0 -86 51zM348 936l10 -47q36 59 87 93t108 34q46 0 78.5 -31t32.5 -78q0 -50 -30.5 -79
t-80.5 -35q-81 -10 -130.5 -53.5t-49.5 -127.5v-501q0 -54 -34 -87.5t-89 -33.5q-54 0 -89.5 33.5t-35.5 87.5v782q0 55 31 88t84 33q92 0 108 -78z" />
    <glyph glyph-name="Sacute" unicode="&#x15a;" horiz-adv-x="1091" 
d="M475 1581l129 152q34 43 78 43t74 -29.5t30 -73.5q0 -52 -36 -78l-177 -141q-28 -20 -49 -20q-37 0 -59.5 24t-22.5 55q0 18 6.5 30.5t26.5 37.5zM858 920q-43 0 -74 23t-45 61q-58 151 -198 151q-87 0 -137 -41.5t-50 -107.5q0 -46 29.5 -87t97.5 -65l191 -70
q48 -18 84 -33.5t78 -40t71 -53.5t54.5 -67t38 -88.5t12.5 -110.5q0 -184 -127 -297.5t-336 -113.5q-180 0 -302 79t-159 220q-16 62 18 111.5t103 49.5q81 0 115 -98q25 -73 75 -111t144 -38q103 0 161 47t58 122q0 121 -148 177l-204 77q-148 57 -225 145.5t-77 225.5
q0 160 119 269.5t316 109.5q166 0 280.5 -76.5t149.5 -210.5q17 -62 -16 -110.5t-97 -48.5z" />
    <glyph glyph-name="sacute" unicode="&#x15b;" horiz-adv-x="923" 
d="M391 1270l129 153q33 41 78 41q44 0 74 -29t30 -73q0 -48 -36 -76l-177 -143q-23 -19 -49 -19q-37 0 -59.5 23.5t-22.5 54.5q0 18 6.5 30.5t26.5 37.5zM510 381l-178 55q-108 34 -173 104.5t-65 184.5q0 122 102.5 210.5t266.5 88.5q129 0 220 -44.5t134 -125.5
q31 -54 3.5 -110t-91.5 -56q-38 0 -63 17t-50 53q-30 44 -63 64t-88 20q-61 0 -102 -27t-41 -72q0 -33 20.5 -56t77.5 -40l143 -43q63 -19 109 -41t88 -57t64 -87t22 -120q0 -143 -105 -231t-284 -88q-145 0 -246 56t-133 154q-18 53 12 98.5t88 45.5q34 0 56.5 -15.5
t44.5 -52.5q27 -46 66.5 -74t109.5 -28q159 0 159 110q0 40 -24.5 65t-79.5 42z" />
    <glyph glyph-name="Scircumflex" unicode="&#x15c;" horiz-adv-x="1091" 
d="M797 1530q18 -25 18 -47q0 -25 -18.5 -43.5t-44.5 -18.5q-30 0 -54 21l-159 139l-158 -139q-29 -21 -49 -21q-26 0 -45 18.5t-19 43.5q0 20 19 47l170 209q35 49 84 49t88 -49zM858 920q-43 0 -74 23t-45 61q-58 151 -198 151q-87 0 -137 -41.5t-50 -107.5
q0 -46 29.5 -87t97.5 -65l191 -70q48 -18 84 -33.5t78 -40t71 -53.5t54.5 -67t38 -88.5t12.5 -110.5q0 -184 -127 -297.5t-336 -113.5q-180 0 -302 79t-159 220q-16 62 18 111.5t103 49.5q81 0 115 -98q25 -73 75 -111t144 -38q103 0 161 47t58 122q0 121 -148 177l-204 77
q-148 57 -225 145.5t-77 225.5q0 160 119 269.5t316 109.5q166 0 280.5 -76.5t149.5 -210.5q17 -62 -16 -110.5t-97 -48.5z" />
    <glyph glyph-name="scircumflex" unicode="&#x15d;" horiz-adv-x="923" 
d="M713 1217q18 -25 18 -46q0 -26 -18.5 -44.5t-44.5 -18.5q-28 0 -54 22l-159 138l-158 -138q-26 -22 -49 -22q-26 0 -45 18.5t-19 44.5q0 23 19 46l170 208q36 50 84 50t88 -50zM510 381l-178 55q-108 34 -173 104.5t-65 184.5q0 122 102.5 210.5t266.5 88.5
q129 0 220 -44.5t134 -125.5q31 -54 3.5 -110t-91.5 -56q-38 0 -63 17t-50 53q-30 44 -63 64t-88 20q-61 0 -102 -27t-41 -72q0 -33 20.5 -56t77.5 -40l143 -43q63 -19 109 -41t88 -57t64 -87t22 -120q0 -143 -105 -231t-284 -88q-145 0 -246 56t-133 154q-18 53 12 98.5
t88 45.5q34 0 56.5 -15.5t44.5 -52.5q27 -46 66.5 -74t109.5 -28q159 0 159 110q0 40 -24.5 65t-79.5 42z" />
    <glyph glyph-name="Scedilla" unicode="&#x15e;" horiz-adv-x="1093" 
d="M555 -82h25q79 0 122 -39t43 -108q0 -72 -44.5 -113t-120.5 -41h-185q-24 0 -39.5 17t-15.5 42q0 26 15 42t40 16h162q39 0 39 35q0 32 -39 32h-88q-34 0 -52.5 18t-8.5 52l32 117q-138 22 -230 97t-122 194q-16 62 18 111.5t103 49.5q81 0 115 -98q25 -73 75 -111
t144 -38q103 0 161 47t58 122q0 121 -148 177l-204 77q-148 57 -224.5 145.5t-76.5 225.5q0 160 118.5 269.5t315.5 109.5q166 0 280.5 -76.5t149.5 -210.5q17 -62 -16 -110.5t-97 -48.5q-43 0 -74 23t-45 61q-58 151 -198 151q-87 0 -137 -41.5t-50 -107.5q0 -46 29.5 -87
t97.5 -65l191 -70q48 -18 84 -33.5t78 -40t71 -53.5t54.5 -67t38 -88.5t12.5 -110.5q0 -178 -120.5 -290.5t-318.5 -120.5z" />
    <glyph glyph-name="scedilla" unicode="&#x15f;" horiz-adv-x="925" 
d="M471 -82h25q79 0 122.5 -39t43.5 -108q0 -71 -45 -112.5t-121 -41.5h-185q-24 0 -39.5 17t-15.5 42q0 26 15 42t40 16h162q39 0 39 35q0 32 -39 32h-88q-34 0 -52.5 18t-8.5 52l32 117q-106 17 -178 70t-98 132q-18 53 12 98.5t88 45.5q34 0 56.5 -15.5t44.5 -52.5
q27 -46 66.5 -74t109.5 -28q159 0 159 110q0 40 -24.5 65t-79.5 42l-178 55q-108 34 -173 104.5t-65 184.5q0 122 102.5 210.5t266.5 88.5q129 0 220 -44.5t134 -125.5q31 -54 3.5 -110t-91.5 -56q-38 0 -63 17t-50 53q-30 44 -63 64t-88 20q-61 0 -102 -27t-41 -72
q0 -33 20.5 -56t77.5 -40l143 -43q63 -19 109 -41t88 -57t64 -87t22 -120q0 -136 -96.5 -223t-262.5 -94z" />
    <glyph glyph-name="Scaron" unicode="&#x160;" horiz-adv-x="1091" 
d="M459 1458l-170 209q-19 23 -19 47q0 25 19 43.5t45 18.5q30 0 55 -21l158 -139l160 139q29 21 49 21q25 0 43 -18.5t18 -43.5t-16 -47l-170 -209q-39 -49 -86 -49q-51 0 -86 49zM858 920q-43 0 -74 23t-45 61q-58 151 -198 151q-87 0 -137 -41.5t-50 -107.5
q0 -46 29.5 -87t97.5 -65l191 -70q48 -18 84 -33.5t78 -40t71 -53.5t54.5 -67t38 -88.5t12.5 -110.5q0 -184 -127 -297.5t-336 -113.5q-180 0 -302 79t-159 220q-16 62 18 111.5t103 49.5q81 0 115 -98q25 -73 75 -111t144 -38q103 0 161 47t58 122q0 121 -148 177l-204 77
q-148 57 -225 145.5t-77 225.5q0 160 119 269.5t316 109.5q166 0 280.5 -76.5t149.5 -210.5q17 -62 -16 -110.5t-97 -48.5z" />
    <glyph glyph-name="scaron" unicode="&#x161;" horiz-adv-x="923" 
d="M371 1151l-170 207q-19 27 -19 47q0 25 19 43t45 18q32 0 55 -20l158 -137l159 137q23 20 50 20q25 0 43 -17.5t18 -43.5t-16 -45l-170 -209q-19 -24 -38 -37.5t-48 -13.5q-45 0 -86 51zM510 381l-178 55q-108 34 -173 104.5t-65 184.5q0 122 102.5 210.5t266.5 88.5
q129 0 220 -44.5t134 -125.5q31 -54 3.5 -110t-91.5 -56q-38 0 -63 17t-50 53q-30 44 -63 64t-88 20q-61 0 -102 -27t-41 -72q0 -33 20.5 -56t77.5 -40l143 -43q63 -19 109 -41t88 -57t64 -87t22 -120q0 -143 -105 -231t-284 -88q-145 0 -246 56t-133 154q-18 53 12 98.5
t88 45.5q34 0 56.5 -15.5t44.5 -52.5q27 -46 66.5 -74t109.5 -28q159 0 159 110q0 40 -24.5 65t-79.5 42z" />
    <glyph glyph-name="uni0162" unicode="&#x162;" horiz-adv-x="974" 
d="M532 -82h25q79 0 122.5 -39t43.5 -108q0 -71 -45 -112.5t-121 -41.5h-184q-24 0 -40 17t-16 42q0 26 15.5 42t40.5 16h162q38 0 38 35q0 32 -38 32h-89q-34 0 -52.5 18t-8.5 52l37 133q-62 29 -62 111v1001h-221q-49 0 -80.5 32.5t-31.5 82.5q0 51 31 83t81 32h695
q50 0 81 -32.5t31 -84.5q0 -50 -30.5 -81.5t-81.5 -31.5h-220v-1001q0 -76 -55 -107z" />
    <glyph glyph-name="uni0163" unicode="&#x163;" horiz-adv-x="677" 
d="M381 -82h25q79 0 122 -39t43 -108q0 -72 -44.5 -113t-120.5 -41h-185q-24 0 -39.5 17t-15.5 42q0 26 15 42t40 16h162q39 0 39 35q0 32 -39 32h-88q-34 0 -53 18t-9 52l37 135q-55 31 -55 105v675h-88q-46 0 -74 28.5t-28 74.5t28 75t74 29h88v164q0 54 33.5 87.5
t87.5 33.5t89.5 -33.5t35.5 -87.5v-164h90q46 0 74 -28t28 -74t-28.5 -75.5t-73.5 -29.5h-90v-675q0 -69 -53 -101z" />
    <glyph glyph-name="Tcaron" unicode="&#x164;" horiz-adv-x="974" 
d="M401 1458l-170 209q-18 22 -18 47t18.5 43.5t44.5 18.5q32 0 56 -21l157 -139l160 139q29 21 49 21q25 0 43.5 -18.5t18.5 -43.5q0 -23 -17 -47l-170 -209q-39 -49 -86 -49q-51 0 -86 49zM27 1231q0 51 31 83t81 32h695q50 0 81 -32.5t31 -84.5q0 -50 -30.5 -81.5
t-81.5 -31.5h-220v-1001q0 -57 -35 -91t-92 -34t-92 34t-35 91v1001h-221q-49 0 -80.5 32.5t-31.5 82.5z" />
    <glyph glyph-name="tcaron" unicode="&#x165;" horiz-adv-x="677" 
d="M770 1268l-72 -172q-20 -49 -71 -49q-32 0 -53 20t-21 51q0 7 4 35l23 172q5 36 29.5 58t64.5 22q45 0 74.5 -27t29.5 -69q0 -22 -8 -41zM25 889q0 46 28 75t74 29h88v164q0 54 33.5 87.5t87.5 33.5t89.5 -33.5t35.5 -87.5v-164h90q46 0 74 -28t28 -74t-28.5 -75.5
t-73.5 -29.5h-90v-675q0 -54 -35.5 -87.5t-89.5 -33.5t-87.5 33.5t-33.5 87.5v675h-88q-46 0 -74 28.5t-28 74.5z" />
    <glyph glyph-name="Tbar" unicode="&#x166;" horiz-adv-x="974" 
d="M27 1231q0 51 31 83t81 32h695q50 0 81 -32.5t31 -84.5q0 -50 -30.5 -81.5t-81.5 -31.5h-220v-242h166q41 0 67.5 -27.5t26.5 -70.5t-26.5 -69.5t-67.5 -26.5h-166v-565q0 -57 -35 -91t-92 -34t-92 34t-35 91v565h-163q-41 0 -68 27t-27 69q0 43 27 70.5t68 27.5h163v242
h-221q-49 0 -80.5 32.5t-31.5 82.5z" />
    <glyph glyph-name="tbar" unicode="&#x167;" horiz-adv-x="688" 
d="M31 889q0 46 28 75t74 29h88v164q0 54 33.5 87.5t87.5 33.5t89.5 -33.5t35.5 -87.5v-164h90q46 0 74 -28t28 -74t-28.5 -75.5t-73.5 -29.5h-90v-151h90q34 0 56 -23t22 -57q0 -35 -22 -57.5t-56 -22.5h-90v-364q0 -54 -35.5 -87.5t-89.5 -33.5t-87.5 33.5t-33.5 87.5v364
h-88q-35 0 -57.5 22.5t-22.5 57.5q0 34 22.5 57t57.5 23h88v151h-88q-46 0 -74 28.5t-28 74.5z" />
    <glyph glyph-name="Utilde" unicode="&#x168;" horiz-adv-x="1204" 
d="M795 1645q10 43 61 43q32 0 53 -21t21 -57q0 -87 -49 -136t-123 -49q-55 0 -119 31l-88 43q-42 21 -66 21q-9 0 -16.5 -2t-13 -4.5t-10.5 -7.5l-8 -8t-6.5 -9.5t-5 -9.5t-4.5 -9.5t-3 -7.5q-21 -43 -70 -43q-32 0 -53 22t-21 56q0 84 54 136.5t137 52.5q49 0 108 -27
l84 -41q60 -29 80 -29q43 0 58 56zM936 1356q56 0 91.5 -34.5t35.5 -90.5v-803q0 -205 -127 -326.5t-334 -121.5t-334 121.5t-127 326.5v803q0 57 35 91t92 34t92 -34t35 -91v-799q0 -102 55 -162.5t152 -60.5q96 0 151.5 60.5t55.5 162.5v799q0 57 35 91t92 34z" />
    <glyph glyph-name="utilde" unicode="&#x169;" horiz-adv-x="1046" 
d="M713 1337q10 43 61 43q32 0 53 -20t21 -55q0 -87 -49 -136t-123 -49q-55 0 -119 31l-88 43q-40 20 -66 20q-9 0 -16.5 -2t-12.5 -4.5t-10.5 -7t-8.5 -8t-7 -10t-5 -9t-4 -9t-3 -7.5q-21 -43 -70 -43q-32 0 -52.5 22t-20.5 56q0 84 53.5 136t136.5 52q53 0 109 -26l83 -41
q60 -29 80 -29q42 0 58 53zM698 66l-8 30q-39 -54 -104 -85t-146 -31q-159 0 -241 96.5t-82 259.5v555q0 55 33.5 89t89.5 34q55 0 90 -34t35 -89v-541q0 -70 37.5 -112.5t107.5 -42.5q75 0 120.5 50t45.5 126v520q0 55 33.5 89t87.5 34q55 0 90 -34t35 -89v-782
q0 -54 -30.5 -86.5t-84.5 -32.5q-37 0 -68.5 21t-40.5 55z" />
    <glyph glyph-name="Umacron" unicode="&#x16a;" horiz-adv-x="1204" 
d="M346 1563q0 40 24 64t62 24h340q38 0 62 -24t24 -64q0 -38 -24 -62t-62 -24h-340q-38 0 -62 24t-24 62zM936 1356q56 0 91.5 -34.5t35.5 -90.5v-803q0 -205 -127 -326.5t-334 -121.5t-334 121.5t-127 326.5v803q0 57 35 91t92 34t92 -34t35 -91v-799q0 -102 55 -162.5
t152 -60.5q96 0 151.5 60.5t55.5 162.5v799q0 57 35 91t92 34z" />
    <glyph glyph-name="umacron" unicode="&#x16b;" horiz-adv-x="1046" 
d="M264 1241q0 38 24 62t62 24h340q38 0 62 -24t24 -62q0 -40 -24 -64t-62 -24h-340q-38 0 -62 25t-24 63zM698 66l-8 30q-39 -54 -104 -85t-146 -31q-159 0 -241 96.5t-82 259.5v555q0 55 33.5 89t89.5 34q55 0 90 -34t35 -89v-541q0 -70 37.5 -112.5t107.5 -42.5
q75 0 120.5 50t45.5 126v520q0 55 33.5 89t87.5 34q55 0 90 -34t35 -89v-782q0 -54 -30.5 -86.5t-84.5 -32.5q-37 0 -68.5 21t-40.5 55z" />
    <glyph glyph-name="Ubreve" unicode="&#x16c;" horiz-adv-x="1204" 
d="M768 1700q33 0 54 -21t18 -53q-5 -86 -72.5 -145.5t-167.5 -59.5q-101 0 -168 59.5t-72 145.5q-3 32 18 53t54 21q35 0 53.5 -17t20.5 -45q2 -39 26.5 -63.5t67.5 -24.5q42 0 66.5 24.5t27.5 63.5q2 28 20.5 45t53.5 17zM936 1356q56 0 91.5 -34.5t35.5 -90.5v-803
q0 -205 -127 -326.5t-334 -121.5t-334 121.5t-127 326.5v803q0 57 35 91t92 34t92 -34t35 -91v-799q0 -102 55 -162.5t152 -60.5q96 0 151.5 60.5t55.5 162.5v799q0 57 35 91t92 34z" />
    <glyph glyph-name="ubreve" unicode="&#x16d;" horiz-adv-x="1046" 
d="M686 1389q33 0 54 -21t18 -51q-5 -87 -72.5 -147t-167.5 -60q-101 0 -167.5 59.5t-71.5 147.5q-3 31 18 51.5t53 20.5q35 0 53.5 -17t20.5 -45q2 -39 26.5 -63.5t67.5 -24.5q42 0 66.5 24.5t27.5 63.5q2 28 20.5 45t53.5 17zM698 66l-8 30q-39 -54 -104 -85t-146 -31
q-159 0 -241 96.5t-82 259.5v555q0 55 33.5 89t89.5 34q55 0 90 -34t35 -89v-541q0 -70 37.5 -112.5t107.5 -42.5q75 0 120.5 50t45.5 126v520q0 55 33.5 89t87.5 34q55 0 90 -34t35 -89v-782q0 -54 -30.5 -86.5t-84.5 -32.5q-37 0 -68.5 21t-40.5 55z" />
    <glyph glyph-name="Uring" unicode="&#x16e;" horiz-adv-x="1204" 
d="M600 1389q-97 0 -158 60t-61 150q0 89 61 150t158 61q98 0 160.5 -61t62.5 -150q0 -90 -62 -150t-161 -60zM600 1503q40 0 64 27t24 69q0 41 -24 67t-64 26q-39 0 -62.5 -26t-23.5 -67q0 -42 23.5 -69t62.5 -27zM936 1356q56 0 91.5 -34.5t35.5 -90.5v-803
q0 -205 -127 -326.5t-334 -121.5t-334 121.5t-127 326.5v803q0 57 35 91t92 34t92 -34t35 -91v-799q0 -102 55 -162.5t152 -60.5q96 0 151.5 60.5t55.5 162.5v799q0 57 35 91t92 34z" />
    <glyph glyph-name="uring" unicode="&#x16f;" horiz-adv-x="1046" 
d="M516 1079q-97 0 -158 61t-61 150t61 150t158 61q98 0 160.5 -61t62.5 -150t-62.5 -150t-160.5 -61zM516 1196q40 0 64 26.5t24 67.5t-24 66.5t-64 25.5q-39 0 -62.5 -26t-23.5 -66q0 -41 23.5 -67.5t62.5 -26.5zM698 66l-8 30q-39 -54 -104 -85t-146 -31
q-159 0 -241 96.5t-82 259.5v555q0 55 33.5 89t89.5 34q55 0 90 -34t35 -89v-541q0 -70 37.5 -112.5t107.5 -42.5q75 0 120.5 50t45.5 126v520q0 55 33.5 89t87.5 34q55 0 90 -34t35 -89v-782q0 -54 -30.5 -86.5t-84.5 -32.5q-37 0 -68.5 21t-40.5 55z" />
    <glyph glyph-name="Uhungarumlaut" unicode="&#x170;" horiz-adv-x="1204" 
d="M653 1604l-151 -144q-24 -24 -49 -24q-29 0 -48.5 18.5t-19.5 40.5q0 25 27 64l123 157q26 37 69 37q33 0 58.5 -23.5t25.5 -56.5q0 -34 -35 -69zM940 1589l-164 -131q-27 -24 -51 -24q-29 0 -47.5 18t-18.5 41q0 34 25 61l137 148q37 37 70 37q34 0 58 -23t24 -57
q0 -44 -33 -70zM936 1356q56 0 91.5 -34.5t35.5 -90.5v-803q0 -205 -127 -326.5t-334 -121.5t-334 121.5t-127 326.5v803q0 57 35 91t92 34t92 -34t35 -91v-799q0 -102 55 -162.5t152 -60.5q96 0 151.5 60.5t55.5 162.5v799q0 57 35 91t92 34z" />
    <glyph glyph-name="uhungarumlaut" unicode="&#x171;" horiz-adv-x="1046" 
d="M573 1292l-151 -143q-25 -25 -49 -25q-29 0 -48.5 19t-19.5 41q0 29 27 63l123 158q26 37 69 37q33 0 58.5 -24t25.5 -56q0 -38 -35 -70zM860 1278l-164 -133q-31 -23 -51 -23q-29 0 -47 18.5t-18 41.5q0 37 26 63l135 144q33 38 70 38q34 0 58 -23.5t24 -55.5
q0 -44 -33 -70zM698 66l-8 30q-39 -54 -104 -85t-146 -31q-159 0 -241 96.5t-82 259.5v555q0 55 33.5 89t89.5 34q55 0 90 -34t35 -89v-541q0 -70 37.5 -112.5t107.5 -42.5q75 0 120.5 50t45.5 126v520q0 55 33.5 89t87.5 34q55 0 90 -34t35 -89v-782q0 -54 -30.5 -86.5
t-84.5 -32.5q-37 0 -68.5 21t-40.5 55z" />
    <glyph glyph-name="Uogonek" unicode="&#x172;" horiz-adv-x="1204" 
d="M936 1356q56 0 91.5 -34.5t35.5 -90.5v-803q0 -207 -135 -336q-140 -136 -140 -258q0 -41 21.5 -65.5t64.5 -24.5h41q29 0 48.5 -19.5t19.5 -48.5q0 -31 -19.5 -51t-48.5 -20h-71q-98 0 -149.5 51.5t-51.5 134.5q0 107 68 199q-58 -10 -109 -10q-207 0 -334 121.5
t-127 326.5v803q0 57 35 91t92 34q56 0 91.5 -34.5t35.5 -90.5v-799q0 -102 55 -162.5t152 -60.5q96 0 151.5 60.5t55.5 162.5v799q0 57 35 91t92 34z" />
    <glyph glyph-name="uogonek" unicode="&#x173;" horiz-adv-x="1046" 
d="M838 -395h-70q-97 0 -149 46t-52 118q0 83 48.5 148.5t115.5 98.5q-25 20 -33 50l-8 30q-39 -54 -104 -85t-146 -31q-159 0 -241 96.5t-82 259.5v555q0 55 33.5 89t89.5 34q55 0 90 -34t35 -89v-541q0 -70 37.5 -112.5t107.5 -42.5q75 0 120.5 50t45.5 126v520
q0 55 33.5 89t87.5 34q55 0 90 -34t35 -89v-782q0 -46 -22.5 -77.5t-61.5 -37.5q-125 -92 -125 -182q0 -32 21 -50t63 -18h41q30 0 48.5 -19t18.5 -49q0 -31 -18.5 -51t-48.5 -20z" />
    <glyph glyph-name="Wcircumflex" unicode="&#x174;" horiz-adv-x="1488" 
d="M999 1530q19 -27 19 -47q0 -25 -19 -43.5t-45 -18.5q-28 0 -53 21l-160 139l-157 -139q-29 -21 -49 -21q-26 0 -45 18.5t-19 43.5q0 22 18 47l170 209q35 49 84 49t88 -49zM1427 1214l-249 -1110q-12 -53 -50 -83.5t-90 -30.5q-54 0 -92 31t-47 83l-156 807l-153 -807
q-9 -52 -46.5 -83t-90.5 -31t-91.5 31t-48.5 83l-250 1104q-2 6 -2 25q0 53 35.5 88t87.5 35q46 0 79.5 -29.5t41.5 -75.5l158 -821l151 803q9 52 46 83.5t90 31.5q54 0 91 -31t46 -84l149 -795l160 822q9 43 41 69.5t76 26.5q50 0 83.5 -34t33.5 -85q0 -11 -3 -23z" />
    <glyph glyph-name="wcircumflex" unicode="&#x175;" horiz-adv-x="1396" 
d="M954 1217q19 -27 19 -46q0 -26 -19 -44.5t-45 -18.5q-27 0 -53 22l-160 138l-157 -138q-26 -22 -50 -22q-26 0 -44.5 18.5t-18.5 44.5q0 24 18 46l170 208q36 50 84 50t88 -50zM1329 844l-223 -748q-13 -49 -51 -77.5t-88 -28.5q-51 0 -87.5 28.5t-48.5 77.5l-133 510
l-131 -510q-12 -49 -48.5 -77.5t-86.5 -28.5q-51 0 -88.5 28t-52.5 78l-225 756q-5 20 -5 37q0 51 35 88t86 37q50 0 81.5 -32.5t41.5 -78.5l137 -567l138 579q11 44 44 71.5t78 27.5q44 0 78 -28t45 -71l138 -575l141 578q9 43 39.5 69.5t75.5 26.5q42 0 72.5 -25.5
t41.5 -66.5q9 -31 -4 -78z" />
    <glyph glyph-name="Ycircumflex" unicode="&#x176;" horiz-adv-x="1040" 
d="M776 1530q19 -27 19 -47q0 -25 -19 -43.5t-45 -18.5q-29 0 -53 21l-160 139l-158 -139q-29 -21 -49 -21q-26 0 -44.5 18.5t-18.5 43.5q0 22 18 47l170 209q35 49 84 49t88 -49zM977 1188l-330 -645v-428q0 -57 -35 -91t-92 -34t-92 34t-35 91v424l-325 641q-13 26 -13 53
q0 51 35.5 87t85.5 36q36 0 65 -18.5t44 -49.5l241 -502l244 508q13 29 41.5 45.5t62.5 16.5q47 0 81 -34.5t34 -80.5q4 -25 -12 -53z" />
    <glyph glyph-name="ycircumflex" unicode="&#x177;" horiz-adv-x="950" 
d="M731 1217q19 -27 19 -46q0 -26 -19 -44.5t-45 -18.5q-27 0 -53 22l-160 138l-158 -138q-26 -22 -49 -22q-26 0 -44.5 18.5t-18.5 44.5q0 24 18 46l170 208q36 50 84 50t88 -50zM897 860l-395 -1163q-12 -40 -42 -65t-69 -25q-55 0 -89 41.5t-17 93.5l80 231l-308 871
q-22 62 14 116t101 54q41 0 74 -25t45 -65l190 -611l191 609q12 41 42 66.5t70 25.5q60 0 96.5 -48.5t16.5 -105.5z" />
    <glyph glyph-name="Ydieresis" unicode="&#x178;" horiz-adv-x="1040" 
d="M543 1567q0 52 35 86.5t86 34.5t85.5 -34.5t34.5 -86.5q0 -51 -34.5 -87t-85.5 -36t-86 36t-35 87zM256 1567q0 52 35.5 86.5t87.5 34.5q51 0 85 -34.5t34 -86.5q0 -51 -34 -87t-85 -36t-87 36t-36 87zM977 1188l-330 -645v-428q0 -57 -35 -91t-92 -34t-92 34t-35 91v424
l-325 641q-13 26 -13 53q0 51 35.5 87t85.5 36q36 0 65 -18.5t44 -49.5l241 -502l244 508q13 29 41.5 45.5t62.5 16.5q47 0 81 -34.5t34 -80.5q4 -25 -12 -53z" />
    <glyph glyph-name="Zacute" unicode="&#x179;" horiz-adv-x="980" 
d="M424 1581l129 152q34 43 78 43t74 -29.5t30 -73.5q0 -51 -37 -78l-176 -141q-28 -20 -49 -20q-37 0 -59.5 24t-22.5 55q0 18 6.5 30.5t26.5 37.5zM805 1346q42 0 72 -23.5t30 -67.5q0 -15 -3.5 -31.5t-11.5 -35t-13 -29t-14.5 -28.5t-10.5 -19l-471 -887h428
q51 0 81 -30.5t30 -81.5t-30 -82t-81 -31h-651q-42 0 -69.5 22.5t-27.5 67.5q0 50 48 143l471 887h-396q-50 0 -80 31t-30 82t30 82t80 31h619z" />
    <glyph glyph-name="zacute" unicode="&#x17a;" horiz-adv-x="894" 
d="M381 1270l129 153q33 41 78 41q44 0 74 -29t30 -73q0 -47 -37 -76l-176 -143q-23 -19 -49 -19q-37 0 -59.5 23.5t-22.5 54.5q0 18 6.5 30.5t26.5 37.5zM770 801l-391 -600h356q44 0 71.5 -28.5t27.5 -72.5t-27.5 -72t-71.5 -28h-588q-40 0 -63 21t-23 59q0 13 2.5 25.5
t4.5 20.5t9 21.5t9 17t13 20t12 18.5l393 598h-334q-45 0 -72.5 28.5t-27.5 73.5t27.5 73t72.5 28h565q41 0 63.5 -20t22.5 -56q0 -26 -9 -51.5t-16 -36.5t-26 -39z" />
    <glyph glyph-name="Zdotaccent" unicode="&#x17b;" horiz-adv-x="980" 
d="M348 1587q0 59 40 99t99 40q60 0 101 -40t41 -99t-41 -100t-101 -41q-58 0 -98.5 41t-40.5 100zM805 1346q42 0 72 -23.5t30 -67.5q0 -15 -3.5 -31.5t-11.5 -35t-13 -29t-14.5 -28.5t-10.5 -19l-471 -887h428q51 0 81 -30.5t30 -81.5t-30 -82t-81 -31h-651
q-42 0 -69.5 22.5t-27.5 67.5q0 50 48 143l471 887h-396q-50 0 -80 31t-30 82t30 82t80 31h619z" />
    <glyph glyph-name="zdotaccent" unicode="&#x17c;" horiz-adv-x="894" 
d="M307 1257q0 59 40.5 100.5t98.5 41.5q60 0 101 -41.5t41 -100.5t-41 -99t-101 -40q-58 0 -98.5 40t-40.5 99zM770 801l-391 -600h356q44 0 71.5 -28.5t27.5 -72.5t-27.5 -72t-71.5 -28h-588q-40 0 -63 21t-23 59q0 13 2.5 25.5t4.5 20.5t9 21.5t9 17t13 20t12 18.5
l393 598h-334q-45 0 -72.5 28.5t-27.5 73.5t27.5 73t72.5 28h565q41 0 63.5 -20t22.5 -56q0 -26 -9 -51.5t-16 -36.5t-26 -39z" />
    <glyph glyph-name="Zcaron" unicode="&#x17d;" horiz-adv-x="980" 
d="M406 1458l-170 209q-19 23 -19 47q0 25 19 43.5t45 18.5q31 0 55 -21l158 -139l159 139q29 21 49 21q25 0 43.5 -18.5t18.5 -43.5t-16 -47l-170 -209q-39 -49 -86 -49q-51 0 -86 49zM805 1346q42 0 72 -23.5t30 -67.5q0 -15 -3.5 -31.5t-11.5 -35t-13 -29t-14.5 -28.5
t-10.5 -19l-471 -887h428q51 0 81 -30.5t30 -81.5t-30 -82t-81 -31h-651q-42 0 -69.5 22.5t-27.5 67.5q0 50 48 143l471 887h-396q-50 0 -80 31t-30 82t30 82t80 31h619z" />
    <glyph glyph-name="zcaron" unicode="&#x17e;" horiz-adv-x="894" 
d="M362 1151l-169 207q-19 27 -19 47q0 25 19 43t45 18q32 0 55 -20l158 -137l159 137q23 20 49 20q25 0 43.5 -17.5t18.5 -43.5t-16 -45l-170 -209q-19 -24 -38 -37.5t-48 -13.5q-46 0 -87 51zM770 801l-391 -600h356q44 0 71.5 -28.5t27.5 -72.5t-27.5 -72t-71.5 -28h-588
q-40 0 -63 21t-23 59q0 13 2.5 25.5t4.5 20.5t9 21.5t9 17t13 20t12 18.5l393 598h-334q-45 0 -72.5 28.5t-27.5 73.5t27.5 73t72.5 28h565q41 0 63.5 -20t22.5 -56q0 -26 -9 -51.5t-16 -36.5t-26 -39z" />
    <glyph glyph-name="longs" unicode="&#x17f;" horiz-adv-x="538" 
d="M508 1178h-16q-63 0 -91 -35t-28 -103v-929q0 -54 -34.5 -87.5t-88.5 -33.5q-56 0 -90.5 33.5t-34.5 87.5v915q0 177 94.5 268.5t269.5 91.5h19q46 0 75 -29t29 -75t-29 -75t-75 -29z" />
    <glyph glyph-name="florin" unicode="&#x192;" horiz-adv-x="851" 
d="M141 674q0 46 28.5 75t74.5 29h53v215q0 178 93.5 269.5t266.5 91.5h19q47 0 75.5 -28.5t28.5 -74.5q0 -47 -28.5 -75.5t-75.5 -28.5h-17q-60 0 -88 -38t-28 -101v-230h125q46 0 74 -29t28 -75t-28 -74.5t-74 -28.5h-125v-594q0 -177 -94.5 -268.5t-268.5 -91.5h-18
q-46 0 -75.5 29t-29.5 75t29.5 75.5t75.5 29.5h16q60 0 89.5 38t29.5 99v608h-53q-46 0 -74.5 28.5t-28.5 74.5z" />
    <glyph glyph-name="uni0218" unicode="&#x218;" horiz-adv-x="1091" 
d="M858 920q-43 0 -74 23t-45 61q-58 151 -198 151q-87 0 -137 -41.5t-50 -107.5q0 -46 29.5 -87t97.5 -65l191 -70q48 -18 84 -33.5t78 -40t71 -53.5t54.5 -67t38 -88.5t12.5 -110.5q0 -184 -127 -297.5t-336 -113.5q-180 0 -302 79t-159 220q-16 62 18 111.5t103 49.5
q81 0 115 -98q25 -73 75 -111t144 -38q103 0 161 47t58 122q0 121 -148 177l-204 77q-148 57 -225 145.5t-77 225.5q0 160 119 269.5t316 109.5q166 0 280.5 -76.5t149.5 -210.5q17 -62 -16 -110.5t-97 -48.5zM662 -262l-97 -205q-25 -55 -82 -55q-36 0 -60 24t-24 60
q0 8 7 39l47 209q9 40 37.5 64t68.5 24q47 0 79 -31t32 -80q0 -33 -8 -49z" />
    <glyph glyph-name="uni0219" unicode="&#x219;" horiz-adv-x="923" 
d="M510 381l-178 55q-108 34 -173 104.5t-65 184.5q0 122 102.5 210.5t266.5 88.5q129 0 220 -44.5t134 -125.5q31 -54 3.5 -110t-91.5 -56q-38 0 -63 17t-50 53q-30 44 -63 64t-88 20q-61 0 -102 -27t-41 -72q0 -33 20.5 -56t77.5 -40l143 -43q63 -19 109 -41t88 -57
t64 -87t22 -120q0 -143 -105 -231t-284 -88q-145 0 -246 56t-133 154q-18 53 12 98.5t88 45.5q34 0 56.5 -15.5t44.5 -52.5q27 -46 66.5 -74t109.5 -28q159 0 159 110q0 40 -24.5 65t-79.5 42zM575 -262l-96 -205q-25 -55 -82 -55q-36 0 -60 24t-24 60q0 12 6 39l48 209
q9 40 37.5 64t68.5 24q47 0 79 -31t32 -80q0 -31 -9 -49z" />
    <glyph glyph-name="uni021A" unicode="&#x21a;" horiz-adv-x="974" 
d="M27 1231q0 51 31 83t81 32h695q50 0 81 -32.5t31 -84.5q0 -50 -30.5 -81.5t-81.5 -31.5h-220v-1001q0 -57 -35 -91t-92 -34t-92 34t-35 91v1001h-221q-49 0 -80.5 32.5t-31.5 82.5zM571 -262l-96 -205q-25 -55 -82 -55q-36 0 -60 24t-24 60q0 12 6 39l47 209q9 40 38 64
t69 24q47 0 79 -31t32 -80q0 -31 -9 -49z" />
    <glyph glyph-name="uni021B" unicode="&#x21b;" horiz-adv-x="677" 
d="M25 889q0 46 28 75t74 29h88v164q0 54 33.5 87.5t87.5 33.5t89.5 -33.5t35.5 -87.5v-164h90q46 0 74 -28t28 -74t-28.5 -75.5t-73.5 -29.5h-90v-675q0 -54 -35.5 -87.5t-89.5 -33.5t-87.5 33.5t-33.5 87.5v675h-88q-46 0 -74 28.5t-28 74.5zM424 -262l-96 -205
q-25 -55 -82 -55q-36 0 -60 24t-24 60q0 12 6 39l47 209q9 40 38 64t69 24q47 0 78.5 -31t31.5 -80q0 -33 -8 -49z" />
    <glyph glyph-name="uni0237" unicode="&#x237;" horiz-adv-x="497" 
d="M-4 -195q129 15 129 144v942q0 55 33.5 89t89.5 34q55 0 90 -34t35 -89v-928q0 -179 -97 -272.5t-266 -93.5q-46 0 -77 29.5t-31 76.5q0 42 26 69.5t68 32.5z" />
    <glyph glyph-name="circumflex" unicode="&#x2c6;" horiz-adv-x="632" 
d="M571 1217q19 -27 19 -46q0 -26 -19 -44.5t-45 -18.5q-27 0 -53 22l-160 138l-157 -138q-26 -22 -50 -22q-26 0 -44.5 18.5t-18.5 44.5q0 24 18 46l170 208q36 50 84 50t88 -50z" />
    <glyph glyph-name="caron" unicode="&#x2c7;" horiz-adv-x="632" 
d="M231 1151l-170 207q-18 25 -18 47q0 25 18.5 43t44.5 18q33 0 56 -20l157 -137l160 137q23 20 49 20q25 0 43.5 -17.5t18.5 -43.5q0 -25 -17 -45l-170 -209q-19 -24 -38 -37.5t-48 -13.5q-45 0 -86 51z" />
    <glyph glyph-name="uni02C9" unicode="&#x2c9;" horiz-adv-x="573" 
d="M31 1241q0 38 24 63t62 25h340q38 0 62 -25t24 -63t-24 -63t-62 -25h-340q-38 0 -62 25t-24 63z" />
    <glyph glyph-name="breve" unicode="&#x2d8;" horiz-adv-x="567" 
d="M451 1389q33 0 53.5 -20.5t17.5 -51.5q-5 -88 -72 -147.5t-167 -59.5q-101 0 -168 59.5t-72 147.5q-3 30 18 51t54 21q69 0 73 -62q2 -39 27 -63.5t68 -24.5q42 0 66.5 24.5t27.5 63.5q2 28 20.5 45t53.5 17z" />
    <glyph glyph-name="dotaccent" unicode="&#x2d9;" horiz-adv-x="362" 
d="M41 1257q0 59 40.5 100.5t98.5 41.5q60 0 101 -41.5t41 -100.5t-41 -99t-101 -40q-58 0 -98.5 40t-40.5 99z" />
    <glyph glyph-name="ring" unicode="&#x2da;" horiz-adv-x="524" 
d="M260 1079q-97 0 -158 61t-61 150t61 150t158 61q98 0 160.5 -61t62.5 -150t-62.5 -150t-160.5 -61zM260 1196q40 0 64 26.5t24 67.5t-24 66.5t-64 25.5q-39 0 -62.5 -26t-23.5 -66q0 -41 23.5 -67.5t62.5 -26.5z" />
    <glyph glyph-name="ogonek" unicode="&#x2db;" horiz-adv-x="542" 
d="M328 -256h41q29 0 48 -19.5t19 -48.5q0 -31 -19 -51t-48 -20h-72q-97 0 -149 46t-52 118q0 84 50.5 149.5t123.5 99.5l107 -18q-135 -91 -135 -188q0 -68 86 -68z" />
    <glyph glyph-name="tilde" unicode="&#x2dc;" horiz-adv-x="739" 
d="M563 1337q10 43 62 43q32 0 52.5 -19.5t20.5 -55.5q0 -87 -49 -136t-123 -49q-54 0 -118 31l-89 43q-40 20 -65 20q-16 0 -28.5 -5t-21 -18.5t-10 -16t-8.5 -17.5q-21 -43 -69 -43q-32 0 -53 22t-21 56q0 84 53.5 136t136.5 52q53 0 109 -26l84 -41q60 -29 80 -29
q41 0 57 53z" />
    <glyph glyph-name="hungarumlaut" unicode="&#x2dd;" horiz-adv-x="716" 
d="M324 1292l-152 -143q-25 -25 -49 -25q-29 0 -48.5 19t-19.5 41q0 29 27 63l123 158q26 37 69 37q33 0 58.5 -24t25.5 -56q0 -39 -34 -70zM610 1278l-164 -133q-31 -23 -51 -23q-29 0 -47 18.5t-18 41.5q0 37 26 63l136 144q33 38 69 38q34 0 58 -23.5t24 -55.5
q0 -44 -33 -70z" />
    <glyph glyph-name="uni0394" unicode="&#x394;" horiz-adv-x="1110" 
d="M172 0q-61 0 -88 36t-10 95l309 1094q17 59 65 95t109 36t107 -36t63 -95l311 -1094q17 -58 -10.5 -94.5t-89.5 -36.5h-766zM549 983l-199 -760h398z" />
    <glyph glyph-name="uni03A9" unicode="&#x3a9;" horiz-adv-x="1239" 
d="M1094 918v-437q0 -221 -144 -313h125q35 0 57.5 -24t22.5 -60t-22.5 -60t-57.5 -24h-270q-41 0 -65.5 25.5t-24.5 66.5v47q0 37 11 55.5t46 51.5q66 49 66 157v510q0 102 -58.5 163t-161.5 61q-102 0 -159.5 -61t-57.5 -163v-510q0 -108 66 -157q35 -33 46 -51.5
t11 -55.5v-47q0 -41 -25 -66.5t-65 -25.5h-270q-35 0 -57.5 24t-22.5 60t22.5 60t57.5 24h123q-142 91 -142 313v437q0 209 124 328.5t349 119.5q227 0 351.5 -119.5t124.5 -328.5z" />
    <glyph glyph-name="uni03BC" unicode="&#x3bc;" horiz-adv-x="1054" 
d="M707 66l-9 30q-88 -116 -252 -116q-54 0 -88 24l13 -262v-14q0 -54 -34.5 -87.5t-90.5 -33.5q-54 0 -87.5 33.5t-33.5 87.5v1163q0 55 33.5 89t87.5 34q56 0 90.5 -34t34.5 -89v-541q0 -70 38.5 -112.5t108.5 -42.5q74 0 119 50t45 126v520q0 55 34 89t89 34t90 -34
t35 -89v-782q0 -54 -30.5 -86.5t-84.5 -32.5q-38 0 -68.5 21t-39.5 55z" />
    <glyph glyph-name="pi" unicode="&#x3c0;" horiz-adv-x="1280" 
d="M39 895q0 48 28.5 78.5t75.5 30.5h996q46 0 75 -31t29 -78q0 -46 -29.5 -76.5t-74.5 -30.5h-62v-677q0 -54 -34.5 -87.5t-88.5 -33.5t-89.5 33.5t-35.5 87.5v677h-376v-677q0 -54 -34.5 -87.5t-88.5 -33.5t-89.5 33.5t-35.5 87.5v677h-62q-47 0 -75.5 30.5t-28.5 76.5z
" />
    <glyph glyph-name="Wgrave" unicode="&#x1e80;" horiz-adv-x="1488" 
d="M809 1581q19 -24 25 -36.5t6 -31.5q0 -31 -22.5 -55t-57.5 -24q-29 0 -49 20l-176 141q-37 32 -37 78q0 44 30 73.5t74 29.5t78 -43zM1427 1214l-249 -1110q-12 -53 -50 -83.5t-90 -30.5q-54 0 -92 31t-47 83l-156 807l-153 -807q-9 -52 -46.5 -83t-90.5 -31t-91.5 31
t-48.5 83l-250 1104q-2 6 -2 25q0 53 35.5 88t87.5 35q46 0 79.5 -29.5t41.5 -75.5l158 -821l151 803q9 52 46 83.5t90 31.5q54 0 91 -31t46 -84l149 -795l160 822q9 43 41 69.5t76 26.5q50 0 83.5 -34t33.5 -85q0 -11 -3 -23z" />
    <glyph glyph-name="wgrave" unicode="&#x1e81;" horiz-adv-x="1396" 
d="M760 1270q19 -24 25 -36.5t6 -31.5q0 -31 -22.5 -54.5t-57.5 -23.5q-26 0 -49 19l-177 143q-36 28 -36 76q0 44 30 73t74 29q45 0 78 -41zM1329 844l-223 -748q-13 -49 -51 -77.5t-88 -28.5q-51 0 -87.5 28.5t-48.5 77.5l-133 510l-131 -510q-12 -49 -48.5 -77.5
t-86.5 -28.5q-51 0 -88.5 28t-52.5 78l-225 756q-5 20 -5 37q0 51 35 88t86 37q50 0 81.5 -32.5t41.5 -78.5l137 -567l138 579q11 44 44 71.5t78 27.5q44 0 78 -28t45 -71l138 -575l141 578q9 43 39.5 69.5t75.5 26.5q42 0 72.5 -25.5t41.5 -66.5q9 -31 -4 -78z" />
    <glyph glyph-name="Wacute" unicode="&#x1e82;" horiz-adv-x="1488" 
d="M682 1581l129 152q34 43 78 43t74 -29.5t30 -73.5q0 -51 -37 -78l-176 -141q-28 -20 -49 -20q-37 0 -59.5 24t-22.5 55q0 18 6.5 30.5t26.5 37.5zM1427 1214l-249 -1110q-12 -53 -50 -83.5t-90 -30.5q-54 0 -92 31t-47 83l-156 807l-153 -807q-9 -52 -46.5 -83t-90.5 -31
t-91.5 31t-48.5 83l-250 1104q-2 6 -2 25q0 53 35.5 88t87.5 35q46 0 79.5 -29.5t41.5 -75.5l158 -821l151 803q9 52 46 83.5t90 31.5q54 0 91 -31t46 -84l149 -795l160 822q9 43 41 69.5t76 26.5q50 0 83.5 -34t33.5 -85q0 -11 -3 -23z" />
    <glyph glyph-name="wacute" unicode="&#x1e83;" horiz-adv-x="1396" 
d="M635 1270l129 153q33 41 78 41q44 0 74 -29t30 -73q0 -47 -37 -76l-176 -143q-23 -19 -49 -19q-37 0 -59.5 23.5t-22.5 54.5q0 18 6.5 30.5t26.5 37.5zM1329 844l-223 -748q-13 -49 -51 -77.5t-88 -28.5q-51 0 -87.5 28.5t-48.5 77.5l-133 510l-131 -510
q-12 -49 -48.5 -77.5t-86.5 -28.5q-51 0 -88.5 28t-52.5 78l-225 756q-5 20 -5 37q0 51 35 88t86 37q50 0 81.5 -32.5t41.5 -78.5l137 -567l138 579q11 44 44 71.5t78 27.5q44 0 78 -28t45 -71l138 -575l141 578q9 43 39.5 69.5t75.5 26.5q42 0 72.5 -25.5t41.5 -66.5
q9 -31 -4 -78z" />
    <glyph glyph-name="Wdieresis" unicode="&#x1e84;" horiz-adv-x="1488" 
d="M766 1567q0 52 35 86.5t86 34.5t86 -34.5t35 -86.5q0 -51 -35 -87t-86 -36t-86 36t-35 87zM479 1567q0 52 35.5 86.5t87.5 34.5q51 0 85 -34.5t34 -86.5q0 -51 -34 -87t-85 -36t-87 36t-36 87zM1427 1214l-249 -1110q-12 -53 -50 -83.5t-90 -30.5q-54 0 -92 31t-47 83
l-156 807l-153 -807q-9 -52 -46.5 -83t-90.5 -31t-91.5 31t-48.5 83l-250 1104q-2 6 -2 25q0 53 35.5 88t87.5 35q46 0 79.5 -29.5t41.5 -75.5l158 -821l151 803q9 52 46 83.5t90 31.5q54 0 91 -31t46 -84l149 -795l160 822q9 43 41 69.5t76 26.5q50 0 83.5 -34t33.5 -85
q0 -11 -3 -23z" />
    <glyph glyph-name="wdieresis" unicode="&#x1e85;" horiz-adv-x="1396" 
d="M721 1253q0 51 35 85t86 34t86 -34t35 -85t-35 -88t-86 -37t-86 37t-35 88zM434 1253q0 51 36 85t87 34t85 -34t34 -85q0 -52 -34.5 -88.5t-84.5 -36.5q-51 0 -87 37t-36 88zM1329 844l-223 -748q-13 -49 -51 -77.5t-88 -28.5q-51 0 -87.5 28.5t-48.5 77.5l-133 510
l-131 -510q-12 -49 -48.5 -77.5t-86.5 -28.5q-51 0 -88.5 28t-52.5 78l-225 756q-5 20 -5 37q0 51 35 88t86 37q50 0 81.5 -32.5t41.5 -78.5l137 -567l138 579q11 44 44 71.5t78 27.5q44 0 78 -28t45 -71l138 -575l141 578q9 43 39.5 69.5t75.5 26.5q42 0 72.5 -25.5
t41.5 -66.5q9 -31 -4 -78z" />
    <glyph glyph-name="endash" unicode="&#x2013;" horiz-adv-x="1087" 
d="M111 535q0 40 24 65t64 25h690q40 0 64 -25t24 -65t-24.5 -65.5t-63.5 -25.5h-690q-39 0 -63.5 25.5t-24.5 65.5z" />
    <glyph glyph-name="emdash" unicode="&#x2014;" horiz-adv-x="1636" 
d="M111 535q0 40 24 65t64 25h1237q40 0 65 -25t25 -65t-25 -65.5t-65 -25.5h-1237q-39 0 -63.5 25.5t-24.5 65.5z" />
    <glyph glyph-name="quoteleft" unicode="&#x2018;" horiz-adv-x="487" 
d="M113 1059l133 246q28 51 76 51q41 0 62 -30t9 -81l-65 -270q-11 -44 -41 -71t-74 -27q-73 0 -105 56.5t5 125.5z" />
    <glyph glyph-name="quoteright" unicode="&#x2019;" horiz-adv-x="487" 
d="M377 1176l-133 -246q-27 -53 -76 -53q-41 0 -62.5 29.5t-9.5 80.5l66 270q11 46 40.5 72.5t73.5 26.5q73 0 105 -56t-4 -124z" />
    <glyph glyph-name="quotesinglbase" unicode="&#x201a;" horiz-adv-x="493" 
d="M350 88l-133 -246q-27 -53 -76 -53q-41 0 -62 30t-9 81l63 270q27 98 117 98q72 0 104 -56t-4 -124z" />
    <glyph glyph-name="quotedblleft" unicode="&#x201c;" horiz-adv-x="804" 
d="M102 1059l134 246q28 51 75 51q42 0 63.5 -30t8.5 -81l-64 -270q-13 -45 -42.5 -71.5t-73.5 -26.5q-73 0 -105 56.5t4 125.5zM438 1059l133 246q28 51 76 51q42 0 63.5 -30t8.5 -81l-64 -270q-11 -45 -40.5 -71.5t-73.5 -26.5q-73 0 -106 56.5t3 125.5z" />
    <glyph glyph-name="quotedblright" unicode="&#x201d;" horiz-adv-x="804" 
d="M705 1176l-134 -246q-27 -53 -75 -53q-42 0 -63.5 30t-8.5 80l63 270q12 46 42.5 72.5t74.5 26.5q73 0 105 -56t-4 -124zM367 1176l-131 -246q-27 -53 -76 -53q-42 0 -63.5 30t-8.5 80l64 270q11 46 40.5 72.5t73.5 26.5q73 0 105 -55.5t-4 -124.5z" />
    <glyph glyph-name="quotedblbase" unicode="&#x201e;" horiz-adv-x="815" 
d="M686 88l-133 -246q-27 -53 -76 -53q-42 0 -63 30t-8 81l63 270q11 46 41 72t76 26q71 0 103.5 -56t-3.5 -124zM354 88l-133 -246q-27 -53 -76 -53q-41 0 -62 30t-9 81l65 270q11 45 40.5 71.5t74.5 26.5q72 0 104 -56t-4 -124z" />
    <glyph glyph-name="dagger" unicode="&#x2020;" horiz-adv-x="872" 
d="M555 1139l-20 -135h198q35 0 57.5 -23.5t22.5 -58.5q0 -34 -22.5 -57t-57.5 -23h-221l43 -862v-101q0 -53 -33 -85t-86 -32t-86 32t-33 85v101l41 862h-219q-35 0 -57.5 23t-22.5 57q0 35 22.5 58.5t57.5 23.5h197l-19 135v100q0 53 33 85t86 32t86 -32t33 -85v-100z" />
    <glyph glyph-name="daggerdbl" unicode="&#x2021;" horiz-adv-x="915" 
d="M575 1139l-10 -135h191q35 0 56.5 -23t21.5 -57q0 -36 -21.5 -59t-56.5 -23h-203l-21 -283l21 -283h203q35 0 56.5 -22.5t21.5 -56.5q0 -36 -21.5 -59t-56.5 -23h-191l10 -135v-101q0 -54 -31.5 -85.5t-84.5 -31.5q-54 0 -86.5 31.5t-32.5 85.5v101l8 135h-188
q-35 0 -56.5 23t-21.5 59q0 34 21.5 56.5t56.5 22.5h202l19 283l-19 283h-202q-35 0 -56.5 23t-21.5 59q0 34 21.5 57t56.5 23h188l-8 135v100q0 54 32.5 85.5t86.5 31.5q53 0 84.5 -31.5t31.5 -85.5v-100z" />
    <glyph glyph-name="bullet" unicode="&#x2022;" horiz-adv-x="724" 
d="M135 561q0 95 66.5 162.5t158.5 67.5q95 0 162.5 -67.5t67.5 -162.5q0 -92 -67.5 -158.5t-162.5 -66.5q-92 0 -158.5 66.5t-66.5 158.5z" />
    <glyph glyph-name="ellipsis" unicode="&#x2026;" horiz-adv-x="1335" 
d="M958 119q0 60 40.5 100.5t99.5 40.5q60 0 100.5 -40.5t40.5 -100.5q0 -59 -40.5 -99t-100.5 -40q-59 0 -99.5 40.5t-40.5 98.5zM526 119q0 60 41.5 100.5t100.5 40.5t99 -40.5t40 -100.5q0 -59 -40.5 -99t-98.5 -40q-59 0 -100.5 40.5t-41.5 98.5zM96 119
q0 60 40.5 100.5t99.5 40.5q60 0 100.5 -40.5t40.5 -100.5q0 -59 -40.5 -99t-100.5 -40q-59 0 -99.5 40.5t-40.5 98.5z" />
    <glyph glyph-name="perthousand" unicode="&#x2030;" horiz-adv-x="1904" 
d="M594 1126v-215q0 -105 -67.5 -172t-184.5 -67q-118 0 -185 66.5t-67 172.5v215q0 106 67 173t185 67q117 0 184.5 -67t67.5 -173zM1075 1231l-327 -559l-359 -643q-24 -39 -70 -39q-35 0 -59 23.5t-24 58.5q0 25 12 43l327 561l359 641q20 39 67 39q35 0 59.5 -23.5
t24.5 -58.5q0 -23 -10 -43zM256 1122v-207q0 -42 23 -68t63 -26q39 0 61.5 26t22.5 68v207q0 42 -22.5 68.5t-61.5 26.5q-40 0 -63 -26.5t-23 -68.5zM1825 434v-215q0 -106 -67 -172.5t-185 -66.5t-185 66.5t-67 172.5v215q0 106 67 173t185 67t185 -67t67 -173zM1231 434
v-215q0 -106 -67 -172.5t-185 -66.5t-185 66.5t-67 172.5v215q0 106 67 173t185 67t185 -67t67 -173zM1489 430v-207q0 -42 22 -68t62 -26t62 26t22 68v207q0 42 -22 68t-62 26t-62 -26t-22 -68zM895 430v-207q0 -42 22.5 -68t61.5 -26q40 0 62 26t22 68v207q0 42 -22 68
t-62 26q-39 0 -61.5 -26t-22.5 -68z" />
    <glyph glyph-name="guilsinglleft" unicode="&#x2039;" horiz-adv-x="550" 
d="M301 477l105 -225q23 -51 -2 -93t-80 -42q-37 0 -58.5 17.5t-38.5 51.5l-114 209q-25 48 -25 82q0 37 25 82l114 209q17 34 39 52t58 18q56 0 81.5 -43t0.5 -93z" />
    <glyph glyph-name="guilsinglright" unicode="&#x203a;" horiz-adv-x="550" 
d="M145 252l105 225l-105 225q-25 50 0.5 93t81.5 43q36 0 58 -18t39 -52l114 -209q25 -45 25 -82q0 -34 -25 -82l-114 -209q-17 -34 -38.5 -51.5t-58.5 -17.5q-55 0 -80 42t-2 93z" />
    <glyph glyph-name="fraction" unicode="&#x2044;" horiz-adv-x="301" 
d="M565 1231l-327 -559l-359 -643q-24 -39 -69 -39q-35 0 -59.5 23.5t-24.5 58.5q0 25 12 43l328 561l358 641q9 17 27.5 28t40.5 11q35 0 59 -23.5t24 -58.5q0 -23 -10 -43z" />
    <glyph glyph-name="zero.superior" unicode="&#x2070;" horiz-adv-x="608" 
d="M539 1444v-250q0 -102 -64.5 -161.5t-171.5 -59.5q-104 0 -167.5 59.5t-63.5 161.5v250q0 105 58.5 163t172.5 58q107 0 171.5 -59.5t64.5 -161.5zM238 1442v-246q0 -35 17 -55.5t48 -20.5q32 0 51 20.5t19 55.5v246q0 36 -18.5 56t-51.5 20q-31 0 -48 -19.5t-17 -56.5z
" />
    <glyph glyph-name="four.superior" unicode="&#x2074;" horiz-adv-x="624" 
d="M403 1665q44 0 71.5 -21t27.5 -55v-338h16q29 0 47.5 -19.5t18.5 -49.5q0 -31 -18.5 -49.5t-47.5 -18.5h-16v-61q0 -35 -23.5 -57.5t-60.5 -22.5q-35 0 -57.5 22.5t-22.5 57.5v61h-217q-37 0 -61.5 23t-24.5 57q0 43 12 72.5t41 70.5l182 258q26 37 55.5 53.5t77.5 16.5z
M190 1251h148v209z" />
    <glyph glyph-name="five.superior" unicode="&#x2075;" horiz-adv-x="581" 
d="M504 1585q0 -31 -19 -50t-51 -19h-209v-127q38 30 105 30q89 0 143.5 -57t54.5 -160q0 -104 -66 -165.5t-173 -61.5q-68 0 -122 24.5t-81 65.5q-26 38 -9 79.5t66 41.5q37 0 66 -37q30 -37 74 -37q73 0 73 86q0 90 -65 90q-21 0 -59.5 -16.5t-81.5 -16.5q-32 0 -52 19.5
t-20 50.5v260q0 32 20 52t52 20h284q32 0 51 -20t19 -52z" />
    <glyph glyph-name="six.superior" unicode="&#x2076;" horiz-adv-x="595" 
d="M537 1186q0 -103 -63 -158t-169 -55q-107 0 -170 54.5t-63 156.5v248q0 109 62 171t177 62q47 0 92.5 -13t81 -45t35.5 -77q0 -31 -21.5 -53.5t-52.5 -22.5q-10 0 -18.5 2t-19.5 10t-13.5 10t-17.5 15q-29 33 -62 33q-77 0 -77 -78v-78q42 27 100 27q91 0 145 -55
t54 -154zM301 1264q-31 0 -63 -23v-53q0 -78 63 -78q31 0 48.5 18.5t17.5 53.5q0 82 -66 82z" />
    <glyph glyph-name="seven.superior" unicode="&#x2077;" horiz-adv-x="507" 
d="M449 1470l-173 -444q-26 -53 -79 -53q-32 0 -56 24t-24 58q0 17 6 35l166 423h-191q-30 0 -48.5 19.5t-18.5 50.5q0 32 18 52t49 20h299q33 0 55.5 -21t22.5 -55q0 -37 -26 -109z" />
    <glyph glyph-name="eight.superior" unicode="&#x2078;" horiz-adv-x="585" 
d="M510 1475q0 -101 -70 -144q84 -39 84 -157q0 -90 -63 -145.5t-168 -55.5t-168.5 55.5t-63.5 145.5q0 117 82 157q-71 40 -71 144q0 84 60 137t161 53q100 0 158.5 -52.5t58.5 -137.5zM238 1460q0 -76 55 -76q53 0 53 76q0 68 -55 68q-53 0 -53 -68zM229 1184
q0 -80 64 -80q63 0 63 80q0 82 -65 82q-62 0 -62 -82z" />
    <glyph glyph-name="nine.superior" unicode="&#x2079;" horiz-adv-x="591" 
d="M291 1374q34 0 63 25v35q0 53 -16 73.5t-47 20.5t-48.5 -18.5t-17.5 -53.5q0 -82 66 -82zM57 1452q0 103 62 158t168 55q107 0 170 -58.5t63 -168.5v-232q0 -109 -61.5 -171t-177.5 -62q-48 0 -94 13.5t-80.5 45.5t-34.5 76q0 31 22 53.5t53 22.5t68 -37
q10 -11 15.5 -16.5t18 -11t27.5 -5.5q78 0 78 78v78q-42 -27 -100 -27q-91 0 -144 54.5t-53 154.5z" />
    <glyph glyph-name="parenleft.superior" unicode="&#x207d;" horiz-adv-x="380" 
d="M238 1100q0 -62 51 -78q51 -22 51 -74q0 -40 -28.5 -60t-65.5 -11q-83 19 -128.5 77.5t-45.5 153.5v420q0 186 172 229q38 9 67 -11.5t29 -59.5q0 -53 -51 -72q-51 -16 -51 -80v-434z" />
    <glyph glyph-name="parenright.superior" unicode="&#x207e;" horiz-adv-x="380" 
d="M143 1100v434q0 64 -51 80q-51 20 -51 72q0 39 30 59.5t66 11.5q172 -43 172 -229v-420q0 -95 -45.5 -153.5t-126.5 -77.5q-37 -9 -66.5 11t-29.5 60q0 52 51 74q51 16 51 78z" />
    <glyph glyph-name="zero.inferior" unicode="&#x2080;" horiz-adv-x="614" 
d="M543 150v-250q0 -102 -64.5 -162t-171.5 -60q-104 0 -167.5 60t-63.5 162v250q0 105 58.5 163t172.5 58q107 0 171.5 -59.5t64.5 -161.5zM242 147v-245q0 -35 17 -55.5t48 -20.5q32 0 51 20.5t19 55.5v245q0 36 -18.5 56t-51.5 20q-31 0 -48 -19.5t-17 -56.5z" />
    <glyph glyph-name="one.inferior" unicode="&#x2081;" horiz-adv-x="493" 
d="M53 287q0 32 20 52.5t52 20.5h145q32 0 52 -19.5t20 -51.5v-459h57q31 0 50.5 -19.5t19.5 -50.5q0 -32 -19.5 -51.5t-50.5 -19.5h-276q-31 0 -50.5 19.5t-19.5 51.5q0 31 19.5 50.5t50.5 19.5h53v385h-51q-32 0 -52 20.5t-20 51.5z" />
    <glyph glyph-name="two.inferior" unicode="&#x2082;" horiz-adv-x="593" 
d="M59 -236v7q0 139 95 200l129 84q71 48 71 109q0 28 -16 43.5t-45 15.5t-44 -12t-28 -39q-27 -53 -78 -53q-31 0 -54 20t-23 54q0 72 67 125t164 53q104 0 166.5 -54t62.5 -145q0 -76 -32.5 -129.5t-100.5 -95.5l-104 -66q-31 -19 -37 -43h211q34 0 54 -20.5t20 -55.5
q0 -34 -20 -53.5t-54 -19.5h-328q-34 0 -55 20.5t-21 54.5z" />
    <glyph glyph-name="three.inferior" unicode="&#x2083;" horiz-adv-x="585" 
d="M211 31q0 25 15.5 43t39.5 18h13q67 0 67 66q0 65 -61 65q-38 0 -60 -39q-27 -49 -73 -49q-32 0 -55 22t-23 54q0 68 68.5 114t148.5 46q101 0 161 -53t60 -138q0 -98 -70 -143q80 -43 80 -156q0 -92 -64 -147.5t-171 -55.5q-81 0 -149 44t-68 114q0 31 21.5 54.5
t55.5 23.5q47 0 74 -49q12 -23 25.5 -34t38.5 -11q67 0 67 78q0 69 -73 69h-13q-24 0 -39.5 19t-15.5 45z" />
    <glyph glyph-name="four.inferior" unicode="&#x2084;" horiz-adv-x="626" 
d="M403 371q44 0 71.5 -21t27.5 -55v-338h16q29 0 47.5 -20t18.5 -50q0 -31 -18 -49t-48 -18h-16v-62q0 -35 -23.5 -57.5t-60.5 -22.5q-35 0 -57.5 22.5t-22.5 57.5v62h-217q-37 0 -61.5 23t-24.5 57q0 43 12 72.5t41 70.5l182 258q26 37 55.5 53.5t77.5 16.5zM190 -43h148
v209z" />
    <glyph glyph-name="five.inferior" unicode="&#x2085;" horiz-adv-x="585" 
d="M506 291q0 -31 -19 -50.5t-51 -19.5h-209v-127q40 31 105 31q89 0 143.5 -57t54.5 -160q0 -104 -66 -165.5t-173 -61.5q-68 0 -122 24.5t-81 65.5q-26 38 -9 79t66 41q38 0 66 -36q30 -37 74 -37q73 0 73 86q0 90 -65 90q-21 0 -59.5 -16.5t-81.5 -16.5q-32 0 -52 19.5
t-20 50.5v260q0 32 20 51.5t52 19.5h284q32 0 51 -19.5t19 -51.5z" />
    <glyph glyph-name="six.inferior" unicode="&#x2086;" horiz-adv-x="600" 
d="M541 -109q0 -103 -63 -158t-169 -55q-107 0 -170 54.5t-63 156.5v248q0 109 62 171.5t177 62.5q47 0 92.5 -13t81 -45t35.5 -77q0 -31 -21.5 -53.5t-51.5 -22.5q-14 0 -27 6t-20 11.5t-23 19.5q-28 32 -62 32q-77 0 -77 -77v-78q41 26 100 26q91 0 145 -55t54 -154z
M305 -31q-32 0 -63 -22v-53q0 -78 63 -78q66 0 66 71q0 82 -66 82z" />
    <glyph glyph-name="seven.inferior" unicode="&#x2087;" horiz-adv-x="509" 
d="M451 176l-172 -444q-26 -54 -80 -54q-32 0 -56 24t-24 58q0 17 6 35l166 424h-191q-30 0 -48.5 19.5t-18.5 50.5q0 32 18 51.5t49 19.5h299q33 0 55.5 -20.5t22.5 -54.5q0 -37 -26 -109z" />
    <glyph glyph-name="eight.inferior" unicode="&#x2088;" horiz-adv-x="591" 
d="M512 180q0 -100 -70 -143q84 -39 84 -158q0 -90 -63 -145.5t-168 -55.5t-168.5 55.5t-63.5 145.5q0 118 82 158q-71 40 -71 143q0 85 60 138t161 53q100 0 158.5 -53t58.5 -138zM240 166q0 -76 55 -76q53 0 53 76q0 67 -55 67q-53 0 -53 -67zM231 -111q0 -79 64 -79
q63 0 63 79q0 82 -65 82q-62 0 -62 -82z" />
    <glyph glyph-name="nine.inferior" unicode="&#x2089;" horiz-adv-x="598" 
d="M293 80q35 0 63 24v35q0 53 -16 73.5t-47 20.5q-66 0 -66 -71q0 -82 66 -82zM59 158q0 103 62 158t168 55q107 0 170 -59t63 -169v-231q0 -109 -61.5 -171.5t-177.5 -62.5q-48 0 -94 13.5t-80.5 46t-34.5 76.5q0 31 22.5 53t53.5 22t67 -36q29 -33 62 -33q77 0 77 78v77
q-41 -26 -100 -26q-91 0 -144 54.5t-53 154.5z" />
    <glyph glyph-name="parenleft.inferior" unicode="&#x208d;" horiz-adv-x="387" 
d="M240 -195q0 -61 51 -77q51 -22 51 -74q0 -40 -29 -60.5t-65 -11.5q-83 19 -128.5 78t-45.5 154v419q0 187 172 230q37 9 66.5 -12t29.5 -60q0 -53 -51 -72q-51 -16 -51 -79v-435z" />
    <glyph glyph-name="parenright.inferior" unicode="&#x208e;" horiz-adv-x="387" 
d="M145 -195v435q0 63 -51 79q-51 20 -51 72q0 39 30 60t66 12q172 -43 172 -230v-419q0 -95 -45.5 -154t-126.5 -78q-37 -9 -66.5 11.5t-29.5 60.5q0 52 51 74q51 16 51 77z" />
    <glyph glyph-name="franc" unicode="&#x20a3;" horiz-adv-x="1118" 
d="M227 887v334q0 57 34 91t91 34h592q49 0 81 -33t32 -84q0 -49 -31.5 -81t-81.5 -32h-461v-229h242q40 0 65 -27.5t25 -68.5q0 -40 -24.5 -64.5t-65.5 -24.5h-242v-116h242q41 0 65.5 -26.5t24.5 -67.5q0 -40 -24.5 -65.5t-65.5 -25.5h-242v-286q0 -57 -36 -91t-93 -34
t-92 34t-35 91v286h-45q-39 0 -63.5 26.5t-24.5 66.5t24.5 66t63.5 26h45v116h-45q-40 0 -64 26t-24 67q0 40 24.5 66t63.5 26h45z" />
    <glyph glyph-name="lira" unicode="&#x20a4;" horiz-adv-x="1161" 
d="M479 389v-166h486q49 0 79.5 -30.5t30.5 -79.5q0 -51 -30 -82t-80 -31h-762q-51 0 -81 31t-30 82q0 50 30 80t81 30h22v166h-61q-32 0 -52 21t-20 55q0 33 20 54.5t52 21.5h61v116h-61q-32 0 -52 21t-20 55q0 33 20 54.5t52 21.5h61v137q0 191 116.5 305.5t303.5 114.5
q162 0 269.5 -87t132.5 -239q10 -60 -22 -105.5t-97 -45.5q-43 0 -74 26t-43 72q-20 74 -58 113t-106 39q-80 0 -124 -53.5t-44 -143.5v-133h197q32 0 53 -22t21 -56q0 -32 -21 -53t-53 -21h-197v-116h197q32 0 53 -22t21 -56q0 -32 -21 -53t-53 -21h-197z" />
    <glyph glyph-name="peseta" unicode="&#x20a7;" horiz-adv-x="2613" 
d="M154 115v1106q0 57 34 91t91 34h344q203 0 333.5 -121t130.5 -316q0 -204 -130 -327t-334 -123h-213v-344q0 -57 -36 -91t-93 -34t-92 34t-35 91zM1133 889q0 46 28 75t74 29h88v164q0 54 33.5 87.5t87.5 33.5t89.5 -33.5t35.5 -87.5v-164h90q46 0 74 -28t28 -74
t-28.5 -75.5t-73.5 -29.5h-90v-675q0 -54 -35.5 -87.5t-89.5 -33.5t-87.5 33.5t-33.5 87.5v675h-88q-46 0 -74 28.5t-28 74.5zM600 1122h-190v-440h190q105 0 166 59.5t61 161.5q0 100 -61 159.5t-166 59.5zM2189 381l-178 55q-237 74 -237 289q0 122 102 210.5t266 88.5
q129 0 220.5 -44.5t134.5 -125.5q31 -54 3 -110t-92 -56q-38 0 -62.5 16.5t-49.5 53.5q-30 43 -63.5 63.5t-88.5 20.5q-61 0 -102 -27t-41 -72q0 -33 20.5 -56t77.5 -40l144 -43q63 -19 108.5 -41t87.5 -57t64 -87t22 -120q0 -143 -105 -231t-284 -88q-145 0 -246 56
t-133 154q-18 53 12.5 98.5t88.5 45.5q33 0 55.5 -15.5t44.5 -52.5q27 -46 66.5 -74t109.5 -28q160 0 160 110q0 40 -24.5 65t-80.5 42z" />
    <glyph glyph-name="Euro" unicode="&#x20ac;" horiz-adv-x="1206" 
d="M211 887v31q0 209 121 328.5t340 119.5q172 0 287.5 -91t144.5 -247q11 -60 -21.5 -108t-97.5 -48q-41 0 -71 25.5t-42 67.5q-26 93 -72.5 137.5t-131.5 44.5q-97 0 -154 -64.5t-57 -169.5v-26h178q32 0 52 -22.5t20 -55.5q0 -32 -20 -53t-52 -21h-178v-117h178
q32 0 52 -22t20 -55q0 -32 -20 -53t-52 -21h-178v-35q0 -105 57 -169t154 -64q168 0 204 182q9 48 39.5 73t73.5 25q61 0 96 -46t23 -107q-31 -162 -145 -254t-287 -92q-206 0 -333.5 121.5t-127.5 326.5v39h-64q-33 0 -53 20.5t-20 53.5t20 55t53 22h64v117h-64
q-33 0 -53 20.5t-20 53.5t20 55.5t53 22.5h64z" />
    <glyph glyph-name="uni2113" unicode="&#x2113;" horiz-adv-x="995" 
d="M725 721l-244 -172v-197q0 -69 40 -106t118 -37h158q46 0 74 -28t28 -77t-28 -76.5t-74 -27.5h-185q-183 0 -279.5 92.5t-96.5 274.5v8l-11 -6q-51 -32 -107.5 -1.5t-56.5 93.5q0 58 48 94l127 88v379q0 167 92.5 262.5t255.5 95.5q165 0 255.5 -91.5t90.5 -219.5
q0 -203 -205 -348zM481 1022v-207l107 76q61 42 87.5 82t26.5 94q0 46 -28 77.5t-78 31.5q-56 0 -85.5 -40.5t-29.5 -113.5z" />
    <glyph glyph-name="trademark" unicode="&#x2122;" horiz-adv-x="1632" 
d="M1139 987l170 307q37 62 102 62q36 0 59 -23t23 -59v-610q0 -36 -24 -59t-60 -23q-37 0 -61.5 23t-24.5 59v344l-117 -197q-29 -49 -78 -49q-46 0 -75 49l-109 184v-338q0 -33 -24 -54t-60 -21q-34 0 -57 21t-23 54v617q0 36 23 59t59 23q69 0 101 -62zM109 1264
q0 36 22 59t57 23h447q34 0 56 -23.5t22 -58.5t-22 -57.5t-56 -22.5h-127v-510q0 -42 -26 -67t-70 -25q-42 0 -68.5 25.5t-26.5 66.5v510h-129q-35 0 -57 22.5t-22 57.5z" />
    <glyph glyph-name="Omega" unicode="&#x2126;" horiz-adv-x="1239" 
d="M1094 918v-437q0 -221 -144 -313h125q35 0 57.5 -24t22.5 -60t-22.5 -60t-57.5 -24h-270q-41 0 -65.5 25.5t-24.5 66.5v47q0 37 11 55.5t46 51.5q66 49 66 157v510q0 102 -58.5 163t-161.5 61q-102 0 -159.5 -61t-57.5 -163v-510q0 -108 66 -157q35 -33 46 -51.5
t11 -55.5v-47q0 -41 -25 -66.5t-65 -25.5h-270q-35 0 -57.5 24t-22.5 60t22.5 60t57.5 24h123q-142 91 -142 313v437q0 209 124 328.5t349 119.5q227 0 351.5 -119.5t124.5 -328.5z" />
    <glyph glyph-name="estimated" unicode="&#x212e;" horiz-adv-x="1556" 
d="M1296 201q-95 -105 -229.5 -164.5t-284.5 -59.5q-189 0 -349 92.5t-252.5 252t-92.5 348.5q0 142 55 271t148 222t222 148t271 55q178 0 331 -84t249 -228t113 -317q1 -12 -1 -24t-8.5 -27t-23 -24t-41.5 -9h-1006v-391q163 -156 385 -156q121 0 230 48.5t186 136.5
q19 22 49 22q31 0 50.5 -18t19.5 -47q0 -26 -21 -47zM784 1237q-224 0 -387 -160v-299h774v297q-165 162 -387 162z" />
    <glyph glyph-name="uni2153" unicode="&#x2153;" horiz-adv-x="1363" 
d="M1116 1231l-328 -559l-358 -643q-24 -39 -70 -39q-35 0 -59.5 23.5t-24.5 58.5q0 23 13 43l327 561l359 641q20 39 67 39q35 0 59.5 -23.5t24.5 -58.5q0 -23 -10 -43zM84 1272q0 32 20 53t52 21h145q32 0 52 -20t20 -52v-459h57q31 0 50.5 -19.5t19.5 -50.5
q0 -32 -19.5 -51.5t-50.5 -19.5h-276q-31 0 -50.5 19.5t-19.5 51.5q0 31 19.5 50.5t50.5 19.5h53v385h-51q-32 0 -52 20.5t-20 51.5zM969 342q0 25 15.5 43t39.5 18h12q68 0 68 66t-62 66q-37 0 -59 -39q-28 -50 -74 -50q-32 0 -55 22t-23 54q0 68 68.5 114t149.5 46
q101 0 161 -53t60 -137q0 -99 -70 -144q80 -43 80 -155q0 -92 -64.5 -147.5t-171.5 -55.5q-81 0 -149 43.5t-68 113.5q0 31 22 54.5t56 23.5q47 0 74 -49q12 -24 25 -34.5t38 -10.5q68 0 68 78q0 70 -74 70h-12q-24 0 -39.5 18.5t-15.5 44.5z" />
    <glyph glyph-name="uni2154" unicode="&#x2154;" horiz-adv-x="1423" 
d="M1176 1231l-328 -559l-359 -643q-24 -39 -69 -39q-35 0 -59.5 23.5t-24.5 58.5q0 25 12 43l328 561l358 641q9 17 27.5 28t40.5 11q35 0 59.5 -23.5t24.5 -58.5q0 -23 -10 -43zM86 750v6q0 140 94 200l129 84q72 49 72 109q0 28 -16.5 43.5t-45.5 15.5t-43.5 -12
t-27.5 -39q-27 -53 -78 -53q-31 0 -54.5 20t-23.5 54q0 72 67.5 125t164.5 53q104 0 166.5 -54t62.5 -145q0 -76 -32.5 -129.5t-100.5 -95.5l-105 -66q-30 -18 -36 -43h210q34 0 54 -20t20 -55q0 -34 -20 -54t-54 -20h-327q-34 0 -55 21t-21 55zM1028 342q0 25 15.5 43
t39.5 18h13q67 0 67 66t-61 66q-38 0 -60 -39q-28 -50 -73 -50q-32 0 -55 22t-23 54q0 68 68.5 114t148.5 46q101 0 161 -53t60 -137q0 -100 -69 -144q79 -42 79 -155q0 -92 -64 -147.5t-171 -55.5q-81 0 -149 43.5t-68 113.5q0 31 22 54.5t56 23.5q46 0 73 -49
q12 -23 25 -34t39 -11q67 0 67 78q0 70 -73 70h-13q-24 0 -39.5 18.5t-15.5 44.5z" />
    <glyph glyph-name="uni2155" unicode="&#x2155;" horiz-adv-x="1404" 
d="M1116 1231l-328 -559l-358 -643q-24 -39 -70 -39q-35 0 -59.5 23.5t-24.5 58.5q0 23 13 43l327 561l359 641q20 39 67 39q35 0 59.5 -23.5t24.5 -58.5q0 -23 -10 -43zM84 1272q0 32 20 53t52 21h145q32 0 52 -20t20 -52v-459h57q31 0 50.5 -19.5t19.5 -50.5
q0 -32 -19.5 -51.5t-50.5 -19.5h-276q-31 0 -50.5 19.5t-19.5 51.5q0 31 19.5 50.5t50.5 19.5h53v385h-51q-32 0 -52 20.5t-20 51.5zM1296 602q0 -31 -18.5 -50.5t-50.5 -19.5h-209v-126q38 30 104 30q89 0 144 -57t55 -160q0 -104 -66.5 -165.5t-173.5 -61.5
q-68 0 -121.5 24.5t-80.5 65.5q-26 38 -9 79.5t66 41.5q36 0 65 -37q30 -37 74 -37q36 0 55 23t19 63q0 90 -66 90q-21 0 -59.5 -16.5t-81.5 -16.5q-32 0 -52 19.5t-20 50.5v260q0 32 20 52t52 20h285q32 0 50.5 -19.5t18.5 -52.5z" />
    <glyph glyph-name="uni2156" unicode="&#x2156;" horiz-adv-x="1449" 
d="M1161 1231l-327 -559l-359 -643q-24 -39 -69 -39q-35 0 -59.5 23.5t-24.5 58.5q0 25 12 43l328 561l358 641q20 39 67 39q35 0 59.5 -23.5t24.5 -58.5q0 -23 -10 -43zM88 750v6q0 140 94 200l129 84q72 49 72 109q0 28 -16 43.5t-45 15.5t-44 -12t-28 -39
q-27 -53 -78 -53q-31 0 -54.5 20t-23.5 54q0 72 67.5 125t164.5 53q104 0 166.5 -54t62.5 -145q0 -76 -32.5 -129.5t-100.5 -95.5l-105 -66q-30 -18 -36 -43h211q34 0 53.5 -20t19.5 -55q0 -34 -19.5 -54t-53.5 -20h-328q-34 0 -55 21t-21 55zM1341 602q0 -31 -18.5 -50.5
t-50.5 -19.5h-209v-126q38 30 104 30q89 0 144 -57t55 -160q0 -104 -66.5 -165.5t-173.5 -61.5q-68 0 -121.5 24.5t-80.5 65.5q-26 38 -9 79.5t66 41.5q37 0 66 -37q30 -37 73 -37q36 0 55 23t19 63q0 90 -66 90q-21 0 -59.5 -16.5t-81.5 -16.5q-32 0 -52 19.5t-20 50.5v260
q0 32 20 52t52 20h285q32 0 50.5 -19.5t18.5 -52.5z" />
    <glyph glyph-name="uni2157" unicode="&#x2157;" horiz-adv-x="1390" 
d="M1102 1231l-328 -559l-358 -643q-24 -39 -70 -39q-35 0 -59.5 23.5t-24.5 58.5q0 25 12 43l328 561l359 641q20 39 67 39q35 0 59.5 -23.5t24.5 -58.5q0 -23 -10 -43zM238 1024q0 25 15.5 43t39.5 18h12q68 0 68 66t-62 66q-37 0 -59 -39q-28 -50 -74 -50q-32 0 -55 22
t-23 54q0 68 68.5 114t148.5 46q101 0 161.5 -53t60.5 -137q0 -99 -70 -144q80 -43 80 -156q0 -92 -64.5 -147t-171.5 -55q-81 0 -149 43.5t-68 113.5q0 31 22 54.5t56 23.5q47 0 74 -49q12 -24 25 -34.5t38 -10.5q68 0 68 78q0 70 -74 70h-12q-24 0 -39.5 18.5t-15.5 44.5z
M1282 602q0 -31 -19 -50.5t-51 -19.5h-208v-126q38 30 104 30q89 0 144 -57t55 -160q0 -104 -66.5 -165.5t-173.5 -61.5q-68 0 -122 24.5t-81 65.5q-26 38 -8.5 79.5t66.5 41.5q36 0 65 -37q30 -37 74 -37q36 0 55 23t19 63q0 90 -66 90q-21 0 -59.5 -16.5t-81.5 -16.5
q-32 0 -52 19.5t-20 50.5v260q0 32 20 52t52 20h284q32 0 51 -20t19 -52z" />
    <glyph glyph-name="uni2158" unicode="&#x2158;" horiz-adv-x="1460" 
d="M1167 1231l-327 -559l-359 -643q-24 -39 -69 -39q-35 0 -59.5 23.5t-24.5 58.5q0 25 12 43l328 561l358 641q9 17 27.5 28t40.5 11q35 0 59.5 -23.5t24.5 -58.5q0 -21 -11 -43zM436 1356q44 0 71.5 -21t27.5 -55v-338h16q29 0 47 -20t18 -50q0 -31 -18 -49t-47 -18h-16
v-62q0 -35 -23.5 -57t-60.5 -22q-35 0 -57.5 22t-22.5 57v62h-217q-37 0 -61.5 23t-24.5 57q0 43 12 72.5t41 70.5l182 258q26 37 55.5 53.5t77.5 16.5zM223 942h148v209zM1350 602q0 -31 -19 -50.5t-51 -19.5h-209v-126q38 30 105 30q89 0 143.5 -57t54.5 -160
q0 -104 -66 -165.5t-173 -61.5q-68 0 -122 24.5t-81 65.5q-26 38 -9 79.5t66 41.5q37 0 66 -37q30 -37 73 -37q36 0 55 23t19 63q0 90 -65 90q-21 0 -60 -16.5t-82 -16.5q-32 0 -51.5 19.5t-19.5 50.5v260q0 32 19.5 52t51.5 20h285q32 0 51 -20t19 -52z" />
    <glyph glyph-name="uni2159" unicode="&#x2159;" horiz-adv-x="1396" 
d="M1116 1231l-328 -559l-358 -643q-24 -39 -70 -39q-35 0 -59.5 23.5t-24.5 58.5q0 23 13 43l327 561l359 641q20 39 67 39q35 0 59.5 -23.5t24.5 -58.5q0 -23 -10 -43zM84 1272q0 32 20 53t52 21h145q32 0 52 -20t20 -52v-459h57q31 0 50.5 -19.5t19.5 -50.5
q0 -32 -19.5 -51.5t-50.5 -19.5h-276q-31 0 -50.5 19.5t-19.5 51.5q0 31 19.5 50.5t50.5 19.5h53v385h-51q-32 0 -52 20.5t-20 51.5zM1311 203q0 -103 -63 -158t-169 -55q-107 0 -170 54.5t-63 156.5v248q0 109 62 171t177 62q47 0 92.5 -13t81 -45t35.5 -77
q0 -31 -21.5 -53.5t-51.5 -22.5q-14 0 -27 6t-20 11.5t-23 19.5q-29 33 -61 33q-78 0 -78 -78v-78q42 27 100 27q91 0 145 -55t54 -154zM1075 281q-31 0 -63 -23v-53q0 -78 63 -78q31 0 48.5 18.5t17.5 53.5q0 82 -66 82z" />
    <glyph glyph-name="uni215A" unicode="&#x215a;" horiz-adv-x="1400" 
d="M1120 1231l-327 -559l-359 -643q-24 -39 -69 -39q-35 0 -59.5 23.5t-24.5 58.5q0 25 12 43l328 561l358 641q9 17 27.5 28t40.5 11q35 0 59 -23.5t24 -58.5q0 -23 -10 -43zM526 1276q0 -31 -18.5 -50.5t-50.5 -19.5h-209v-127q40 31 104 31q89 0 144 -57t55 -160
q0 -104 -66.5 -165.5t-173.5 -61.5q-68 0 -121.5 24.5t-80.5 65.5q-26 38 -9 79.5t66 41.5q36 0 65 -37q30 -37 74 -37q36 0 55 23t19 63q0 90 -66 90q-21 0 -59.5 -16.5t-81.5 -16.5q-32 0 -52 19.5t-20 50.5v260q0 32 20 52t52 20h285q32 0 50.5 -19.5t18.5 -52.5z
M1317 203q0 -103 -63 -158t-169 -55q-107 0 -170 54.5t-63 156.5v248q0 109 62.5 171t177.5 62q47 0 92.5 -13t80.5 -45t35 -77q0 -31 -21.5 -53.5t-51.5 -22.5q-14 0 -27 6t-20 11.5t-23 19.5q-29 33 -61 33q-78 0 -78 -78v-78q42 27 100 27q91 0 145 -55t54 -154z
M1081 281q-31 0 -63 -23v-53q0 -78 63 -78q31 0 48.5 18.5t17.5 53.5q0 82 -66 82z" />
    <glyph glyph-name="uni215B" unicode="&#x215b;" horiz-adv-x="1384" 
d="M1116 1231l-328 -559l-358 -643q-24 -39 -70 -39q-35 0 -59.5 23.5t-24.5 58.5q0 23 13 43l327 561l359 641q20 39 67 39q35 0 59.5 -23.5t24.5 -58.5q0 -23 -10 -43zM84 1272q0 32 20 53t52 21h145q32 0 52 -20t20 -52v-459h57q31 0 50.5 -19.5t19.5 -50.5
q0 -32 -19.5 -51.5t-50.5 -19.5h-276q-31 0 -50.5 19.5t-19.5 51.5q0 31 19.5 50.5t50.5 19.5h53v385h-51q-32 0 -52 20.5t-20 51.5zM1288 492q0 -102 -69 -144q84 -39 84 -158q0 -90 -63.5 -145t-168.5 -55t-168 55t-63 145q0 118 82 158q-72 40 -72 144q0 84 60 137
t161 53q100 0 158.5 -52.5t58.5 -137.5zM1016 477q0 -76 55 -76q53 0 53 76q0 68 -55 68q-53 0 -53 -68zM1008 201q0 -80 63 -80q64 0 64 80q0 82 -66 82q-61 0 -61 -82z" />
    <glyph glyph-name="uni215C" unicode="&#x215c;" horiz-adv-x="1380" 
d="M1110 1231l-328 -559l-358 -643q-24 -39 -70 -39q-35 0 -59.5 23.5t-24.5 58.5q0 23 13 43l327 561l359 641q20 39 67 39q35 0 59.5 -23.5t24.5 -58.5q0 -23 -10 -43zM238 1024q0 25 15.5 43t39.5 18h12q68 0 68 66t-62 66q-37 0 -59 -39q-28 -50 -74 -50q-32 0 -55 22
t-23 54q0 68 68.5 114t148.5 46q101 0 161.5 -53t60.5 -137q0 -99 -70 -144q80 -43 80 -156q0 -92 -64.5 -147t-171.5 -55q-81 0 -149 43.5t-68 113.5q0 31 22 54.5t56 23.5q47 0 74 -49q12 -24 25 -34.5t38 -10.5q68 0 68 78q0 70 -74 70h-12q-24 0 -39.5 18.5t-15.5 44.5z
M1282 492q0 -101 -70 -144q84 -39 84 -158q0 -90 -63 -145t-168 -55t-168 55t-63 145q0 118 81 158q-71 40 -71 144q0 84 60 137t161 53q100 0 158.5 -52.5t58.5 -137.5zM1010 477q0 -76 55 -76q53 0 53 76q0 68 -55 68q-53 0 -53 -68zM1001 201q0 -80 64 -80q63 0 63 80
q0 82 -65 82q-62 0 -62 -82z" />
    <glyph glyph-name="uni215D" unicode="&#x215d;" horiz-adv-x="1388" 
d="M1120 1231l-327 -559l-359 -643q-24 -39 -69 -39q-35 0 -59.5 23.5t-24.5 58.5q0 25 12 43l328 561l358 641q9 17 27.5 28t40.5 11q35 0 59 -23.5t24 -58.5q0 -23 -10 -43zM526 1276q0 -31 -18.5 -50.5t-50.5 -19.5h-209v-127q40 31 104 31q89 0 144 -57t55 -160
q0 -104 -66.5 -165.5t-173.5 -61.5q-68 0 -121.5 24.5t-80.5 65.5q-26 38 -9 79.5t66 41.5q36 0 65 -37q30 -37 74 -37q36 0 55 23t19 63q0 90 -66 90q-21 0 -59.5 -16.5t-81.5 -16.5q-32 0 -52 19.5t-20 50.5v260q0 32 20 52t52 20h285q32 0 50.5 -19.5t18.5 -52.5z
M1292 492q0 -102 -69 -144q84 -39 84 -158q0 -90 -63.5 -145t-168.5 -55t-168 55t-63 145q0 118 82 158q-72 40 -72 144q0 84 60 137t161 53q100 0 158.5 -52.5t58.5 -137.5zM1020 477q0 -76 55 -76q53 0 53 76q0 68 -55 68q-53 0 -53 -68zM1012 201q0 -80 63 -80
q64 0 64 80q0 82 -66 82q-61 0 -61 -82z" />
    <glyph glyph-name="uni215E" unicode="&#x215e;" horiz-adv-x="1343" 
d="M1067 1231l-328 -559l-358 -643q-24 -39 -70 -39q-35 0 -59.5 23.5t-24.5 58.5q0 23 13 43l327 561l359 641q20 39 67 39q35 0 59.5 -23.5t24.5 -58.5q0 -23 -10 -43zM516 1161l-172 -444q-26 -53 -80 -53q-32 0 -56 24t-24 57q0 17 6 35l166 424h-190q-31 0 -49.5 19.5
t-18.5 50.5q0 32 18.5 52t49.5 20h299q33 0 55.5 -21t22.5 -55t-27 -109zM1243 492q0 -102 -69 -144q83 -39 83 -158q0 -90 -63 -145t-168 -55t-168 55t-63 145q0 118 82 158q-72 40 -72 144q0 84 60 137t161 53q100 0 158.5 -52.5t58.5 -137.5zM971 477q0 -76 55 -76
q53 0 53 76q0 68 -55 68q-53 0 -53 -68zM963 201q0 -80 63 -80q64 0 64 80q0 82 -66 82q-61 0 -61 -82z" />
    <glyph glyph-name="uni215F" unicode="&#x215f;" horiz-adv-x="854" 
d="M1116 1231l-328 -559l-358 -643q-24 -39 -70 -39q-35 0 -59.5 23.5t-24.5 58.5q0 23 13 43l327 561l359 641q20 39 67 39q35 0 59.5 -23.5t24.5 -58.5q0 -23 -10 -43zM86 1272q0 32 20 53t52 21h145q32 0 52 -20t20 -52v-459h57q31 0 50.5 -19.5t19.5 -50.5
q0 -32 -19.5 -51.5t-50.5 -19.5h-276q-31 0 -50.5 19.5t-19.5 51.5q0 31 19.5 50.5t50.5 19.5h53v385h-51q-32 0 -52 20.5t-20 51.5z" />
    <glyph glyph-name="partialdiff" unicode="&#x2202;" horiz-adv-x="1015" 
d="M414 1407q493 0 493 -737v-287q0 -185 -112.5 -294t-296.5 -109q-183 0 -295.5 109.5t-112.5 293.5v164q0 187 93 295t259 108q148 0 224 -106q-8 78 -27 141.5t-52.5 117.5t-88 84t-125.5 30q-21 0 -84 -11q-45 -6 -78 17.5t-33 70.5q0 67 66 88q85 25 170 25zM336 565
v-200q0 -78 43.5 -127.5t118.5 -49.5t119.5 49.5t44.5 127.5v200q0 78 -44.5 128t-119.5 50t-118.5 -50t-43.5 -128z" />
    <glyph glyph-name="Delta" unicode="&#x2206;" horiz-adv-x="1159" 
d="M197 0q-61 0 -88.5 36t-10.5 95l310 1094q17 59 65 95t109 36t107 -36t63 -95l311 -1094q17 -58 -10.5 -94.5t-89.5 -36.5h-766zM573 983l-198 -760h397z" />
    <glyph glyph-name="product" unicode="&#x220f;" horiz-adv-x="1226" 
d="M1077 1221v-1106q0 -57 -36 -91t-93 -34t-92 34t-35 91v1001h-415v-1001q0 -56 -36 -90.5t-94 -34.5q-57 0 -91.5 34t-34.5 91v1106q0 57 33.5 91t90.5 34h678q57 0 91 -34t34 -91z" />
    <glyph glyph-name="summation" unicode="&#x2211;" horiz-adv-x="1110" 
d="M887 1346q50 0 81 -32.5t31 -84.5q0 -50 -31 -82.5t-81 -32.5h-465l283 -342q66 -84 -5 -170l-317 -371h537q51 0 81.5 -32.5t30.5 -83.5q0 -50 -31 -82.5t-81 -32.5h-721q-53 0 -89 34t-36 91q0 83 73 172l332 391l-307 361q-31 36 -52.5 83t-21.5 89q0 57 36 91t87 34
h666z" />
    <glyph glyph-name="minus" unicode="&#x2212;" horiz-adv-x="1081" 
d="M115 674q0 48 29.5 79t74.5 31h643q46 0 75.5 -31.5t29.5 -78.5t-29.5 -78t-75.5 -31h-643q-46 0 -75 31t-29 78z" />
    <glyph glyph-name="uni2215" unicode="&#x2215;" horiz-adv-x="970" 
d="M901 1231l-328 -559l-358 -643q-24 -39 -70 -39q-35 0 -59.5 23.5t-24.5 58.5q0 23 13 43l327 561l359 641q20 39 67 39q35 0 59.5 -23.5t24.5 -58.5q0 -23 -10 -43z" />
    <glyph glyph-name="uni2219" unicode="&#x2219;" horiz-adv-x="643" 
d="M94 561q0 95 66.5 162.5t158.5 67.5q95 0 162.5 -67.5t67.5 -162.5q0 -92 -67.5 -158.5t-162.5 -66.5q-92 0 -158.5 66.5t-66.5 158.5z" />
    <glyph glyph-name="radical" unicode="&#x221a;" horiz-adv-x="1224" 
d="M1165 1282l-385 -1370q-15 -50 -54 -80.5t-91 -30.5t-92.5 30.5t-55.5 80.5l-260 868h-86q-44 0 -71 28t-27 73q0 44 27 72t71 28h181q46 0 82.5 -27t48.5 -71l198 -713l312 1165q11 36 38.5 57t63.5 21q44 0 74 -28.5t30 -71.5q0 -11 -4 -31z" />
    <glyph glyph-name="infinity" unicode="&#x221e;" horiz-adv-x="1593" 
d="M1165 887h2q139 0 231.5 -92.5t92.5 -237.5q0 -135 -96.5 -233.5t-235.5 -98.5q-90 0 -170.5 46t-191.5 147q-98 -89 -188 -140t-179 -51h-2q-140 0 -233 93.5t-93 238.5q0 134 97 232t237 98q88 0 169.5 -46.5t191.5 -148.5q206 193 368 193zM428 426h2q94 0 227 129
q-71 69 -120 102t-101 33q-58 0 -96.5 -38t-38.5 -93q0 -58 35.5 -95.5t91.5 -37.5zM1167 688h-2q-56 0 -109.5 -33t-119.5 -94q73 -71 121.5 -104t101.5 -33q57 0 95 38.5t38 94.5q0 57 -35.5 94t-89.5 37z" />
    <glyph glyph-name="integral" unicode="&#x222b;" horiz-adv-x="786" 
d="M270 78v1081q0 177 94.5 269t268.5 92h18q46 0 75.5 -29.5t29.5 -75.5t-29.5 -75t-75.5 -29h-16q-60 0 -89.5 -38t-29.5 -99v-1082q0 -177 -93.5 -268.5t-266.5 -91.5h-19q-46 0 -75 28.5t-29 75.5q0 46 29 74.5t75 28.5h17q59 0 87.5 38.5t28.5 100.5z" />
    <glyph glyph-name="approxequal" unicode="&#x2248;" horiz-adv-x="1132" 
d="M1004 872q-122 -176 -254 -176q-58 0 -101 18.5t-114 63.5q-4 2 -18 11t-19.5 12.5t-17.5 10.5t-20 10t-19 7t-21 5.5t-21 1.5q-37 0 -67.5 -25.5t-67.5 -75.5q-17 -24 -61 -24q-35 0 -60.5 25.5t-25.5 60.5q0 26 22 59q52 77 121.5 123.5t145.5 46.5q43 0 85.5 -13.5
t63 -25t59.5 -35.5q69 -47 95 -55q19 -6 39 -6q54 0 116 84q24 35 70 35q35 0 60.5 -25.5t25.5 -62.5q0 -28 -16 -50zM1004 424q-123 -174 -254 -174q-58 0 -102 18t-113 62q-28 19 -44.5 28.5t-42 19t-49.5 9.5q-37 0 -68 -24.5t-67 -73.5q-19 -27 -61 -27
q-35 0 -60.5 25.5t-25.5 60.5q0 31 22 60q52 77 121.5 123.5t145.5 46.5q43 0 85.5 -13.5t63 -25t59.5 -35.5q5 -3 17.5 -11.5t16.5 -11.5t14.5 -9.5t15 -9t13 -7t14 -6t13.5 -4t15 -3t15 -0.5q54 0 116 84q24 35 70 35q35 0 60.5 -25.5t25.5 -60.5q0 -29 -16 -51z" />
    <glyph glyph-name="notequal" unicode="&#x2260;" horiz-adv-x="1079" 
d="M803 1059l-41 -84h96q44 0 71 -29t27 -74q0 -46 -27 -74t-71 -28h-188l-90 -190h278q44 0 71 -29.5t27 -75.5q0 -44 -27 -72t-71 -28h-373l-69 -148q-24 -47 -70 -47q-32 0 -54 22.5t-22 53.5q0 20 9 35l40 84h-100q-44 0 -71 28t-27 72q0 46 27 75.5t71 29.5h193l90 190
h-283q-44 0 -71 28t-27 74q0 45 27 74t71 29h377l72 149q20 45 69 45q31 0 53.5 -21.5t22.5 -53.5q0 -15 -10 -35z" />
    <glyph glyph-name="lessequal" unicode="&#x2264;" horiz-adv-x="1062" 
d="M879 891l-461 -127l461 -129q31 -9 49 -34t18 -60q0 -43 -27 -72t-65 -29q-19 0 -37 6l-606 185q-46 13 -72 47t-26 80t26 79.5t72 45.5l606 184q18 6 37 6q38 0 65 -28t27 -66q0 -32 -18 -56.5t-49 -31.5zM111 283q0 34 20 55.5t53 21.5h686q34 0 55 -21.5t21 -55.5
t-21 -56t-55 -22h-686q-33 0 -53 22t-20 56z" />
    <glyph glyph-name="greaterequal" unicode="&#x2265;" horiz-adv-x="1062" 
d="M645 764l-461 127q-31 7 -49 31.5t-18 56.5q0 38 27 66t65 28q19 0 37 -6l606 -184q46 -12 72 -45.5t26 -79.5t-26 -80t-72 -47l-606 -185q-18 -6 -37 -6q-38 0 -65 29t-27 72q0 35 18 60t49 34zM879 360q33 0 53 -21.5t20 -55.5t-20 -56t-53 -22h-686q-34 0 -55 22
t-21 56t21 55.5t55 21.5h686z" />
    <glyph glyph-name="lozenge" unicode="&#x25ca;" horiz-adv-x="1105" 
d="M686 1313l328 -553q23 -39 22.5 -87t-22.5 -85l-328 -555q-22 -37 -57.5 -58.5t-75.5 -21.5t-75.5 21.5t-57.5 58.5l-328 555q-22 37 -22.5 85t22.5 87l328 553q22 37 57.5 58.5t75.5 21.5t75.5 -21.5t57.5 -58.5zM551 1090l-244 -416l244 -418l244 418z" />
    <glyph glyph-name="cent.denominator" unicode="&#xf629;" horiz-adv-x="532" 
d="M274 692q25 0 41.5 -15.5t16.5 -39.5v-47q59 -12 101 -43t42 -82q0 -32 -22.5 -54t-53.5 -22q-39 0 -67 43q-20 33 -51 33q-52 0 -52 -64v-131q0 -61 52 -61q32 0 53 31q33 53 72 53q31 0 53 -22t22 -54q0 -47 -45.5 -85.5t-103.5 -49.5v-47q0 -24 -16.5 -39.5
t-41.5 -15.5t-41 15t-16 40v47q-71 15 -112.5 68.5t-41.5 132.5v108q0 79 41.5 131.5t112.5 67.5v47q0 25 16 40t41 15z" />
    <glyph glyph-name="dollar.denominator" unicode="&#xf62a;" horiz-adv-x="557" 
d="M416 451q-45 0 -72 53q-21 43 -63 43q-28 0 -44 -14t-16 -37q0 -45 43 -62l74 -28q38 -15 63 -28.5t53 -37t42 -58.5t14 -81q0 -82 -48.5 -138.5t-131.5 -68.5v-60q0 -24 -16.5 -39.5t-41.5 -15.5q-26 0 -41.5 15t-15.5 40v62q-66 12 -110 48t-58 87q-10 40 12 70t62 30
q48 0 74 -53q24 -53 77 -53q37 0 56.5 16t19.5 43t-14 41.5t-43 26.5l-98 41q-134 56 -134 186q0 70 41.5 125t114.5 72v61q0 25 15 40.5t40 15.5q26 0 43 -15.5t17 -40.5v-61q110 -20 155 -115q16 -37 -4.5 -73.5t-64.5 -36.5z" />
    <glyph glyph-name="hyphen.denominator" unicode="&#xf62b;" horiz-adv-x="417" 
d="M74 262q0 33 18.5 52.5t50.5 19.5h131q31 0 50.5 -20t19.5 -52q0 -31 -19.5 -50t-50.5 -19h-131q-32 0 -50.5 19t-18.5 50z" />
    <glyph glyph-name="parenleft.denominator" unicode="&#xf62c;" horiz-adv-x="389" 
d="M244 117q0 -62 51 -78q51 -22 51 -74q0 -40 -28.5 -60t-65.5 -11q-83 19 -128.5 77.5t-45.5 153.5v420q0 186 172 229q37 9 66.5 -12t29.5 -60q0 -52 -51 -71q-51 -16 -51 -80v-434z" />
    <glyph glyph-name="parenright.denominator" unicode="&#xf62d;" horiz-adv-x="389" 
d="M145 117v434q0 64 -51 80q-51 20 -51 71q0 39 30 60t66 12q172 -43 172 -229v-420q0 -95 -45.5 -153.5t-126.5 -77.5q-37 -9 -66.5 11t-29.5 60q0 52 51 74q51 16 51 78z" />
    <glyph glyph-name="cent.numerator" unicode="&#xf62e;" horiz-adv-x="532" 
d="M274 1366q25 0 41.5 -15.5t16.5 -39.5v-47q59 -12 101 -43t42 -82q0 -32 -22.5 -54t-53.5 -22q-39 0 -67 43q-20 33 -51 33q-52 0 -52 -64v-131q0 -61 52 -61q33 0 53 30q16 26 32 40t40 14q31 0 53 -22t22 -54q0 -47 -45.5 -85.5t-103.5 -49.5v-47q0 -25 -16.5 -40.5
t-41.5 -15.5t-41 15.5t-16 40.5v47q-71 15 -112.5 68t-41.5 132v109q0 79 41.5 131.5t112.5 67.5v47q0 25 16 40t41 15z" />
    <glyph glyph-name="dollar.numerator" unicode="&#xf62f;" horiz-adv-x="555" 
d="M416 1124q-44 0 -72 54q-21 43 -63 43q-28 0 -44 -14.5t-16 -37.5q0 -44 43 -61l74 -29q38 -15 63 -28.5t53 -37t42 -58.5t14 -81q0 -82 -48.5 -138t-131.5 -68v-60q0 -24 -16.5 -39.5t-41.5 -15.5q-26 0 -41.5 15t-15.5 40v62q-66 12 -110 48t-58 87q-10 40 12 70t62 30
q48 0 74 -53q24 -53 77 -53q37 0 56.5 16t19.5 43t-14 41.5t-43 26.5l-98 41q-134 56 -134 186q0 70 41.5 125t114.5 72v61q0 25 15 40t40 15q26 0 43 -15t17 -40v-61q110 -20 155 -115q16 -37 -4.5 -74t-64.5 -37z" />
    <glyph glyph-name="hyphen.numerator" unicode="&#xf630;" horiz-adv-x="417" 
d="M74 936q0 33 18.5 52.5t50.5 19.5h131q31 0 50.5 -20t19.5 -52q0 -31 -19.5 -50.5t-50.5 -19.5h-131q-32 0 -50.5 19.5t-18.5 50.5z" />
    <glyph glyph-name="parenleft.numerator" unicode="&#xf631;" horiz-adv-x="385" 
d="M240 791q0 -62 51 -78q51 -22 51 -74q0 -40 -29 -60.5t-65 -11.5q-83 19 -128.5 78t-45.5 154v420q0 186 172 229q37 9 66.5 -12t29.5 -60q0 -52 -51 -71q-51 -16 -51 -80v-434z" />
    <glyph glyph-name="parenright.numerator" unicode="&#xf632;" horiz-adv-x="385" 
d="M145 791v434q0 64 -51 80q-51 20 -51 71q0 39 30 60t66 12q172 -43 172 -229v-420q0 -95 -45.5 -154t-126.5 -78q-37 -9 -66.5 11.5t-29.5 60.5q0 52 51 74q51 16 51 78z" />
    <glyph glyph-name="zero.denominator" unicode="&#xf655;" horiz-adv-x="618" 
d="M543 461v-250q0 -102 -64.5 -161.5t-171.5 -59.5q-104 0 -167.5 59.5t-63.5 161.5v250q0 105 58.5 163t172.5 58q107 0 171.5 -59.5t64.5 -161.5zM242 459v-246q0 -35 17 -55.5t48 -20.5q32 0 51 20.5t19 55.5v246q0 36 -18.5 56t-51.5 20q-31 0 -48 -19.5t-17 -56.5z
" />
    <glyph glyph-name="one.denominator" unicode="&#xf656;" horiz-adv-x="497" 
d="M55 598q0 32 20 53t52 21h145q32 0 52 -20t20 -52v-459h57q31 0 50.5 -19t19.5 -50q0 -32 -19.5 -52t-50.5 -20h-276q-31 0 -50.5 20t-19.5 52q0 31 19.5 50t50.5 19h53v385h-51q-32 0 -52 20.5t-20 51.5z" />
    <glyph glyph-name="two.denominator" unicode="&#xf657;" horiz-adv-x="595" 
d="M61 76v6q0 140 95 201l129 84q71 48 71 108q0 28 -16 44t-45 16t-44 -12t-28 -40q-27 -53 -78 -53q-31 0 -54 20t-23 54q0 72 67 125t164 53q104 0 166.5 -54t62.5 -145q0 -76 -32.5 -129.5t-100.5 -95.5l-104 -65q-31 -19 -37 -43h211q34 0 54 -20.5t20 -55.5
q0 -34 -20 -54t-54 -20h-328q-34 0 -55 21t-21 55z" />
    <glyph glyph-name="three.denominator" unicode="&#xf658;" horiz-adv-x="583" 
d="M209 342q0 25 15.5 43t39.5 18h12q68 0 68 66t-61 66q-38 0 -60 -39q-28 -50 -73 -50q-32 0 -55 22t-23 54q0 68 68.5 114t148.5 46q101 0 161 -53t60 -137q0 -99 -70 -144q80 -43 80 -155q0 -92 -64 -147.5t-171 -55.5q-81 0 -149 43.5t-68 113.5q0 31 21.5 54.5
t55.5 23.5q47 0 74 -49q12 -23 25.5 -34t38.5 -11q67 0 67 78q0 70 -74 70h-12q-24 0 -39.5 18.5t-15.5 44.5z" />
    <glyph glyph-name="four.denominator" unicode="&#xf659;" horiz-adv-x="626" 
d="M403 682q44 0 71.5 -21t27.5 -55v-338h16q29 0 47.5 -19.5t18.5 -49.5q0 -31 -18.5 -49.5t-47.5 -18.5h-16v-61q0 -35 -23.5 -57.5t-60.5 -22.5q-35 0 -57.5 22.5t-22.5 57.5v61h-217q-37 0 -61.5 23t-24.5 57q0 43 12 72.5t41 70.5l182 258q26 37 55.5 53.5t77.5 16.5z
M190 268h148v209z" />
    <glyph glyph-name="five.denominator" unicode="&#xf65a;" horiz-adv-x="587" 
d="M508 600q0 -31 -19 -50.5t-51 -19.5h-209v-127q40 31 105 31q89 0 143.5 -57t54.5 -160q0 -104 -66 -165.5t-173 -61.5q-68 0 -122 24.5t-81 65.5q-26 38 -9 79.5t66 41.5q37 0 66 -37q30 -37 74 -37q73 0 73 86q0 90 -65 90q-21 0 -59.5 -16.5t-81.5 -16.5
q-32 0 -52 19.5t-20 50.5v260q0 32 20 52t52 20h284q32 0 51 -20t19 -52z" />
    <glyph glyph-name="six.denominator" unicode="&#xf65b;" horiz-adv-x="600" 
d="M541 203q0 -103 -63 -158t-169 -55q-107 0 -170 54.5t-63 156.5v248q0 109 62 171t177 62q47 0 92.5 -13t81 -45t35.5 -77q0 -31 -21.5 -53.5t-51.5 -22.5q-14 0 -27 6t-20 11.5t-23 19.5q-29 33 -62 33q-77 0 -77 -78v-78q42 27 100 27q91 0 145 -55t54 -154zM305 281
q-31 0 -63 -23v-53q0 -78 63 -78q31 0 48.5 18.5t17.5 53.5q0 82 -66 82z" />
    <glyph glyph-name="seven.denominator" unicode="&#xf65c;" horiz-adv-x="509" 
d="M451 487l-172 -444q-26 -53 -80 -53q-32 0 -56 24t-24 58q0 16 6 34l166 424h-191q-30 0 -48.5 19.5t-18.5 50.5q0 32 18 52t49 20h299q33 0 55.5 -21t22.5 -55q0 -37 -26 -109z" />
    <glyph glyph-name="eight.denominator" unicode="&#xf65d;" horiz-adv-x="593" 
d="M514 492q0 -101 -70 -144q84 -39 84 -158q0 -90 -63 -145t-168 -55t-168 55t-63 145q0 118 81 158q-71 40 -71 144q0 84 60 137t161 53q100 0 158.5 -52.5t58.5 -137.5zM242 477q0 -76 55 -76q53 0 53 76q0 68 -55 68q-53 0 -53 -68zM233 201q0 -80 64 -80q63 0 63 80
q0 82 -65 82q-62 0 -62 -82z" />
    <glyph glyph-name="nine.denominator" unicode="&#xf65e;" horiz-adv-x="598" 
d="M295 391q34 0 63 25v35q0 53 -16 73.5t-47 20.5t-48.5 -18.5t-17.5 -53.5q0 -82 66 -82zM61 469q0 103 62 158t168 55q107 0 170 -58.5t63 -168.5v-232q0 -109 -61.5 -171t-177.5 -62q-48 0 -94 13.5t-80.5 45.5t-34.5 76q0 31 22.5 53.5t53.5 22.5q30 0 67 -37
q29 -33 62 -33q77 0 77 78v78q-42 -27 -100 -27q-91 0 -144 54.5t-53 154.5z" />
    <glyph glyph-name="comma.denominator" unicode="&#xf65f;" horiz-adv-x="296" 
d="M215 51l-74 -129q-19 -31 -47 -31q-27 0 -39 19.5t-6 48.5l33 145q4 27 22.5 42.5t45.5 15.5q47 0 67.5 -35t-2.5 -76z" />
    <glyph glyph-name="period.denominator" unicode="&#xf660;" horiz-adv-x="286" 
d="M55 76q0 37 25.5 62.5t62.5 25.5q38 0 64 -25.5t26 -62.5q0 -38 -26 -64t-64 -26q-37 0 -62.5 26t-25.5 64z" />
    <glyph glyph-name="zero.numerator" unicode="&#xf661;" horiz-adv-x="614" 
d="M543 1135v-250q0 -102 -64.5 -161.5t-171.5 -59.5q-104 0 -167.5 59.5t-63.5 161.5v250q0 105 58.5 163t172.5 58q107 0 171.5 -59.5t64.5 -161.5zM242 1133v-246q0 -35 17 -55.5t48 -20.5q32 0 51 20.5t19 55.5v246q0 36 -18.5 55.5t-51.5 19.5q-65 0 -65 -75z" />
    <glyph glyph-name="one.numerator" unicode="&#xf662;" horiz-adv-x="493" 
d="M53 1272q0 32 20 53t52 21h145q32 0 52 -20t20 -52v-459h57q31 0 50.5 -19.5t19.5 -50.5q0 -32 -19.5 -51.5t-50.5 -19.5h-276q-31 0 -50.5 19.5t-19.5 51.5q0 31 19.5 50.5t50.5 19.5h53v385h-51q-32 0 -52 20.5t-20 51.5z" />
    <glyph glyph-name="two.numerator" unicode="&#xf663;" horiz-adv-x="593" 
d="M59 750v6q0 139 95 200l129 84q71 48 71 109q0 28 -16 43.5t-45 15.5t-44 -12t-28 -39q-27 -53 -78 -53q-31 0 -54 20t-23 54q0 72 67 125t164 53q104 0 166.5 -54t62.5 -145q0 -76 -32.5 -129.5t-100.5 -95.5l-104 -66q-31 -19 -37 -43h211q34 0 54 -20t20 -55
q0 -34 -20 -54t-54 -20h-328q-34 0 -55 21t-21 55z" />
    <glyph glyph-name="three.numerator" unicode="&#xf664;" horiz-adv-x="585" 
d="M211 1016q0 25 15.5 43t39.5 18h13q67 0 67 66q0 65 -61 65q-38 0 -60 -39q-27 -49 -73 -49q-32 0 -55 22t-23 54q0 68 68.5 114t148.5 46q101 0 161 -53t60 -138q0 -98 -70 -143q80 -43 80 -156q0 -92 -64 -147t-171 -55q-81 0 -149 43.5t-68 113.5q0 31 21.5 54.5
t55.5 23.5q47 0 74 -49q12 -23 25.5 -34t38.5 -11q67 0 67 78q0 69 -73 69h-13q-24 0 -39.5 19t-15.5 45z" />
    <glyph glyph-name="four.numerator" unicode="&#xf665;" horiz-adv-x="626" 
d="M403 1356q44 0 71.5 -21t27.5 -55v-338h16q29 0 47.5 -20t18.5 -50t-18 -48.5t-48 -18.5h-16v-62q0 -35 -23.5 -57t-60.5 -22q-35 0 -57.5 22t-22.5 57v62h-217q-37 0 -61.5 23t-24.5 57q0 43 12 72.5t41 70.5l182 258q26 37 55.5 53.5t77.5 16.5zM190 942h148v209z" />
    <glyph glyph-name="five.numerator" unicode="&#xf666;" horiz-adv-x="585" 
d="M506 1276q0 -31 -19 -50.5t-51 -19.5h-209v-127q40 31 105 31q89 0 143.5 -57t54.5 -160q0 -104 -66 -165.5t-173 -61.5q-68 0 -122 24.5t-81 65.5q-26 38 -9 79.5t66 41.5q37 0 66 -37q30 -37 74 -37q73 0 73 86q0 90 -65 90q-21 0 -59.5 -16.5t-81.5 -16.5
q-32 0 -52 19.5t-20 50.5v260q0 32 20 52t52 20h284q32 0 51 -20t19 -52z" />
    <glyph glyph-name="six.numerator" unicode="&#xf667;" horiz-adv-x="600" 
d="M541 877q0 -103 -63 -158t-169 -55q-107 0 -170 54t-63 156v248q0 109 62 171.5t177 62.5q47 0 92.5 -13t81 -45t35.5 -77q0 -31 -21.5 -53.5t-51.5 -22.5q-14 0 -27 6t-20 11.5t-23 19.5q-28 32 -62 32q-77 0 -77 -77v-78q41 26 100 26q91 0 145 -54.5t54 -153.5z
M305 954q-32 0 -63 -22v-53q0 -78 63 -78q66 0 66 71q0 82 -66 82z" />
    <glyph glyph-name="seven.numerator" unicode="&#xf668;" horiz-adv-x="509" 
d="M451 1161l-172 -444q-26 -53 -80 -53q-33 0 -56.5 24t-23.5 57q0 17 6 35l166 424h-191q-30 0 -48.5 19.5t-18.5 50.5q0 32 18 52t49 20h299q33 0 55.5 -21t22.5 -55q0 -37 -26 -109z" />
    <glyph glyph-name="eight.numerator" unicode="&#xf669;" horiz-adv-x="591" 
d="M512 1165q0 -100 -70 -143q84 -39 84 -158q0 -90 -63 -145t-168 -55t-168.5 55t-63.5 145q0 118 82 158q-71 40 -71 143q0 85 60 138t161 53q100 0 158.5 -53t58.5 -138zM240 1151q0 -76 55 -76q53 0 53 76q0 68 -55 68q-53 0 -53 -68zM231 874q0 -79 64 -79q63 0 63 79
q0 82 -65 82q-62 0 -62 -82z" />
    <glyph glyph-name="nine.numerator" unicode="&#xf66a;" horiz-adv-x="595" 
d="M293 1065q34 0 63 25v34q0 53 -16 74t-47 21t-48.5 -18.5t-17.5 -53.5q0 -82 66 -82zM59 1143q0 103 62 158t168 55q107 0 170 -59t63 -169v-231q0 -109 -61.5 -171t-177.5 -62q-48 0 -94 13.5t-80.5 45.5t-34.5 76q0 31 22.5 53t53.5 22t67 -36q29 -33 62 -33
q77 0 77 78v78q-42 -27 -100 -27q-91 0 -144 54.5t-53 154.5z" />
    <glyph glyph-name="comma.numerator" unicode="&#xf66b;" horiz-adv-x="299" 
d="M215 725l-74 -129q-19 -31 -47 -31q-27 0 -39 19.5t-6 48.5l33 145q4 27 22.5 42.5t45.5 15.5q47 0 67.5 -35t-2.5 -76z" />
    <glyph glyph-name="period.numerator" unicode="&#xf66c;" horiz-adv-x="288" 
d="M55 750q0 37 25.5 62.5t62.5 25.5q38 0 64 -25.5t26 -62.5q0 -38 -26 -64.5t-64 -26.5q-37 0 -62.5 26.5t-25.5 64.5z" />
    <glyph glyph-name="commaaccent" unicode="&#xf6c3;" horiz-adv-x="382" 
d="M313 -262l-96 -205q-25 -55 -82 -55q-36 0 -60 24t-24 60q0 12 6 39l47 209q9 40 38 64t69 24q47 0 79 -31t32 -80q0 -31 -9 -49z" />
    <glyph glyph-name="uniF8FF" unicode="&#xf8ff;" horiz-adv-x="2908" 
d="M1497 997h64q12 0 17 -4t5 -16v-55q0 -23 -22 -23h-64v-158q0 -36 49 -36h21q24 0 24 -23v-55q0 -23 -24 -23h-39q-89 0 -124.5 29t-35.5 94v172h-35q-22 0 -22 23v51q0 16 22 22l33 2h2v74q0 25 25 25h80q24 0 24 -25v-74zM2806 883v-88q0 -23 -23 -23h-192v-47
q0 -37 47 -37q49 0 49 37v2q0 23 25 23h65q23 0 23 -23v-6q0 -127 -162 -127q-88 0 -130 33.5t-42 93.5v162q0 125 172 125q168 0 168 -125zM606 883v-88q0 -23 -24 -23h-191v-47q0 -37 47 -37q51 0 51 37v2q0 23 23 23h66q24 0 24 -23v-6q0 -127 -164 -127q-88 0 -131 34
t-43 93v162q0 125 174 125q168 0 168 -125zM1741 977l45 -143q14 -55 14 -76q5 5 21 71l49 148q6 22 24 22h76q13 0 19.5 -5.5t3.5 -16.5l-172 -510q-8 -23 -29 -23h-57q-29 0 -23 23l33 121l-133 389q-8 22 22 22h82q19 0 25 -22zM2591 877v-23h96v23q0 36 -49 36
q-47 0 -47 -36zM391 877v-23h98v23q0 36 -51 36q-47 0 -47 -36zM2277 739v127q0 9 -1.5 14.5t-9.5 11t-23 5.5q-26 0 -76 -31v-129q51 -32 76 -32q34 0 34 34zM696 999h78q13 0 18 -4.5t5 -17.5v-12q60 43 118 43q70 0 105 -54q60 54 131 54q53 0 85 -31.5t32 -79.5v-270
q0 -23 -25 -23h-78q-26 0 -26 23v237q0 20 -5.5 26.5t-23.5 6.5q-37 0 -78 -31v-239q0 -13 -4.5 -18t-17.5 -5h-78q-25 0 -25 23v237q0 20 -5.5 26.5t-24.5 6.5q-40 0 -76 -31v-239q0 -23 -21 -23h-84q-22 0 -22 23v350q0 13 5 17.5t17 4.5zM2062 999h74q25 0 25 -22l2 -14
q57 45 123 45q116 0 116 -123v-164q0 -127 -116 -127q-65 0 -119 43v-170q0 -23 -23 -23h-82q-13 0 -17.5 5t-4.5 18v510q0 12 4.5 17t17.5 5zM1139 391h96q5 0 6.5 -1t1.5 -7v-16q0 -11 -8 -11h-96v-254q0 -67 102 -67h12q11 0 11 -10v-15q0 -10 -11 -10h-18
q-76 0 -105.5 24.5t-29.5 73.5v258h-51q-9 0 -9 11v14q0 7 9 10h51v84q0 7 1.5 8.5t6.5 1.5h22q9 0 9 -10v-84zM967 301v-100q0 -8 -9 -8h-233v-99q0 -67 102 -67q99 0 99 67v17q0 8 12 8h18q11 0 11 -8v-19q0 -98 -142 -98q-141 0 -141 98v209q0 98 143 98q140 0 140 -98z
M725 299v-74h201v74q0 66 -99 66q-102 0 -102 -66zM315 385v-35q70 49 138 49q55 0 82.5 -26t27.5 -68v-295q0 -10 -8 -10h-23q-6 0 -7 1.5t-1 8.5v287q0 29 -20 46t-60 17q-42 0 -76.5 -15.5t-50.5 -31.5v-303q0 -10 -8 -10h-22q-11 0 -11 10v375q0 8 11 8h18q10 0 10 -8z
M143 72v-62q0 -10 -10 -10h-22q-9 0 -9 10v62q0 10 9 10h22q10 0 10 -10z" />
    <glyph glyph-name="f_f" unicode="&#xfb00;" horiz-adv-x="1296" 
d="M440 786v-675q0 -54 -34.5 -87.5t-88.5 -33.5t-88 33.5t-34 87.5v675h-54q-46 0 -74 29t-28 76q0 46 28 74t74 28h54v33q0 177 94 268.5t268 91.5h18q46 0 75.5 -29t29.5 -75t-29.5 -75t-75.5 -29h-16q-119 0 -119 -138v-47h353v33q0 177 94.5 268.5t269.5 91.5h19
q46 0 75 -29t29 -75t-29 -75t-75 -29h-17q-63 0 -91 -35t-28 -103v-47h123q46 0 74.5 -28t28.5 -74q0 -47 -28.5 -76t-74.5 -29h-123v-675q0 -54 -34.5 -87.5t-90.5 -33.5q-54 0 -88 33.5t-34 87.5v675h-353z" />
    <glyph glyph-name="f_f_i" unicode="&#xfb03;" horiz-adv-x="1757" 
d="M39 891q0 46 28 74t74 28h54v33q0 177 94 268.5t268 91.5h18q46 0 75.5 -29t29.5 -75t-29.5 -75t-75.5 -29h-16q-119 0 -119 -138v-47h355v33q0 178 94 269t276 91h373q47 0 75.5 -28t28.5 -74t-28.5 -76t-75.5 -30h-346q-77 0 -114.5 -36.5t-37.5 -101.5v-47h471
q54 0 87.5 -32.5t33.5 -86.5v-763q0 -54 -34.5 -87.5t-90.5 -33.5q-54 0 -88.5 33.5t-34.5 87.5v675h-344v-675q0 -54 -33.5 -87.5t-88.5 -33.5q-54 0 -88.5 33.5t-34.5 87.5v675h-355v-675q0 -54 -34.5 -87.5t-88.5 -33.5t-88 33.5t-34 87.5v675h-54q-46 0 -74 29t-28 76z
" />
    <glyph glyph-name="f_f_l" unicode="&#xfb04;" horiz-adv-x="1759" 
d="M440 786v-675q0 -54 -34.5 -87.5t-88.5 -33.5t-88 33.5t-34 87.5v675h-54q-46 0 -74 29t-28 76q0 46 28 74t74 28h54v33q0 177 94 268.5t268 91.5h18q46 0 75.5 -29t29.5 -75t-29.5 -75t-75.5 -29h-16q-119 0 -119 -138v-47h355v33q0 178 94 269t276 91h346
q54 0 87.5 -33t33.5 -87v-1155q0 -54 -34.5 -87.5t-90.5 -33.5q-54 0 -88.5 33.5t-34.5 87.5v1067h-192q-77 0 -114.5 -36.5t-37.5 -101.5v-47h119q46 0 73.5 -28t27.5 -74q0 -47 -27.5 -76t-73.5 -29h-119v-675q0 -54 -33.5 -87.5t-88.5 -33.5q-54 0 -88.5 33.5t-34.5 87.5
v675h-355z" />
    <glyph glyph-name="longs_t" unicode="&#xfb05;" horiz-adv-x="1198" 
d="M508 1178h-16q-63 0 -91 -35t-28 -103v-929q0 -54 -34.5 -87.5t-88.5 -33.5q-56 0 -90.5 33.5t-34.5 87.5v915q0 177 94.5 268.5t269.5 91.5h19q46 0 75 -29t29 -75t-29 -75t-75 -29zM545 889q0 46 28 75t72 29h88v164q0 54 34 87.5t89 33.5q54 0 88.5 -33.5t34.5 -87.5
v-164h92q46 0 73 -28t27 -74t-27.5 -75.5t-72.5 -29.5h-92v-675q0 -54 -34.5 -87.5t-88.5 -33.5q-55 0 -89 33.5t-34 87.5v675h-88q-44 0 -72 28.5t-28 74.5z" />
    <glyph glyph-name="zero.tab" unicode="&#xff10;" horiz-adv-x="1118" 
d="M1006 936v-526q0 -197 -123 -313.5t-324 -116.5q-200 0 -322 116.5t-122 313.5v526q0 200 116 315t328 115q201 0 324 -116.5t123 -313.5zM369 932v-518q0 -94 50.5 -149.5t139.5 -55.5q90 0 140.5 55.5t50.5 149.5v518q0 94 -50.5 149.5t-140.5 55.5q-89 0 -139.5 -55.5
t-50.5 -149.5z" />
    <glyph glyph-name="one.tab" unicode="&#xff11;" horiz-adv-x="1118" 
d="M168 1231q0 51 30 83t81 32h321q50 0 80.5 -30t30.5 -81v-1012h186q47 0 77 -32t30 -80t-30 -79.5t-77 -31.5h-623q-47 0 -76.5 31.5t-29.5 79.5q0 50 29.5 81t76.5 31h181v895h-176q-50 0 -80.5 31.5t-30.5 81.5z" />
    <glyph glyph-name="two.tab" unicode="&#xff12;" horiz-adv-x="1118" 
d="M905 233q50 0 81.5 -33t31.5 -85q0 -51 -31 -83t-82 -32h-696q-44 0 -71 27t-27 71v11q0 155 47.5 265.5t181.5 198.5l238 158q155 103 155 248q0 73 -47 115.5t-135 42.5q-83 0 -127.5 -36.5t-67.5 -109.5q-15 -46 -42.5 -65t-75.5 -19q-54 0 -88 36t-29 87
q12 149 139 242.5t301 93.5q198 0 317 -102t119 -273q0 -140 -63 -241.5t-189 -184.5l-239 -159q-103 -68 -113 -173h512z" />
    <glyph glyph-name="three.tab" unicode="&#xff13;" horiz-adv-x="1118" 
d="M410 690q0 41 29 71t67 30h29q98 0 142 44t44 132q0 80 -46.5 125t-129.5 45q-71 0 -110.5 -32.5t-65.5 -94.5q-39 -90 -117 -90q-53 0 -87 35t-34 87q0 34 8 58q41 121 149.5 193.5t262.5 72.5q194 0 309 -103t115 -268q0 -204 -152 -295q83 -41 129.5 -123.5
t46.5 -201.5q0 -180 -123 -287.5t-327 -107.5q-181 0 -293 87t-139 236q-11 67 26.5 108.5t92.5 41.5q92 0 120 -99q22 -76 65.5 -114.5t123.5 -38.5q93 0 142.5 52t49.5 148q0 93 -51 142t-151 49h-29q-38 0 -67 29t-29 69z" />
    <glyph glyph-name="four.tab" unicode="&#xff14;" horiz-adv-x="1118" 
d="M748 1364q75 0 120 -42.5t45 -102.5v-717h52q47 0 75.5 -31.5t28.5 -79.5q0 -46 -28.5 -75t-75.5 -29h-52v-172q0 -57 -34 -91t-91 -34t-91.5 34t-34.5 91v172h-496q-57 0 -95 35t-38 92q0 56 17.5 99t53.5 95l435 633q27 38 48.5 60.5t64 42.5t96.5 20zM283 502h379v549
z" />
    <glyph glyph-name="five.tab" unicode="&#xff15;" horiz-adv-x="1118" 
d="M956 1233q0 -49 -30.5 -80t-77.5 -31h-459v-342q84 70 225 70q179 0 287.5 -113.5t108.5 -310.5q0 -208 -122.5 -327t-324.5 -119q-153 0 -263 62.5t-150 170.5q-23 65 6.5 116.5t101.5 51.5q68 0 107 -72q20 -36 37.5 -56.5t56.5 -38t94 -17.5q94 0 144.5 59t50.5 164
q0 102 -45.5 162.5t-139.5 60.5q-52 0 -84 -11t-82 -40q-56 -29 -108 -29q-57 0 -94 36t-37 93v531q0 55 34 89t89 34h567q47 0 77.5 -32t30.5 -81z" />
    <glyph glyph-name="six.tab" unicode="&#xff16;" horiz-adv-x="1118" 
d="M1018 401q0 -200 -122 -310.5t-325 -110.5q-201 0 -322.5 114t-121.5 320v510q0 205 119.5 323.5t331.5 118.5q158 0 262.5 -66.5t144.5 -189.5q18 -55 -16 -108.5t-97 -53.5q-81 0 -112 78q-46 119 -178 119q-95 0 -147 -52.5t-52 -146.5v-209q100 78 238 78
q183 0 290 -111t107 -303zM573 606q-112 0 -190 -82v-108q0 -108 48.5 -164.5t137.5 -56.5q90 0 138.5 52.5t48.5 145.5q0 96 -46 154.5t-137 58.5z" />
    <glyph glyph-name="seven.tab" unicode="&#xff17;" horiz-adv-x="1118" 
d="M971 1079l-410 -1001q-35 -88 -123 -88q-73 0 -108 53t-8 117l397 962h-500q-49 0 -79.5 30.5t-30.5 80.5t30.5 81.5t79.5 31.5h668q57 0 89 -29t32 -80q0 -65 -37 -158z" />
    </font>
</defs>
</svg>
