<?xml version="1.0" encoding="UTF-8"?>
<svg id="Layer_1" data-name="Layer 1" xmlns="http://www.w3.org/2000/svg" viewBox="0 0 512 512">
  <defs>
    <style>
      .cls-1 {
        fill: #00526e;
      }

      .cls-2 {
        fill: #fff;
      }
    </style>
  </defs>
  <rect class="cls-1" width="512" height="512"/>
  <path class="cls-2" d="M391.2,269.42c-1.02-1.67-1.74-2.61-2.61-3.12-1.96-1.16-4.71-.44-5.95,1.67-.73,1.38-.73,4.35-.73,5.37v41.92h-47.36v-118.52h47.36v49.98l36.12-49.98h52.15l-40.84,52.15,44.25,66.37h-54.04l-28.36-45.84h0ZM222.71,315.26h53.53l43.96-118.45h-47.94l-20.67,66.01h-.36l-20.53-66.08h-49.98l42,118.52ZM123.41,315.26h54.04l-44.25-66.37,40.84-52.15h-52.15l-36.12,49.98v-49.98h-47.36v118.45h47.36v-41.92c0-1.02,0-4.06.73-5.37,1.23-2.1,3.99-2.83,5.95-1.67.87.51,1.6,1.45,2.61,3.12l28.36,45.91Z"/>
</svg>