<?xml version="1.0" encoding="UTF-8" standalone="no"?>
<svg xmlns="http://www.w3.org/2000/svg" viewBox="0 0 64 64">
  <defs>
    <style>.cls-1{fill:none;}.cls-2{fill:#6697a8;}.cls-3{fill:#e94e1b;}.cls-4{fill:#87b2bf;}.cls-5{fill:#343434;}</style>
  </defs>
  <g id="Kader">
    <rect class="cls-1" height="64" width="64"/>
  </g>
  <g id="Laag_1">
    <g>
      <path class="cls-4" d="M49.87,33l-8.25,7-8.75-.101-7,7.083c1.537,1.057,3.397,1.679,5.404,1.679h4.72l9.845,9.837c.322,.32,.757,.5,1.211,.502h.007c.951,0,1.723-.769,1.727-1.72v-8.619h.796c5.275,0,9.551-4.276,9.551-9.551v-9.551c0-5.275-4.276-9.551-9.551-9.551l.291,4.991v8"/>
      <path class="cls-2" d="M39.87,44c8.271,0,15-6.729,15-15v-7.39c-1.515-1.01-3.334-1.602-5.291-1.602l.291,4.991v8l-8.25,7-8.75-.101-7,7.083c1.349,.928,2.948,1.52,4.676,1.651l4.636-4.632h4.688Z"/>
      <path class="cls-5" d="M39.87,8c4.963,0,9,4.037,9,9v12c0,4.963-4.037,9-9,9h-7.172l-.879,.878-10.95,10.941v-11.819h-4c-4.963,0-9-4.037-9-9v-12c0-4.963,4.037-9,9-9h23m0-3H16.87c-6.627,0-12,5.373-12,12v12c0,6.627,5.373,12,12,12h1v10.83c.005,1.195,.976,2.161,2.17,2.161,.003,0,.006,0,.009,0,.57-.002,1.117-.229,1.521-.631l12.37-12.36h5.93c6.627,0,12-5.373,12-12v-12c0-6.627-5.373-12-12-12h0Z"/>
      <g>
        <circle class="cls-3" cx="18.755" cy="27.538" r="2.885"/>
        <circle class="cls-3" cx="28.37" cy="27.538" r="2.885"/>
        <circle class="cls-3" cx="37.986" cy="27.538" r="2.885"/>
      </g>
    </g>
  </g>
</svg>
