<?xml version="1.0" encoding="UTF-8" standalone="no"?>
<svg xmlns="http://www.w3.org/2000/svg" viewBox="0 0 64 64">
  <defs>
    <style>.cls-1{fill:none;}.cls-2{fill:#6697a8;}.cls-3{fill:#e94e1b;}.cls-4{fill:#fff;}.cls-5{fill:#efefef;}.cls-6{fill:#343434;}</style>
  </defs>
  <g id="Kader">
    <rect class="cls-1" height="64" width="64" y="0"/>
  </g>
  <g id="Laag_1">
    <path class="cls-5" d="M29.954,56.948s-8.773-7.952-9-31l-4-1s-1-16,18-18c0,0-21-9-26,15l4,4s-6,8,2,15c0,0,2.539,11,15,16Z"/>
    <path class="cls-6" d="M53.231,27.71l-.32-.402,.141-.494c.56-1.969,3.05-12.081-2.905-17.749-2.261-2.152-5.182-3.29-8.445-3.29-1.592,0-2.833,.27-3.431,.43l-.363,.097-.337-.165c-1.558-.764-6.298-3.088-11.523-3.088-1.769,0-3.45,.268-4.997,.798-7.826,2.679-12.468,9.431-13.072,19.014l-.128,2.039,1.85,.867c.19,.089,.398,.181,.628,.275l1.254,.515-.862,1.046c-1.251,1.519-1.906,3.483-1.845,5.53,.069,2.385,1.077,4.655,2.764,6.226,.529,.492,1.113,.905,1.736,1.227l.381,.197,.12,.411c2.791,9.553,10.386,16.486,18.061,16.486s15.268-6.934,18.059-16.487l.12-.411,.381-.197c.621-.321,1.205-.734,1.735-1.227,1.687-1.571,2.695-3.839,2.764-6.223,.059-1.994-.568-3.921-1.765-5.424Zm-3.043,9.452c-.33,.307-.689,.562-1.068,.758l-1.522,.787-.481,1.645c-2.425,8.302-8.809,14.328-15.179,14.328s-12.756-6.026-15.181-14.328l-.481-1.646-1.524-.787c-.38-.196-.74-.451-1.068-.757-1.104-1.028-1.764-2.528-1.81-4.12-.039-1.321,.373-2.576,1.162-3.533l2.705-3.284c1.11,.142,2.298,.235,3.539,.235,4.963,0,10.712-1.436,15.134-6.683l5.948,2.55,1.182-2.758-8.083-3.464-.708,.942c-3.399,4.533-8.268,6.701-14.465,6.432-3.049-.13-5.701-.841-7.235-1.344,.743-7.915,4.49-13.233,10.968-15.45,1.234-.422,2.588-.636,4.026-.636h0c4.529,0,8.799,2.094,10.202,2.782l1.349,.661,1.451-.39c.366-.098,1.358-.327,2.652-.327,2.514,0,4.66,.829,6.377,2.463,4.282,4.075,2.825,11.773,2.249,14.132l-2.919,.995,1.29,3.787,2.078-.708,.108,.136c.756,.949,1.151,2.18,1.113,3.468-.046,1.587-.706,3.087-1.81,4.115Z"/>
    <path class="cls-4" d="M13.363,28.298s6.504-4.336,14.454,0c0,0-.723,9.395-7.95,8.673-7.227-.723-6.504-8.673-6.504-8.673Z"/>
    <path class="cls-4" d="M48.053,28.258s-6.504-4.336-14.454,0c0,0,.723,9.395,7.95,8.673,7.227-.723,6.504-8.673,6.504-8.673Z"/>
    <path class="cls-2" d="M42.35,27.684c1.813,0,3.627,.323,5.414,.963-.109,2.188-.836,6.96-5.093,7.284-.148,.011-.292,.017-.434,.017-.764,0-3.088,0-4.712-3.91-.509-1.225-.785-2.458-.93-3.302,1.927-.698,3.863-1.052,5.756-1.052m-20.7,0c1.894,0,3.829,.354,5.756,1.052-.145,.844-.422,2.077-.93,3.301-1.624,3.911-3.949,3.911-4.713,3.911-.142,0-.287-.006-.433-.017-4.258-.324-4.986-5.095-5.094-7.284,1.787-.64,3.601-.963,5.414-.963m20.7-3c-2.873,0-5.304,.668-7.106,1.353-.852-.491-1.976-.784-3.244-.784s-2.392,.292-3.244,.784c-1.802-.684-4.234-1.353-7.106-1.353-2.475,0-5.278,.496-8.285,1.906,0,0-.116,.513-.133,.797-.223,3.765,1.135,11.021,7.871,11.535,.224,.017,.445,.025,.661,.025,3.592,0,6.052-2.315,7.483-5.76,.76-1.831,1.087-3.642,1.216-4.592,.304-.141,.819-.292,1.537-.292s1.233,.151,1.537,.292c.13,.95,.456,2.761,1.216,4.592,1.431,3.445,3.891,5.76,7.483,5.76,.216,0,.436-.008,.661-.025,6.735-.513,8.093-7.77,7.871-11.535-.017-.284-.133-.797-.133-.797-3.007-1.41-5.81-1.906-8.285-1.906h0Z"/>
    <g id="IconBox_Icons_call-app-vergroot">
      <path class="cls-3" d="M57.868,46.972c-1.797-3.817-5.797-6.096-9.997-5.696-4.2,.4-7.697,3.394-8.74,7.482l-3.682,1.769c-.082,.039-.158,.091-.222,.155-.063,.062-.113,.136-.15,.216-.187,.391-.022,.858,.369,1.045l3.68,1.766c.889,3.483,3.579,6.22,7.046,7.17,3.466,.95,7.176-.033,9.717-2.576,2.985-2.982,3.777-7.516,1.98-11.334Z" id="Shape"/>
    </g>
    <g>
      <circle class="cls-4" cx="43.821" cy="51.234" r="1.5"/>
      <circle class="cls-4" cx="48.821" cy="51.234" r="1.5"/>
      <circle class="cls-4" cx="53.821" cy="51.234" r="1.5"/>
    </g>
  </g>
</svg>
