<?xml version="1.0" encoding="UTF-8" standalone="no"?>
<svg xmlns="http://www.w3.org/2000/svg" viewBox="0 0 64 64">
  <defs>
    <style>.cls-1,.cls-2{fill:none;}.cls-3{fill:#6697a8;}.cls-4{fill:#eb6918;}.cls-5{fill:#efefef;}.cls-6{fill:#343434;}.cls-2{stroke:#343434;stroke-miterlimit:10;stroke-width:4px;}</style>
  </defs>
  <g id="Kader">
    <rect class="cls-1" height="64" width="64" y="0"/>
  </g>
  <g id="Laag_1">
    <line class="cls-2" x1="62" x2="52" y1="62" y2="52"/>
    <path class="cls-5" d="M41.5,21c-11.322,0-20.5,9.178-20.5,20.5,0,1.725,.214,3.4,.615,5h-.618c-3.033,0-5.5-2.467-5.5-5.5l-1,.5v7.5l4.503,3h10.497v-1h.503l-.503-1.133v-3.368h-1.497l-2-4.5,3-10,9-5,12,2,.342-6c-2.677-1.282-5.676-2-8.842-2Z"/>
    <path class="cls-3" d="M47.993,34h-13.842c-1.375,1.346-2.374,3.069-2.846,5h16.688v-5Z"/>
    <path class="cls-3" d="M44.993,43h-13.881c.268,1.872,1.025,3.583,2.145,5h11.736v-5Z"/>
    <path class="cls-6" d="M48.5,17H20c-2.481,0-4.5-2.019-4.5-4.5s2.019-4.5,4.5-4.5h26.5v-3H20c-4.142,0-7.5,3.358-7.5,7.5V44.5c0,4.687,3.813,8.5,8.5,8.5h10l-2-3h-8c-3.033,0-5.5-2.467-5.5-5.5V18.49c1.254,.944,2.809,1.51,4.5,1.51h28.5v8l3,1v-12h-3Z"/>
    <path class="cls-4" d="M41.5,29c6.893,0,12.5,5.607,12.5,12.5s-5.607,12.5-12.5,12.5-12.5-5.607-12.5-12.5,5.607-12.5,12.5-12.5m0-4c-9.098,0-16.5,7.402-16.5,16.5s7.402,16.5,16.5,16.5,16.5-7.402,16.5-16.5-7.402-16.5-16.5-16.5h0Z"/>
  </g>
</svg>
