<?xml version="1.0" encoding="UTF-8" standalone="no"?>
<svg xmlns="http://www.w3.org/2000/svg" viewBox="0 0 64 64">
  <defs>
    <style>.cls-1{fill:none;}.cls-2{fill:#6697a8;}.cls-3{fill:#e94e1b;}.cls-4{fill:#efefef;}.cls-5{fill:#343434;}</style>
  </defs>
  <g id="Kader">
    <rect class="cls-1" height="64" width="64" y="0"/>
  </g>
  <g id="Laag_1">
    <rect class="cls-2" height="14" width="4" x="34.279" y="32.867"/>
    <path class="cls-4" d="M20.607,46.867l-1.598-14.979-.258-2.414-2.26-.886c-1.321-.518-2.175-1.785-2.175-3.227v-5.494H7.279v5.494c0,1.442,.854,2.709,2.175,3.227l2.26,.886,.258,2.414,1.798,16.851c.191,1.783,1.684,3.128,3.472,3.128H51.671v-5H20.607Z"/>
    <path class="cls-5" d="M57.174,19.867v5.494c0,1.436-.866,2.703-2.205,3.229l-2.256,.885-.26,2.41-1.821,16.853c-.191,1.784-1.687,3.13-3.48,3.13H17.242c-1.788,0-3.281-1.346-3.472-3.128l-1.798-16.851-.258-2.414-2.26-.886c-1.321-.518-2.175-1.785-2.175-3.227v-5.494H57.174m3-3H4.279v8.494c0,2.685,1.602,5.048,4.08,6.02l.565,.221,.064,.603,1.798,16.851c.355,3.313,3.13,5.81,6.455,5.81h29.91c3.33,0,6.108-2.498,6.463-5.81l1.82-16.851,.065-.602,.564-.221c2.497-.979,4.11-3.343,4.11-6.022v-8.494h0Z"/>
    <rect class="cls-2" height="14" width="4" x="18.279" y="32.867"/>
    <path class="cls-3" d="M60.059,4.773l-3.229-3.82c-12.226,10.335-23.58,19.913-23.58,19.913-4.761,3.989-4.731,3.94-4.971,4.77-.464,1.609,.743,3.198,2.401,3.198,1.223,0,.879,.032,10.344-7.968L60.059,4.773Z"/>
    <rect class="cls-2" height="14" width="4" x="26.279" y="32.867"/>
    <rect class="cls-2" height="14" width="4" x="42.279" y="32.867"/>
  </g>
</svg>
