<?xml version="1.0" encoding="UTF-8" standalone="no"?>
<svg xmlns="http://www.w3.org/2000/svg" viewBox="0 0 64 64">
  <defs>
    <style>.cls-1{fill:none;}.cls-2{fill:#6697a8;}.cls-3{fill:#e94e1b;}.cls-4{fill:#efefef;}.cls-5{fill:#ff9300;}.cls-6{fill:#343434;}</style>
  </defs>
  <g id="Kader">
    <rect class="cls-1" height="64" width="64"/>
  </g>
  <g id="Laag_1">
    <path class="cls-5" d="M25.987,44.171l-6.157-6.152c-3.974,.194-8.495,1.867-10.58,4.801-2.749,3.865-2.69,9.883-2.448,14.307,1.629,.089,9.709,.855,14.346-2.423,2.897-2.048,4.643-6.566,4.839-10.533Z"/>
    <path class="cls-3" d="M23.554,44.137c.212-.738,.326-2.057,.368-2.057l-2.028-2.037c-5.958,.442-6.725,3.727-7.015,9.037,6.587-.363,7.901-2.245,8.676-4.943Z"/>
    <path class="cls-1" d="M44.197,17.304c1.381,0,2.5,1.119,2.5,2.5,0,1.381-1.119,2.5-2.5,2.5-1.381,0-2.5-1.119-2.5-2.5,0-1.381,1.119-2.5,2.5-2.5Zm-9,9c1.381,0,2.5,1.119,2.5,2.5,0,1.381-1.119,2.5-2.5,2.5s-2.5-1.119-2.5-2.5,1.119-2.5,2.5-2.5Z"/>
    <path class="cls-2" d="M44.197,23.506c2.045,0,3.702-1.658,3.702-3.702,0-2.045-1.658-3.702-3.702-3.702-2.045,0-3.702,1.658-3.702,3.702,0,2.045,1.658,3.702,3.702,3.702Z"/>
    <path class="cls-2" d="M35.197,32.506c2.045,0,3.702-1.658,3.702-3.702,0-2.045-1.658-3.702-3.702-3.702-2.045,0-3.702,1.658-3.702,3.702s1.658,3.702,3.702,3.702Z"/>
    <path class="cls-6" d="M53.697,10.304v8.965c0,3.339-1.3,6.477-3.661,8.839l-7.807,7.807-1.45,1.45,.331,2.024,.525,3.206c.295,1.753-.472,3.519-1.957,4.501l-8.246,5.461-.073-.073,1.269-7.424,.307-1.795-3.344-3.344-2.085,.644-.675,.208-3.6-3.596,.21-.68,.642-2.083-3.345-3.345-1.793,.306-7.427,1.268-.073-.073,5.463-8.247c.835-1.263,2.238-2.016,3.752-2.016,.252,0,.505,.021,.766,.065l3.188,.522,2.024,.331,1.45-1.45,7.807-7.806c2.361-2.361,5.5-3.661,8.839-3.661h8.965m3-3h-11.965c-4.14,0-8.032,1.612-10.96,4.54l-7.807,7.806-.362,.362-.506-.083-3.189-.522c-.415-.069-.828-.104-1.251-.104-2.524,0-4.862,1.257-6.254,3.361l-5.461,8.246-1.354,2.044,1.734,1.734,.073,.073,1.097,1.097,1.529-.261,7.427-1.268,.264-.045,.97,.97-.11,.356-.21,.68-.533,1.728,1.28,1.278,3.6,3.596,1.278,1.277,1.727-.533,.675-.208,.358-.11,.969,.969-.045,.266-1.269,7.424-.261,1.529,1.097,1.097,.073,.073,1.734,1.734,2.044-1.354,8.246-5.461c2.471-1.634,3.75-4.579,3.258-7.5l-.522-3.192-.083-.506,.363-.363,7.807-7.807c2.928-2.928,4.54-6.82,4.54-10.96V10.304s0-3,0-3h0Z"/>
    <path class="cls-4" d="M41.634,42.594c.295,1.753-.472,3.519-1.957,4.501l-8.246,5.461-.073-.073,6.369-9.627c.475-.718,.614-1.608,.381-2.437l-1.322-4.701,9.442-8.945c3.144-2.978,5.326-6.829,6.265-11.056l1.203-5.412v8.965c0,3.315-1.317,6.494-3.661,8.838l-7.807,7.807-1.45,1.45,.331,2.024,.525,3.206"/>
  </g>
</svg>
