<?xml version="1.0" encoding="UTF-8" standalone="no"?>
<svg xmlns="http://www.w3.org/2000/svg" viewBox="0 0 64 64">
  <defs>
    <style>.cls-1{fill:none;}.cls-2{fill:#eb6918;}.cls-3{fill:#fff;}.cls-4{fill:#efefef;}.cls-5{fill:#ff9300;}.cls-6{fill:#87b2bf;}.cls-7{fill:#343434;}</style>
  </defs>
  <g id="Kader">
    <rect class="cls-1" height="64" width="64" y="0"/>
  </g>
  <g id="Laag_1">
    <polygon class="cls-4" points="27.023 47.278 23.377 43.632 46.998 20.011 50.621 23.633 27.023 47.278"/>
    <rect class="cls-7" height="3" transform="translate(31.636 -28.446) rotate(45)" width="16.612" x="41.849" y="22.465"/>
    <path class="cls-7" d="M16.731,49.042l.904,1.953c1.042,2.234,3.482,3.378,5.795,2.879,.372-.08,.741-.203,1.101-.371,.935-.437,1.676-1.121,2.189-1.936,.917,.345,1.924,.448,2.914,.235,.372-.08,.742-.203,1.101-.371,1.369-.639,2.363-1.82,2.779-3.215l-8.471-.924-8.312,1.75"/>
    <path class="cls-6" d="M48.364,7.247l3.831,3.831,3.623,3.623,3.142-3.147c1.17-1.172,1.169-3.069-.001-4.24l-3.208-3.21c-1.172-1.172-3.072-1.173-4.244,0l-3.143,3.144Z"/>
    <polygon class="cls-7" points="8.688 54.382 14.512 52.59 10.487 48.566 8.688 54.382"/>
    <polygon class="cls-5" points="10.487 48.565 14.512 52.59 19.512 51.052 12.025 43.596 10.487 48.565"/>
    <polygon class="cls-5" points="48.364 7.247 28.192 27.423 24.733 30.884 12.025 43.596 19.512 51.052 34.515 36.023 37.747 32.784 55.817 14.7 48.364 7.247"/>
    <polygon class="cls-2" points="19.512 51.052 15.866 47.406 52.194 11.077 55.817 14.7 19.512 51.052"/>
    <path class="cls-3" d="M23.495,46.902c-2.566,0-4.646-2.08-4.646-4.646s2.08-4.646,4.646-4.646l13.726,.985-6.828,8.728-6.898-.422Z"/>
    <path class="cls-7" d="M47.618,48.766c-.37,.042-.738,.061-1.101,.061-3.641,0-6.828-1.918-6.858-1.937l-.417-.257-16.133-1.179c-.908-.062-1.738-.476-2.336-1.161-.598-.687-.893-1.565-.83-2.474,.124-1.79,1.617-3.176,3.375-3.176,.083,0,.167,.003,.251,.009l15.506,1.135,5.371-3.041-1.535-2.578-4.523,2.561-14.6-1.068c-.154-.012-.312-.017-.47-.017-3.339,0-6.136,2.622-6.368,5.969-.118,1.709,.437,3.36,1.56,4.651,1.126,1.292,2.685,2.067,4.393,2.184l15.405,1.126c.964,.545,4.303,2.254,8.208,2.254,.486,0,.971-.027,1.44-.08l-.339-2.981Z"/>
    <path class="cls-3" d="M11.91,40.389s6.57,1.126,9.291-6.57l.57-4.203-9.861,10.773Z"/>
    <path class="cls-7" d="M21.771,29.616l-.115,.606c-.288,1.517-1.616,5.932-4.279,8.118-1.193,.981-2.282,1.32-3.219,1.32-1.063,0-1.931-.437-2.529-.871l2.868-7.17,1.494-5.801c.604-2.37,2.32-4.324,4.593-5.229l11.317-4.501,5.984,1.655,2.426-2.426-7.61-2.121-.972-.269-.937,.372-11.317,4.501c-3.163,1.259-5.552,3.978-6.391,7.276l-1.443,5.606-2.797,6.991-.869,2.172,1.894,1.372c1.302,.943,2.785,1.442,4.289,1.442,1.784,0,3.508-.674,5.124-2.003,3.58-2.939,4.955-8.221,5.256-9.567l6.087-6.087h-4.242l-4.613,4.612Z"/>
  </g>
</svg>
