<?xml version="1.0" encoding="UTF-8" standalone="no"?>
<svg xmlns="http://www.w3.org/2000/svg" viewBox="0 0 64 64">
  <defs>
    <style>.cls-1{fill:none;}.cls-2{fill:#eb6918;}.cls-3{fill:#fff;}.cls-4{fill:#efefef;}.cls-5{fill:#ff9300;}.cls-6{fill:#343434;}</style>
  </defs>
  <g id="Kader">
    <rect class="cls-1" height="64" width="64"/>
  </g>
  <g id="Laag_1">
    <circle class="cls-3" cx="32" cy="32" r="22"/>
    <path class="cls-4" d="M31.5,9.5s-13,4-13,23,13,22,13,22c0,0-22-1-22-23S31.5,9.5,31.5,9.5Z"/>
    <path class="cls-5" d="M31.999,37.567c-8.234,0-13.085,3.058-13.663,8.632l-.26,2.973s2.905,5.827,13.924,5.827,13.926-5.827,13.926-5.827c-.279-2.901,.338-11.605-13.926-11.605h0Z"/>
    <path class="cls-5" d="M32,19c-4.061,0-7.295,3.081-7.52,7.168-.355,6.436,3.585,9.657,7.524,9.657s7.872-3.217,7.517-9.657c-.225-4.086-3.458-7.168-7.52-7.168h0Z"/>
    <path class="cls-2" d="M22.83,50.794v-4.058c0-6.788,9.169-9.169,9.169-9.169h0c-8.234,0-13.085,3.058-13.663,8.632l-.26,2.973s2.905,5.827,13.924,5.827l-9.169-4.206Z"/>
    <path class="cls-6" d="M32,8.5c-12.958,0-23.5,10.542-23.5,23.5,0,6.238,2.455,12.129,6.913,16.587,4.458,4.458,10.349,6.913,16.587,6.913,12.958,0,23.5-10.542,23.5-23.5,0-6.238-2.455-12.129-6.913-16.587-4.458-4.458-10.349-6.913-16.587-6.913h0Zm0,3c5.437,0,10.574,2.143,14.466,6.034,3.891,3.891,6.034,9.029,6.034,14.466,0,11.304-9.196,20.5-20.5,20.5-5.437,0-10.574-2.143-14.466-6.034-3.891-3.891-6.034-9.029-6.034-14.466,0-11.304,9.196-20.5,20.5-20.5"/>
    <path class="cls-2" d="M27.495,26.32c0-5.733,4.505-7.32,4.505-7.32h0c-4.061,0-7.295,3.081-7.52,7.168-.355,6.436,3.585,9.657,7.524,9.657,0,0-4.508-1.86-4.508-9.505Z"/>
  </g>
</svg>
