<?xml version="1.0" encoding="UTF-8" standalone="no"?>
<svg xmlns="http://www.w3.org/2000/svg" viewBox="0 0 64 64">
  <defs>
    <style>.cls-1{fill:none;}.cls-2{fill:#eb6918;}.cls-3{fill:#efefef;}.cls-4{fill:#87b2bf;}.cls-5{fill:#343434;}</style>
  </defs>
  <g id="Kader">
    <rect class="cls-1" height="64" width="64"/>
  </g>
  <g id="Laag_1">
    <path class="cls-5" d="M27.95,52.845l1.865,1.075c2.139,1.224,4.793,.753,6.395-.989,.258-.28,.488-.593,.686-.938,.513-.896,.724-1.882,.672-2.844,.948-.247,1.831-.743,2.516-1.488,.258-.28,.489-.594,.686-.938,.75-1.312,.881-2.849,.417-4.229l-7.454,4.128-5.783,6.222"/>
    <polygon class="cls-3" points="32.393 24.78 40.507 28.784 39.304 31.35 30.268 26.945 32.393 24.78"/>
    <g>
      <path class="cls-2" d="M32.244,47.197c-2.097,1.479-4.995,.978-6.474-1.118-1.311-1.858-1.06-4.341,.471-5.913l-2.419-1.095-1.652,10.043c-1.229,.867-2.728,1.315-4.336,1.295l-.178-.002c.18,.878,.738,1.67,1.605,2.096l8.191,4.023c1.487,.73,3.285,.117,4.015-1.37l5.071-10.327-.211-.095-4.084,2.465Z"/>
      <path class="cls-4" d="M26.887,39.605l14.339-8.319c-.264-.322-.593-.597-.991-.792l-8.191-4.023c-.107-.053-.219-.084-.329-.122-1.415-.5-3.008,.113-3.686,1.493l-3.55,7.228-.658,4.001,2.419,1.095c.197-.202,.408-.393,.647-.561Z"/>
      <polygon class="cls-4" points="36.328 44.732 36.539 44.827 36.694 44.511 36.328 44.732"/>
    </g>
    <path class="cls-5" d="M53.029,34.814c-.278,.247-.568,.475-.865,.685-2.975,2.099-6.684,2.369-6.72,2.37l-.489,.031-13.862,8.337c-.778,.472-1.695,.613-2.578,.398-.884-.216-1.632-.765-2.104-1.543-.931-1.534-.509-3.528,.927-4.541,.068-.048,.138-.094,.211-.137l13.324-8.011,2.636-5.581-2.741-1.222-2.22,4.7-12.546,7.543c-.133,.079-.265,.166-.394,.257-2.728,1.925-3.502,5.679-1.762,8.548,.889,1.464,2.294,2.494,3.956,2.901,1.665,.406,3.386,.141,4.848-.747l13.237-7.961c1.102-.111,4.815-.639,8.006-2.89,.398-.28,.778-.582,1.13-.896l-1.995-2.24Z"/>
    <circle class="cls-2" cx="17.738" cy="55.337" id="Oval" r="1.495"/>
    <circle class="cls-2" cx="11.506" cy="54.59" id="Oval-2" r="2.242"/>
    <path class="cls-5" d="M21.351,17.174l10.192-3.687,17.193,2.491,.51-2.956-17.997-2.608-10.912,3.936-.949,.341-.551,.844-6.653,10.202c-1.859,2.852-2.243,6.451-1.028,9.63l2.052,5.413,1.745,7.324,.542,2.275,2.161,.027,.178,.002c1.607,.02,3.106-.427,4.336-1.295,1.458-1.028,2.478-2.573,3.033-4.591,.54-1.958,.473-4.039,.184-5.866-.156-.988-.378-1.889-.604-2.667-.032-.11-.064-.225-.095-.329l-.208-.59,3.55-7.228c.678-1.38,2.271-1.992,3.686-1.493l2.644-3.661-2.434-1.753-10.312,8.923-.742,4.208,.256,.562c.066,.146,.143,.33,.223,.534,.338,.863,.766,2.208,1.025,3.709,.021,.124,.033,.254,.052,.38,.222,1.479,.272,3.069-.116,4.476-.409,1.489-1.104,2.394-1.869,2.934-.663,.468-1.378,.659-2.008,.721-.196,.019-.385,.027-.561,.025l-1.79-7.512-2.123-5.601c-.873-2.285-.597-4.871,.739-6.92l6.653-10.202Z"/>
  </g>
</svg>
