<?xml version="1.0" encoding="UTF-8" standalone="no"?>
<svg xmlns="http://www.w3.org/2000/svg" xmlns:xlink="http://www.w3.org/1999/xlink" viewBox="0 0 520 338">
  <defs>
    <style>.cls-1{fill:url(#Naamloos_verloop_2);}.cls-2{opacity:.11;}.cls-3{fill:#00526e;}.cls-4{fill:#003e53;}.cls-5{fill:#e95c55;}.cls-6{fill:#fff;}.cls-7{fill:#ff9100;}.cls-8,.cls-9{fill:#85b0bd;}.cls-10{fill:#9dbfca;}.cls-11{fill:#b5896e;}.cls-12{fill:#d0a180;}.cls-13{fill:#d3eaf2;}.cls-14{fill:#e4332a;}.cls-15{fill:#1a212b;}.cls-16{fill:#283241;}.cls-17{fill:#377f93;}.cls-18{fill:#79a3ad;}.cls-19{fill:#343434;}.cls-20{opacity:.21;}.cls-9{opacity:.97;}</style>
    <linearGradient gradientTransform="translate(0 1954) scale(1 -1)" gradientUnits="userSpaceOnUse" id="Naamloos_verloop_2" x1="-86.622" x2="400.547" y1="1796" y2="1796">
      <stop offset="0" stop-color="#fff"/>
      <stop offset=".226" stop-color="#fff" stop-opacity=".99"/>
      <stop offset=".363" stop-color="#fcfcfc" stop-opacity=".957"/>
      <stop offset=".475" stop-color="#fbfcfc" stop-opacity=".901"/>
      <stop offset=".574" stop-color="#f9fafb" stop-opacity=".821"/>
      <stop offset=".665" stop-color="#f7f9f9" stop-opacity=".718"/>
      <stop offset=".75" stop-color="#f5f7f8" stop-opacity=".591"/>
      <stop offset=".83" stop-color="#f2f5f6" stop-opacity=".44"/>
      <stop offset=".906" stop-color="#eef3f3" stop-opacity=".265"/>
      <stop offset=".976" stop-color="#eaf0f1" stop-opacity=".072"/>
      <stop offset="1" stop-color="#e9eff0" stop-opacity="0"/>
    </linearGradient>
  </defs>
  <g id="Neuzen">
    <path class="cls-1" d="M447.97,0L70.601,166.632c-77.169,34.075-52.848,149.368,31.51,149.368h417.889V0h-72.03Z"/>
  </g>
  <g id="Laag_1">
    <g>
      <polygon class="cls-6" points="133.612 90.798 129.798 90.633 127.477 84.506 127.477 79.539 124.824 79.373 121.006 60.166 133.612 52.716 146.381 58.676 142.401 79.705 139.913 79.705 139.582 86.659 136.763 90.798 133.612 90.798"/>
      <path class="cls-8" d="M154.542,114.123c-1.009,0-1.873,.608-2.252,1.476l-10.038-.835-.855-2.348h-1.71l-.855,1.921-1.71-.213v-2.988l-.641-1.494v-4.055l2.03-2.027-1.389-1.387v-2.134l2.137-.854,.214-1.494s-2.778-.213-2.778-2.348v-3.415s4.916-.854,4.702-10.671h2.779v-2.774l5.343-24.543,2.137-.213,.214-6.829-1.496-.64-1.069,4.055-4.916-2.348,.214-4.268-1.71-.64-1.71,1.921-2.137-1.281,.427-5.335s-1.71-1.281-4.275-2.348v-2.348l1.924-2.134-3.42-7.043-3.42,7.043,1.924,2.134v2.348c-2.565,1.067-4.275,2.348-4.275,2.348l.427,5.335-2.137,1.281-1.71-1.921-1.71,.64,.214,4.268-4.916,2.348-1.069-4.055-1.496,.64,.214,6.829,2.137,.213,5.343,24.543v2.774h2.779c-.214,9.817,4.702,10.671,4.702,10.671v3.415c0,2.134-2.778,2.348-2.778,2.348l.214,1.494,2.137,.854v2.134l-1.389,1.387,2.03,2.027v4.055l-.641,1.494v2.988l-1.71,.213-.855-1.921h-1.71l-.855,2.348-10.038,.835c-.379-.868-1.243-1.476-2.252-1.476-1.357,0-2.458,1.099-2.458,2.454s1.101,2.454,2.458,2.454c1.174,0,2.151-.823,2.396-1.921h10.108l.855,1.921h1.924l.428-1.921h1.493l1.182,174.799-2.388,.794v1.905l2.089,.318v2.857l-2.984,2.222,.333,15.994h13.927l.066-15.994-3.581-2.222v-2.381l2.388-.317-.298-2.064-2.388-.794-.886-175.117h1.308l.428,1.921h1.924l.855-1.921h10.108c.245,1.098,1.222,1.921,2.396,1.921,1.357,0,2.458-1.099,2.458-2.454s-1.101-2.454-2.458-2.454Zm-13.695-54.997c1.915,.631,3.571,1.459,3.97,2.497l-2.992,16.22-4.061-.427,3.083-18.289Zm-7.144-1.558s2.292,.295,4.801,.902l-3.091,18.519h-3.42l-3.091-18.519c2.509-.607,4.801-.902,4.801-.902Zm-8.122,20.275l-2.992-16.22c.399-1.037,2.055-1.866,3.97-2.497l3.083,18.289-4.061,.427Zm3.206,2.988h9.832s1.069,7.043-2.351,8.75h-5.13c-3.42-1.707-2.351-8.75-2.351-8.75Z"/>
    </g>
    <g>
      <path class="cls-17" d="M406.41,142.095c0,15.116-.037,66.141-.037,66.141l-174.697,1.458v-67.599h174.734Z"/>
      <rect class="cls-3" height="60.393" width="35.92" x="232.123" y="149.301"/>
      <polygon class="cls-18" points="147.688 284.44 151.182 245.718 399.214 239.373 400.51 282.582 325.177 284.343 222.075 286.256 147.688 284.44"/>
      <path class="cls-8" d="M217.166,284.211c0-17.557-14.233-31.789-31.789-31.789-17.557,0-31.789,14.233-31.789,31.789s14.233,31.789,31.789,31.789c17.557,0,31.789-14.233,31.789-31.789Z"/>
      <path class="cls-13" d="M204.455,284.211c0-10.536-8.541-19.078-19.078-19.078-10.536,0-19.078,8.541-19.078,19.078s8.541,19.078,19.078,19.078c10.536,0,19.078-8.541,19.078-19.078Z"/>
      <path class="cls-13" d="M170.87,150.269c-2.978,.315-5.558,2.23-6.665,5.012-4.139,10.398-6.973,21.054-9.668,31.819-1.037,4.141,1.928,8.2,6.187,8.489,20.594,1.398,38.639,.301,58.197-.11l1.579-45.962c-16.161-1.426-32.736-1.038-49.63,.752Z"/>
      <path class="cls-2" d="M180.803,196.275c12.831,.053,25.141-.522,38.117-.795l1.579-45.962c-7.197-.635-14.476-.911-21.829-.862l-17.867,47.619Z"/>
      <path class="cls-10" d="M414.553,133.404c-21.979-1.22-119.079-3.35-186.569-2.165-.652,.011-1.297,.023-1.935,.035-.089,.002-.177,.003-.266,.005-50.293,.938-57.505,3.062-64.733,13.551-6.398,12.392-14.668,39.563-14.668,39.563l-32.203,96.206c1.395,.531,2.827,1.112,4.285,1.751,10.194,4.475,19.669,4.231,31.842,4.61,1.311-17.861,12.205-36.807,36.177-36.57,24.54,.243,33.044,21.098,34.502,37.539,15.712,0,106.908-1.458,106.908-1.458,0,0,2.461-36.769,35.505-37.498,33.044-.729,34.957,36.04,34.957,36.04l17.008-1.863s-.811-125.781-.811-149.749Zm-200.733,62.139c-17.73,.298-33.883,.064-53.12,.045-4.259-.004-7.198-4.356-6.164-8.487,2.702-10.794,5.545-21.479,9.701-31.903,1.147-2.876,3.862-4.819,6.956-4.941,14.785-.587,29.586-.807,43.765-.768,3.033,.009,5.455,2.529,5.351,5.561l-1.213,35.303c-.098,2.858-2.417,5.142-5.277,5.19Zm192.591-53.448c0,15.116-.037,66.141-.037,66.141l-174.697,1.458v-67.599h174.734Z"/>
      <polygon class="cls-8" points="407.692 140.813 408.826 73.687 226.911 73.687 230.402 140.822 407.692 140.813"/>
      <path class="cls-8" d="M177.194,196.763c-5.307-.024-10.764-.049-16.494-.054-2.24-.002-4.34-1.051-5.763-2.876-1.537-1.971-2.093-4.589-1.488-7.005,2.587-10.333,5.471-21.32,9.748-32.046,1.312-3.29,4.433-5.507,7.954-5.647,13.926-.552,28.673-.804,43.811-.769,1.771,.005,3.424,.711,4.653,1.987,1.231,1.278,1.876,2.96,1.816,4.734l-1.214,35.303c-.119,3.459-2.92,6.214-6.378,6.272h0c-6.806,.115-13.398,.151-20.007,.151-5.491,0-10.994-.025-16.638-.051Zm36.607-2.342c2.263-.038,4.096-1.842,4.175-4.108l1.214-35.303c.04-1.162-.383-2.264-1.189-3.101-.805-.836-1.887-1.297-3.045-1.3-15.111-.05-29.82,.215-43.716,.766-2.635,.105-4.975,1.768-5.959,4.236-4.226,10.597-7.088,21.501-9.656,31.76-.439,1.752-.035,3.651,1.081,5.081,1.01,1.296,2.43,2.011,3.997,2.012,5.734,.006,11.193,.03,16.503,.054,12.427,.057,24.162,.109,36.597-.099h0Z"/>
      <polygon class="cls-3" points="232.342 203.331 406.17 203.331 406.17 208.236 232.123 208.78 232.342 203.331"/>
      <polygon class="cls-3" points="291.376 142.095 291.376 155.945 278.539 161.298 278.539 164.81 393.7 164.81 393.7 161.632 378.897 154.44 378.897 141.56 291.376 142.095"/>
      <path class="cls-8" d="M230.395,140.813h177.297v1.282c0,15.116-.038,66.143-.038,66.143v1.27s-177.26,1.479-177.26,1.479v-70.173Zm174.734,2.563H232.958s0,65.025,0,65.025l172.134-1.436c.005-7.736,.035-48.663,.037-63.589Z"/>
      <path class="cls-10" d="M103.747,199.757l-8.747,75.807s8.219,.952,18.567,4.804c.203,.076,.407,.153,.612,.23l32.203-96.206-42.635,15.364Z"/>
      <path class="cls-8" d="M415.238,278.181l-17.008,1.863s-1.913-36.769-34.957-36.04c-33.044,.729-35.505,37.498-35.505,37.498,0,0-91.196,0-106.908,0-1.458-16.441-9.962-35.838-34.502-36.081-23.973-.237-34.867,18.709-36.177,36.57-12.174-.38-21.648-.136-31.842-4.61-1.458-.64-1.811-.898-2.658-1.279l-1.501,4.5c1.395,.531,2.701,1.137,4.159,1.777,10.194,4.475,19.669,4.231,31.842,4.61,1.311-17.861,12.205-36.807,36.177-36.57,24.54,.243,33.044,21.098,34.502,37.539l106.908-1.458s2.461-36.769,35.505-37.498c33.044-.729,34.957,36.04,34.957,36.04l17.008-1.863v-4.997Z"/>
      <path class="cls-2" d="M185.377,267.841c-9.041,0-16.369,7.329-16.369,16.369s7.329,16.369,16.369,16.369c9.041,0,16.369-7.329,16.369-16.369,0-9.041-7.329-16.369-16.369-16.369Zm0,23.501c-3.939,0-7.132-3.193-7.132-7.132,0-3.939,3.193-7.132,7.132-7.132s7.132,3.193,7.132,7.132c0,3.939-3.193,7.132-7.132,7.132Z"/>
      <g class="cls-20">
        <polygon points="184.576 272.894 183.799 274.239 184.576 275.585 186.129 275.585 186.906 274.239 186.129 272.894 184.576 272.894"/>
        <polygon points="196.461 281.292 194.985 280.806 193.827 281.841 194.144 283.362 195.62 283.848 196.778 282.813 196.461 281.292"/>
        <polygon points="190.885 291.315 189.591 292.176 189.69 293.726 191.082 294.416 192.375 293.555 192.277 292.005 190.885 291.315"/>
        <polygon points="178.314 291.899 178.192 293.448 179.472 294.328 180.874 293.66 180.996 292.111 179.716 291.231 178.314 291.899"/>
        <polygon points="174.334 280.985 173.975 282.497 175.104 283.564 176.593 283.119 176.952 281.608 175.823 280.541 174.334 280.985"/>
      </g>
      <path class="cls-8" d="M395.022,284.211c0-17.557-14.233-31.789-31.789-31.789-17.557,0-31.789,14.233-31.789,31.789s14.233,31.789,31.789,31.789c17.557,0,31.789-14.233,31.789-31.789Z"/>
      <path class="cls-13" d="M382.31,284.211c0-10.536-8.541-19.078-19.078-19.078-10.536,0-19.078,8.541-19.078,19.078,0,10.536,8.541,19.078,19.078,19.078,10.536,0,19.078-8.541,19.078-19.078Z"/>
      <path class="cls-2" d="M363.232,267.841c-9.041,0-16.369,7.329-16.369,16.369s7.329,16.369,16.369,16.369c9.041,0,16.369-7.329,16.369-16.369,0-9.041-7.329-16.369-16.369-16.369Zm0,23.501c-3.939,0-7.132-3.193-7.132-7.132s3.193-7.132,7.132-7.132c3.939,0,7.132,3.193,7.132,7.132s-3.193,7.132-7.132,7.132Z"/>
      <g class="cls-20">
        <polygon points="362.431 272.894 361.655 274.239 362.431 275.585 363.985 275.585 364.762 274.239 363.985 272.894 362.431 272.894"/>
        <polygon points="374.317 281.292 372.841 280.806 371.682 281.841 372 283.362 373.476 283.848 374.634 282.813 374.317 281.292"/>
        <polygon points="368.741 291.315 367.447 292.176 367.546 293.726 368.938 294.416 370.231 293.555 370.133 292.005 368.741 291.315"/>
        <polygon points="356.17 291.899 356.047 293.448 357.328 294.328 358.73 293.66 358.852 292.111 357.572 291.231 356.17 291.899"/>
        <polygon points="352.19 280.985 351.831 282.497 352.96 283.564 354.449 283.119 354.808 281.608 353.679 280.541 352.19 280.985"/>
      </g>
      <rect class="cls-10" height="3.372" width="181.915" x="226.911" y="70.315"/>
      <polygon class="cls-3" points="229.489 76.077 406.41 76.077 403.861 140.555 233.754 140.555 229.489 76.077"/>
      <polygon class="cls-17" points="231.83 78 309.273 79.004 310.11 138.717 235.51 139.386 231.83 78"/>
      <polygon class="cls-17" points="312.284 79.087 312.033 138.55 364.721 139.051 366.979 78.084 312.284 79.087"/>
      <polygon class="cls-17" points="369.488 78.335 366.979 139.051 401.854 138.801 403.861 77.833 369.488 78.335"/>
      <polygon class="cls-3" points="235.386 82.349 235.386 87.116 304.132 87.116 304.132 81.596 235.386 82.349"/>
      <polygon class="cls-3" points="315.422 81.346 315.673 87.367 361.336 86.614 361.336 81.095 315.422 81.346"/>
      <polygon class="cls-3" points="371.623 81.346 400.225 80.844 399.723 85.611 371.874 85.611 371.623 81.346"/>
      <path class="cls-8" d="M415.024,230.365v-.665s-157.753,2.848-189.973,3.166c-.046-1.447,.997-101.592,.997-101.592l-.265,.005-.461,12.804s-19.862-1.469-63.852,.147c0,0-.296,.399-.42,.6,28.953-.72,53.878-1.038,64.184-.066-.101,3.06-1.42,87.412-1.443,88.114-30.533,.243-40.106-.968-53.064,4.54-12.959,5.507-16.846,11.987-20.005,21.661-16.886-.756-25.232-9.402-25.865-10.495l21.4-64.165-3.387,1.222-2.842,9.231-26.219,8.93,1.371-8.17-3.387,1.222-10.921,79.798,.687,.157,12.137-72.332,25.606-7.246-25.734,83.139,.612,.23,1.501-4.5,8.793-26.365c3.533,5.352,15.3,11.186,27.383,10.721,3.159-9.675,7.046-16.154,20.005-21.661,12.862-5.466,21.913-3.704,51.903-3.924,.076,2.015,1.348,46.631,1.348,46.631h1.18c.017-8.791-1.096-46.645-1.074-47.249,9.073-.085,54.988-.982,54.988-.982l.812,48.231h1.2s-.878-48.254-.878-48.254l43.179-.934,.462,49.188h.715l-.054-49.212,89.383-1.924Z"/>
      <polygon class="cls-8" points="406.17 211.841 231.556 211.841 231.556 214.632 234.667 214.589 235.428 218.054 236.508 218.054 236.508 214.563 401.353 214.429 401.353 218.054 402.433 218.054 403.235 214.403 406.17 214.362 406.17 211.841"/>
      <path class="cls-13" d="M120.067,222.614c0,3.806-5.17,6.891-11.548,6.891-1.319,0-2.633-.126-3.767-.375-1.118-.674-1.154-11.945,.244-13.08,.826-.209,2.294-.326,3.522-.326,6.378,0,11.548,3.085,11.548,6.891Z"/>
      <path class="cls-9" d="M108.519,215.723c-.349,1.134-.621,2.261-.826,3.394-.202,1.133-.321,2.269-.356,3.406-.031,1.151-.01,2.307,.022,3.467,.047,1.16,.11,2.323,.195,3.508-.475-1.095-.752-2.261-.941-3.435-.187-1.176-.267-2.369-.236-3.565,.04-1.208,.227-2.412,.591-3.557,.353-1.145,.843-2.255,1.552-3.217Z"/>
    </g>
    <g>
      <g id="Stool">
        <rect class="cls-16" height="3.345" width="83.63" x="342.707" y="311.238"/>
        <path class="cls-16" d="M423.519,262.977c-1.062-10.628-9.918-18.642-20.599-18.642h-35.967c-10.681,0-19.537,8.014-20.599,18.642l-7.503,75.023h3.362l7.47-74.69c.89-8.911,8.314-15.63,17.27-15.63h35.967c8.956,0,16.38,6.719,17.27,15.63l7.47,74.69h3.362l-7.503-75.023Z"/>
        <rect class="cls-16" height="5.313" width="82.326" x="345.563" y="240.208"/>
      </g>
      <g id="Starter">
        <path class="cls-12" d="M408.44,300.663l5.221-4.083,4.955,5.905c-1.139,2.392-2.392,6.835-.684,9.227l-6.607-.266-4.557-5.924,1.671-4.861Z"/>
        <path class="cls-15" d="M400.238,305.828l2.772-2.202,.57-.076,18.835,31.29,.076,.74-1.823,1.994s-3.678,1.953-9.98-7.846c-1.354-2.106-2.372-4.402-3.11-6.794-.73-2.368-2.054-5.9-4.169-9.055-3.588-5.354-3.152-6.588-3.171-8.05Z"/>
        <path class="cls-14" d="M408.229,302.42s.059,4.926,4.312,5.99l.456-1.367,6.38,.608-.152,2.886,.759,1.215s.911,9.569,.608,15.949c0,0,2.734,4.253,1.823,7.139,0,0-5.62-.304-9.873-10.329-4.253-10.025-5.316-12-8.05-16.253,0,0-1.367-2.886-.911-4.709,0,0,3.19-2.582,4.861-2.886l-.211,1.757Z"/>
        <path class="cls-16" d="M427.275,86.646l2.43,.911,2.696,2.24-.114,3.38s.228,4.709-2.62,9.152l-4.823-6.114,2.43-9.569Z"/>
        <path class="cls-5" d="M446.413,162.744h0c-8.506-10.936-15.645-29.467-15.645-29.467-1.95-2.674-5.187-4.98-8.505-6.829-2.11-1.176-4.252-2.166-6.117-2.948-3.198-1.341-5.58-2.071-5.58-2.071l-6.076,5.468c-12.151-3.038-18.075-11.24-18.075-11.24,0,0-2.671-.391-6.534-.211-7.631,.355-19.915,2.937-25.467,15.151,0,0-2.175,23.033-.96,43.083,0,0-18.227,12.151-19.442,37.062,0,0,15.417-15.037,47.39-17.012,31.974-1.975,45.416,4.633,45.416,4.633-.228-5.696-7.291-15.949-7.291-15.949l8.741-2.364-1.298,5.14h37.973l2.582-11.357c-13.519-7.595-21.113-11.088-21.113-11.088Z"/>
        <path class="cls-14" d="M347.531,181.731s-11.62,12.531-13.518,29.012c.532-23.543,19.442-37.062,19.442-37.062-4.156-16.294,.96-43.083,.96-43.083,.96,40.762,13.622,52.196,13.622,52.196,0,0,34.176,4.709,60.757-2.886l.443-2.053,2.443-11.313-6.835,2.81-3.016,.339c-2.405,.271-4.819,.349-7.236,.223-12.749-.664-31.974-3.828-31.974-3.828l-6.683,2.126,4.557-4.253-4.557-18.835,9.114,17.62c6.427,2.066,26.724,4.661,36.267,5.807l-.724-17.958,4.405,16.404,8.506-2.582,7.139,3.342,5.772-5.012-1.709,3.949s20.681,5.75,22.822,7.139l16.82,11.357h-62.084s3.949,6.718,4.557,13.173"/>
        <path class="cls-7" d="M427.73,95.304s1.835,3.847,2.506,8.278c-3.088,6.177-4.899,7.063-4.899,7.063,0,0-1.252,9.576-3.074,15.803,0,0-3.796-1.969-6.117-2.948,0,0-1.517,15.739-6.187,24.966,0,0,1.367-19.708,.608-27.037v-2.582l17.164-23.543Z"/>
        <path class="cls-12" d="M410.566,118.847s2.332,.514,5.823,.245c3.088-3.088,4.354-6.017,5.569-7.992s2.582-6.531,2.886-9.417c.304-2.886,2.43-4.253,2.43-4.253l.456-2.127c-3.076-8.012-22.48-6.076-22.48-6.076,0,0-3.797,22.176-18.835,26.429,0,0,6.987,9.569,18.075,11.24,0,0,4.101-2.886,6.076-5.468,0,0-.152-1.519,0-2.582Z"/>
        <path class="cls-11" d="M420.781,102.5l-.19,7.538h-5.164l5.316,2.354v-1.747l-4.354,8.448s7.088-6.397,8.455-17.409l-4.063,.816Z"/>
        <path class="cls-11" d="M410.566,118.847s-2.354-.759-4.557-2.354l3.241-11.542s4.083,2.534,7.197-1.264l-4.059-5.193,3.569-5.62s7.519-.152,11.772,2.43l-3.569-4.937-11.24,.076-26.505,25.214s8.962,10.329,18.075,11.24c0,0,4.405-2.506,6.076-5.468v-2.582Z"/>
        <path class="cls-7" d="M415.883,89.988s-2.848,5.924-6.493,12.455c-3.645,6.531-9.062,25.102-9.797,31.898-.911,8.43-.418,16.86-.418,16.86,0,0-1.215-6.835-1.671-24.455,0,0-2.734,11.24-3.342,18.683,0,0-8.81-15.189-7.747-29.771,0,0-3.044-.375-6.534-.211,0,0,9.268-4.65,11.243-8.447s5.924-15.645,5.924-15.645l18.835-1.367Z"/>
        <path class="cls-17" d="M395.833,97.431s10.253-7.481,25.29-5.81c0,0,4.215,.57,6.607,3.683,0,0,2.43-8.81-.152-12.911l.911-2.43s-7.747-13.67-14.886-16.556l-.911-1.671s-3.645-.911-6.076,0l-.608,1.519s-5.468,1.671-7.443,4.405l-.456,2.127,.911,1.823s-4.557,10.329-4.709,17.012l-1.367,1.519,2.886,7.291Z"/>
        <path class="cls-4" d="M396.744,82.393s4.709-.759,5.468,8.202c.759,8.962-4.253,12.607-8.202,10.633l2.734-18.835Z"/>
        <path class="cls-19" d="M405.858,72.52s26.202-5.164,24.493,15.797l1.481,2.278s4.709-18.683-12.303-19.898c-17.012-1.215-13.67,1.823-13.67,1.823Z"/>
        <path class="cls-16" d="M419.073,69.178c-17.316-3.304-20.999,4.975-22.632,7.443-1.185,1.792-2.283,4.367-2.799,5.653-2.08,.418-2.821,1.942-2.821,1.942l-1.215,.304c-1.671,.759-1.975,4.709-1.975,4.709-1.367,12.759,6.379,12,6.379,12,0,0,3.19,1.367,5.621-6.076,1.578-4.833,.403-8.566-.615-10.597l.463-2.162s3.038-15.645,22.48-10.784c0,0,11.696,1.823,9.873,18.987l.456,2.582s6.286-20.279-13.215-23.999Z"/>
        <path class="cls-19" d="M420.895,105.12c.496,2.203,2.811,2.883,5.579,1.444,3.318-1.725,4.208-5.049,4.208-5.049l.451-.09-.09-1.473s-4.989-.421-9.407,.721c0,0-1.172-.451-2.074-.331,0,0-2.795-2.585-10.67-2.465l-.391,1.202,.391,.331s-2.104,4.148,.391,5.981,6.778,1.12,8.252-1.098l1.652-2.364s.256-.541,.997-.342,.598,.911,.598,.911c0,0-.142,1.481,.114,2.62Z"/>
        <path class="cls-13" d="M410.09,99.036s5.249-.359,8.26,2.376c0,0-1.606,3.643-4.451,4.306s-5.172-1.078-4.896-3.122c.276-2.044,1.088-3.559,1.088-3.559Z"/>
        <path class="cls-13" d="M421.563,101.929s-1.081,3.954,1.422,4.722c2.197,.674,5.12-1.621,6.145-3.129,1.024-1.508,.711-2.276,.711-2.276,0,0-3.727-.654-8.278,.683Z"/>
        <path class="cls-12" d="M438.227,170.571l1.755,2.199s1.175,1.28,2.455,.105l-3.257-4.826-5.641-2.341-1.859,.833-2.443,11.313,3.197,2.642s1.662,1.615,2.929,.568c1.682,1.76,3.212,.213,3.212,.213l-3.677-5.729,2.609,2.771c2.093,2.534,3.396,.75,3.396,.75l-1.827-2.787-2.336-3.119-3.291-3.184,2.386-.288,2.392,.879Z"/>
        <path class="cls-4" d="M334.012,210.743s15.417-15.037,47.39-17.012c31.974-1.975,49.745-.152,49.745-.152,0,0,42.834,2.278,54.681,9.797,0,0,2.962,6.607,1.823,14.582,0,0-28.252,19.594-59.238,18.911l-94.401-26.126Z"/>
        <path class="cls-3" d="M334.012,210.743s-1.215,16.48,20.354,26.809c21.569,10.329,53.386,4.288,53.386,4.288,0,0-.528,36.343,.687,58.823l10.177,1.823s23.847-40.707,25.67-81.415c0,0-13.366-12.455-41.922-17.012,0,0-20.885,2.278-32.505,10.025,0,0,9.341-11.392,32.353-13.67,0,0-30.91-10.784-68.2,10.329Z"/>
        <path class="cls-4" d="M407.653,253.728c.031-7.134,.1-11.888,.1-11.888,0,0-15.266,2.898-31.817,1.247,0,0-3.342-11.687,9.417-11.839,12.759-.152,26.885-1.519,34.176-4.101l-5.316,4.405s8.026,3.053,6.987,10.329c-1.215,8.506-13.546,11.848-13.546,11.848Z"/>
        <path class="cls-15" d="M377.583,241.576c-.579-1.602-.315-3.395,.481-4.901,.926-1.75,2.758-3.673,6.27-3.145,6.159,.925,6.286,4.17,13.151,2.436s11.191-2.927,17.252-.327,4.197,7.849,3.22,9.239-6.132,9.209-17.838,4.233c-11.473-4.877-20.552-2.048-22.536-7.534Z"/>
        <path class="cls-16" d="M417.824,239.635c-.355-.734-.984-1.344-1.731-1.857l1.358,6.377c.776-1.48,1.062-3.099,.374-4.521Z"/>
        <path class="cls-16" d="M415.556,237.44c-.559-.327-1.158-.607-1.756-.841l1.893,9.925c.509-.515,.976-1.089,1.367-1.701l-1.504-7.383Z"/>
        <path class="cls-16" d="M409.841,235.518l1.717,13.621,1.605-.754-1.633-12.508c-.988-.251-1.689-.359-1.689-.359Z"/>
        <path class="cls-16" d="M411.991,235.998l1.737,12.084c.503-.297,1.009-.674,1.493-1.108l-1.872-10.545c-.473-.169-.934-.313-1.358-.431Z"/>
        <path class="cls-16" d="M382.998,234.058s-4.405,.608-4.937,4.557c-.532,3.949,2.886,5.468,2.886,5.468l2.051-10.025Z"/>
        <path class="cls-15" d="M383.192,233.442c.36,0,.74,.028,1.143,.089,4.897,.735,5.981,2.937,9.67,2.937,.951,0,2.074-.146,3.481-.501,3.999-1.01,7.138-1.837,10.259-1.837,2.236,0,4.463,.424,6.993,1.509,6.061,2.6,4.197,7.849,3.221,9.239-.746,1.061-3.928,5.871-10.602,5.871-2.067,0-4.469-.461-7.236-1.638-11.473-4.877-20.552-2.048-22.536-7.534-.579-1.602-.315-3.395,.481-4.901,.82-1.549,2.35-3.234,5.127-3.234m0-.836h0c-3.24,0-4.978,2.001-5.866,3.679-.961,1.816-1.154,3.849-.529,5.576,1.279,3.537,5.045,4.07,9.813,4.745,3.661,.518,8.218,1.164,13.182,3.274,2.66,1.131,5.205,1.705,7.563,1.705,3.165,0,7.681-1.065,11.225-6.138l.062-.088c.648-.922,1.683-3.333,.966-5.862-.574-2.023-2.102-3.58-4.541-4.626-2.508-1.076-4.835-1.577-7.323-1.577-3.1,0-6.138,.768-9.985,1.741l-.479,.121c-1.269,.32-2.34,.476-3.277,.476-1.698,0-2.765-.51-4.116-1.156-1.366-.653-2.915-1.394-5.43-1.772-.433-.065-.86-.098-1.267-.098h0Z"/>
        <path class="cls-16" d="M383.681,234.362l-2.127,10.101s1.747,.456,4.025,.684l1.519-10.177s-1.063-.532-3.418-.608Z"/>
        <polygon class="cls-16" points="387.707 235.349 386.34 245.146 389.301 245.602 390.365 236.488 387.707 235.349"/>
        <path class="cls-16" d="M391.276,236.868s1.899,.532,3.038,.38l-.608,9.265-3.645-.759,1.215-8.886Z"/>
        <polygon class="cls-16" points="395.073 237.248 397.276 236.792 397.883 247.729 394.542 246.741 395.073 237.248"/>
        <polygon class="cls-16" points="397.883 236.64 400.466 235.957 402.82 249.551 398.567 247.88 397.883 236.64"/>
        <polygon class="cls-16" points="401.149 235.805 403.883 235.273 406.086 250.159 403.427 249.703 401.149 235.805"/>
        <polygon class="cls-16" points="404.643 235.349 406.845 235.197 408.82 250.007 406.769 250.159 404.643 235.349"/>
        <polygon class="cls-16" points="409.199 235.577 407.529 235.425 409.427 249.855 410.87 249.475 409.199 235.577"/>
      </g>
      <g id="Table_laptop">
        <rect class="cls-16" height="6.38" width="136.151" x="375.488" y="184.921"/>
        <path class="cls-16" d="M460.342,182.437l.196-.578c-.897-.17-1.235-.955-1.093-1.76l4.909-33.289c.149-.854,.891-1.476,1.758-1.476l25.805,4.086c.913,0,1.606,.825,1.448,1.725l-5.393,30.102c-.123,.705-.735,1.219-1.451,1.218l-.81-.003s0,.002,0,1.364c-.001,1.364-1.365,1.363-1.365,1.363l-48.604-.034c-.714,0-1.292-.58-1.291-1.293v-.339s.001-1.097,.001-1.097l25.891,.01Z"/>
        <path class="cls-16" d="M494.056,319.956c-4.373,0-7.947,3.266-8.51,7.485-7.212-5.602-10.116-17.639-19.668-20.73-3.127-1.012-6.081-1.051-8.698-.624v-3.094h-3.5v-7.736h.276c.916,0,1.658-.742,1.658-1.658s-.742-1.658-1.658-1.658h-1.195v-3.909h-.769l.583-14.877c.916,0,1.657-.742,1.657-1.658s-.742-1.658-1.657-1.658h-.921v-1.51c.532-.177,.921-.662,.921-1.253,0-.738-.599-1.337-1.337-1.337h-.971l-1.151-54.466c.63-.004,1.141-.514,1.141-1.146s-.514-1.147-1.147-1.147h-1.491l.135-14.017h3.657v-1.52h3.293v-3.361h-18.07v3.361h3.293v1.52h3.683l.27,14.017h-1.652c-.634,0-1.147,.514-1.147,1.147s.51,1.142,1.141,1.146l-1.151,54.466h-.971c-.739,0-1.337,.599-1.337,1.337,0,.591,.39,1.076,.921,1.253v1.51h-.921c-.915,0-1.657,.742-1.657,1.658s.742,1.658,1.657,1.658l.584,14.877h-.769v3.909h-1.196c-.915,0-1.657,.742-1.657,1.658s.742,1.658,1.657,1.658h.276v7.736h-3.499v3.094c-2.617-.427-5.571-.388-8.698,.624-9.552,3.09-12.456,15.128-19.668,20.73-.563-4.219-4.137-7.485-8.51-7.485-4.763,0-8.625,3.861-8.625,8.624,0,4.13,2.908,7.573,6.784,8.417v1.002h11.603v-1.604c3.841-1.332,8.21-4.135,11.946-9.91,2.338-3.615,5.78-6.463,9.961-7.488,3.187-.781,6.195-.788,8.705-.497v6.594h2.579v1.289h10.867v-1.289h2.578v-6.593c2.51-.291,5.518-.284,8.705,.497,4.182,1.025,7.623,3.873,9.962,7.488,3.736,5.775,8.105,8.578,11.946,9.91v1.604h11.603v-1.002c3.876-.844,6.784-4.287,6.784-8.417,0-4.763-3.862-8.624-8.625-8.624Z"/>
      </g>
    </g>
    <path class="cls-17" d="M192.138,227.29l-2.771,6.926,2.869,12.071,3.661,25.079-1.902,2.378c-1.268,9.669,.951,34.871,.951,34.871l1.302-.018,.263,1.574c-.926,2.506-.781,5.829-.781,5.829h12.805s10.401,0,10.401,0h12.805l.006-1.449c-5.491-2.555-13.913-5.454-13.913-5.454l-.086-1.179,1.132-.096s2.695-23.3,6.974-38.358c4.28-15.058,8.559-28.055,8.559-28.055l1.286-.594s8.224-14.306-.978-39.555l5.074-4.022,1.022-.128,4.98-1.627,4.321-.055,.144-2.056,.693-.173,.099-1.781-.495-.792,.495-.594-.198-1.583,.693-.297,.099-1.583-.89-.267,.547-7.794,.693-.099v-1.484s-9.237-.364-9.237-.364l-2.772-5.662-.889,.435,2.537,5.183-2.205-.087-.099,1.88h.594s.297,7.124,.297,7.124c0,0-.594,.099-1.286,.891-.693,.792-.911,2.761-2.87,5.046l-4.676,1.472c-4.231-10.641-8.385-19.315-8.385-19.315l2.078-2.968-4.228-2.914,.963-1.011s2.771,.198,4.552-.495c0,0,1.781-4.848,2.671-6.431l1.187-.396-.495-12.764s1.88-.099,4.453-.792c0,0-6.332-6.827-15.535-7.916,0,0-6.135,.495-12.962,7.223,0,0,2.621,8.207,2.233,13.668l1.779,1.226h0l-1.779-1.226-2.365-1.63-2.111,1.583-.528,3.166-1.583-.792-5.013,5.805,.528,8.443,2.903,.792-11.874,28.233,6.332,6.596c0,10.818-2.078,16.359-2.078,16.359Zm12.805,80.615l1.575-.241c.493-2.021,1.012-4.039,1.545-6.045l-.435,7.155,1.436-.121,.254,1.519c-.05,.136-.096,.276-.14,.417-2.406-.89-4.147-1.49-4.147-1.49l-.087-1.192Z"/>
  </g>
</svg>
