<?xml version="1.0" encoding="UTF-8" standalone="no"?>
<svg xmlns="http://www.w3.org/2000/svg" id="Laag_1" viewBox="0 0 1920 1080">
  <defs>
    <style>.cls-1,.cls-2{opacity:.2;}.cls-1,.cls-2,.cls-3,.cls-4,.cls-5,.cls-6,.cls-7,.cls-8,.cls-9,.cls-10,.cls-11,.cls-12,.cls-13,.cls-14,.cls-15,.cls-16,.cls-17,.cls-18,.cls-19,.cls-20,.cls-21,.cls-22,.cls-23,.cls-24,.cls-25,.cls-26,.cls-27,.cls-28,.cls-29{stroke-width:0px;}.cls-1,.cls-4{fill:#283242;}.cls-2{fill:#80774d;}.cls-3{fill:#5da08f;}.cls-5{fill:#965e4a;}.cls-6{fill:#377f8d;}.cls-7{fill:#357262;}.cls-8{fill:#1f4f41;}.cls-9{fill:#ddd;}.cls-10{fill:#e0b580;}.cls-11{fill:#dba756;}.cls-12{fill:#e0eff3;}.cls-13{fill:#c19b80;}.cls-14{fill:#c1915d;}.cls-15{fill:#b2804f;}.cls-16{fill:#aaa;}.cls-17{fill:#cfac8a;}.cls-18{fill:#cde4ec;}.cls-19{fill:#9f4180;}.cls-20{fill:#a24184;}.cls-21{fill:#913477;}.cls-22{fill:#009c7a;}.cls-23{fill:#80aab7;}.cls-24{fill:#fff;}.cls-25{fill:#00526e;}.cls-26{fill:#003e53;}.cls-27{fill:#04526e;}.cls-28{fill:#037db6;}.cls-29{fill:#00719e;}</style>
  </defs>
  <rect class="cls-18" height="1080" width="274" x="1646"/>
  <path class="cls-18" d="M1586.149,678.629l-14.831-5.721-43.249-36.156c-3.087-10.927-.014-26.778-.014-26.778l-7.542-38.81c-35.31-7.841-32.758,28.131-32.758,28.131,1.988,20.606,7.306,50.223,7.306,50.223-13.624,14.574-13.039,39.956-13.039,39.956-.916,1.091-1.782,2.175-2.604,3.248l-126.24,31.328c-58.44-111.567-84.94-232.073-84.969-232.162v-.007c-46.083-15.922-146.619-74.563-146.619-74.563-21.671-13.546-38.408-31.466-44.03-37.838-.035-5.816-.11-11.842-.234-18.057,9.801.057,20.654-1.158,30.595-5.134,43.83-82.513,39.845-149.918,39.845-149.918l-12.143-40.502,12.143-25.906-2.38-15.473c8.098-11.844,25.408-37.708,30.937-50.272L1158.746,0l-293.466.985c-8.85.619-19.9,2.21-32.119,5.811l-5.026,50.267-10.054,5.027s.366,50.041,25.655,97.52c-5.193,8.015-7.198,20.903-4.465,34.76,3.491,17.689,13.504,31.029,24.016,33.629,2.678,2.678,5.491,4.842,8.405,6.356,4.545,23.426,15.585,58.729,42.163,90.295-.013.169-.023.34-.035.508l-20.106,36.023-14.243-.835-31.837,35.185-91.577,28.97c-.804-16.417-5.337-35.314-5.337-35.314,9.302-.664,22.592-9.302,22.592-9.302-9.968-5.316-16.612-20.598-16.612-20.598,19.27-25.914,13.289-75.084,13.289-75.084-24.619-16.741-61.639-25.089-79.164-28.29.909-1.431,1.423-2.275,1.423-2.275l-9.302-9.967,1.329-7.309-11.199-9.955c.942-2.277,1.802-4.5,2.562-6.656,0,0-21.264-57.808-52.492-73.09l-6.645,2.658h0c-.007-.006-5.807-5.354-13.872-8.869l-4.286,2.496,5.617,3.494-5.619-3.494-8.418-16.219s-132.148-32.642-202.88,68.218c0,0,5.736,20.57,19.906,41.114-.275.911-.416,1.411-.416,1.411l6.824,28.58s-5.175,26.728-18.803,48.95c-2.37,3.865-1.191,9.128,2.626,11.136l11.097,5.838s12.442,27.812,27.848,64.634c0,0,12.68,2.238,33.261,1.526-15.09,3.079-31.822,3.769-50.109,2.071-.757-.924-1.772-1.651-3.024-1.901l-23.118-4.609c-2.877-.576-5.696,1.308-6.269,4.185-.575,2.877,1.311,5.697,4.183,6.271l23.117,4.609c2.187.436,4.331-.555,5.492-2.317,26.552,2.357,49.998-.195,70.075-7.678,2.596,4.425,4.21,8.984,5.614,13.376,2.111,6.605,3.385,13.151,4.019,19.542-21.164,6.844-37.875,12.44-37.569,12.948.829,1.372,7.765,47.709,7.765,47.709l10.908-4.676s2.485,8.696-.828,21.359c0,0-.002.005-.002.005l-.006.008-43.975,47.604-2.491,18.311c-12.447,29.3-86.3,107.127-86.3,107.127,2.042,18.69,6.556,35.553,11.544,49.576-3.706-2.418-5.737-3.797-5.737-3.797,0,0-10.804-12.742-18.257-20.143-8.298-8.24-30.859-14.707-51.449-1.831-12.239,5.666-15.02,4.828-34.023,3.949,0,0-15.352-.286-14.159,14.249,0,0-.362,6.753,12.341,4.608,11.079-1.871,19.373,1.446,19.373,1.446l-21.267,9.644-11.071-10.929-4.662-17.359s8.74-12.858-.582-21.859l-8.741,14.144s8.158-18.001-6.408-22.502l-8.741,32.788,3.497,18.644-8.741-7.072-4.661-11.573s-2.913-11.572-15.732-9l9.906,33.431s-12.236-4.822-18.354,5.465l29.717,17.68,24.764,10.286,17.868-3.429,20.2,5.143s39.373-20.113,59.492-13.575c17.472,15.398,34.094,29.787,49.805,43.178-1.122,7.674-1.969,15.225-2.591,22.658l-53.666-5.747s-.573.034-18.693-5.884c-12.638-4.127-16.406-14.328-48.824-5.172l-19.96,2.442-22.563,1.326s.353,19.233,16.084,19.367l9.088-.428-4.365,22.79-7.565,6.157-2.307-4.096.911-8.94c1.028-14.448-9.512-18.272-9.512-18.272l-6.126,24.058,5.031,16.843-7.664,8.067s-11.665.685-12.621.741c-16.694.981-20.541,11.236-20.541,11.236,0,0,12.169,4.559,21.732,4.656,9.564.097,22.043-1.295,22.043-1.295l9.215-7.134,4.861,1.692,10.032-2.567,9.628,1.412,11.225-2.637,6.148,3.594s20.336-1.658,28.311-7.596c1.201-.895,4.046-3.419,7.356-6.703l1.069-1.32c3.733-3.799,7.605-8.155,9.062-11.187,13.204,3.959,41.646,12.215,61.638,18,2.41,59.318,14.6,110.26,10.731,154.629-1.386,15.948-1.086,31.477.139,46.068h285.363c-1.576-3.83-3.279-7.76-5.12-11.807-5.52-12.139-12.272-25.326-20.54-40.018-15.387-27.352-28.188-55.096-36.483-83.532l117.655,25.118.969.202-7.607,110.037h514.032l-16.695-81.522,268.077-112.241c-7.317-5.878-14.508-11.72-21.594-17.529,7.053-3.413,14.127-6.914,21.208-10.514,25.621-25.214,34.43-65.616,37.41-93.152l2.86-.725,3.27-8.474,13.613.992,15.709-17.062c2.422-17.32,8.544-25.302,8.544-25.302l13.854,3.519s14.634-1.656,18.479-14.777c3.845-13.12-6.944-24.585-6.944-24.585ZM683.426,447.478s-17.52,34.451-37.578,80.568c-29.055-50.74-63.312-69.377-63.312-69.377,0,0,0-.003,0-.003-2.874-6.15-2.902-14.951-2.902-14.951l7.883-3.204-1.175-12.634-2.142-23.076s-2.689.839-7.259,2.27c.043-.446.085-.903.13-1.342,1.728-17.271,5.211-27.167,5.211-27.167.833-3.884,1.855-7.64,3.022-11.294.623.165,10.62,2.778,31.197,6.636,0,0-16.611-13.289-20.599-28.572,0,0,18.927-23.509,38.78-52.527l7.067,2.693,5.315-4.651,12.625,2.658c1.416-.944,2.882-2.116,4.37-3.445,6.806,23.982,6.261,75.206,6.261,75.206,14.618-5.98,17.94-12.625,17.94-12.625,0,13.954-21.263,59.801-21.263,59.801,18.851,9.603,42.838,16.54,61.065,20.914l-44.638,14.121ZM883.012,236.793c.692-.054,1.393.082,2.086-.054,2.447-.483,4.722-1.465,6.807-2.868,3.612,1.852,7.398,2.18,11.248.47,0,0,.129.542.375,1.519,1.812,7.483,9.657,41.431,10.6,72.177-18.43-25.23-27.087-51.785-31.115-71.246Z"/>
  <rect class="cls-23" height="1080" width="551.768" x="1126.896"/>
  <path class="cls-6" d="M1597.747,378.534h57.637l-47.169-70.792,43.561-55.635h-55.638l-38.539,53.339v-53.339h-50.577v126.418l50.503.008v-44.746c0-1.092.009-4.28.83-5.715,1.284-2.246,4.224-3.062,6.345-1.782.942.569,1.689,1.538,2.802,3.319l30.244,48.924Z"/>
  <polygon class="cls-6" points="1343.111 252.114 1396.425 252.113 1418.346 322.612 1418.513 322.612 1418.686 322.612 1440.798 252.104 1491.94 252.104 1445.027 378.517 1387.922 378.517 1343.111 252.114"/>
  <path class="cls-6" d="M1281.348,378.539h57.637l-47.169-70.792,43.561-55.635h-55.638l-38.539,53.339v-53.339h-50.577v126.418l50.503.008v-44.746c0-1.092.009-4.28.83-5.715,1.284-2.246,4.224-3.062,6.345-1.782.942.569,1.689,1.538,2.802,3.319l30.244,48.924Z"/>
  <rect class="cls-6" height="1080" width="13.623" x="1377.29"/>
  <rect class="cls-6" height="1080" width="13.623" x="1352.251"/>
  <rect class="cls-6" height="1080" width="13.623" x="1327.212"/>
  <rect class="cls-6" height="1080" width="13.623" x="1302.172"/>
  <rect class="cls-6" height="1080" width="13.623" x="1277.133"/>
  <rect class="cls-6" height="1080" width="13.623" x="1252.093"/>
  <rect class="cls-6" height="1080" width="13.623" x="1227.054"/>
  <rect class="cls-6" height="1080" width="13.623" x="1202.014"/>
  <rect class="cls-6" height="1080" width="13.623" x="1176.975"/>
  <rect class="cls-6" height="1080" width="13.623" x="1151.935"/>
  <rect class="cls-6" height="1080" width="13.623" x="1126.896"/>
  <rect class="cls-6" height="1080" width="13.623" x="1602.646"/>
  <rect class="cls-6" height="1080" width="13.623" x="1577.606"/>
  <rect class="cls-6" height="1080" width="13.623" x="1552.567"/>
  <rect class="cls-6" height="1080" width="13.623" x="1527.527"/>
  <rect class="cls-6" height="1080" width="13.623" x="1502.488"/>
  <rect class="cls-6" height="1080" width="13.623" x="1477.448"/>
  <rect class="cls-6" height="1080" width="13.623" x="1452.409"/>
  <rect class="cls-6" height="1080" width="13.623" x="1427.369"/>
  <rect class="cls-6" height="1080" width="13.623" x="1402.33"/>
  <rect class="cls-6" height="1080" width="13.623" x="1652.725"/>
  <rect class="cls-6" height="1080" width="13.623" x="1627.685"/>
  <rect class="cls-18" height="1080" width="13.623" x="1370.479"/>
  <rect class="cls-18" height="1080" width="13.623" x="1345.44"/>
  <rect class="cls-18" height="1080" width="13.623" x="1320.4"/>
  <rect class="cls-18" height="1080" width="13.623" x="1295.361"/>
  <rect class="cls-18" height="1080" width="13.623" x="1270.321"/>
  <rect class="cls-18" height="1080" width="13.623" x="1245.282"/>
  <rect class="cls-18" height="1080" width="13.623" x="1220.242"/>
  <rect class="cls-18" height="1080" width="13.623" x="1195.203"/>
  <rect class="cls-18" height="1080" width="13.623" x="1170.163"/>
  <rect class="cls-18" height="1080" width="13.623" x="1145.124"/>
  <rect class="cls-18" height="1080" width="13.623" x="1120.084"/>
  <rect class="cls-18" height="1080" width="13.623" x="1595.835"/>
  <rect class="cls-18" height="1080" width="13.623" x="1570.795"/>
  <rect class="cls-18" height="1080" width="13.623" x="1545.756"/>
  <rect class="cls-18" height="1080" width="13.623" x="1520.716"/>
  <rect class="cls-18" height="1080" width="13.623" x="1495.677"/>
  <rect class="cls-18" height="1080" width="13.623" x="1470.637"/>
  <rect class="cls-18" height="1080" width="13.623" x="1445.598"/>
  <rect class="cls-18" height="1080" width="13.623" x="1420.558"/>
  <rect class="cls-18" height="1080" width="13.623" x="1395.519"/>
  <rect class="cls-18" height="1080" width="13.623" x="1670.953"/>
  <rect class="cls-18" height="1080" width="13.623" x="1645.913"/>
  <rect class="cls-18" height="1080" width="13.623" x="1620.874"/>
  <path class="cls-24" d="M1585.72,372.627h57.637l-47.169-70.792,43.561-55.635h-55.638l-38.539,53.339v-53.339h-50.577v126.418l50.503.008v-44.746c0-1.092.009-4.28.83-5.715,1.284-2.246,4.224-3.062,6.345-1.782.942.569,1.689,1.538,2.802,3.319l30.244,48.924Z"/>
  <polygon class="cls-24" points="1331.083 246.207 1384.398 246.207 1406.319 316.705 1406.486 316.705 1406.659 316.705 1428.771 246.197 1479.913 246.197 1432.999 372.61 1375.895 372.61 1331.083 246.207"/>
  <path class="cls-24" d="M1269.321,372.632h57.637l-47.169-70.792,43.561-55.635h-55.638l-38.539,53.339v-53.339h-50.577v126.418l50.503.008v-44.746c0-1.092.009-4.28.83-5.715,1.284-2.246,4.224-3.062,6.345-1.782.942.569,1.689,1.538,2.802,3.319l30.244,48.924Z"/>
  <path class="cls-8" d="M1791.511,1027.228l.039-2.738c-2.483-27.43.806-54.759.806-54.759l.041-2.738c-2.483-27.43.806-54.759.806-54.759l.041-2.738c-2.483-27.43.806-54.759.806-54.759l.041-2.738c-2.485-27.43.806-54.759.806-54.759l.039-2.738c-2.483-27.43.808-54.759.808-54.759l.039-2.738c-1.092-12.068-1.067-24.111-.696-33.821,1.154-11.603,2.52-19.455,2.52-19.455l.199-2.822c-.886-28.419,3.99-56.443,3.99-56.443l.199-2.822c-.884-28.419,3.99-56.443,3.99-56.443l.2-2.822c-.886-28.419,3.989-56.443,3.989-56.443l.2-2.822c-.886-28.419,3.99-56.443,3.99-56.443l.199-2.822c-.886-28.419,3.99-56.443,3.99-56.443l.199-2.822c-.886-28.419,3.99-56.443,3.99-56.443l.2-2.822c-.886-28.419,5.768-73.03,5.768-73.03l-11.522-.79s-.171,8.609-.77,20.64l-5.853-.435c.3-1.986.516-3.047.516-3.047l-9.257-.406c.772-7.842,1.702-12.188,1.702-12.188l-7.615-.402c.34-6.588.631-10.767.631-10.767l-11.548-.213.364,9.315-11.541-.468s.194,3.23.298,8.578l-9.978-.268s.22,2.973.397,7.931l-5.478-.101c.499-13.072,1.164-22.63,1.164-22.63l-11.548-.213s.196,3.501.408,9.147l-7.079-.018s.048.997.12,2.75l-6.259.12c.226-3.152.409-4.961.409-4.961l-11.551.004s.529,5.144.916,13.225l-4.635.075c.195-3.865.386-6.117.386-6.117l-11.549.188s3.388,28.24,1.001,56.573l.051,2.829s3.388,28.24,1.001,56.573l.051,2.829s3.388,28.24,1.002,56.573l.049,2.829s3.388,28.24,1.002,56.573l.049,2.829s3.388,28.24,1.002,56.573l.049,2.829s3.388,28.24,1.002,56.573l.049,2.829s3.388,28.24,1.002,56.573l.049,2.829s3.389,28.24,1.002,56.573l.051,2.829s3.388,28.24,1.001,56.573l.051,2.829s3.388,28.24,1.002,56.573l.049,2.829s3.388,28.24,1.002,56.573l.049,2.829s3.388,28.24,1.002,56.573l.049,2.829s3.388,28.24,1.002,56.573l.049,2.829"/>
  <path class="cls-7" d="M1731.928,1066.444l.265-2.875c-.229-29.019,5.293-57.508,5.293-57.508l.265-2.875c-.229-29.019,5.293-57.508,5.293-57.508l.265-2.875c-.229-29.019,5.293-57.508,5.293-57.508l.265-2.875c-.229-29.019,5.293-57.508,5.293-57.508l.265-2.875c-.229-29.019,5.293-57.508,5.293-57.508l.265-2.875c-.229-29.019,5.293-57.508,5.293-57.508l.265-2.875c-.229-29.019,5.293-57.508,5.293-57.508l.265-2.875c2.922-28.861,5.293-57.508,5.293-57.508l.265-2.875c-.229-29.019,5.293-57.508,5.293-57.508l.265-2.875c-.229-29.019,5.293-57.508,5.293-57.508l.265-2.875c-.229-29.019,5.293-57.508,5.293-57.508l.265-2.875c-.229-29.019,5.293-57.508,5.293-57.508l.265-2.875c-.229-29.019,5.293-57.508,5.293-57.508l.265-2.875c-.229-29.019,7.454-74.394,7.454-74.394l-11.502-1.059s-1.932,45.905-7.454,74.394l-.265,2.875s.229,29.019-5.293,57.508l-.265,2.875s.229,29.019-5.293,57.508l-.265,2.875s.229,29.019-5.293,57.508l-.265,2.875s.229,29.019-5.293,57.508l-.265,2.875s.229,29.019-5.293,57.508l-.265,2.875s.229,29.019-5.293,57.508l-.265,2.875s.229,29.019-5.293,57.508l-.265,2.875s.229,29.019-5.293,57.508l-.265,2.875s.229,29.019-5.293,57.508l-.265,2.875s.229,29.019-5.293,57.508l-.265,2.875s.229,29.019-5.293,57.508l-.265,2.875s.229,29.019-5.293,57.508l-.265,2.875s.229,29.019-5.293,57.508l-.265,2.875"/>
  <path class="cls-7" d="M1695.127,878.023s14.528-9.897,45.12,3.787c0,0-25.159,6.781-45.12-3.787Z"/>
  <path class="cls-7" d="M1832.856,326.949c-24.899-20.09-35.905-8.557-35.905-8.557,0,0,5.09,16.794,35.905,8.557Z"/>
  <path class="cls-7" d="M1800.5,282.626s9.794-14.829,47.457-9.933c0,0-31.35,18.062-47.457,9.933Z"/>
  <path class="cls-7" d="M1801.651,282.645s13.965-3.663,35.256,20.605c0,0-21.749-3.251-35.256-20.605Z"/>
  <path class="cls-7" d="M1650.644,460.362c15.738-14.661,17.462-35.948,17.462-35.948-19.204,19.35-18.899,32.114-18.34,35.617-1.278-2.598-3.717-12.389-12.62-16.782-11.58-5.714-22.202-9.494-22.202-9.494,17.219,26.748,30.592,27.952,34.326,27.684,5.762,11.876,11.149,21.828,15.995,30.122-6.353-3.387-14.577-3.474-17.989-3.374-.743-1.984-1.463-8.898-6.884-13.44-7.13-5.975-15.032-13.488-15.032-13.488,1.482,22.601,14.844,26.927,20.118,27.754-1.779.921-5.009,3.078-6.672,7.323-2.359,6.021,2.195,18.891,2.195,18.891,0,0,5.45-6.912,6.535-14.827.589-4.297-.301-9.367-.456-10.61,3.324.033,14.404.588,21.075,6.644,11.909,19.655,19.84,28.228,20.35,28.724l.365.257c17.719,8.785,32.582,11.585,33.404,11.67l4.94-3.57c-.195-.018-19.662-2.121-36.849-10.581-1.155-1.174-8.704-9.128-19.39-25.854-.282-1.725-2.133-13.947,1.993-28.692,1.974,1.109,6.796,3.276,13.082,2.339,8.295-1.234,19.707-12.921,19.707-12.921,0,0-13.865,1.223-23.442,4.747-3.655,1.345-6.018,2.424-7.552,3.245,0,0,3.217-4.136,3.946-11.83,1.217-12.856-.649-17.859-.649-17.859-11.69,17.535-6.549,31.301-6.549,31.301-3.146,9.447-4.165,18.235-4.296,23.612-5.07-8.371-10.678-18.493-16.571-30.656Z"/>
  <path class="cls-7" d="M1820.83,519.801c2.744.363,4.412,2.07,14.359.08,11.8-2.36,18.88-11.014,18.88-11.014-20.454-1.573-30.03,4.302-33.106,8.447.547-10.455.94-21.326,1.132-32.681,4.677-3.277,20.961-4.086,20.735-41.105,0,0-18.281,17.076-22.108,38.105-.674-5.195-4.508-16.86-23.965-30.482,0,0,2.245,29.397,22.465,32.817-.189,11.628-.605,22.716-1.184,33.357-2.053-3.69-8.367-11.272-24.722-7.891,0,0,6.81,2.414,13.823,7.708,5.124,3.868,9.029,3.186,10.768,2.537-1.401,24.454-3.722,46.363-6.596,65.736-1.385-5.12-4.259-12.494-10.146-20.405,1.438-1.487,3.762-5.069,2.149-11.831-2.245-9.409-1.661-17.305-1.661-17.305-11.453,15.825-5.074,25.893-2.449,28.972-1.667-.782-4.809-1.848-8.761-1.171-5.894,1.01-13.844,9.521-13.844,9.521,0,0,9.864-1.09,16.634-3.753,4.078-1.603,5.864-2.677,6.658-3.285,6.467,7.023,9.086,19.778,10.126,27.672-12.405,76.529-32.795,111.325-33.069,111.828l4.313,5.216c.275-.507,19.939-37.593,31.925-115.75,2.459.719,15.532,3.222,26.092-20.708-16.696,3.648-22.917,10.11-25.212,14.821l.462-3.303c2.74-19.614,4.955-41.667,6.302-66.133Z"/>
  <path class="cls-7" d="M1786.124,1067.331l-.301-2.872c-5.877-28.418-6.01-57.437-6.01-57.437l-.301-2.872c-5.877-28.418-6.01-57.437-6.01-57.437l-.301-2.872c-5.877-28.418-6.01-57.437-6.01-57.437l-.301-2.872c-5.877-28.418-6.01-57.437-6.01-57.437l-.301-2.872c-5.877-28.418-6.01-57.437-6.01-57.437l-.301-2.872c-5.877-28.418-6.01-57.437-6.01-57.437l-.301-2.872c-5.877-28.418-6.01-57.437-6.01-57.437l-.301-2.872c-5.877-28.418-6.01-57.437-6.01-57.437l-.301-2.872c-5.877-28.418-6.01-57.437-6.01-57.437l-.301-2.872c-5.877-28.418-6.01-57.437-6.01-57.437l-.301-2.872c-5.877-28.418-6.01-57.437-6.01-57.437l-.301-2.872c-5.877-28.418-6.01-57.437-6.01-57.437l-.301-2.872c-5.877-28.418-6.01-57.437-6.01-57.437l-.301-2.872c-5.877-28.418-6.01-57.437-6.01-57.437l-11.487,1.202s5.877,28.418,6.01,57.437l.301,2.872s5.877,28.418,6.01,57.437l.301,2.872s5.877,28.418,6.01,57.437l.301,2.872s5.877,28.418,6.01,57.437l.301,2.872s5.877,28.418,6.01,57.437l.301,2.872s5.877,28.418,6.01,57.437l.301,2.872s5.877,28.418,6.01,57.437l.301,2.872s5.877,28.418,6.01,57.437l.301,2.872s5.877,28.418,6.01,57.437l.301,2.872s5.877,28.418,6.01,57.437l.301,2.872s5.877,28.418,6.01,57.437l.301,2.872s5.877,28.418,6.01,57.437l.301,2.872s5.877,28.418,6.01,57.437l.301,2.872s5.877,28.418,6.01,57.437l.301,2.872"/>
  <path class="cls-7" d="M1751.581,1068.572l-.018-2.887c-3.067-28.857-.359-57.75-.359-57.75l-.018-2.887c-3.067-28.857-.359-57.75-.359-57.75l-.018-2.887c-3.067-28.857-.359-57.75-.359-57.75l-.018-2.887c-3.067-28.857-.359-57.75-.359-57.75l-.018-2.887c-3.067-28.857-.359-57.75-.359-57.75l-.018-2.887c-3.067-28.857-.359-57.75-.359-57.75l-.018-2.887c-3.067-28.857-.359-57.75-.359-57.75l-.018-2.887c-3.067-28.857-.359-57.75-.359-57.75l-.018-2.887c-3.067-28.857-.359-57.75-.359-57.75l-.018-2.887c-3.067-28.857-.359-57.75-.359-57.75l-.018-2.887c-3.067-28.857-.359-57.75-.359-57.75l-.018-2.887c-3.067-28.857-.359-57.75-.359-57.75l-.018-2.887c-3.067-28.857-.359-57.75-.359-57.75l-.018-2.887c-3.067-28.857-.359-47.015-.359-47.015l-11.55.072s3.067,18.122.359,47.015l.018,2.887s3.067,28.857.359,57.75l.018,2.887s3.067,28.857.359,57.75l.018,2.887s3.067,28.857.359,57.75l.018,2.887s3.067,28.857.359,57.75l.018,2.887s3.067,28.857.359,57.75l.018,2.887s3.067,28.857.359,57.75l.018,2.887s3.067,28.857.359,57.75l.018,2.887s3.067,28.857.359,57.75l.018,2.887s3.067,28.857.359,57.75l.018,2.887s3.067,28.857.359,57.75l.018,2.887s3.067,28.857.359,57.75l.018,2.887s3.067,28.857.359,57.75l.018,2.887s3.067,28.857.359,57.75l.018,2.887"/>
  <path class="cls-7" d="M1771.994,1070.743l.065-2.887c-2.236-28.933,1.302-57.736,1.302-57.736l.065-2.887c-2.236-28.933,1.302-57.736,1.302-57.736l.065-2.887c-2.236-28.933,1.302-57.736,1.302-57.736l.065-2.887c-2.236-28.933,1.302-57.736,1.302-57.736l.065-2.887c-2.236-28.933,1.302-57.736,1.302-57.736l.065-2.887c-2.236-28.933,1.302-57.736,1.302-57.736l.065-2.887c-2.236-28.933,1.302-57.736,1.302-57.736l.065-2.887c-2.236-28.933,1.302-57.736,1.302-57.736l.065-2.887c-2.236-28.933,1.302-57.736,1.302-57.736l.065-2.887c-2.236-28.933,1.302-57.736,1.302-57.736l.065-2.887c-2.236-28.933,1.302-57.736,1.302-57.736l.065-2.887c-2.236-28.933,1.302-57.736,1.302-57.736l.065-2.887c-2.236-28.933,1.302-57.736,1.302-57.736l.065-2.887c-2.236-28.933,1.302-57.736,1.302-57.736l-11.547-.26s2.236,28.933-1.302,57.736l-.065,2.887s2.236,28.933-1.302,57.736l-.065,2.887s2.236,28.933-1.302,57.736l-.065,2.887s2.236,28.933-1.302,57.736l-.065,2.887s2.236,28.933-1.302,57.736l-.065,2.887s2.236,28.933-1.302,57.736l-.065,2.887s2.236,28.933-1.302,57.736l-.065,2.887s2.236,28.933-1.302,57.736l-.065,2.887s2.236,28.933-1.302,57.736l-.065,2.887s2.236,28.933-1.302,57.736l-.065,2.887s2.236,28.933-1.302,57.736l-.065,2.887s2.236,28.933-1.302,57.736l-.065,2.887s2.236,28.933-1.302,57.736l-.065,2.887s2.236,28.933-1.302,57.736l-.065,2.887"/>
  <path class="cls-3" d="M1791.933,347.76s10.138-14.597,47.676-8.821c0,0-31.763,17.325-47.676,8.821Z"/>
  <path class="cls-3" d="M1791.988,348.276s30.449-.887,24.588,30.611c0,0-6.594-10.821-15.384-17.297-8.865-6.531-9.204-13.314-9.204-13.314Z"/>
  <path class="cls-3" d="M1739.773,774.401s-17.737,1.117-36.519-31.894c0,0,33.303,14.14,36.519,31.894Z"/>
  <path class="cls-3" d="M1769.644,278.502h-11.55c2.888-28.876-.537-75.653-.537-75.653h11.55s-2.351,46.777.537,75.653Z"/>
  <path class="cls-3" d="M1769.644,339.141h-11.55c2.888-28.876,0-57.751,0-57.751h11.55s-2.888,28.876,0,57.751Z"/>
  <rect class="cls-22" height="2.888" width="11.55" x="1758.094" y="278.502"/>
  <rect class="cls-22" height="2.888" width="11.55" x="1758.094" y="339.141"/>
  <path class="cls-3" d="M1769.644,399.779h-11.55c2.888-28.876,0-57.751,0-57.751h11.55s-2.888,28.876,0,57.751Z"/>
  <path class="cls-3" d="M1769.644,460.418h-11.55c2.888-28.876,0-57.751,0-57.751h11.55s-2.888,28.876,0,57.751Z"/>
  <rect class="cls-22" height="2.888" width="11.55" x="1758.094" y="399.779"/>
  <rect class="cls-22" height="2.888" width="11.55" x="1758.094" y="460.418"/>
  <path class="cls-3" d="M1769.644,521.056h-11.55c2.888-28.876,0-57.751,0-57.751h11.55s-2.888,28.876,0,57.751Z"/>
  <path class="cls-3" d="M1769.644,581.695h-11.55c2.888-28.876,0-57.751,0-57.751h11.55s-2.888,28.876,0,57.751Z"/>
  <rect class="cls-22" height="2.888" width="11.55" x="1758.094" y="521.056"/>
  <rect class="cls-22" height="2.888" width="11.55" x="1758.094" y="581.695"/>
  <path class="cls-3" d="M1769.644,642.334h-11.55c2.888-28.876,0-57.751,0-57.751h11.55s-2.888,28.876,0,57.751Z"/>
  <rect class="cls-22" height="2.888" width="11.55" x="1758.094" y="642.334"/>
  <path class="cls-3" d="M1769.644,702.972h-11.55c2.888-28.876,0-57.751,0-57.751h11.55s-2.888,28.876,0,57.751Z"/>
  <path class="cls-3" d="M1769.644,763.611h-11.55c2.888-28.876,0-57.751,0-57.751h11.55s-2.888,28.876,0,57.751Z"/>
  <rect class="cls-22" height="2.888" width="11.55" x="1758.094" y="702.972"/>
  <rect class="cls-22" height="2.888" width="11.55" x="1758.094" y="763.611"/>
  <path class="cls-3" d="M1769.644,824.249h-11.55c2.888-28.876,0-57.751,0-57.751h11.55s-2.888,28.876,0,57.751Z"/>
  <path class="cls-3" d="M1769.644,884.888h-11.55c2.888-28.876,0-57.751,0-57.751h11.55s-2.888,28.876,0,57.751Z"/>
  <rect class="cls-22" height="2.888" width="11.55" x="1758.094" y="824.249"/>
  <rect class="cls-22" height="2.888" width="11.55" x="1758.094" y="884.888"/>
  <path class="cls-3" d="M1769.644,945.526h-11.55c2.888-28.876,0-57.751,0-57.751h11.55s-2.888,28.876,0,57.751Z"/>
  <path class="cls-3" d="M1769.644,1006.165h-11.55c2.888-28.876,0-57.751,0-57.751h11.55s-2.888,28.876,0,57.751Z"/>
  <rect class="cls-22" height="2.888" width="11.55" x="1758.094" y="945.526"/>
  <rect class="cls-22" height="2.888" width="11.55" x="1758.094" y="1006.165"/>
  <path class="cls-3" d="M1769.644,1066.804h-11.55c2.888-28.876,0-57.751,0-57.751h11.55s-2.888,28.876,0,57.751Z"/>
  <rect class="cls-22" height="2.888" width="11.55" x="1758.094" y="1066.804"/>
  <path class="cls-7" d="M1770.659,769.647s10.138-14.597,47.676-8.821c0,0-31.763,17.325-47.676,8.821Z"/>
  <path class="cls-3" d="M1804.656,732.912c9.569-14.767,21.29-31.037,35.618-48.374,9.956,14.779,44.873,16.304,44.873,16.304-23.945-19.978-39.154-18.656-43.834-17.543.864-1.04,1.743-2.086,2.627-3.134,21.142,3.66,39.106-7.764,39.106-7.764-19.571-2.645-30.183.792-35.495,3.861,11.866-12.507,12.056-43.193,12.056-43.193-20.042,25.938-16.929,41.35-15.7,45.087-3.618,4.099-7.113,8.155-10.429,12.14,2.123-5.739,2.445-11.306,2.088-15.911,1.73-4.644,3.542-17.385-12.891-41.152,0,0,3.326,11.432,4.159,24.318.712,11.043,5.824,17.013,7.281,18.506.47,4.968-.148,11.139-3.638,17.905-10.238,12.53-18.995,24.431-26.488,35.525,6.622-16.683,2.993-33.036,2.993-33.036-12.522,23.841-8.741,35.917-7.139,39.279-29.793,45.768-37.27,76.201-37.375,76.62l2.803.701c.103-.41,7.788-29.937,35.896-74.677,2.816.553,9.994,1.258,18.912-3.201,11.55-5.775,23.1-8.663,23.1-8.663-22.04-1.695-33.122,2.582-38.524,6.403Z"/>
  <path class="cls-7" d="M1771.343,887.971s5.775-14.438,43.313-11.55c0,0-11.55,2.888-23.1,8.663-11.55,5.775-20.213,2.888-20.213,2.888Z"/>
  <path class="cls-7" d="M1665.864,353.99s8.051-18.747,34.589-8.947c0,0-11.618,1.883-19.978,5.965-8.431,4.116-14.611,2.982-14.611,2.982Z"/>
  <path class="cls-7" d="M1723.914,550.992s-5.561-4.453-13.906-3.622c-8.345.831-20.31,11.952-20.31,11.952,0,0,13.908-.551,23.644-3.606,9.736-3.056,10.572-4.724,10.572-4.724Z"/>
  <path class="cls-3" d="M1705.064,657.961c-.926-7.908-1.511-20.915,3.04-29.309.918.396,2.913.999,7.258,1.555,7.217.923,17.048-.436,17.048-.436,0,0-9.794-6.304-15.755-5.84-3.996.311-6.783,2.115-8.208,3.281,1.791-3.628,5.511-14.951-9.469-27.49,0,0,2.5,7.513,2.627,17.185.092,6.951,3.222,9.855,4.98,10.945-3.768,9.112-4.75,16.965-4.839,22.268-7.531-18.079-15.147-38.753-22.495-62.118,1.844.203,5.798-.092,9.819-5.097,5.503-6.851,11.513-10.859,11.513-10.859-16.684.727-20.949,9.625-22.036,13.706-3.168-10.175-6.286-20.823-9.318-32.051,12.014-8.873,13.744-37.32,13.744-37.32-15.529,17.973-16.389,30.222-15.769,35.424-8.861-19.451-30.768-31.53-30.768-31.53,10.644,25.2,24.835,32.743,30.171,34.775,2.967,10.963,6.011,21.406,9.101,31.409-3.998-3.265-15.446-8.957-42.841-1.854,0,0,11.878.81,24.264,4.461,9.729,2.868,16.743.794,19.314-.23,7.299,23.391,14.848,44.229,22.308,62.575-21.005-12.225-41.754-16.022-50.067-17.117-.707-4.08-4.573-15.473-25.712-22.283,0,0,9.225,7.254,14.645,14.216,2.484,3.192,5.384,5.626,7.621,7.25-2.598-.633-6.335-1.03-10.62.184-8.068,2.287-17.889,15.34-17.889,15.34,0,0,13.594-2.99,22.64-7.712,5.636-2.942,7.965-4.744,8.92-5.686.085.012.165.023.253.036.193.11.302.168.302.168,0,0-.002-.066-.003-.125,9.47,1.393,35.623,6.347,51.666,20.04,31.456,75.917,60.7,108.242,61.1,108.674l2.903-6.113c-.388-.422-28.679-29.164-59.449-100.324Z"/>
  <path class="cls-3" d="M1864.902,409.109c6.986,20.342,25.729,30.581,25.729,30.581-9.858-25.417-21.641-30.334-25.069-31.248,2.893-.109,10.015-1.076,17.651-7.42,9.933-8.252,20.523-13.692,20.523-13.692-31.44,4.842-37.984,16.567-39.258,20.087-13.193.43-24.477,1.3-34.025,2.35,5.679-4.424,9.107-11.901,10.404-15.058,2.115.129,7.182.01,13.538-3.093,8.36-4.081,19.979-5.965,19.979-5.965-21.248-7.845-30.638,2.599-33.54,7.079-.117-1.999-.773-5.828-3.973-9.075-4.54-4.606-18.149-5.683-18.149-5.683,0,0,6.969,8.14,13.758,12.353,3.686,2.287,5.805,3.189,7.003,3.553-1.383,3.023-6.4,12.917-14.646,16.546-22.8,2.878-33.86,6.633-34.519,6.897l-.384.228c-15.236,12.609-23.843,25.046-24.255,25.762l1.251,5.965c.096-.171,9.94-17.097,24.663-29.352,1.542-.577,11.88-4.235,31.508-7.188,1.691.445,13.607,3.728,25.397,13.498-1.816,1.352-5.758,4.875-7.461,10.998-2.249,8.079,3.781,23.26,3.781,23.26,0,0,4.526-13.162,5.205-23.344.259-3.886.235-6.484.11-8.219,1.791,3.142,5.356,7.805,12.087,11.601,11.247,6.344,20.101,14.304,20.101,14.304-15.192-26.733-28.11-29.438-32.337-29.532-7.349-6.719-14.961-11.226-19.819-13.534,9.71-1.224,21.238-2.227,34.746-2.659Z"/>
  <path class="cls-3" d="M1725.93,330.729c-5.764-23.056-20.756-41.412-23.865-45.043,1.207-1.938,3.578-6.64,2.952-12.928-.832-8.345-11.952-20.31-11.952-20.31,0,0,.55,13.908,3.605,23.644,1.784,5.683,3.091,8.323,3.873,9.544l-.068.045c-21.465-15.221-34.047-.457-34.047-.457,0,0,5.571,2.906,14.84,1.461,7.44-1.16,16.489-.315,19.671.049,3.421,4.119,18.084,23.088,22.443,50.309l2.546-6.315Z"/>
  <path class="cls-3" d="M1764.797,210.631s-4.268-17.252,24.854-41.631c0,0-7.961,35.294-24.854,41.631Z"/>
  <path class="cls-3" d="M1765.293,208.147s8.128-11.933,40.121-7.609c0,0-18.539,11.829-40.121,7.609Z"/>
  <path class="cls-3" d="M1760.346,445.77s-5.775-26.925-43.313-21.54c0,0,11.55,5.385,23.1,16.155,11.55,10.77,20.213,5.385,20.213,5.385Z"/>
  <path class="cls-3" d="M1730.318,278.546l-11.542.444c1.777-28.965-2.218-57.708-2.218-57.708l11.542-.444s-1.777,28.965,2.218,57.708Z"/>
  <path class="cls-3" d="M1732.647,339.139l-11.542.444c1.777-28.965-2.218-57.708-2.218-57.708l11.542-.444s-1.777,28.965,2.218,57.708Z"/>
  <rect class="cls-22" height="2.888" transform="translate(-9.488 66.431) rotate(-2.201)" width="11.55" x="1718.828" y="278.766"/>
  <rect class="cls-22" height="2.888" transform="translate(-11.813 66.565) rotate(-2.201)" width="11.55" x="1721.156" y="339.36"/>
  <path class="cls-3" d="M1734.975,399.733l-11.542.444c1.777-28.965-2.218-57.708-2.218-57.708l11.542-.444s-1.777,28.965,2.218,57.708Z"/>
  <path class="cls-3" d="M1737.304,460.327l-11.542.444c1.777-28.965-2.218-57.708-2.218-57.708l11.542-.444s-1.777,28.965,2.218,57.708Z"/>
  <rect class="cls-22" height="2.888" transform="translate(-14.138 66.699) rotate(-2.201)" width="11.55" x="1723.485" y="399.954"/>
  <rect class="cls-22" height="2.888" transform="translate(-16.463 66.833) rotate(-2.201)" width="11.55" x="1725.813" y="460.548"/>
  <path class="cls-3" d="M1739.632,520.921l-11.542.444c1.777-28.965-2.218-57.708-2.218-57.708l11.542-.444s-1.777,28.965,2.218,57.708Z"/>
  <path class="cls-3" d="M1741.961,581.515l-11.542.444c1.777-28.965-2.218-57.708-2.218-57.708l11.542-.444s-1.777,28.965,2.218,57.708Z"/>
  <rect class="cls-22" height="2.888" transform="translate(-18.788 66.967) rotate(-2.201)" width="11.55" x="1728.142" y="521.142"/>
  <rect class="cls-22" height="2.888" transform="translate(-21.113 67.101) rotate(-2.201)" width="11.55" x="1730.47" y="581.736"/>
  <path class="cls-3" d="M1744.289,642.109l-11.542.444c1.777-28.965-2.218-57.708-2.218-57.708l11.542-.444s-1.777,28.965,2.218,57.708Z"/>
  <rect class="cls-22" height="2.888" transform="translate(-23.438 67.236) rotate(-2.201)" width="11.55" x="1732.799" y="642.329"/>
  <path class="cls-3" d="M1746.618,702.703l-11.542.444c1.777-28.965-2.218-57.708-2.218-57.708l11.542-.444s-1.777,28.965,2.218,57.708Z"/>
  <path class="cls-3" d="M1748.946,763.296l-11.542.444c1.777-28.965-2.218-57.708-2.218-57.708l11.542-.444s-1.777,28.965,2.218,57.708Z"/>
  <rect class="cls-22" height="2.888" transform="translate(-25.764 67.37) rotate(-2.201)" width="11.55" x="1735.127" y="702.923"/>
  <rect class="cls-22" height="2.888" transform="translate(-28.089 67.504) rotate(-2.201)" width="11.55" x="1737.456" y="763.517"/>
  <path class="cls-3" d="M1751.275,823.89l-11.542.444c1.777-28.965-2.218-57.708-2.218-57.708l11.542-.444s-1.777,28.965,2.218,57.708Z"/>
  <path class="cls-3" d="M1753.603,884.484l-11.542.444c1.777-28.965-2.218-57.708-2.218-57.708l11.542-.444s-1.777,28.965,2.218,57.708Z"/>
  <rect class="cls-22" height="2.888" transform="translate(-30.414 67.638) rotate(-2.201)" width="11.55" x="1739.784" y="824.111"/>
  <rect class="cls-22" height="2.888" transform="translate(-32.739 67.772) rotate(-2.201)" width="11.55" x="1742.113" y="884.705"/>
  <path class="cls-3" d="M1755.932,945.078l-11.542.444c1.777-28.965-2.218-57.708-2.218-57.708l11.542-.444s-1.777,28.965,2.218,57.708Z"/>
  <path class="cls-3" d="M1758.26,1005.672l-11.542.444c1.777-28.965-2.218-57.708-2.218-57.708l11.542-.444s-1.777,28.965,2.218,57.708Z"/>
  <rect class="cls-22" height="2.888" transform="translate(-35.064 67.906) rotate(-2.201)" width="11.55" x="1744.441" y="945.299"/>
  <rect class="cls-22" height="2.888" transform="translate(-37.389 68.04) rotate(-2.201)" width="11.55" x="1746.77" y="1005.893"/>
  <path class="cls-3" d="M1760.589,1066.266l-11.542.444c1.777-28.965-2.218-57.708-2.218-57.708l11.542-.444s-1.777,28.965,2.218,57.708Z"/>
  <rect class="cls-22" height="2.888" transform="translate(-39.714 68.174) rotate(-2.201)" width="11.55" x="1749.098" y="1066.486"/>
  <path class="cls-3" d="M1746.295,863.481c-4.997-3.803-29.139-39.205-48.523-85.209.532-.803,1.33-2.275,2.425-4.993,2.229-5.53,3.192-13.606,3.192-13.606,0,0-7.03,6.456-7.9,11.278-.087.49-.123.955-.151,1.414-7.687-19.021-14.411-39.638-18.598-60.455,1.544-.962,6.039-4.46,7.932-13.466,2.286-10.866,9.545-21.201,9.545-21.201-27.208,5.024-21.043,27.046-18.699,33.297-3.437-3.071-17.392-12.664-50.636-3.705,32.131,15.087,45.69,9.177,49.951,6.057,10.361,66.591,57.119,138.962,68.297,158.184-14.566-7.148-61.064-30.652-79.728-46.377.812-1.502,1.943-4.049,3.382-8.38,3.22-9.683,4.007-23.579,4.007-23.579,0,0-11.322,11.775-12.295,20.104-.233,1.989-.148,3.811.096,5.453-5.564-5.91-16.799-12.376-38.848-9.762,0,0,11.719,4.517,23.439,13.55,8.241,6.352,15.017,6.002,18.322,5.236,8.818,7.212,23.072,16.517,35.642,23.57-12.006,12.52-32.86,16.603-36.498,17.234-28.663-2.842-36.162,8.043-36.162,8.043,13.661,2.671,26.085-1.085,33.377-4.204-4.396,4.963-11.525,16.61-10.744,39.567,0,0,19.113-27.239,14.555-41.347.596-.304,1.091-.569,1.511-.802,7.01-1.292,24.938-5.146,39.969-15.139,19.678,10.929,38.025,20.85,39.973,26.961l5.727-3-2.563-14.725Z"/>
  <path class="cls-3" d="M1678.489,388.534c-2.099-1.26-8.262-4.362-16.455-3.178-10.185,1.472-24.25,15.755-24.25,15.755,0,0,17.019-1.43,28.79-5.704,7.347-2.668,10.47-4.485,11.781-5.474,3.291.727,11.852,2.872,21.349,7.299-28.213,4.587-54.369,44.31-54.369,44.31,22.247-8.08,35.893-16.69,44.29-24.179-1.363,6.984-1.516,16.329.792,28.848,23.052-24.362,18.422-40.074,15.04-46.05,7.996,4.431,16.027,10.526,21.65,18.793l.698-5.274c-14.112-15.638-35.965-21.836-49.317-25.145Z"/>
  <path class="cls-3" d="M1728.522,473.942s-10.796,9.586-40.764-2.42c0,0,20.866-6.943,40.764,2.42Z"/>
  <path class="cls-3" d="M1729.77,473.941s-5.015-8.2-12.544-6.666c-7.529,1.534-18.327,22.024-18.327,22.024,0,0,12.547-1.02,21.332-6.652,8.785-5.632,9.539-8.706,9.539-8.706Z"/>
  <path class="cls-3" d="M1795.069,279.589l-11.55-.099c3.136-28.85.497-57.749.497-57.749l11.55.099s-3.136,28.85-.497,57.749Z"/>
  <path class="cls-3" d="M1794.547,340.225l-11.55-.099c3.136-28.85.497-57.749.497-57.749l11.55.099s-3.136,28.85-.497,57.749Z"/>
  <rect class="cls-22" height="2.888" transform="translate(2.484 -15.386) rotate(.493)" width="11.55" x="1783.506" y="279.539"/>
  <rect class="cls-22" height="2.888" transform="translate(3.006 -15.379) rotate(.493)" width="11.55" x="1782.984" y="340.175"/>
  <path class="cls-3" d="M1794.025,400.862l-11.55-.099c3.136-28.85.497-57.749.497-57.749l11.55.099s-3.136,28.85-.497,57.749Z"/>
  <path class="cls-3" d="M1793.503,461.498l-11.55-.099c3.136-28.85.497-57.749.497-57.749l11.55.099s-3.136,28.85-.497,57.749Z"/>
  <rect class="cls-22" height="2.888" transform="translate(3.528 -15.372) rotate(.493)" width="11.55" x="1782.463" y="400.812"/>
  <rect class="cls-22" height="2.888" transform="translate(4.049 -15.366) rotate(.493)" width="11.55" x="1781.941" y="461.448"/>
  <path class="cls-3" d="M1792.982,522.134l-11.55-.099c3.136-28.85.497-57.749.497-57.749l11.55.099s-3.136,28.85-.497,57.749Z"/>
  <path class="cls-3" d="M1792.46,582.771l-11.55-.099c3.136-28.85.497-57.749.497-57.749l11.55.099s-3.136,28.85-.497,57.749Z"/>
  <rect class="cls-22" height="2.888" transform="translate(4.571 -15.359) rotate(.493)" width="11.55" x="1781.419" y="522.084"/>
  <rect class="cls-22" height="2.888" transform="translate(5.093 -15.352) rotate(.493)" width="11.55" x="1780.897" y="582.721"/>
  <path class="cls-3" d="M1791.938,643.407l-11.55-.099c3.136-28.85.497-57.749.497-57.749l11.55.099s-3.136,28.85-.497,57.749Z"/>
  <rect class="cls-22" height="2.888" transform="translate(5.614 -15.346) rotate(.493)" width="11.55" x="1780.376" y="643.357"/>
  <path class="cls-3" d="M1791.416,704.043l-11.55-.099c3.136-28.85.497-57.749.497-57.749l11.55.099s-3.136,28.85-.497,57.749Z"/>
  <path class="cls-3" d="M1790.894,764.68l-11.55-.099c3.136-28.85.497-57.749.497-57.749l11.55.099s-3.136,28.85-.497,57.749Z"/>
  <rect class="cls-22" height="2.888" transform="translate(6.136 -15.339) rotate(.493)" width="11.55" x="1779.854" y="703.993"/>
  <rect class="cls-22" height="2.888" transform="translate(6.658 -15.332) rotate(.493)" width="11.55" x="1779.332" y="764.63"/>
  <path class="cls-3" d="M1790.373,825.316l-11.55-.099c3.136-28.85.497-57.749.497-57.749l11.55.099s-3.136,28.85-.497,57.749Z"/>
  <path class="cls-3" d="M1789.851,885.952l-11.55-.099c3.136-28.85.497-57.749.497-57.749l11.55.099s-3.136,28.85-.497,57.749Z"/>
  <rect class="cls-22" height="2.888" transform="translate(7.18 -15.325) rotate(.493)" width="11.55" x="1778.81" y="825.266"/>
  <rect class="cls-22" height="2.888" transform="translate(7.701 -15.319) rotate(.493)" width="11.55" x="1778.288" y="885.902"/>
  <path class="cls-3" d="M1789.329,946.589l-11.55-.099c3.136-28.85.497-57.749.497-57.749l11.55.099s-3.136,28.85-.497,57.749Z"/>
  <path class="cls-3" d="M1788.807,1007.225l-11.55-.099c3.136-28.85.497-57.749.497-57.749l11.55.099s-3.136,28.85-.497,57.749Z"/>
  <rect class="cls-22" height="2.888" transform="translate(8.223 -15.312) rotate(.493)" width="11.55" x="1777.767" y="946.539"/>
  <rect class="cls-22" height="2.888" transform="translate(8.745 -15.305) rotate(.493)" width="11.55" x="1777.245" y="1007.175"/>
  <path class="cls-3" d="M1788.286,1067.861l-11.55-.099c3.136-28.85.497-57.749.497-57.749l11.55.099s-3.136,28.85-.497,57.749Z"/>
  <rect class="cls-22" height="2.888" transform="translate(9.267 -15.298) rotate(.493)" width="11.55" x="1776.723" y="1067.811"/>
  <path class="cls-7" d="M1699.36,344.551s-16.223,7.257-45.375-17.087c0,0,36.146,1.583,45.375,17.087Z"/>
  <path class="cls-3" d="M1884.932,813.283c2.731-1.879,5.84-4.695,8.682-8.919,7.21-10.713,15.843-18.912,15.843-18.912-29.039,13.598-31.835,26.785-32.027,30.4-30.245,7.358-51.277,3.447-59.354,3.556l12.144-25.153c2.259.1,7.136-.127,13.227-3.102,8.361-4.081,19.979-5.965,19.979-5.965-22.092-8.158-31.367,3.461-33.855,7.584-7.395-15.62-24.145-22.86-24.145-22.86,9.571,18.902,19.669,22.939,23.301,23.799l-11.578,22.939c-.962,2.164-2.58,3.965-4.623,5.164-12.788,7.503-27.614,14.499-27.776,14.576l1.665,5.634c.178-.085,9.046-9.047,30.831-19.668.97-.006,3.49.134,7.113.246,2.879,4.079,12.092,15.018,28.137,15.095,0,0-8.07-10.329-17.301-14.972,12.867-.123,30.543-1.308,46.567-6.239,1.695,3.62,9.115,14.602,35.239,8.269-16.503-13.964-26.993-13.344-32.068-11.474Z"/>
  <path class="cls-3" d="M1684.482,232.579s8.051-18.747,34.589-8.947c0,0-11.618,1.883-19.978,5.965-8.431,4.116-14.611,2.982-14.611,2.982Z"/>
  <path class="cls-3" d="M1717.929,225.341s-6.709-2.396-10.383-9.934c-3.674-7.539-.49-23.56-.49-23.56,0,0,6.833,12.126,9.344,22.017,2.511,9.891,1.529,11.478,1.529,11.478Z"/>
  <path class="cls-25" d="M1811.836,1002.902h-104.601s-7.607,25.229-15.394,77.098h135.39c-7.788-51.869-15.395-77.098-15.395-77.098Z"/>
  <path class="cls-26" d="M1729.255,1017.849l85.261-4.794c-1.666-6.792-2.68-10.153-2.68-10.153h-104.601s-7.607,25.229-15.394,77.098h29.442c3.332-34.302,7.972-62.151,7.972-62.151Z"/>
  <rect class="cls-25" height="11.8" width="129.802" x="1694.635" y="996.608"/>
  <path class="cls-11" d="M803.143,371.031s47.924,6.276,76.45,25.673c0,0,5.135,42.219-11.41,64.469,0,0,5.705,13.122,14.263,17.686,0,0-11.41,7.417-19.398,7.987,0,0,6.846,28.526,3.994,42.789,0,0-45.642-7.417-75.879-22.821,0,0,18.257-39.366,18.257-51.347,0,0-2.853,5.705-15.404,10.84,0,0,.571-53.629-7.417-70.174l16.545-25.103Z"/>
  <path class="cls-20" d="M795.726,346.499l10.269,9.128-1.141,6.276,7.987,8.558s-15.975,26.244-27.956,34.231l-10.84-2.282-4.564,3.994-11.981-4.564,38.225-55.341Z"/>
  <path class="cls-10" d="M417.366,866.891l-3.748,19.568-6.496,5.287-1.981-3.517.782-7.676c.883-12.406-8.167-15.689-8.167-15.689l-5.26,20.656,4.32,14.462-6.581,6.927s-10.016.588-10.836.637c-14.333.842-17.637,9.647-17.637,9.647,0,0,10.449,3.914,18.66,3.998,8.212.084,18.927-1.112,18.927-1.112l7.912-6.125,4.174,1.453,8.614-2.204,8.266,1.212,9.637-2.264,5.279,3.086s17.462-1.424,24.309-6.522c1.032-.768,3.474-2.936,6.317-5.756l8.698-10.739c18.466,5.537,71.644,20.862,71.644,20.862l5.054-48.804-69.018-7.391s-.493.029-16.051-5.052c-10.851-3.544-14.087-12.302-41.922-4.441l-17.137,2.097-19.374,1.138s.303,16.515,13.81,16.629l7.803-.368Z"/>
  <polygon class="cls-2" points="399.349 920.079 407.261 913.954 399.43 906.369 396.816 899.982 390.235 906.909 394.892 904.455 397.065 911.958 394.267 915.392 380.422 921.191 399.349 920.079"/>
  <polygon class="cls-2" points="413.617 886.46 413.728 898.989 407.122 891.746 413.617 886.46"/>
  <path class="cls-2" d="M446.077,888.64l2.262,11.04,17.45,3.335-18.508,5.447-6.902-9.95-.006-10.355c2.976-9.985-1.174-14.102-1.174-14.102l-6.45,9.644-3.259,14.362-3.946-10.124,1.603-7.724c2.326-13.217-7.374-19.733-7.374-19.733l-2.408,6.409-7.803.368,4.704-3.183,3.288-8.641s14.612,5.954,14.503,19.041l14.017-16.629-6.112,11.532s17.335,6.067,27.62-5.983c0,0-7.071,12.133-22.886,11.972,0,0,3.789,6.863,1.381,13.272Z"/>
  <polygon class="cls-2" points="428.316 914.415 437.953 912.151 429.49 898.063 432.53 909.874 428.316 914.415"/>
  <polygon class="cls-2" points="420.05 913.203 414.43 903.307 413.728 898.989 413.294 910.459 409.991 912.372 407.261 913.954 411.435 915.407 420.05 913.203"/>
  <path class="cls-2" d="M467.541,908.715s12.322-10.886,15.016-16.495l71.644,20.862s-63.684-19.695-67.499-27.101l-2.652-14.015s-3.333,23.246-16.508,36.748Z"/>
  <path class="cls-11" d="M550.782,320.064s12.932,46.402,48.685,63.898l32.958-54.437-81.643-9.462Z"/>
  <path class="cls-14" d="M718.42,477.724c12.383-57.69,71.265-83.713,49.903-153.084-21.363-69.371-111.426-62.388-149.078-45.653-34.231,15.214-51.727,77.591-51.727,77.591l5.859,24.539s-4.444,22.949-16.145,42.03c-2.035,3.319-1.023,7.837,2.255,9.562l9.528,5.013s10.684,23.88,23.911,55.497c0,0,17.851,3.15,44.937.1,2.893,4.338,4.521,8.884,5.913,13.237,13.744,43.003-13.487,83.191-13.487,83.191l-20.572,33.254,108.925-76.493c-7.266-12.973-6.09-31.498-4.694-45.457,1.483-14.829,4.474-23.326,4.474-23.326Z"/>
  <path class="cls-15" d="M643.774,506.556c-1.391-4.354-3.02-8.899-5.913-13.237,0,0,21.193-2.235,35.354-12.554-10.153,17.099-29.442,25.791-29.442,25.791Z"/>
  <path class="cls-19" d="M767.802,1035.502c-38.476-68.397-58.133-139.649-18.168-220.126,42.75-86.087,43.821-161.95,43.821-161.95-24.941-79.796-74.816-106.92-74.816-106.92,0,0-2.851-5.765-2.495-12.841l6.769-2.751-2.847-30.662s-10.033,3.131-23.894,7.497c-31.167,9.818-81.696,25.886-81.205,26.702.712,1.178,6.667,40.964,6.667,40.964l9.366-4.014s2.135,7.469-.712,18.344l-37.764,40.881-2.139,15.722c-10.687,25.158-74.101,91.982-74.101,91.982,4.986,45.597,27.072,78.616,27.072,78.616-21.481,91.895,6.483,164.465,1.337,223.496-1.19,13.694-.933,27.027.119,39.555h245.022c-5.415-13.156-12.569-27.678-22.033-44.498Z"/>
  <path class="cls-10" d="M365.23,791.464l25.515,15.18,21.263,8.832,15.343-2.944,17.344,4.416s36.022-18.401,52.699-11.04l23.878-28.268s-9.276-10.941-15.675-17.296c-7.125-7.075-26.497-12.628-44.176-1.572-10.51,4.864-12.896,4.146-29.213,3.39,0,0-13.182-.246-12.157,12.235,0,0-.312,5.798,10.595,3.956,9.513-1.606,16.635,1.242,16.635,1.242l-18.261,8.28-9.506-9.384-4.002-14.904s7.505-11.04-.5-18.769l-7.505,12.144s7.004-15.456-5.503-19.321l-7.505,28.153,3.002,16.008-7.505-6.072-4.002-9.936s-2.502-9.936-13.508-7.728l8.505,28.705s-10.506-4.14-15.76,4.692Z"/>
  <polygon class="cls-2" points="405.504 797.26 380.989 786.772 403.503 793.396 408.84 791.004 397.499 781.804 394.497 765.795 399.834 780.148 415.844 787.508 409.006 779.228 404.67 764.875 407.505 756.963 406.505 765.059 412.842 779.044 422.848 788.612 429.018 787.876 405.504 797.26"/>
  <path class="cls-2" d="M427.351,812.532l27.183-9.476s-10.506,5.244-14.759,9.66l4.92,4.232-17.344-4.416Z"/>
  <path class="cls-2" d="M429.018,787.876l18.261-8.28s-7.129-2.898-16.635-1.242c0,0,8.88-2.208,17.386-1.242,5.231.594,9.506,1.104,17.26,0,0,0-7.755,6.348-18.011,7.176-10.256.828-18.261,3.588-18.261,3.588Z"/>
  <path class="cls-21" d="M767.802,1035.504c-38.476-68.397-58.133-139.651-18.168-220.128,42.75-86.085,43.821-161.95,43.821-161.95-23.87-77.045-74.816-106.92-74.816-106.92,0,0,54.865,54.247,59.139,114.781l-15.673,110.85-64.129,2.358-32.062-14.15,2.135-92.768-22.798,161.95-89.778-26.731-4.274,50.314s75.528,78.618,139.653,132.076c0,0,14.733-18.913,18.917-25.377,0,0,9.064,66.421,29.698,120.19h50.37c-5.415-13.156-12.569-27.678-22.033-44.496Z"/>
  <path class="cls-10" d="M521.271,777.64s74.102,50.315,141.079,72.327l3.563-89.623s56.289-4.717,96.19,11.792c0,0-22.088,133.648-72.677,189.466,0,0-73.389-50.315-193.805-156.447l25.651-27.516Z"/>
  <path class="cls-1" d="M696.171,507.751l23.893-7.497,2.85,30.66-6.769,2.752s.025,7.561,2.494,12.841l-55.018,27.356,45.933-30.781-1.691-6.218-8.736,3.42-2.957-32.532Z"/>
  <path class="cls-11" d="M693.602,408.115s9.699,38.796,27.385,59.905c0,0,8.558,2.282,26.815,5.705,0,0-14.263-11.41-17.686-24.532,0,0,54.2-67.322,68.463-107.829,0,0-18.257-49.635-45.071-62.757l-5.705,2.282-8.447-1.029-7.146-4.443-7.227-13.926s-113.467-28.028-174.199,58.574c0,0,36.133,36.704,84.627,68.653,0,0-9.699-29.097-9.128-43.93,0,0,5.527,25.203,47.264,45.121l20.058,18.207Z"/>
  <path class="cls-4" d="M718.148,372.096l6.197-14.156,2.597-.765c2.475-6.041,18.614-50.294,20.86-76.287,0,0-4.982-4.595-11.91-7.616l-3.681,2.143,7.145,4.444s-11.117,47.079-20.933,71.657l.376,3.025-6.651,15.07c-.106.174-.18.26-.286.427-2.029-.415-4.127-.634-6.278-.634-17.183,0-31.113,13.929-31.113,31.111,0,12.665,7.595,23.514,18.455,28.371-4.111,13.289-12.994,33.124-31.968,47.961-20.684,16.17-48.464,22.618-82.497,19.459-.65-.793-1.522-1.417-2.597-1.632l-19.849-3.957c-2.47-.495-4.892,1.123-5.383,3.593-.495,2.47,1.125,4.892,3.591,5.385l19.849,3.957c1.877.374,3.718-.476,4.716-1.99,35.089,3.115,63.871-3.744,85.496-20.68,20.132-15.763,29.477-36.408,33.768-50.378,2.425.607,4.92,1.025,7.534,1.025,17.183,0,31.113-13.931,31.113-31.113,0-12.702-7.636-23.586-18.549-28.42Z"/>
  <path class="cls-13" d="M1002.371,441.941l.719-10.071c2.475-32.296-9.159-77.977-9.159-77.977l152.778,11.392-9.82,83.85.719,20.861s-6.813,50.901-52.223,50.901-83.015-78.955-83.015-78.955Z"/>
  <path class="cls-12" d="M1175.197,994.26s-119.169,36.864-222.276-3.9l14.921-510.054,17.984-17.504s67.379,43.88,97.112,43.161c29.733-.719,58.987-29.493,58.987-29.493l17.744,24.938,35.488,137.156-19.96,355.696Z"/>
  <path class="cls-16" d="M1086.535,526.105l54.671,30.213-16.545-38.126-41.722-12.229-41.003,17.984-25.177,26.616s42.442-17.984,69.777-24.458Z"/>
  <polygon class="cls-27" points="1097.325 562.073 1112.432 516.754 1082.938 505.963 1057.041 513.876 1065.674 562.792 1097.325 562.073"/>
  <polygon class="cls-26" points="1106.461 534.666 1112.432 516.754 1082.938 505.963 1057.041 513.876 1060.105 531.235 1082.938 524.666 1106.461 534.666"/>
  <path class="cls-27" d="M1097.325,562.073l-16.545-3.597-15.106,4.316-5.755,10.79-.719,239.544,4.492,149.677,68.425,6.842,13.405-189.609s-10.071-109.341-48.197-217.964Z"/>
  <path class="cls-28" d="M1496.373,745.574l-116.037,28.795c-50.178-95.795-72.932-199.265-72.957-199.342v-.006c-39.568-13.671-125.891-64.022-125.891-64.022-23.019-14.388-39.562-34.531-39.562-34.531,0,0,33.087,103.59,30.211,165.932-2.845,61.679-71.122,223.932-72.588,227.394-45.308-78.971-79.909-180.397-79.909-180.397-25.901-87.758-43.162-205.733-43.162-205.733l9.351-20.863-12.233-.717-27.335,30.211-140.994,44.602s-66.156,130.067-79.842,209.893l-18.248,6.843,4.562,18.248-13.686,47.898-22.105,25.56,60.055,118.337,103.13,10.228-7.334,106.095h441.363l-65.78-158.252,296.118-94.92-7.128-81.254Z"/>
  <path class="cls-29" d="M1099.483,869.955s-150.824-198.781-190.149-319.632l25.897-17.264-23.978-12.469,4.134,12.057-27.785,15.111s43.87,171.582,211.88,322.198Z"/>
  <path class="cls-29" d="M1391.17,812.573l-95.224-97.505,1.598-114.179-22.126,97.073-37.634-36.493-19.629,19.556c12.68-39.17,20.535-80.995,18.242-122.071l-28.776-17.264,1.919-6.711-16.304,5.752,32.615,19.183s5.273,138.118-126.37,310.044l-47.583-56.814-19.389,14.827-46.755-14.827-38.777-33.072c-41.052-2.281-75.267,12.546-75.267,12.546-22.81-160.799-53.911-212.895-53.911-212.895,0,0,32.879,127.302,34.35,223.981l-6.671,18.564-13.68-1.141-15.967-17.105-68.424,17.105,55.879-4.562,11.405,10.265s-21.67,5.703-46.755,36.493c26.82-14.958,49.036-30.791,67.284-31.931l63.862-11.405-13.686,152.816-149.394-9.124,101.497,21.668,60.157,12.545s32.502-23.093,41.91-47.042l35.923,5.132,27.37-3.421,104.348,62.438v42.765l-275.408,22.238h441.363l-20.552-100.357s117.177-29.651,236.065-90.093c35.923-35.353,33.357-105.488,33.357-105.488l-25.659-38.489-116.037,28.795,72.416-11.974-4.562,10.834s-22.238-2.851-35.353,11.404l2.851,10.834s-19.387,5.132-24.519,17.106Z"/>
  <path class="cls-12" d="M1136.889,449.135l.719,20.861s-28.055,28.774-54.671,35.968c0,0-44.6-17.984-80.567-64.022l.719-10.071-17.264,30.932s1.439,30.213,30.932,87.761l66.18-44.6s30.932,15.826,58.267,50.355c0,0,3.597-40.284,2.158-98.551l-6.474-8.632Z"/>
  <path class="cls-5" d="M1186.566,269.295l11.694-4.425s23.949-34.212,30.221-48.468l-34.783-34.783s-16.724-70.582-77.149-83.531l-30.049-6.562,7.341-11.832s-74.23,14.126-117.391,51.532l3.369,22.565s-19.905-2.964-45.985,4.722l-4.316,43.161-8.632,4.316s.48,66.66,42.202,112.698l223.479-49.395Z"/>
  <path class="cls-17" d="M1203.963,329.874l-10.426-34.777,10.426-22.244-6.842-44.476c-3.421-23.949-25.953-39.574-25.953-39.574,0,0-103.587-48.916-173.604-1.918l-11.51,82.486s-17.184-9.296-23.978,12.468c-7.187,23.03,11.317,81.176,31.855,72.054,0,0,5.117,21.761,14.941,43.285,5.723,12.538,15.719,22.651,28.142,28.62,23.41,11.247,64.481,30.372,79.707,33.656,0,0,29.508,8.553,53.029-.855,0,0,34.212-71.703,34.212-128.724Z"/>
  <path class="cls-13" d="M1186.856,368.648l-45.384-3.479,27.137-5.644-15.966-53.599c-.231-23.546,29.651-36.493,51.319-33.072l-10.426,22.244,10.426,34.777s3.421,57.876-34.212,128.724c0,0,23.949-55.738,17.106-89.95h0Z"/>
  <path class="cls-5" d="M1002.36,308.696s-2.877-23.019-16.305-39.325l-10.174-92.312,130.598-70.337-19.978-15.194s62.865,2.851,104.918,30.791c24.947,40.342,37.063,94.084,37.063,94.084-59.301,38.774-147.683,11.974-147.683,11.974l66.714-12.259s-39.344,0-111.583-9.091l7.194,11.51s-23.019,21.581-18.703,54.671l-10.071,7.194-2.398,30.213-9.591-1.918Z"/>
  <path class="cls-4" d="M1117.729,468.531h-31.934c-2.483,0-4.734,1.018-6.383,2.643-73.262-24.499-95.889-81.911-102.775-115.176.595-.046,1.196.071,1.79-.046,13.907-2.741,21.418-24,16.789-47.481-4.629-23.482-19.652-40.295-33.559-37.551-.607.12-1.128.463-1.717.653-2.655-14.686-6.254-43.165-1.576-72.202l4.838-2.256c-.57-30.794,16.617-43.321,16.617-43.321l-1.79-13.131c-26.232,9.124-32.676,53.96-32.676,53.96l1.784,2.594c-2.459,12.558-5.666,40.828,2.134,83.392-.816,1.358-1.484,2.903-2.14,4.479-7.456,5.522-11.037,19.346-8.051,34.485,2.998,15.188,11.595,26.643,20.621,28.874,2.299,2.299,4.715,4.157,7.217,5.457,6.745,34.767,30.15,100,110.311,126.471,1.177,3.676,4.513,6.405,8.566,6.405h31.934c5.016,0,9.124-4.108,9.124-9.124s-4.108-9.124-9.124-9.124Z"/>
  <path class="cls-27" d="M878.554,908.938l.687-22.847,60.425-60.036-13.492,75.256c-4.985,27.804-13.111,67.871-34.505,86.315l-6.272-14.825h0c-4.54-16.645-7.035-46.612-6.843-63.864Z"/>
  <polygon class="cls-13" points="969.776 822.105 1038.494 850.268 1026.47 859.729 969.776 822.105"/>
  <path class="cls-9" d="M1016.344,859.663s153.013-125.288,220.041-181.292c0,0,95.766,109.26,252.622,235.258l-304.761,127.6-211.093-138.871,43.192-42.695Z"/>
  <path class="cls-17" d="M937.148,790.325s-15.019-2.478-37.276,9.724h0c-14.913,26.138-22.07,55.984-20.631,86.042l12.998,17.145h0c6.843,13.113,19.529,22.178,34.152,24.403l32.412,4.932,40.216-7.544,9.098-9.2,30.758,2.756s7.679-1.141,10.198-8.841l6.04.149c3.532-12.036.068-20.678.068-20.678l-15.399-5.038s3.181-5.546,3.729-9.536c.586-4.273-3.601-11.325-3.601-11.325l-58.28-37.737-44.481-35.252Z"/>
  <polygon class="cls-13" points="1008.118 915.826 952.194 906.867 915.049 896.339 949.362 913.044 990.02 919.038 958.804 932.571 999.02 925.027 1008.118 915.826"/>
  <path class="cls-13" d="M1049.074,909.742s-.149,6.04-10.198,8.841l3.266-5.02-52.051-14.593-69.393-39.749,75.938,32.148,52.438,18.372Z"/>
  <path class="cls-13" d="M939.666,826.055l75.046,47.281,25.069,10.84,15.399,5.038s9.45,10.195-.068,20.678l-6.04-.149s7.039-6.627,5.404-15.279l-41.565-15.627-73.247-52.78Z"/>
  <path class="cls-27" d="M1469.859,780.641s-14.54,59.016,12.83,105.203c42.765-47.897,29.936-102.637,29.936-102.637l-42.765-2.566Z"/>
  <path class="cls-17" d="M1570.469,769.167l-11.896-3.022s-5.256,6.854-7.336,21.726l-13.489,14.65-11.688-.852-2.807,7.276-27.795,7.041-5.178-1.475s-13.8,11.395-31.407,15.052c0,0-30.853-13.47-31.911-40.524,0,0,8.2-10.421,18.133-5.021l3.502-2.306-6.679-5.711s-2.195-9.206,4.25-15.079c6.445-5.873,17.009-.753,17.009-.753l13.11,13.417,7.38,3.892s-5.45-8.895,3.867-16.795c9.317-7.9,22.434-1.272,22.434-1.272,0,0,29.895-42.281,9.769-74.078,0,0-14.02-13.768-23.849-18.082,0,0-.46-29.958,28.127-24.154l6.476,33.323s-2.639,13.611.012,22.993l37.135,31.045,12.734,4.912s9.264,9.843,5.963,21.109c-3.301,11.266-15.866,12.688-15.866,12.688Z"/>
  <polygon class="cls-13" points="1520.096 798.846 1505.004 789.889 1483.668 777.479 1476.288 773.587 1463.178 760.17 1478.727 784.193 1505.013 797.991 1520.096 798.846"/>
  <polygon class="cls-13" points="1478.424 807.326 1457.423 792.693 1448.597 781.713 1445.095 784.019 1454.369 801.964 1466.225 809.151 1478.424 807.326"/>
  <path class="cls-13" d="M1502.161,710.374s-4.565-25.43-6.272-43.123c0,0-2.191-30.887,28.127-24.154,0,0-12.188,17.372-7.871,31.577l14.539,33.555,36.955,22.23s-19.514-10.279-26.6,2.643c-7.241,13.206,5.342,20.634,5.342,20.634l13.318,7.498-28.132,2.461,8.546,10.35-12.878-9.278-17.265-5.354s-13.117-6.628-22.434,1.272c-9.317,7.9-3.867,16.795-3.867,16.795l-7.38-3.892s1.827-13.595,14.678-28.905c0,0-.503-21.794,11.195-34.308Z"/>
  <polygon class="cls-29" points="873.708 1039.8 1020.821 1057.762 1019.966 1072.302 872.852 1062.038 873.708 1039.8"/>
  <polygon class="cls-18" points="135.621 0 0 0 0 1080 356 1080 135.621 0"/>
</svg>
