<?xml version="1.0" encoding="UTF-8" standalone="no"?>
<svg xmlns="http://www.w3.org/2000/svg" xmlns:xlink="http://www.w3.org/1999/xlink" id="Laag_1" viewBox="0 0 1920 1080">
  <defs>
    <style>.cls-1{fill:#c8e2e8;}.cls-1,.cls-2,.cls-3,.cls-4,.cls-5,.cls-6,.cls-7,.cls-8,.cls-9,.cls-10,.cls-11,.cls-12,.cls-13,.cls-14,.cls-15,.cls-16,.cls-17,.cls-18,.cls-19,.cls-20,.cls-21,.cls-22,.cls-23,.cls-24,.cls-25,.cls-26,.cls-27{stroke-width:0px;}.cls-2{fill:#387f91;}.cls-28{stroke-dasharray:0 0 8.258 8.258;}.cls-28,.cls-29,.cls-6,.cls-30,.cls-31,.cls-32{fill:none;}.cls-28,.cls-29,.cls-30,.cls-31,.cls-32{stroke:#414141;stroke-miterlimit:10;stroke-width:2.132px;}.cls-3{fill:#c99071;}.cls-4{fill:#e35c54;}.cls-5{fill:#e0eff3;}.cls-33{clip-path:url(#clippath);}.cls-30{stroke-dasharray:0 0 8.543 8.543;}.cls-7{fill:#af6e48;}.cls-8{fill:#b63f3a;}.cls-9{fill:#b97b50;}.cls-10{fill:#e14e1b;}.cls-11,.cls-15{fill:#005e77;}.cls-12{fill:#e6f2f5;}.cls-13{fill:#f4f4f4;}.cls-14{fill:#cde4ec;}.cls-15{fill-rule:evenodd;}.cls-16{fill:#ec6911;}.cls-17{fill:#f18918;}.cls-31{stroke-dasharray:0 0 8.223 8.223;}.cls-18{fill:#283243;}.cls-19{fill:#08526e;}.cls-20{fill:#e8e7e7;}.cls-21{fill:#d1c79f;}.cls-22{fill:#f2eac4;}.cls-32{stroke-dasharray:0 0 8.713 8.713;}.cls-23{fill:#414141;}.cls-24{fill:#dba784;}.cls-25{opacity:.4;}.cls-25,.cls-26{fill:#fff;}.cls-27{fill:#00526e;}</style>
    <clipPath id="clippath">
      <rect class="cls-6" height="990.575" width="1409.847" x="346.423" y="-1190.575"/>
    </clipPath>
  </defs>
  <rect class="cls-12" height="1080" width="1920" y="0"/>
  <polygon class="cls-14" points="171.567 1080 160 1002 126 990 126 884 176 880 183 801 567 785 568 533 456 530 452 498 413 496 413 461 523 457 524 486 635 483 626 361 600 357 597 327 647 324 645 289 545 289 535 219 508 216 505 138 572 137 574 107 671 104 667.66 0 1346.153 0 1346 54 1389 58 1390 102 1444 105 1444 234 1356 239 1355 288 1326 291 1326 337 1685 356 1687 395 1792 400 1792 442 1741 444 1743 610 1748 911 1798 913 1802 955 1881 957 1881 915 1920 911.429 1920 1080 171.567 1080"/>
  <g class="cls-33">
    <path class="cls-11" d="M1635.859-512.722h0c58.906-19.491,97.022-63.67,97.022-63.67-29.02-61.072-93.557-118.678-126.042-144.666,0,0,3.032-19.058,2.599-42.447,0,0,4.764-10.828,7.363-19.491,0,0-18.192-51.976-26.854-69.301,0,0-12.561-77.098-56.74-118.245,0,0-11.695,0-19.491,3.032,0,0-9.529-10.828-24.255-15.593,0,0-55.874,8.23-85.327,59.339,0,0-13.427,51.976-13.427,84.028,0,0,2.166,20.79,11.261,51.543,0,0-16.026,2.166-27.287,4.764,0,0-14.726,7.796-25.988,17.758-1.733,6.93-1.299,16.459-1.299,16.459-16.026,10.828-36.816,26.854-51.11,45.046,0,0-40.281,135.137-42.014,202.706,0,0,14.293,104.385,31.186,148.131,0,1.299-.866,2.599-1.299,4.331,0,6.93,3.032,12.994,7.796,16.892,0,6.064,0,11.695.433,16.459-10.395,115.646,19.058,236.924,19.058,236.924,0,0,74.499,108.716,135.137,176.718l6.064,61.938s2.166.866,6.064,1.733v40.281l-3.032-.866-1.733,8.663,2.599.866-3.465,14.293v13.427h0v-13.86l-4.331,12.994-8.663,47.645,6.93,27.72h65.836l6.93-20.79-11.261-21.223-1.299-42.447-3.032,12.128h0l3.032-12.128v-5.198h.866l.866-8.663h-2.166v-11.261l7.796-33.784h3.898s-.866,2.599-2.166,3.465l23.389,35.95c12.561,35.084,12.561,88.792,12.561,88.792l14.293,7.796c42.447-34.217,39.415-74.066,28.587-93.124-10.828-19.058-6.93-37.683-6.93-37.683h4.764v-35.084c-17.758-16.892-45.479-8.663-45.479-8.663h0l-12.128-23.389,25.988-93.124-14.293-71.9s71.034-103.519,97.022-192.311c25.988-88.792-20.357-204.439-20.357-204.439h0l-2.166-12.561v-5.198c3.032-2.599,5.198-4.764,5.198-4.764-.433-5.198,3.032-19.058,3.465-22.956l4.764-12.561.866-.433ZM1629.362-594.151l12.128,4.764-31.619,49.377c-3.898-11.695-7.363-18.625-7.363-18.625,0,0,18.625-12.128,26.854-35.517ZM1334.398-452.083h0c-.866,1.299-1.299,2.599-2.166,3.898l-3.465-72.333,26.421-97.022h0s8.663,56.74,6.064,82.295c-3.032,25.555-17.758,60.639-17.758,60.639l-8.663,22.523h-.433Z"/>
    <path class="cls-27" d="M1484.695-69.627c-1.299-20.79-4.331-48.078-7.363-74.499h0c3.465-1.299,5.631-4.764,5.198-8.229l-21.657-138.602-76.665,1.299-18.625-42.447c5.631-12.128,11.261-25.122,11.261-25.122l-16.892-49.81v-12.128c-.433,0,4.331,0,4.331,0l2.599-22.09,6.93-9.962c9.096-109.149,6.93-199.674,6.93-199.674,0,0-14.726-115.213-84.028-232.592-45.046-22.09-94.856-34.217-94.856-34.217l-13.86-10.395,1.733-2.166-11.695-19.924h-6.93c0-4.764,0-9.529,1.299-13.86h4.764c1.733-3.898,3.465-7.796,5.198-11.695,12.561-4.331,29.886-44.18,19.491-51.976-.433,0-.866-.433-1.299-.866,7.796-31.186,6.497-47.645,6.497-47.645-26.854-30.319-64.97-46.345-64.97-46.345-69.301-3.465-103.086,35.084-103.086,35.084,2.166,7.796,6.497,14.293,11.695,19.924-6.064,15.16-6.93,28.154-6.93,28.154l3.898,22.523-4.764,31.186v.866c.866,10.395,4.764,21.657,10.828,31.619,5.198,9.529,12.994,18.625,24.255,24.255-1.299-.866-2.599-1.733-3.465-2.599,1.733,1.299,3.898,2.166,6.064,3.032h0c-.866,0-1.299-.433-2.166-.866.433,0,1.299.866,1.733,1.299-2.166.866-3.898,1.733-6.064,3.032l-7.796,16.459v4.331l-6.064,5.631c-44.18,13.86-93.557,44.18-93.557,44.18-55.874,133.838-61.072,315.321-61.072,315.321l-4.764,16.026c4.764,35.517,25.555,91.391,25.555,91.391l9.529,14.726,11.695,24.689,32.052,272.007,15.593,25.555,11.695,216.566-5.631,23.822,10.828,29.02-12.994,46.345,4.764,1.733-28.587,30.752-36.816,12.994s-25.988,12.561-29.453,28.587h-4.331v17.758h194.477v-18.625l-3.898-38.549,5.631,2.166,5.631-34.217-14.726-32.918,15.593-26.421,4.764-241.255-10.828-29.02,19.058-148.131,45.479,168.055,19.058,22.956,29.02,213.534-15.593,35.517,11.695,56.74-4.764,19.924c-9.096,7.363-20.79,30.319-20.79,30.319v19.924h114.347v-22.09c0-15.593-11.695-48.511-11.695-48.511l13.86-40.281-9.962-15.593,11.695-24.689c6.93-32.918,4.331-107.417.433-167.622l181.483-64.104v.433ZM1301.047-280.13c2.166-9.962,6.497-30.319,10.828-42.014,5.631,9.096,19.058,14.293,19.058,14.293,1.733-1.299,2.166-2.166,2.166-2.166h12.994l11.695-9.529,8.229,30.752-65.836,9.096.866-.433ZM1298.881-454.682l9.962,6.93,4.331,32.052h3.898c-1.733,6.064-4.764,12.561-4.764,12.561-9.962,14.293-15.593,38.116-15.593,38.116,1.299,9.529-1.733,21.223-1.733,21.223,0,0-5.631,4.331-9.096,16.026v-124.742c.433,0-7.363-35.084-7.363-35.084v-9.096l9.962-9.529-4.764-112.181,7.796-19.491,4.331,16.026,2.599,166.756.433.433Z"/>
    <path class="cls-15" d="M960.605,292.472s-44.613-20.357-81.862-28.587l-3.032-3.032,3.465-.866-10.828-21.223,9.529-30.752-21.223-25.988,11.695-172.82-8.229-17.758,11.695-22.523s34.217-135.137,27.287-244.72c4.764-9.962,9.096-24.255,9.962-43.746l-3.465-27.72,26.421-4.331c20.79-8.663,25.988-26.421,25.988-26.421l-3.465-10.828-2.599-23.822s0-.433-.866-1.299l4.331-132.105-24.689-128.207-29.453-84.894c-11.261-4.764-23.822-9.096-37.683-12.994.866-2.166,1.733-4.331,2.166-6.93,0,0-8.663-6.93-19.491-8.663l-17.758-19.491s-9.096-3.465-22.523-7.796v-22.523c25.555-16.892,27.72-45.912,27.72-54.142,9.529.866,20.79-36.383,10.828-40.714-3.898-1.733-6.064-1.733-7.796-.866,0,0,6.93-22.09,8.663-48.944l-7.796,7.363,1.733-17.325s-12.994-7.796-21.223-6.93c0,0-11.695-24.689-34.217-29.886,0,0-47.211-12.128-74.499,19.058l-32.918,34.217s11.695,2.599,20.79,10.395c0,0-11.695,5.631-22.09,6.064,0,0,15.16,36.816,25.988,44.613,1.733,10.395,6.497,21.657,11.261,22.09,0,8.23,4.331,38.982,30.319,55.874,0,.866,0,1.733-.433,2.599,0,.866,0,1.733-.433,3.032,0,.866-.866,2.166-1.299,3.032-24.689-2.166-44.613,3.032-44.613,3.032l-11.695,21.657-9.962-3.898-16.026,16.026s-.866,3.032-1.299,8.229l-67.569,29.02s-29.453,97.455-33.784,213.101l4.764,21.657-7.796,18.625s-6.064,106.551,0,193.177l12.561.866,13.427.866h0l2.599,57.174,16.892,29.453,6.064,2.599,4.764,5.631,8.663,2.166c1.733,10.828,3.032,20.357,4.331,28.154.866,6.064,1.733,11.695,3.032,17.325.866,4.331,1.299,6.497,1.299,6.497l-19.924,119.545,2.166,21.223s-41.148,147.265-35.084,263.345l13.427,21.223-33.351,27.287h0c-4.764,2.599-6.93,4.764-6.93,4.764v12.561h118.245v-17.325l-2.166-17.758,29.886-51.976-15.593-51.11s-1.299-161.125,87.493-350.404L776.956-1.626c-19.491,81.862-22.956,186.68-4.331,262.478l2.166,28.587h.866l-.433,8.663h-.866v16.026s106.118-.433,138.602,0c32.485.433,50.677-7.796,50.677-7.796l-2.599-12.561-.433-1.299ZM624.061-434.758v-33.784c.433,0-3.032-4.764-3.032-4.764l6.497-8.663,7.363-75.365s6.497,68.435-10.828,122.143v.433Z"/>
  </g>
  <polygon class="cls-16" points="268.891 964.34 162.594 962.935 159.784 921.728 268.891 919.387 268.891 964.34"/>
  <polygon class="cls-16" points="211.762 966.841 326.487 969.023 326.019 1000.557 215.508 1002.27 211.762 966.841"/>
  <polygon class="cls-17" points="273.573 945.301 373.314 942.8 373.782 965.745 273.573 964.032 273.573 945.301"/>
  <polygon class="cls-10" points="252.033 1005.08 198.651 1007.889 199.587 1048.16 252.033 1048.16 252.033 1005.08"/>
  <polygon class="cls-10" points="285.748 839.781 230.493 835.099 235.175 916.577 290.431 915.641 285.748 839.781"/>
  <path class="cls-19" d="M350.13,838.981s-68.752-58.439-68.752-147.817,6.875-127.191,3.438-147.817c0,0,37.814,65.314,51.564,161.567,13.75,96.253,20.626,113.441,13.75,134.066Z"/>
  <path class="cls-19" d="M391.381,808.043s-6.875-44.689-24.063-99.69c-17.188-55.002,17.188-154.692,10.313-206.256,0,0,44.689,24.063,48.126,92.815,3.438,68.752-6.875,151.254-6.875,151.254l-27.501,61.877Z"/>
  <path class="cls-2" d="M339.817,935.234s-3.438-10.313-37.814-34.376c-34.376-24.063-37.814-82.502-41.251-106.566-3.438-24.063-13.75-48.126-13.75-48.126,0,0,106.566,30.938,92.815,189.068Z"/>
  <path class="cls-2" d="M353.567,601.787s-37.814,55.002-27.501,110.003c10.313,55.002,37.814,113.441,41.251,154.692,0,0,30.938-85.94,20.626-165.005-10.313-79.065-34.376-99.69-34.376-99.69Z"/>
  <path class="cls-2" d="M405.131,838.981s-10.313-106.566,24.063-189.068c34.376-82.502,44.689-99.69,44.689-99.69,0,0,20.626,72.19-3.438,147.817-24.063,75.627-41.251,106.566-65.314,140.942Z"/>
  <path class="cls-2" d="M436.07,928.359s0-61.877,20.626-99.69c20.626-37.814,61.877-72.19,61.877-72.19,0,0,6.875,68.752-17.188,103.128-24.063,34.376-41.251,51.564-65.314,68.752Z"/>
  <path class="cls-2" d="M439.507,821.793s20.626-79.065,34.376-96.253c13.75-17.188,48.126-44.689,48.126-44.689,0,0-6.875,55.002-27.501,82.502-20.626,27.501-55.002,58.439-55.002,58.439Z"/>
  <path class="cls-2" d="M391.75,928.359s-3.438-68.752,48.126-92.815c0,0,10.313,44.689-6.875,61.877-17.188,17.188-41.251,30.938-41.251,30.938Z"/>
  <path class="cls-2" d="M346.696,1017.888c-.034-.789-3.661-79.38-23.907-143.496l6.556-2.068c20.525,64.996,24.184,144.47,24.219,145.266l-6.868.299Z"/>
  <path class="cls-19" d="M357.007,1021.268c-3.394-122.166-13.626-211.94-13.73-212.833l6.832-.786c.102.893,10.368,90.942,13.771,213.43l-6.872.188Z"/>
  <path class="cls-2" d="M370.762,1017.951c-3.402-54.434-6.847-181.041-6.88-182.314l6.872-.188c.035,1.272,3.476,127.762,6.87,182.072l-6.862.43Z"/>
  <path class="cls-19" d="M384.506,1028.049h-6.875c0-91.902,13.626-249.659,13.764-251.244l6.848.598c-.138,1.578-13.737,159.043-13.737,250.646Z"/>
  <path class="cls-2" d="M387.958,1024.934c-10.257-109.412,23.85-223.622,24.196-224.763l6.58,1.994c-.342,1.128-34.059,114.092-23.931,222.125l-6.845.645Z"/>
  <path class="cls-2" d="M405.145,1021.486c-13.719-150.909,43.019-222.927,45.441-225.918l5.346,4.321c-.576.715-57.383,73.083-43.939,220.973l-6.848.624Z"/>
  <path class="cls-2" d="M422.319,1017.737h-6.875c0-61.974,33.32-129.33,34.739-132.166l6.15,3.075c-.341.681-34.013,68.765-34.013,129.091Z"/>
  <path class="cls-18" d="M494.509,1052.113c0-13.75-10.313-37.814-10.313-37.814h-206.256c-6.875,20.626-6.875,34.376-6.875,34.376.969,11.143,2.988,21.576,5.697,31.325h213.088c3.795-13.098,4.66-23.051,4.66-27.887Z"/>
  <polygon class="cls-5" points="1278.764 1080 1278.764 77.063 724.049 77.063 724.049 1080 878.158 1080 1278.764 1080"/>
  <polygon class="cls-1" points="1278.764 77.063 724.048 77.063 724.049 1080 752.663 1080 769.52 282.156 1278.764 272.79 1278.764 249.672 769.52 249.672 775.139 106.087 1278.764 96.722 1278.764 77.063"/>
  <path class="cls-19" d="M699.985,53v1027h24.063V249.672h554.716v830.328h24.063V53h-602.843ZM724.048,214.701V77.063h554.716v137.638h-554.716Z"/>
  <polyline class="cls-29" points="923.888 653.826 981.965 456.367 1071.402 635.242"/>
  <polygon class="cls-26" points="883.235 839.478 1000.917 827.286 1031.324 824.136 1141.093 812.763 1125.993 608.527 861.166 637.565 883.235 839.478"/>
  <path class="cls-23" d="M911.904,753.205c-.603-5.6-.57-11.014.099-16.244.668-5.229,1.878-9.879,3.627-13.955,1.748-4.076,3.929-7.318,6.538-9.729,2.61-2.409,5.491-3.784,8.644-4.124,4.217-.453,8.314.99,12.29,4.332,3.977,3.343,7.357,8.086,10.141,14.232,2.785,6.146,4.579,12.967,5.386,20.458.599,5.562.578,10.926-.064,16.094-.643,5.167-1.842,9.8-3.601,13.895-1.757,4.097-3.924,7.367-6.496,9.812-2.573,2.444-5.447,3.839-8.62,4.181-4.283.461-8.423-.969-12.418-4.288-3.998-3.321-7.381-8.044-10.152-14.174-2.77-6.127-4.562-12.958-5.372-20.489ZM929.271,787.376c-2.209-2.341-4.135-5.171-5.779-8.49-1.643-3.319-3.032-7.224-4.163-11.712-1.132-4.488-1.991-9.454-2.577-14.899-.865-8.033-.912-14.953-.14-20.761.771-5.806,2.44-10.879,5.007-15.219-2.325,2.712-4.213,5.963-5.662,9.753-1.45,3.788-2.419,7.966-2.906,12.529-.487,4.566-.458,9.378.087,14.438.54,5.021,1.536,9.729,2.988,14.123,1.451,4.396,3.291,8.31,5.519,11.742s4.77,6.264,7.627,8.496ZM920.078,751.916c.611,5.677,1.536,10.9,2.775,15.669,1.239,4.771,2.712,8.792,4.416,12.066,1.704,3.273,3.595,5.717,5.67,7.33,2.075,1.612,4.255,2.295,6.537,2.049,3.717-.399,6.684-3.375,8.9-8.927,1.347-3.427,2.197-7.826,2.554-13.197.357-5.37.167-11.474-.569-18.31-.641-5.947-1.571-11.277-2.793-15.991-1.222-4.711-2.672-8.678-4.349-11.896-1.677-3.218-3.542-5.634-5.597-7.249-2.054-1.616-4.243-2.299-6.568-2.048-2.305.248-4.287,1.39-5.947,3.423-1.661,2.036-2.972,4.832-3.929,8.394-.958,3.562-1.534,7.803-1.73,12.727-.196,4.926.014,10.245.63,15.961ZM947.178,785.507c7.079-9.005,9.775-21.329,8.092-36.971-.54-5.02-1.496-9.771-2.87-14.252-1.373-4.482-3.062-8.423-5.065-11.82s-4.207-6.042-6.609-7.934c5.559,6.903,9.183,18.195,10.871,33.874.494,4.597.733,9.015.718,13.255-.017,4.242-.271,7.97-.76,11.187-.241,1.629-.536,3.087-.881,4.373-.345,1.288-.797,2.598-1.358,3.927-.561,1.33-1.273,2.784-2.137,4.361Z"/>
  <path class="cls-23" d="M976.64,747.583l2.202,20.45c.369,3.438.769,5.924,1.197,7.46.431,1.536,1.082,2.901,1.96,4.097,1.58,2.018,3.673,3.18,6.278,3.484l.193,1.796-21.65,2.331-.193-1.796c2.273-.948,3.807-2.734,4.602-5.359.627-1.942.642-5.675.048-11.198l-4.709-43.737c-.378-3.514-.761-6.051-1.149-7.611-.388-1.56-.936-2.868-1.642-3.925-1.265-1.935-3.023-3.152-5.275-3.652l-.193-1.796c.33.004.604-.007.82-.03l2.901-.019c1.164-.008,2.508-.095,4.029-.258,2.412-.26,4.578-.669,6.498-1.228l4.489-1.187c1.453-.391,2.854-.659,4.202-.804,5.064-.546,9.232.852,12.506,4.192,3.273,3.338,5.256,8.215,5.945,14.625.408,3.786.24,7.339-.502,10.66-.742,3.323-1.954,5.954-3.637,7.893-2.376,2.64-6.216,4.243-11.52,4.814l-1.337.144-6.064.653ZM971.067,783.755l9.521-1.025-1.454-1.543c-.842-.885-1.398-1.606-1.666-2.164-.271-.558-.468-1.414-.592-2.573-.066-.617-.115-1.032-.149-1.243s-.063-.435-.088-.665l-.106-.985-5.831-54.165-.106-.984c-.024-.232-.045-.464-.058-.696-.015-.234-.054-.639-.116-1.219-.116-1.08-.113-1.921.01-2.521.122-.599.453-1.356.992-2.274l.196-.315,1.558-2.687-1.161.241c-1.953.446-3.723.753-5.31.924-.979.105-2.321.192-4.029.258l1.966,2.015c.809.773,1.356,1.467,1.642,2.081.285.613.491,1.5.616,2.658.092.655.171,1.292.237,1.909l.106.984,5.831,54.164.106.986c.066.617.124,1.256.174,1.914.129,1.197.126,2.087-.01,2.667-.136.582-.532,1.396-1.188,2.442l-1.091,1.817ZM976.371,745.093l5.348-.575c3.457-.372,5.979-1.64,7.572-3.804,1.189-1.613,2.01-3.851,2.46-6.712.451-2.861.487-6.049.108-9.563-.603-5.6-2.028-9.958-4.277-13.076-2.248-3.118-4.949-4.507-8.1-4.167-1.544.166-2.798.73-3.76,1.692-.963.964-1.607,2.283-1.933,3.959-.388,1.917-.362,4.903.074,8.958l2.507,23.288ZM989.068,743.55c2.929-1.799,5.027-4.417,6.296-7.856,1.267-3.437,1.65-7.493,1.147-12.166-.316-2.935-.983-5.559-2.003-7.871-1.019-2.312-2.309-4.185-3.87-5.62-1.562-1.433-3.355-2.372-5.383-2.819,4.33,3.246,6.93,8.905,7.799,16.977.474,4.402.376,8.203-.291,11.398-.667,3.198-1.898,5.852-3.695,7.958Z"/>
  <path class="cls-23" d="M1037.312,699.62l3.559,21.417-1.043.112c-1.847-6.521-4.052-11.233-6.619-14.143-2.567-2.907-5.633-4.17-9.197-3.786l-1.827.197c-2.848.306-4.758,1.499-5.732,3.576-.975,2.078-1.217,5.396-.726,9.952l2.12,19.697,4.336-.467c3.282-.354,5.575-1.528,6.878-3.524,1.303-1.995,1.979-5.419,2.027-10.268l.979-.105,3.155,29.312-.979.105c-.851-3.814-1.748-6.697-2.694-8.646-.947-1.95-2.123-3.268-3.526-3.957-1.405-.688-3.238-.911-5.498-.668l-4.435.478,2.701,25.084c.411,3.823.928,6.728,1.547,8.712.621,1.983,1.48,3.326,2.579,4.029,1.098.702,2.56.954,4.385.758l3.001-.323c2.955-.318,5.585-2.241,7.888-5.771,2.544-3.945,4.879-9.314,7.007-16.107l.191-.666,1.143-.122-1.305,24.05-38.507,4.146-.193-1.796c2.273-.948,3.807-2.734,4.602-5.359.627-1.943.643-5.675.049-11.198l-4.709-43.737c-.379-3.514-.762-6.051-1.15-7.611-.388-1.56-.936-2.868-1.642-3.925-1.321-2.046-3.078-3.263-5.275-3.652l-.193-1.796,37.105-3.995ZM1012.966,779.244l9.521-1.025-1.454-1.543c-.842-.885-1.397-1.606-1.666-2.164-.271-.557-.467-1.414-.591-2.573-.066-.617-.116-1.032-.15-1.243s-.063-.435-.088-.665l-.106-.985-5.831-54.165-.106-.984c-.024-.232-.045-.464-.058-.696-.015-.234-.053-.639-.115-1.219-.125-1.158-.107-2.069.053-2.73.159-.662.541-1.455,1.145-2.381l1.597-2.631-10.693,1.15,2.12,2.232c.842.887,1.397,1.607,1.667,2.165.269.558.466,1.415.591,2.573.092.655.171,1.291.237,1.908l.106.984,5.831,54.166.106.984c.066.617.124,1.257.174,1.915.129,1.197.126,2.087-.01,2.667-.136.582-.532,1.396-1.188,2.443l-1.091,1.816ZM1030.815,732.727c-.501,1.07-.899,1.807-1.197,2.209-.297.404-.938,1.031-1.926,1.878,1.284.487,2.594,1.615,3.927,3.387l-.804-7.474ZM1035.097,702.027l-4.695.506c1.312.758,2.396,1.617,3.245,2.58.852.964,1.851,2.477,2.997,4.542l-1.547-7.628ZM1044.594,775.839l.665-10.971c-.616,1.629-1.243,3.113-1.879,4.45-.637,1.339-1.378,2.62-2.225,3.844-.848,1.226-1.723,2.336-2.626,3.33l6.064-.653Z"/>
  <path class="cls-23" d="M1098.03,774.95l-.979.105-43.092-63.865,4.217,38.867c.466,4.325.98,7.786,1.548,10.381.564,2.597,1.264,4.807,2.099,6.632,1.935,4.09,4.624,6.495,8.065,7.218l.193,1.796-17.052,1.836-.193-1.796c2.728-2.247,4.29-6.106,4.689-11.581.157-1.812.187-3.8.085-5.957-.101-2.156-.327-4.877-.681-8.161l-4.466-41.478c-2.027-2.906-3.561-4.89-4.598-5.951-1.039-1.061-2.177-1.835-3.417-2.327l-.193-1.796,12.65-1.362c.697,1.565,1.42,2.974,2.17,4.221.151.18.434.618.851,1.315.414.697.69,1.155.824,1.375l.673,1.041,33.183,49.346-4.29-39.855c-.437-4.056-1.084-7.357-1.94-9.9-.856-2.545-1.977-4.466-3.357-5.763-1.382-1.296-3.113-2.106-5.193-2.43l-.193-1.796,15.553-1.675.193,1.796c-2.205,1.371-3.564,3.393-4.079,6.065-.516,2.673-.43,7.195.257,13.568l6.474,60.131ZM1096.397,771.435l-.979-9.096-36.833-54.753c-1.671-2.438-3.074-4.963-4.213-7.574l-6.652.716c1.77,1.528,3.65,3.786,5.645,6.775l43.032,63.932ZM1062.918,773.866c-1.053-1.605-1.869-3.012-2.45-4.219-.58-1.206-1.167-2.717-1.757-4.528-.202,2.015-.472,3.693-.81,5.039-.341,1.347-.884,2.82-1.635,4.424l6.651-.716ZM1084.338,696.785c1.143.813,2.037,1.676,2.686,2.582.646.907,1.33,2.259,2.053,4.058.191-1.897.375-3.264.547-4.103.175-.841.498-1.91.975-3.211l-6.26.674Z"/>
  <polyline class="cls-29" points="891.883 822.654 892.336 826.893 896.577 826.455"/>
  <line class="cls-30" x1="905.074" x2="1121.763" y1="825.577" y2="803.183"/>
  <polyline class="cls-29" points="1126.012 802.744 1130.252 802.305 1129.906 798.056"/>
  <line class="cls-31" x1="1129.238" x2="1116.22" y1="789.86" y2="630.038"/>
  <polyline class="cls-29" points="1115.886 625.94 1115.54 621.69 1111.298 622.116"/>
  <line class="cls-32" x1="1102.628" x2="881.552" y1="622.984" y2="645.125"/>
  <polyline class="cls-29" points="877.217 645.56 872.975 645.985 873.429 650.224"/>
  <line class="cls-28" x1="874.308" x2="891.443" y1="658.435" y2="818.548"/>
  <path class="cls-23" d="M962.032,687.674l2.066-23.652,2.58-.271,7.414,22.658,2.067-23.651,1.985-.209-2.785,26.547-3.869.406-6.163-18.454-2.028,19.312-3.869.405-8.073-23.576c-.885.093-1.611.328-2.183.705s-1.016.847-1.332,1.409c-.317.562-.529,1.182-.634,1.862-.104.681-.119,1.369-.047,2.066.105,1,.338,1.881.699,2.641.362.762.845,1.451,1.45,2.068-.465.049-.935.027-1.413-.063-.477-.09-.916-.292-1.319-.603-.402-.309-.749-.748-1.04-1.317-.291-.568-.483-1.307-.579-2.212-.109-1.047-.02-2.065.269-3.061.29-.991.777-1.884,1.465-2.673.688-.788,1.566-1.45,2.639-1.984,1.071-.536,2.327-.879,3.769-1.03.255-.026.507-.041.753-.043s.499.007.76.026l7.419,22.692Z"/>
  <path class="cls-23" d="M990.861,674.256c.171,1.627-.355,3.057-1.576,4.288-1.223,1.232-3.004,2.101-5.349,2.605.191.92.439,1.657.743,2.212.305.556.649.983,1.033,1.284.384.3.81.491,1.276.57.466.081.942.096,1.432.044.743-.077,1.434-.279,2.068-.604.636-.325,1.141-.825,1.518-1.499.038.161.072.315.101.466.027.15.048.283.061.398.056.535-.028,1.024-.252,1.472s-.545.85-.966,1.211c-.42.36-.918.655-1.494.879-.574.225-1.188.372-1.838.439-.791.083-1.596.021-2.416-.187-.821-.207-1.585-.599-2.291-1.17-.705-.572-1.31-1.349-1.812-2.33-.503-.98-.83-2.204-.984-3.667-.102-.977-.104-2.046,0-3.208.102-1.16.362-2.257.784-3.288.42-1.03,1.02-1.916,1.8-2.655s1.798-1.176,3.053-1.308c.58-.061,1.15-.056,1.71.015.56.071,1.077.251,1.555.542.477.292.879.714,1.208,1.267.327.552.54,1.294.638,2.223ZM983.759,679.792c1.624-.428,2.87-1.146,3.739-2.153.87-1.007,1.234-2.173,1.096-3.498-.093-.883-.31-1.501-.651-1.852-.343-.352-.793-.499-1.351-.44-.604.063-1.108.353-1.513.864-.405.512-.72,1.15-.944,1.913-.227.765-.367,1.602-.424,2.512-.058.91-.042,1.795.048,2.654Z"/>
  <path class="cls-23" d="M1013.33,682.12c-.193-.025-.357-.126-.494-.301-.138-.173-.216-.353-.235-.539-.039-.37.077-.672.352-.899.271-.229.597-.361.972-.401.518-.054,1.004.07,1.463.375.46.305.725.794.795,1.467.037.349-.021.707-.171,1.075-.149.369-.384.711-.705,1.025-.32.316-.715.593-1.185.829-.47.238-1.007.388-1.613.452l-9.157.959,5.921-16.338-3.012.315c-.514.054-.972.132-1.373.232s-.592.255-.569.465c.024.232.143.408.354.526s.331.295.355.527c.026.256-.094.515-.36.777-.266.264-.631.419-1.095.468-.651.068-1.172-.13-1.561-.595-.389-.464-.619-1.033-.69-1.707-.063-.604.146-1.126.629-1.564.482-.438,1.398-.728,2.747-.869l8.666-.908-5.911,15.773c.14-.015.415-.031.823-.051.409-.02.848-.042,1.314-.068.467-.024.923-.048,1.366-.072.444-.023.783-.047,1.016-.071.418-.044.742-.147.974-.313.231-.165.359-.354.385-.569Z"/>
  <path class="cls-23" d="M1013.896,662.362c-.065-.628.098-1.196.49-1.708.393-.511.914-.801,1.565-.869.628-.065,1.197.109,1.711.525s.803.938.869,1.566c.068.65-.107,1.221-.525,1.711-.419.49-.94.769-1.568.834-.651.068-1.221-.095-1.708-.491-.488-.394-.766-.918-.834-1.568ZM1018.535,666.95l1.242,11.853c.029.278.067.598.117.957s.144.695.282,1.009c.139.315.317.572.539.772.22.199.528.279.923.237.186-.02.41-.065.674-.141.262-.075.46-.142.595-.203.034.113.063.216.085.308s.039.196.051.312c.042.396-.011.747-.154,1.056-.144.311-.346.564-.606.769-.26.203-.562.365-.901.482-.34.118-.684.195-1.032.231-.697.073-1.282-.013-1.754-.256-.472-.244-.868-.591-1.184-1.04-.318-.447-.553-.957-.707-1.529-.154-.569-.261-1.146-.321-1.728l-1.333-12.724,3.485-.365ZM1026.656,666.099l1.75,16.697c.562-.246,1.057-.51,1.485-.79.429-.279.791-.635,1.086-1.065.296-.43.521-.971.677-1.622.154-.649.238-1.469.254-2.457l1.289-.135c-.058,1.251-.189,2.281-.399,3.09-.208.809-.503,1.475-.883,1.994-.38.523-.852.947-1.416,1.277-.565.328-1.219.65-1.962.963l.234,2.23c.114,1.093.095,2.029-.059,2.809-.152.778-.408,1.429-.764,1.947-.357.52-.786.911-1.286,1.175-.503.264-1.043.426-1.624.487-1.163.121-2.104-.114-2.823-.709-.72-.594-1.129-1.367-1.229-2.32-.063-.604.012-1.164.228-1.681.217-.515.519-1,.905-1.45.387-.452.838-.863,1.351-1.234s1.037-.702,1.57-.993l-1.87-17.848,3.485-.365ZM1022.017,661.512c-.065-.629.098-1.197.491-1.709.392-.511.914-.801,1.565-.869.627-.065,1.197.11,1.711.526s.802.938.868,1.565c.068.65-.106,1.222-.524,1.711-.419.491-.941.769-1.568.834-.651.068-1.222-.095-1.708-.491-.489-.394-.767-.917-.835-1.567ZM1024.188,690.956c.627-.066,1.015-.348,1.162-.845.147-.496.179-1.152.094-1.965l-.256-2.44c-1.107.656-1.876,1.271-2.309,1.846s-.616,1.186-.548,1.837c.056.534.245.943.569,1.227.323.283.752.396,1.287.341Z"/>
  <path class="cls-23" d="M1034.186,665.31l.277,2.65c.283-.665.583-1.207.904-1.628.319-.422.656-.744,1.008-.97.354-.225.695-.384,1.025-.478.33-.093.646-.156.95-.188,1.045-.109,1.907,0,2.589.328.68.328,1.215.783,1.604,1.365.391.581.676,1.238.859,1.971.183.733.311,1.447.384,2.145.08.768.147,1.701.204,2.798.058,1.099.139,2.158.246,3.182.024.231.065.51.122.833.059.323.159.63.309.919.147.29.349.533.605.729.254.196.603.271,1.045.225.162-.017.357-.055.588-.113.228-.06.394-.153.498-.281l.026.244c.065.627.034,1.123-.091,1.488-.127.365-.296.654-.509.865-.213.209-.457.352-.73.429-.274.075-.515.124-.725.146-.721.076-1.353-.005-1.894-.241-.541-.237-1.007-.582-1.395-1.035-.389-.453-.69-.991-.909-1.613-.218-.623-.364-1.296-.44-2.017-.021-.208-.057-.598-.104-1.169-.049-.57-.102-1.181-.157-1.833-.057-.652-.109-1.27-.159-1.851-.049-.583-.086-.99-.11-1.224-.078-.742-.201-1.353-.368-1.828s-.37-.842-.608-1.1c-.237-.257-.498-.429-.776-.517-.28-.09-.57-.117-.872-.086-.721.076-1.312.432-1.773,1.067-.462.635-.784,1.656-.966,3.061l1.169,11.155-3.485.365-1.826-17.43,3.485-.365Z"/>
  <circle class="cls-4" cx="981.965" cy="456.367" r="14.497"/>
  <rect class="cls-1" height="209.784" width="39.334" x="1194.706" y="763.534"/>
  <rect class="cls-19" height="209.784" width="39.334" x="1211.564" y="746.676"/>
  <polygon class="cls-25" points="1209.691 249.672 1278.764 249.672 1278.764 295.267 878.158 1080 752.663 1080 724.049 1080 724.048 956.46 1209.691 249.672"/>
  <polygon class="cls-21" points="562.501 457.539 568.4 535.603 684.622 536.518 687.228 455.975 562.501 457.539"/>
  <path class="cls-24" d="M735.19,692.656s18.768,28.412,27.109,47.18c8.341,18.768,21.114,41.445,21.114,41.445l12.251,23.981,40.142-21.635s-10.232-46.712-27.37-89.146c-5.827-14.428-11.161-28.167-15.619-39.889-8.106-21.315-13.314-35.963-13.314-35.963l-52.654,56.303,8.341,17.725Z"/>
  <path class="cls-3" d="M792.817,654.592l-13.314-35.963-51.611,64.123s26.588,40.663,34.407,57.085c7.82,16.422,21.114,41.445,21.114,41.445l15.64-30.497-12.512,7.038-29.715-76.635,35.992-26.595Z"/>
  <path class="cls-24" d="M456.182,641.556s-.971,2.718-2.626,7.618c-7.348,21.747-28.188,86.475-37.558,147.38l34.444,11.481,17.222-22.963s13.12-35.852,24.85-56.966c11.73-21.114,29.715-61.777,29.715-61.777l-66.046-24.774Z"/>
  <path class="cls-3" d="M467.664,785.072s45.181-93.719,54.565-118.743l-66.046-24.774-2.626,7.618,43.649,28.104-30.497,94.62-14.597-4.692,15.553,17.866Z"/>
  <path class="cls-24" d="M558.787,538.67l21.153-7.051,3.636-1.212,1.759-.586,3.949-1.316s7.038-10.948-.782-50.047l77.417-2.346s-5.253,33.621,2.139,49.819c.418.917.878,1.778,1.38,2.574,0,0,5.872,3.915,15.184,8.014,1.399.616,2.876,1.236,4.422,1.847,1.961.775,4.033,1.537,6.199,2.259,0,0,15.249,92.274-51.22,92.274s-75.853-52.393-85.236-94.229Z"/>
  <path class="cls-23" d="M568.366,532.61l11.573-.991-11.54,3.984c.433,16.334,5.806,93.973,68.781,93.973s54.368-75.641,51.863-91.21c0,0-1.742-.622-4.422-1.847l3.779-.911s41.054,12.642,66.078,22.026c0,0,21.896,26.588,42.227,87.582l-50.047,26.588s4.692,42.227-29.715,51.611h-173.601s-28.151-12.512-31.279-48.483l-60.995-34.407s21.896-57.867,43.791-81.327l73.507-26.588Z"/>
  <polygon class="cls-4" points="583.224 528.7 585.335 529.821 583.576 530.407 558.982 638.178 541.779 629.576 573.84 527.918 583.224 528.7"/>
  <path class="cls-4" d="M670.852,526.814l42.963,94.942-16.422,8.602-27.956-101.854s-.716-1.029-1.38-2.574l2.795.884Z"/>
  <path class="cls-8" d="M541.779,629.576l172.037-7.82s15.64,32.843,20.332,46.919l-1.564,37.535,15.64,70.379-1.564,14.076s21.896,51.611,26.588,100.094c0,0,16.422,96.966,23.46,189.241h-328.434s-4.692-56.303,23.46-176.729l3.128-59.431,28.151-62.559-1.564-15.64,14.076-53.175-6.256-42.227,12.512-40.663Z"/>
  <polygon class="cls-4" points="570.451 902.229 508.935 902.229 488.213 902.229 488.213 914.219 582.442 914.219 582.442 901.707 570.451 902.229"/>
  <polygon class="cls-4" points="674.716 902.229 779.502 902.229 779.502 914.219 673.674 914.219 674.716 902.229"/>
  <path class="cls-3" d="M665.918,476.111l-77.416,2.346c3.012,15.058,3.811,25.909,3.665,33.597,8.748,8.59,19.834,14.298,33.889,14.298,16.499,0,28.908-7.86,38.239-19.029-.87-15.233,1.623-31.213,1.623-31.213Z"/>
  <path class="cls-24" d="M626.056,360.591s-61.041,5.741-57.077,72.331c0,0,7.134,82.447,57.077,82.447s57.077-82.447,57.077-82.447c3.964-66.591-57.077-72.331-57.077-72.331Z"/>
  <path class="cls-4" d="M573.686,913.237l.318,1.169-5.739,105.689c-10.534,3.245-22.11,4.886-34.514,4.886-14.059,0-26.231-2.144-33.695-3.851l-.362-106.911v-.572l73.992-.409M582.442,901.707l-94.229.521v11.99l.391,115.734s19.53,6.51,45.147,6.51c14.091,0,30.022-1.969,45.562-8.074l6.256-115.212-3.128-11.469h0Z"/>
  <path class="cls-4" d="M768.021,913.71v.105l-7.249,102.942c-9.868,2.845-20.31,4.284-31.138,4.284-16.394,0-30.108-3.33-37.711-5.665l-6.734-101.042.053-.625h82.778M779.502,902.229h-104.785l-1.043,11.99,7.298,109.479s20.594,8.825,48.662,8.825c12.867,0,27.3-1.854,42.049-7.261l7.819-111.043v-11.99h0Z"/>
  <path class="cls-24" d="M415.998,796.553s20.473,36.86,50.189,58.756c29.715,21.896,42.749,46.919,42.749,46.919h61.516l15.118,10.948s15.64,13.033,27.63,2.085c0,0-20.332-13.033-27.63-21.896l-26.066-18.768s-8.341-6.256-19.289-6.777l-15.64-11.99s-23.981-16.682-43.791-50.047c-19.81-33.365-28.673-38.578-28.673-38.578l-36.113,29.348Z"/>
  <path class="cls-24" d="M662.726,899.622s3.649,8.341,17.725,6.256c14.076-2.085,18.246-3.649,18.246-3.649h64.644l3.128-7.82s17.725-30.237,35.45-46.398c17.725-16.161,33.365-40.924,33.886-64.383l-23.46-17.986-24.242,4.692s-15.934,34.472-21.896,49.265c-7.038,17.464-15.9,39.881-34.668,47.701l-15.118,5.213s-15.118,11.99-24.502,15.64l-29.194,11.469Z"/>
  <path class="cls-3" d="M576.968,480.217s7.038-65.687,21.896-86.8c0,0,16.422-13.294,32.843-18.768,0,0,23.46,11.73,28.933,33.625,0,0-15.64,1.564-26.588,5.474l7.038,36.753s-10.166,3.91-25.806,0c0,0,7.429,5.865,15.249,5.865s12.903-1.173,19.159-6.647l-7.82-28.151s12.512-13.294,39.099-8.602v-26.588l-53.175-32.061-46.919,28.933s-11.73,55.521-3.91,96.966Z"/>
  <path class="cls-22" d="M592.608,384.033s-7.038,26.588-12.512,52.393c-5.474,25.806,14.858,129.028,14.858,129.028l-11.73-24.242s-2.346,14.076-12.512,20.332c0,0-3.519-14.467-11.925-22.873l-20.136,4.887s13.294-46.137,14.858-64.123l-6.256-14.858s5.474-50.047,14.076-68.815l-.782-13.294s9.384-40.663,58.649-48.483c0,0,7.82,0,15.64,7.038l.782,25.806s-22.678,2.346-43.009,17.204Z"/>
  <path class="cls-22" d="M666.896,500.549s19.55-43.791,10.166-104.004c0,0-8.993-18.768-41.445-29.715l-7.82-12.512,7.038-13.294s9.384-5.474,19.55-5.474c0,0,27.37,20.332,37.535,61.777,0,0,6.256,10.948,8.602,21.114,0,0,.782,25.806-2.346,53.175l7.429,69.206-17.204-5.213-6.647,6.777s1.173-48.874-.782-64.123c0,0-3.91,13.294-14.076,22.287Z"/>
  <path class="cls-21" d="M635.617,366.829s-27.37,7.038-43.009,17.204l-12.512,52.393s0-32.061,10.948-62.559c0,0,14.076-10.948,21.896-14.858,0,0,14.858,2.346,22.678,7.82Z"/>
  <path class="cls-21" d="M635.617,366.829s2.346-10.166-.782-25.806c0,0,6.647,9.775,6.647,16.422l17.595-5.083s16.161,9.514,21.896,34.016c0,0-9.644-20.071-22.678-28.542-6.777,1.173-14.858,5.083-14.858,5.083,0,0,23.069,11.339,33.625,33.625,0,0-18.768-21.896-41.445-29.715Z"/>
  <polygon class="cls-16" points="688.978 201.614 688.978 252.186 606.563 250.313 604.69 207.233 688.978 201.614"/>
  <polygon class="cls-17" points="644.961 163.216 647.771 199.123 688.978 197.25 688.978 165.408 644.961 163.216"/>
  <polygon class="cls-10" points="658.073 273.418 566.292 269.672 564.419 255.305 658.073 255.305 658.073 273.418"/>
  <polygon class="cls-16" points="643.088 185.693 644.025 200.677 553.181 206.296 550.371 180.073 643.088 185.693"/>
  <polygon class="cls-16" points="1310.837 87.357 1310.837 146.358 1344.552 144.485 1343.615 91.103 1310.837 87.357"/>
  <polygon class="cls-17" points="1310.837 151.041 1382.013 149.168 1382.013 186.629 1310.837 181.01 1310.837 151.041"/>
  <polygon class="cls-16" points="1310.837 186.001 1345.488 188.811 1345.488 204.732 1310.837 205.668 1310.837 186.001"/>
  <polygon class="cls-10" points="1310.837 417.016 1310.837 465.716 1414.792 461.033 1414.792 432.001 1360.473 430.128 1359.536 417.016 1310.837 417.016"/>
  <polygon class="cls-16" points="1364.219 394.54 1365.156 425.445 1426.967 428.255 1424.157 392.666 1364.219 394.54"/>
  <polygon class="cls-17" points="1310.837 390.793 1396.998 389.857 1396.998 370.19 1310.837 371.126 1310.837 390.793"/>
  <path class="cls-23" d="M1607.873,285.73s6.554,13.965,12.016,37.996l-25.124,34.955s17.478,38.232,19.662,58.987c0,0-6.554,10.924-15.293,18.57,0,0,2.185,12.016,0,25.124,0,0-30.586,14.201-50.248,10.924l24.032-159.484,34.955-27.073Z"/>
  <polygon class="cls-7" points="1443.656 453.716 1445.112 438.423 1448.389 384.898 1571.825 383.806 1575.467 426.772 1577.651 455.901 1531.408 578.245 1488.806 578.245 1443.656 453.716"/>
  <path class="cls-13" d="M1575.467,426.772l2.185,29.129-43.694,53.161-6.554,42.238-16.021,9.467-16.749-10.924-3.641-41.509-47.335-54.618,1.456-15.293-5.826.728s-2.185,25.488-5.826,39.325l-77.921,31.314-14.565-1.456-71.367,50.977-2.185,48.792-10.924,17.478-17.478,141.278-2.185,37.14-9.467,22.575,8.739,15.293-2.913,16.749s4.369,60.444,43.694,107.051l-6.554,114.333h497.386l-32.042-129.626,15.293-8.739s33.499-66.998,42.238-123.072l-.728-96.855,18.934-34.227-3.641-48.792-40.781-72.824,4.369-21.847s-53.89-42.966-120.887-49.52l-8.739,6.554-46.607-18.934-11.652-50.248-8.011-5.098Z"/>
  <path class="cls-20" d="M1302.378,826.574l-40.053,56.074,42.238-37.14,53.161,28.401,33.499,5.098,2.913,87.388,225.025,7.282.728,21.847s-192.983,32.042-314.598,0l-20.391-16.749,26.217,32.042s184.244,26.945,322.609,4.369l5.098-40.053,104.138.728-7.282-25.488-24.76,10.195-297.849-16.021-2.913-79.378-107.779-38.597Z"/>
  <path class="cls-9" d="M1620.636,298.387c-8.951-13.744-16.626,4.579-16.626,4.579l-3.837-28.629c-5.627-5.954-12.584-11.222-20.113-15.839-42.316-25.947-96.497-25.947-138.813,0-7.53,4.617-14.487,9.884-20.113,15.839l-3.837,28.629s-7.673-18.323-16.626-4.579c-8.951,13.74,1.278,57.256,14.069,49.238,0,0-2.559,46.952,17.902,64.129,20.463,17.176,51.157,56.11,78.012,57.256,26.857-1.145,57.549-40.08,78.012-57.256,20.461-17.178,17.904-64.129,17.904-64.129,12.788,8.017,23.02-35.499,14.067-49.238Z"/>
  <polygon class="cls-20" points="1765.536 820.02 1724.027 813.465 1685.431 799.63 1693.442 717.338 1720.385 589.895 1747.33 538.192 1715.287 582.614 1670.136 704.959 1684.702 603.005 1714.559 545.473 1675.963 598.635 1670.875 615.527 1612.607 766.858 1429.228 775.445 1412.342 604.461 1511.381 560.767 1494.632 549.843 1397.048 595.722 1400.557 776.786 1394.863 777.052 1382.484 696.947 1313.302 565.866 1365.735 696.947 1366.464 746.468 1336.605 745.739 1391.222 795.988 1410.158 801.815 1409.429 793.803 1622.801 802.543 1639.552 792.347 1669.408 793.075 1678.148 806.182 1692.714 829.486 1740.777 884.104 1702.908 820.02 1765.536 820.02"/>
  <circle class="cls-20" cx="1442.928" cy="634.328" r="12.016"/>
  <circle class="cls-20" cx="1595.883" cy="634.328" r="12.016"/>
  <circle class="cls-20" cx="1449.456" cy="738.821" r="12.016"/>
  <circle class="cls-20" cx="1590.76" cy="738.821" r="12.016"/>
  <path class="cls-9" d="M1260.14,677.285l48.064,22.575,28.401,45.879,54.618,50.248,18.934,5.826v63.357h-33.499s-16.021,1.456-37.868-13.108c-21.847-14.565-41.509-21.119-41.509-21.119l-34.955,11.652s-24.76,11.652-34.227-2.913l58.987-34.227-29.129-.728-18.206,6.554s-12.38,3.641-16.749-6.554l29.858-23.304,32.771-4.369-24.032-14.565-15.293,8.739s-4.369,13.836-18.934,8.011l5.826-22.575,24.76-20.391,42.966,13.836-16.021-34.955s-29.129-13.108-24.76-37.868Z"/>
  <path class="cls-9" d="M1724.027,813.465l-31.314-11.652,21.847,2.185,45.151,8.011c25.488,5.098,23.304-13.108,23.304-13.108l-64.085-24.032-28.401.728,26.945-16.749s18.206,2.913,45.151,5.826c26.945,2.913,22.575-16.021,22.575-16.021l-69.911-19.662-16.749,8.739,3.641-13.836,28.401-13.836c29.129-1.456,26.217-22.575,26.217-22.575h-32.042l-38.597,18.934c-10.924,21.847-32.771,52.433-32.771,52.433l-13.836,33.499,29.858.728,8.739,13.108,45.879,7.282Z"/>
  <path class="cls-7" d="M1620.636,298.386c-9.448-13.323-16.626,4.579-16.626,4.579l-5.239-12.373c-46.607-10.196-78.65,5.824-78.65,5.824l10.194,75.737c-21.845,8.74-42.237,0-42.237,0,16.022,18.206,48.792,6.19,48.792,6.19l2.185-12.016c33.317,13.108,49.61,45.426,49.61,45.426,21.209-19.386,17.904-64.129,17.904-64.129,12.896,8.971,23.515-35.916,14.067-49.238Z"/>
  <path class="cls-7" d="M1422.719,281.67s108.872-27.672,174.231,14.201l3.223-21.534s-71.937-41.196-179.04,0l1.586,7.333Z"/>
  <path class="cls-23" d="M1417.296,302.966l1.555,20.328,5.826,6.554,4.825-67.362-16.112,23.176.273,11.37s1.956,2.253,3.634,5.934Z"/>
  <path class="cls-23" d="M1604.01,302.966l-1.599,20.396-5.826,6.554-4.825-67.362,16.112,23.176-.273,11.37s-1.912,2.185-3.59,5.866Z"/>
  <path class="cls-13" d="M1413.388,285.661s29.315-24.023,97.993-24.023,96.491,24.091,96.491,24.091l5.462-59.951,10.195-13.108-8.011-29.129s-65.541-53.161-154.386-41.509l-7.282,9.467-24.032.728-38.597,50.977,8.739,12.38,13.427,70.079Z"/>
  <polygon class="cls-14" points="0 714.911 79 712 86 647 143 644 133 576 55 566 48 373 198 369 198 329 364 325 364 268 262 264 262 213 120 207 116 41 198 37 194.155 0 0 0 0 714.911"/>
</svg>
