<?xml version="1.0" encoding="utf-8" standalone="no"?>
<!-- Generator: Adobe Illustrator 26.5.0, SVG Export Plug-In . SVG Version: 6.00 Build 0)  --><svg xmlns="http://www.w3.org/2000/svg" xmlns:xlink="http://www.w3.org/1999/xlink" id="Laag_1" style="enable-background:new 0 0 593 384;" version="1.1" viewBox="0 0 593 384" x="0px" xml:space="preserve" y="0px">
<style type="text/css">
	.st0{fill:url(#SVGID_1_);}
	.st1{fill:#FFFFFF;}
	.st2{fill:#D5ECF4;}
	.st3{opacity:0.8;fill:#FFFFFF;}
	.st4{fill:#87B2BF;}
	.st5{fill:#377F95;}
	.st6{fill:#00526E;}
	.st7{fill:#003E53;}
	.st8{fill:#283241;}
	.st9{fill:#343434;}
	.st10{fill:#BC3F38;}
	.st11{fill:#A0302D;}
	.st12{fill:#FF9300;}
	.st13{fill:#FA6800;}
	.st14{fill:#CA9E67;}
	.st15{opacity:0.25;fill:#1D1D1B;enable-background:new    ;}
	.st16{fill:#373737;}
	.st17{fill:#E6332A;}
	.st18{opacity:0.2;fill:#414141;enable-background:new    ;}
</style>
<g>
	
		<linearGradient gradientTransform="matrix(1 0 0 -1 0 386)" gradientUnits="userSpaceOnUse" id="SVGID_1_" x1="-132.2562" x2="450.1862" y1="204.1159" y2="204.1159">
		<stop offset="0" style="stop-color:#FFFFFF"/>
		<stop offset="0.226" style="stop-color:#FFFFFF;stop-opacity:0.99"/>
		<stop offset="0.363" style="stop-color:#FCFCFC;stop-opacity:0.957"/>
		<stop offset="0.475" style="stop-color:#FBFCFC;stop-opacity:0.901"/>
		<stop offset="0.574" style="stop-color:#F9FAFB;stop-opacity:0.821"/>
		<stop offset="0.665" style="stop-color:#F7F9F9;stop-opacity:0.718"/>
		<stop offset="0.75" style="stop-color:#F5F7F8;stop-opacity:0.591"/>
		<stop offset="0.83" style="stop-color:#F2F5F6;stop-opacity:0.44"/>
		<stop offset="0.906" style="stop-color:#EEF3F3;stop-opacity:0.265"/>
		<stop offset="0.976" style="stop-color:#EAF0F1;stop-opacity:7.200000e-02"/>
		<stop offset="1" style="stop-color:#E9EFF0;stop-opacity:0"/>
	</linearGradient>
	<path class="st0" d="M593,0L37.1,245c-61.4,27.1-42,118.8,25.1,118.8h529.1L593,0z"/>
</g>
<g>
	<rect class="st1" height="69.6" width="90.5" x="146.9" y="197"/>
	<rect class="st2" height="70.4" width="93.5" x="145.5" y="125.8"/>
	<polygon class="st3" points="187.2,127.4 178,127.4 155.3,195.4 171.3,195.4  "/>
	<polygon class="st3" points="196.2,127.4 190.1,127.4 175.8,195.4 187.5,195.4  "/>
	<g>
		<g>
			<path class="st4" d="M143.1,117.6v156.5h98.3V117.6H143.1z M236.2,264.3h-87.9v-63.8h87.9V264.3z M236.2,193.9h-87.9v-63.8h87.9     V193.9z"/>
		</g>
		<g>
			<path class="st5" d="M143.1,117.6v156.5h2.6V117.6H143.1z"/>
		</g>
		<g>
			<path class="st5" d="M238.8,117.6v156.5h2.6V117.6H238.8z"/>
		</g>
		<g>
			<rect class="st4" height="162" width="8.7" x="135.4" y="113.9"/>
			<rect class="st4" height="162" width="8.7" x="240.4" y="113.9"/>
		</g>
		<polygon class="st5" points="135.4,271.1 144.4,271.1 145.2,268.8 239,268.8 240,271.1 249.1,271.1 249.1,276 135.4,276   "/>
		<rect class="st4" height="11" width="123.1" x="130.7" y="273.3"/>
		<rect class="st5" height="1.5" width="87.9" x="148.3" y="198.9"/>
		<g>
			<polygon class="st5" points="249.1,123.6 240,123.6 239.3,125.8 145.5,125.8 144.5,123.6 135.4,123.6 135.4,118.6 249.1,118.6         "/>
			
				<rect class="st5" height="11" transform="matrix(-1 -1.224647e-16 1.224647e-16 -1 384.4751 231.5536)" width="113.6" x="135.4" y="110.3"/>
		</g>
	</g>
	<g>
		<rect class="st5" height="7.8" width="123.1" x="130.7" y="108"/>
		<polygon class="st5" points="251.7,119.9 132.8,120.3 132.8,117.6 251.7,117.6   "/>
		<polygon class="st5" points="251.7,125.2 132.8,125.2 132.8,122.9 251.7,121.8   "/>
		<polygon class="st5" points="251.7,129.5 132.8,128.4 132.8,126.8 251.7,127.1   "/>
		<polygon class="st5" points="251.7,133.7 132.8,134 132.8,130.4 251.7,131.5   "/>
		<polygon class="st5" points="251.7,138.1 132.8,138.5 132.8,136.3 251.7,135.7   "/>
		<polygon class="st5" points="251.7,143.3 132.8,142.8 132.8,140.5 251.7,140.5   "/>
		<polygon class="st5" points="251.7,147.6 132.8,148.1 132.8,144.8 251.7,145.3   "/>
		<polygon class="st5" points="251.7,152.9 132.8,152.4 132.8,150.1 251.7,149.8   "/>
		<g>
			<rect class="st5" height="41.9" width="1" x="144.9" y="110.6"/>
			<rect class="st5" height="41.9" width="1" x="238.6" y="110.6"/>
			<rect class="st5" height="41.9" width="1" x="191.7" y="110.6"/>
		</g>
		<rect class="st5" height="123.6" width="0.9" x="241.2" y="111.5"/>
	</g>
</g>
<g>
	<path class="st6" d="M421.3,84.4l-3.7-0.3c0,0-0.1,2.7-0.2,6.5l-1.9-0.1c0.1-0.6,0.2-1,0.2-1l-2.9-0.1c0.2-2.5,0.5-3.9,0.5-3.9   l-2.4-0.1c0.1-2.1,0.2-3.4,0.2-3.4l-3.7-0.1l0.1,3l-3.7-0.1c0,0,0.1,1,0.1,2.7l-3.2-0.1c0,0,0.1,0.9,0.1,2.5l-1.7,0   c0.2-4.1,0.4-7.2,0.4-7.2l-3.7-0.1c0,0,0.1,1.1,0.1,2.9l-2.2,0c0,0,0,0.3,0,0.9l-2,0c0.1-1,0.1-1.6,0.1-1.6l-3.7,0   c0,0,0.2,1.6,0.3,4.2l-1.5,0c0.1-1.2,0.1-1.9,0.1-1.9l-3.7,0.1c0,0,1.1,9,0.3,17.9l0,0.9c0,0,1.1,9,0.3,17.9l0,0.9   c0,0,1.1,9,0.3,17.9l0,0.9c0,0,1.1,9,0.3,17.9l0,0.9c0,0,1.1,9,0.3,17.9l0,0.9c0,0,1.1,9,0.3,17.9l0,0.9c0,0,1.1,9,0.3,17.9l0,0.9   c0,0,1.1,9,0.3,17.9l0,0.9c0,0,1.1,9,0.3,17.9l0,0.9c0,0,1.1,9,0.3,17.9l0,0.9c0,0,1.1,9,0.3,17.9l0,0.9c0,0,1.1,9,0.3,17.9l0,0.9   c0,0,1.1,9,0.3,17.9l0,0.9c0,0,1.1,9,0.3,17.9l0,0.9c0,0,0.7,6,0.6,13.2c-0.1,0.8-0.1,1.6-0.2,2.5l0.1,0c0,0.8-0.1,1.5-0.2,2.3   l2.3,0c0,0.3-0.1,0.7-0.1,1l0.6,0c0,0.3,0,0.6-0.1,0.9l1.6,0c-0.2,2-0.5,4-0.8,6.1l1.1,0.1c0,0,0,0.1,0,0.1l3.7,0.1   c-0.1-1.6-0.2-3.1-0.2-4.6l0.1,0c-0.1-0.6-0.1-1.2-0.2-1.8c0-0.3,0-0.5,0-0.8l0.7,0c0,0.1,0,0.3-0.1,0.4l3.7,0.3c0-1,0-2.1,0-3.1   l1.6,0.1c-0.1,0.5-0.1,1-0.2,1.6l3.7,0.1c-0.1-1.2-0.2-2.4-0.2-3.6l3.2,0.1c-0.8-8.7,0.3-17.4,0.3-17.4l0-0.9   c-0.8-8.7,0.3-17.4,0.3-17.4l0-0.9c-0.8-8.7,0.3-17.4,0.3-17.4l0-0.9c-0.8-8.7,0.3-17.4,0.3-17.4l0-0.9c-0.8-8.7,0.3-17.4,0.3-17.4   l0-0.9c-0.8-8.7,0.3-17.4,0.3-17.4l0-0.9c-0.8-8.7,0.3-17.4,0.3-17.4l0-0.9c-0.3-3.8-0.3-7.6-0.2-10.7c0.4-3.7,0.8-6.2,0.8-6.2   l0.1-0.9c-0.3-9,1.3-17.9,1.3-17.9l0.1-0.9c-0.3-9,1.3-17.9,1.3-17.9l0.1-0.9c-0.3-9,1.3-17.9,1.3-17.9l0.1-0.9   c-0.3-9,1.3-17.9,1.3-17.9l0.1-0.9c-0.3-9,1.3-17.9,1.3-17.9l0.1-0.9c-0.3-9,1.3-17.9,1.3-17.9l0.1-0.9   C419.2,98.5,421.3,84.4,421.3,84.4z M405.8,357.3c0,1.1-0.1,2.2-0.1,3.4C405.7,359.5,405.8,358.4,405.8,357.3z"/>
	<g>
		<path class="st5" d="M415.9,69.2l-3.6-0.3c0,0-0.6,14.6-2.4,23.6l-0.1,0.9c0,0,0.1,9.2-1.7,18.2l-0.1,0.9c0,0,0.1,9.2-1.7,18.2    l-0.1,0.9c0,0,0.1,9.2-1.7,18.2l-0.1,0.9c0,0,0.1,9.2-1.7,18.2l-0.1,0.9c0,0,0.1,9.2-1.7,18.2L401,189c0,0,0.1,9.2-1.7,18.2    l-0.1,0.9c0,0,0.1,9.2-1.7,18.2l-0.1,0.9c0,0,0.1,9.2-1.7,18.2l-0.1,0.9c0,0,0.1,9.2-1.7,18.2l-0.1,0.9c0,0,0.1,9.2-1.7,18.2    l-0.1,0.9c0,0,0.1,9.2-1.7,18.2l-0.1,0.9c0,0,0.1,9.2-1.7,18.2l-0.1,0.9c0,0,0.1,9.2-1.7,18.2l-0.1,0.9c0,0,0.1,9.2-1.7,18.2    l3.6,0.3c-0.1-9.2,1.7-18.2,1.7-18.2l0.1-0.9c-0.1-9.2,1.7-18.2,1.7-18.2l0.1-0.9c-0.1-9.2,1.7-18.2,1.7-18.2l0.1-0.9    c-0.1-9.2,1.7-18.2,1.7-18.2l0.1-0.9c-0.1-9.2,1.7-18.2,1.7-18.2l0.1-0.9c-0.1-9.2,1.7-18.2,1.7-18.2l0.1-0.9    c-0.1-9.2,1.7-18.2,1.7-18.2l0.1-0.9c-0.1-9.2,1.7-18.2,1.7-18.2l0.1-0.9c0.9-9.2,1.7-18.2,1.7-18.2l0.1-0.9    c-0.1-9.2,1.7-18.2,1.7-18.2l0.1-0.9c-0.1-9.2,1.7-18.2,1.7-18.2l0.1-0.9c-0.1-9.2,1.7-18.2,1.7-18.2l0.1-0.9    c-0.1-9.2,1.7-18.2,1.7-18.2l0.1-0.9c-0.1-9.2,1.7-18.2,1.7-18.2l0.1-0.9C413.5,83.5,415.9,69.2,415.9,69.2z"/>
		<path class="st5" d="M378.9,282.8c0,0,4.6-3.1,14.3,1.2C393.2,284,385.3,286.2,378.9,282.8z"/>
		<path class="st5" d="M422.6,108.1c-7.9-6.4-11.4-2.7-11.4-2.7S412.8,110.7,422.6,108.1z"/>
		<path class="st5" d="M412.3,94c0,0,3.1-4.7,15-3.1C427.4,90.9,417.4,96.6,412.3,94z"/>
		<path class="st5" d="M412.7,94c0,0,4.4-1.2,11.2,6.5C423.9,100.6,417,99.5,412.7,94z"/>
	</g>
	<path class="st5" d="M364.8,150.4c5-4.6,5.5-11.4,5.5-11.4c-6.1,6.1-6,10.2-5.8,11.3c-0.4-0.8-1.2-3.9-4-5.3c-3.7-1.8-7-3-7-3   c5.5,8.5,9.7,8.9,10.9,8.8c1.8,3.8,3.5,6.9,5.1,9.6c-2-1.1-4.6-1.1-5.7-1.1c-0.2-0.6-0.5-2.8-2.2-4.3c-2.3-1.9-4.8-4.3-4.8-4.3   c0.5,7.2,4.7,8.5,6.4,8.8c-0.6,0.3-1.6,1-2.1,2.3c-0.7,1.9,0.7,6,0.7,6s1.7-2.2,2.1-4.7c0.2-1.4-0.1-3-0.1-3.4   c1.1,0,4.6,0.2,6.7,2.1c3.8,6.2,6.3,8.9,6.5,9.1l0.1,0.1c5.6,2.8,10.3,3.7,10.6,3.7l1.6-1.1c-0.1,0-6.2-0.7-11.7-3.4   c-0.4-0.4-2.8-2.9-6.1-8.2c-0.1-0.5-0.7-4.4,0.6-9.1c0.6,0.4,2.2,1,4.1,0.7c2.6-0.4,6.2-4.1,6.2-4.1s-4.4,0.4-7.4,1.5   c-1.2,0.4-1.9,0.8-2.4,1c0,0,1-1.3,1.3-3.8c0.4-4.1-0.2-5.7-0.2-5.7c-3.7,5.6-2.1,9.9-2.1,9.9c-1,3-1.3,5.8-1.4,7.5   C368.5,157.4,366.7,154.2,364.8,150.4z"/>
	<path class="st5" d="M418.8,169.2c0.9,0.1,1.4,0.7,4.6,0c3.7-0.7,6-3.5,6-3.5c-6.5-0.5-9.5,1.4-10.5,2.7c0.2-3.3,0.3-6.8,0.4-10.4   c1.5-1,6.6-1.3,6.6-13c0,0-5.8,5.4-7,12.1c-0.2-1.6-1.4-5.3-7.6-9.7c0,0,0.7,9.3,7.1,10.4c-0.1,3.7-0.2,7.2-0.4,10.6   c-0.7-1.2-2.7-3.6-7.8-2.5c0,0,2.2,0.8,4.4,2.4c1.6,1.2,2.9,1,3.4,0.8c-0.4,7.8-1.2,14.7-2.1,20.8c-0.4-1.6-1.4-4-3.2-6.5   c0.5-0.5,1.2-1.6,0.7-3.8c-0.7-3-0.5-5.5-0.5-5.5c-3.6,5-1.6,8.2-0.8,9.2c-0.5-0.2-1.5-0.6-2.8-0.4c-1.9,0.3-4.4,3-4.4,3   s3.1-0.3,5.3-1.2c1.3-0.5,1.9-0.8,2.1-1c2.1,2.2,2.9,6.3,3.2,8.8c-3.9,24.3-10.4,35.3-10.5,35.5l1.4,1.7   c0.1-0.2,6.3-11.9,10.1-36.7c0.8,0.2,4.9,1,8.3-6.6c-5.3,1.2-7.3,3.2-8,4.7l0.1-1C417.7,184,418.4,177,418.8,169.2z"/>
	<path class="st5" d="M379.8,75.1l-3.6,0.4c0,0,1.9,9,1.9,18.2l0.1,0.9c0,0,1.9,9,1.9,18.2l0.1,0.9c0,0,1.9,9,1.9,18.2l0.1,0.9   c0,0,1.9,9,1.9,18.2l0.1,0.9c0,0,1.9,9,1.9,18.2l0.1,0.9c0,0,1.9,9,1.9,18.2l0.1,0.9c0,0,1.9,9,1.9,18.2l0.1,0.9   c0,0,1.9,9,1.9,18.2l0.1,0.9c0,0,1.9,9,1.9,18.2l0.1,0.9c0,0,1.9,9,1.9,18.2l0.1,0.9c0,0,1.9,9,1.9,18.2l0.1,0.9   c0,0,1.9,9,1.9,18.2l0.1,0.9c0,0,1.9,9,1.9,18.2l0.1,0.9c0,0,1.9,9,1.9,18.2l0.1,0.9c0,0,1.9,9,1.9,18.2l3.6-0.4   c-1.9-9-1.9-18.2-1.9-18.2l-0.1-0.9c-1.9-9-1.9-18.2-1.9-18.2l-0.1-0.9c-1.9-9-1.9-18.2-1.9-18.2l-0.1-0.9   c-1.9-9-1.9-18.2-1.9-18.2l-0.1-0.9c-1.9-9-1.9-18.2-1.9-18.2l-0.1-0.9c-1.9-9-1.9-18.2-1.9-18.2l-0.1-0.9   c-1.9-9-1.9-18.2-1.9-18.2l-0.1-0.9c-1.9-9-1.9-18.2-1.9-18.2l-0.1-0.9c-1.9-9-1.9-18.2-1.9-18.2l-0.1-0.9   c-1.9-9-1.9-18.2-1.9-18.2l-0.1-0.9c-1.9-9-1.9-18.2-1.9-18.2l-0.1-0.9c-1.9-9-1.9-18.2-1.9-18.2l-0.1-0.9   c-1.9-9-1.9-18.2-1.9-18.2l-0.1-0.9c-1.9-9-1.9-18.2-1.9-18.2l-0.1-0.9C379.8,84.3,379.8,75.1,379.8,75.1z"/>
	<path class="st5" d="M395.2,77.5l-3.7,0c0,0,1,5.7,0.1,14.9l0,0.9c0,0,1,9.1,0.1,18.3l0,0.9c0,0,1,9.1,0.1,18.3l0,0.9   c0,0,1,9.1,0.1,18.3l0,0.9c0,0,1,9.1,0.1,18.3l0,0.9c0,0,1,9.1,0.1,18.3l0,0.9c0,0,1,9.1,0.1,18.3l0,0.9c0,0,1,9.1,0.1,18.3l0,0.9   c0,0,1,9.1,0.1,18.3l0,0.9c0,0,1,9.1,0.1,18.3l0,0.9c0,0,1,9.1,0.1,18.3l0,0.9c0,0,1,9.1,0.1,18.3l0,0.9c0,0,1,9.1,0.1,18.3l0,0.9   c0,0,1,9.1,0.1,18.3l0,0.9c0,0,1,9.1,0.1,18.3l3.7,0c-1-9.1-0.1-18.3-0.1-18.3l0-0.9c-1-9.1-0.1-18.3-0.1-18.3l0-0.9   c-1-9.1-0.1-18.3-0.1-18.3l0-0.9c-1-9.1-0.1-18.3-0.1-18.3l0-0.9c-1-9.1-0.1-18.3-0.1-18.3l0-0.9c-1-9.1-0.1-18.3-0.1-18.3l0-0.9   c-1-9.1-0.1-18.3-0.1-18.3l0-0.9c-1-9.1-0.1-18.3-0.1-18.3l0-0.9c-1-9.1-0.1-18.3-0.1-18.3l0-0.9c-1-9.1-0.1-18.3-0.1-18.3l0-0.9   c-1-9.1-0.1-18.3-0.1-18.3l0-0.9c-1-9.1-0.1-18.3-0.1-18.3l0-0.9c-1-9.1-0.1-18.3-0.1-18.3l0-0.9c-1-9.1-0.1-18.3-0.1-18.3l0-0.9   C394.3,83.2,395.2,77.5,395.2,77.5z"/>
	<path class="st5" d="M409.4,74.8l-3.7-0.1c0,0,0.7,9.2-0.4,18.3l0,0.9c0,0,0.7,9.2-0.4,18.3l0,0.9c0,0,0.7,9.2-0.4,18.3l0,0.9   c0,0,0.7,9.2-0.4,18.3l0,0.9c0,0,0.7,9.2-0.4,18.3l0,0.9c0,0,0.7,9.2-0.4,18.3l0,0.9c0,0,0.7,9.2-0.4,18.3l0,0.9   c0,0,0.7,9.2-0.4,18.3l0,0.9c0,0,0.7,9.2-0.4,18.3l0,0.9c0,0,0.7,9.2-0.4,18.3l0,0.9c0,0,0.7,9.2-0.4,18.3l0,0.9   c0,0,0.7,9.2-0.4,18.3l0,0.9c0,0,0.7,9.2-0.4,18.3l0,0.9c0,0,0.7,9.2-0.4,18.3l0,0.9c0,0,0.7,9.2-0.4,18.3l3.7,0.1   c-0.7-9.2,0.4-18.3,0.4-18.3l0-0.9c-0.7-9.2,0.4-18.3,0.4-18.3l0-0.9c-0.7-9.2,0.4-18.3,0.4-18.3l0-0.9c-0.7-9.2,0.4-18.3,0.4-18.3   l0-0.9c-0.7-9.2,0.4-18.3,0.4-18.3l0-0.9c-0.7-9.2,0.4-18.3,0.4-18.3l0-0.9c-0.7-9.2,0.4-18.3,0.4-18.3l0-0.9   c-0.7-9.2,0.4-18.3,0.4-18.3l0-0.9c-0.7-9.2,0.4-18.3,0.4-18.3l0-0.9c-0.7-9.2,0.4-18.3,0.4-18.3l0-0.9c-0.7-9.2,0.4-18.3,0.4-18.3   l0-0.9c-0.7-9.2,0.4-18.3,0.4-18.3l0-0.9c-0.7-9.2,0.4-18.3,0.4-18.3l0-0.9c-0.7-9.2,0.4-18.3,0.4-18.3l0-0.9   C408.2,83.9,409.4,74.8,409.4,74.8z"/>
	<path class="st4" d="M409.6,114.7c0,0,3.2-4.6,15.1-2.8C424.7,111.9,414.7,117.4,409.6,114.7z"/>
	<path class="st4" d="M409.6,114.8c0,0,9.7-0.3,7.8,9.7c0,0-2.1-3.4-4.9-5.5C409.7,117,409.6,114.8,409.6,114.8z"/>
	<path class="st4" d="M393.1,249.9c0,0-5.6,0.4-11.6-10.1C381.5,239.8,392.1,244.3,393.1,249.9z"/>
	<g>
		<path class="st4" d="M402.6,92.7h-3.7c0.9-9.2-0.2-24-0.2-24h3.7C402.4,68.7,401.6,83.6,402.6,92.7z"/>
		<path class="st4" d="M402.6,111.9h-3.7c0.9-9.2,0-18.3,0-18.3h3.7C402.6,93.6,401.6,102.8,402.6,111.9z"/>
		<rect class="st5" height="0.9" width="3.7" x="398.9" y="92.7"/>
		<rect class="st5" height="0.9" width="3.7" x="398.9" y="111.9"/>
		<path class="st4" d="M402.6,131.2h-3.7c0.9-9.2,0-18.3,0-18.3h3.7C402.6,112.9,401.6,122,402.6,131.2z"/>
		<path class="st4" d="M402.6,150.4h-3.7c0.9-9.2,0-18.3,0-18.3h3.7C402.6,132.1,401.6,141.2,402.6,150.4z"/>
		<rect class="st5" height="0.9" width="3.7" x="398.9" y="131.2"/>
		<rect class="st5" height="0.9" width="3.7" x="398.9" y="150.4"/>
		<path class="st4" d="M402.6,169.6h-3.7c0.9-9.2,0-18.3,0-18.3h3.7C402.6,151.3,401.6,160.5,402.6,169.6z"/>
		<path class="st4" d="M402.6,188.8h-3.7c0.9-9.2,0-18.3,0-18.3h3.7C402.6,170.5,401.6,179.7,402.6,188.8z"/>
		<rect class="st5" height="0.9" width="3.7" x="398.9" y="169.6"/>
		<rect class="st5" height="0.9" width="3.7" x="398.9" y="188.8"/>
		<path class="st4" d="M402.6,208.1h-3.7c0.9-9.2,0-18.3,0-18.3h3.7C402.6,189.8,401.6,198.9,402.6,208.1z"/>
		<rect class="st5" height="0.9" width="3.7" x="398.9" y="208.1"/>
		<path class="st4" d="M402.6,227.3h-3.7c0.9-9.2,0-18.3,0-18.3h3.7C402.6,209,401.6,218.1,402.6,227.3z"/>
		<path class="st4" d="M402.6,246.5h-3.7c0.9-9.2,0-18.3,0-18.3h3.7C402.6,228.2,401.6,237.4,402.6,246.5z"/>
		<rect class="st5" height="0.9" width="3.7" x="398.9" y="227.3"/>
		<rect class="st5" height="0.9" width="3.7" x="398.9" y="246.5"/>
		<path class="st4" d="M402.6,265.8h-3.7c0.9-9.2,0-18.3,0-18.3h3.7C402.6,247.4,401.6,256.6,402.6,265.8z"/>
		<path class="st4" d="M402.6,285h-3.7c0.9-9.2,0-18.3,0-18.3h3.7C402.6,266.7,401.6,275.8,402.6,285z"/>
		<rect class="st5" height="0.9" width="3.7" x="398.9" y="265.8"/>
		<rect class="st5" height="0.9" width="3.7" x="398.9" y="285"/>
		<path class="st4" d="M402.6,304.2h-3.7c0.9-9.2,0-18.3,0-18.3h3.7C402.6,285.9,401.6,295,402.6,304.2z"/>
		<path class="st4" d="M402.6,323.4h-3.7c0.9-9.2,0-18.3,0-18.3h3.7C402.6,305.1,401.6,314.3,402.6,323.4z"/>
		<rect class="st5" height="0.9" width="3.7" x="398.9" y="304.2"/>
		<rect class="st5" height="0.9" width="3.7" x="398.9" y="323.4"/>
		<path class="st4" d="M402.6,342.7h-3.7c0.9-9.2,0-18.3,0-18.3h3.7C402.6,324.3,401.6,333.5,402.6,342.7z"/>
		<path class="st4" d="M402.6,361.9h-3.7c0.9-9.2,0-18.3,0-18.3h3.7C402.6,343.6,401.6,352.7,402.6,361.9z"/>
		<rect class="st5" height="0.9" width="3.7" x="398.9" y="342.7"/>
	</g>
	<path class="st5" d="M402.9,248.4c0,0,3.2-4.6,15.1-2.8C418,245.6,407.9,251.1,402.9,248.4z"/>
	<path class="st4" d="M413.7,236.8c3-4.7,6.8-9.8,11.3-15.3c3.2,4.7,14.2,5.2,14.2,5.2c-7.6-6.3-12.4-5.9-13.9-5.6   c0.3-0.3,0.6-0.7,0.8-1c6.7,1.2,12.4-2.5,12.4-2.5c-6.2-0.8-9.6,0.3-11.3,1.2c3.8-4,3.8-13.7,3.8-13.7c-6.4,8.2-5.4,13.1-5,14.3   c-1.1,1.3-2.3,2.6-3.3,3.8c0.7-1.8,0.8-3.6,0.7-5c0.5-1.5,1.1-5.5-4.1-13c0,0,1.1,3.6,1.3,7.7c0.2,3.5,1.8,5.4,2.3,5.9   c0.1,1.6,0,3.5-1.2,5.7c-3.2,4-6,7.7-8.4,11.3c2.1-5.3,0.9-10.5,0.9-10.5c-4,7.6-2.8,11.4-2.3,12.5c-9.4,14.5-11.8,24.2-11.9,24.3   l0.9,0.2c0-0.1,2.5-9.5,11.4-23.7c0.9,0.2,3.2,0.4,6-1c3.7-1.8,7.3-2.7,7.3-2.7C418.9,234.2,415.4,235.6,413.7,236.8z"/>
	<path class="st5" d="M403.1,286c0,0,1.8-4.6,13.7-3.7c0,0-3.7,0.9-7.3,2.7S403.1,286,403.1,286z"/>
	<path class="st5" d="M369.7,116.7c0,0,2.6-5.9,11-2.8c0,0-3.7,0.6-6.3,1.9C371.6,117,369.7,116.7,369.7,116.7z"/>
	<path class="st5" d="M388.1,179.1c0,0-1.8-1.4-4.4-1.1c-2.6,0.3-6.4,3.8-6.4,3.8s4.4-0.2,7.5-1.1S388.1,179.1,388.1,179.1z"/>
	<path class="st4" d="M382.1,213c-0.3-2.5-0.5-6.6,1-9.3c0.3,0.1,0.9,0.3,2.3,0.5c2.3,0.3,5.4-0.1,5.4-0.1s-3.1-2-5-1.9   c-1.3,0.1-2.2,0.7-2.6,1c0.6-1.2,1.7-4.7-3-8.7c0,0,0.8,2.4,0.8,5.4c0,2.2,1,3.1,1.6,3.5c-1.2,2.9-1.5,5.4-1.5,7.1   c-2.4-5.7-4.8-12.3-7.1-19.7c0.6,0.1,1.8,0,3.1-1.6c1.7-2.2,3.7-3.4,3.7-3.4c-5.3,0.2-6.6,3.1-7,4.3c-1-3.2-2-6.6-3-10.2   c3.8-2.8,4.4-11.8,4.4-11.8c-4.9,5.7-5.2,9.6-5,11.2c-2.8-6.2-9.8-10-9.8-10c3.4,8,7.9,10.4,9.6,11c0.9,3.5,1.9,6.8,2.9,10   c-1.3-1-4.9-2.8-13.6-0.6c0,0,3.8,0.3,7.7,1.4c3.1,0.9,5.3,0.3,6.1-0.1c2.3,7.4,4.7,14,7.1,19.8c-6.7-3.9-13.2-5.1-15.9-5.4   c-0.2-1.3-1.4-4.9-8.2-7.1c0,0,2.9,2.3,4.6,4.5c0.8,1,1.7,1.8,2.4,2.3c-0.8-0.2-2-0.3-3.4,0.1c-2.6,0.7-5.7,4.9-5.7,4.9   s4.3-0.9,7.2-2.4c1.8-0.9,2.5-1.5,2.8-1.8c0,0,0.1,0,0.1,0c0.1,0,0.1,0.1,0.1,0.1s0,0,0,0c3,0.4,11.3,2,16.4,6.4   c10,24.1,19.2,34.3,19.4,34.5l0.9-1.9C400.8,244.7,391.8,235.6,382.1,213z"/>
	<path class="st4" d="M432.8,134.1c2.2,6.4,8.2,9.7,8.2,9.7c-3.1-8.1-6.9-9.6-7.9-9.9c0.9,0,3.2-0.3,5.6-2.4   c3.1-2.6,6.5-4.3,6.5-4.3c-10,1.5-12,5.3-12.4,6.4c-4.2,0.1-7.8,0.4-10.8,0.7c1.8-1.4,2.9-3.8,3.3-4.8c0.7,0,2.3,0,4.3-1   c2.7-1.3,6.3-1.9,6.3-1.9c-6.7-2.5-9.7,0.8-10.6,2.2c0-0.6-0.2-1.8-1.3-2.9c-1.4-1.5-5.8-1.8-5.8-1.8s2.2,2.6,4.4,3.9   c1.2,0.7,1.8,1,2.2,1.1c-0.4,1-2,4.1-4.6,5.2c-7.2,0.9-10.7,2.1-10.9,2.2l-0.1,0.1c-4.8,4-7.6,7.9-7.7,8.2l0.4,1.9   c0-0.1,3.2-5.4,7.8-9.3c0.5-0.2,3.8-1.3,10-2.3c0.5,0.1,4.3,1.2,8.1,4.3c-0.6,0.4-1.8,1.5-2.4,3.5c-0.7,2.6,1.2,7.4,1.2,7.4   s1.4-4.2,1.7-7.4c0.1-1.2,0.1-2.1,0-2.6c0.6,1,1.7,2.5,3.8,3.7c3.6,2,6.4,4.5,6.4,4.5c-4.8-8.5-8.9-9.3-10.3-9.4   c-2.3-2.1-4.7-3.6-6.3-4.3C424.8,134.6,428.5,134.3,432.8,134.1z"/>
	<path class="st4" d="M388.7,109.3c-1.8-7.3-6.6-13.1-7.6-14.3c0.4-0.6,1.1-2.1,0.9-4.1c-0.3-2.6-3.8-6.4-3.8-6.4s0.2,4.4,1.1,7.5   c0.6,1.8,1,2.6,1.2,3l0,0c-6.8-4.8-10.8-0.1-10.8-0.1s1.8,0.9,4.7,0.5c2.4-0.4,5.2-0.1,6.2,0c1.1,1.3,5.7,7.3,7.1,16L388.7,109.3z"/>
	<path class="st4" d="M401,71.2c0,0-1.4-5.5,7.9-13.2C408.9,58,406.4,69.2,401,71.2z"/>
	<path class="st4" d="M401.2,70.4c0,0,2.6-3.8,12.7-2.4C413.9,68,408,71.7,401.2,70.4z"/>
	<path class="st4" d="M399.6,145.8c0,0-1.8-8.5-13.7-6.8c0,0,3.7,1.7,7.3,5.1S399.6,145.8,399.6,145.8z"/>
	<g>
		<path class="st4" d="M390.1,92.7l-3.7,0.1c0.6-9.2-0.7-18.3-0.7-18.3l3.7-0.1C389.4,74.4,388.8,83.6,390.1,92.7z"/>
		<path class="st4" d="M390.8,111.9l-3.7,0.1c0.6-9.2-0.7-18.3-0.7-18.3l3.7-0.1C390.1,93.6,389.6,102.8,390.8,111.9z"/>
		
			<rect class="st5" height="0.9" transform="matrix(0.9993 -3.839974e-02 3.839974e-02 0.9993 -3.2948 14.9784)" width="3.7" x="386.4" y="92.8"/>
		
			<rect class="st5" height="0.9" transform="matrix(0.9993 -3.839974e-02 3.839974e-02 0.9993 -4.032 15.0209)" width="3.7" x="387.2" y="112"/>
		<path class="st4" d="M391.6,131.2l-3.7,0.1c0.6-9.2-0.7-18.3-0.7-18.3l3.7-0.1C390.9,112.9,390.3,122,391.6,131.2z"/>
		<path class="st4" d="M392.3,150.4l-3.7,0.1c0.6-9.2-0.7-18.3-0.7-18.3l3.7-0.1C391.6,132.1,391,141.3,392.3,150.4z"/>
		
			<rect class="st5" height="0.9" transform="matrix(0.9993 -3.839974e-02 3.839974e-02 0.9993 -4.7691 15.0635)" width="3.7" x="387.9" y="131.2"/>
		
			<rect class="st5" height="0.9" transform="matrix(0.9993 -3.839974e-02 3.839974e-02 0.9993 -5.5063 15.106)" width="3.7" x="388.7" y="150.4"/>
		<path class="st4" d="M393,169.6l-3.7,0.1c0.6-9.2-0.7-18.3-0.7-18.3l3.7-0.1C392.3,151.3,391.8,160.5,393,169.6z"/>
		<path class="st4" d="M393.8,188.8l-3.7,0.1c0.6-9.2-0.7-18.3-0.7-18.3l3.7-0.1C393.1,170.5,392.5,179.7,393.8,188.8z"/>
		
			<rect class="st5" height="0.9" transform="matrix(0.9993 -3.839974e-02 3.839974e-02 0.9993 -6.2435 15.1485)" width="3.7" x="389.4" y="169.6"/>
		
			<rect class="st5" height="0.9" transform="matrix(0.9993 -3.839974e-02 3.839974e-02 0.9993 -6.9807 15.191)" width="3.7" x="390.1" y="188.9"/>
		<path class="st4" d="M394.5,208l-3.7,0.1c0.6-9.2-0.7-18.3-0.7-18.3l3.7-0.1C393.8,189.7,393.2,198.9,394.5,208z"/>
		
			<rect class="st5" height="0.9" transform="matrix(0.9993 -3.839974e-02 3.839974e-02 0.9993 -7.7178 15.2335)" width="3.7" x="390.9" y="208.1"/>
		<path class="st4" d="M395.3,227.2l-3.7,0.1c0.6-9.2-0.7-18.3-0.7-18.3l3.7-0.1C394.6,208.9,394,218.1,395.3,227.2z"/>
		<path class="st4" d="M396,246.4l-3.7,0.1c0.6-9.2-0.7-18.3-0.7-18.3l3.7-0.1C395.3,228.1,394.7,237.3,396,246.4z"/>
		
			<rect class="st5" height="0.9" transform="matrix(0.9993 -3.839974e-02 3.839974e-02 0.9993 -8.455 15.2761)" width="3.7" x="391.6" y="227.3"/>
		
			<rect class="st5" height="0.9" transform="matrix(0.9993 -3.839974e-02 3.839974e-02 0.9993 -9.1922 15.3186)" width="3.7" x="392.3" y="246.5"/>
		<path class="st4" d="M396.7,265.6l-3.7,0.1c0.6-9.2-0.7-18.3-0.7-18.3l3.7-0.1C396,247.3,395.5,256.5,396.7,265.6z"/>
		<path class="st4" d="M397.5,284.8l-3.7,0.1c0.6-9.2-0.7-18.3-0.7-18.3l3.7-0.1C396.8,266.6,396.2,275.7,397.5,284.8z"/>
		
			<rect class="st5" height="0.9" transform="matrix(0.9993 -3.839974e-02 3.839974e-02 0.9993 -9.9294 15.3611)" width="3.7" x="393.1" y="265.7"/>
		
			<rect class="st5" height="0.9" transform="matrix(0.9993 -3.839974e-02 3.839974e-02 0.9993 -10.6665 15.4036)" width="3.7" x="393.8" y="284.9"/>
		<path class="st4" d="M398.2,304.1l-3.7,0.1c0.6-9.2-0.7-18.3-0.7-18.3l3.7-0.1C397.5,285.8,396.9,294.9,398.2,304.1z"/>
		<path class="st4" d="M398.9,323.3l-3.7,0.1c0.6-9.2-0.7-18.3-0.7-18.3l3.7-0.1C398.2,305,397.7,314.2,398.9,323.3z"/>
		
			<rect class="st5" height="0.9" transform="matrix(0.9993 -3.839974e-02 3.839974e-02 0.9993 -11.4037 15.4461)" width="3.7" x="394.6" y="304.1"/>
		
			<rect class="st5" height="0.9" transform="matrix(0.9993 -3.839974e-02 3.839974e-02 0.9993 -12.1409 15.4886)" width="3.7" x="395.3" y="323.3"/>
		<path class="st4" d="M399.7,342.5l-3.7,0.1c0.6-9.2-0.7-18.3-0.7-18.3l3.7-0.1C399,324.2,398.4,333.4,399.7,342.5z"/>
		<path class="st4" d="M400.4,361.7l-3.7,0.1c0.6-9.2-0.7-18.3-0.7-18.3l3.7-0.1C399.7,343.4,399.2,352.6,400.4,361.7z"/>
		
			<rect class="st5" height="0.9" transform="matrix(0.9993 -3.839974e-02 3.839974e-02 0.9993 -12.8781 15.5312)" width="3.7" x="396" y="342.6"/>
	</g>
	<path class="st4" d="M395.2,278.2c-1.6-1.2-9.2-12.4-15.4-27c0.2-0.3,0.4-0.7,0.8-1.6c0.7-1.8,1-4.3,1-4.3s-2.2,2-2.5,3.6   c0,0.2,0,0.3,0,0.4c-2.4-6-4.6-12.6-5.9-19.2c0.5-0.3,1.9-1.4,2.5-4.3c0.7-3.4,3-6.7,3-6.7c-8.6,1.6-6.7,8.6-5.9,10.6   c-1.1-1-5.5-4-16.1-1.2c10.2,4.8,14.5,2.9,15.8,1.9c3.3,21.1,18.1,44.1,21.7,50.2c-4.6-2.3-19.4-9.7-25.3-14.7   c0.3-0.5,0.6-1.3,1.1-2.7c1-3.1,1.3-7.5,1.3-7.5s-3.6,3.7-3.9,6.4c-0.1,0.6,0,1.2,0,1.7c-1.8-1.9-5.3-3.9-12.3-3.1   c0,0,3.7,1.4,7.4,4.3c2.6,2,4.8,1.9,5.8,1.7c2.8,2.3,7.3,5.2,11.3,7.5c-3.8,4-10.4,5.3-11.6,5.5c-9.1-0.9-11.5,2.6-11.5,2.6   c4.3,0.8,8.3-0.3,10.6-1.3c-1.4,1.6-3.7,5.3-3.4,12.5c0,0,6.1-8.6,4.6-13.1c0.2-0.1,0.3-0.2,0.5-0.3c2.2-0.4,7.9-1.6,12.7-4.8   c6.2,3.5,12.1,6.6,12.7,8.5l1.8-1L395.2,278.2z"/>
	<path class="st4" d="M373.7,127.6c-0.7-0.4-2.6-1.4-5.2-1c-3.2,0.5-7.7,5-7.7,5s5.4-0.5,9.1-1.8c2.3-0.8,3.3-1.4,3.7-1.7   c1,0.2,3.8,0.9,6.8,2.3c-8.9,1.5-17.2,14-17.2,14c7.1-2.6,11.4-5.3,14-7.7c-0.4,2.2-0.5,5.2,0.3,9.1c7.3-7.7,5.8-12.7,4.8-14.6   c2.5,1.4,5.1,3.3,6.9,6l0.2-1.7C384.8,130.6,377.9,128.7,373.7,127.6z"/>
	<path class="st4" d="M389.5,154.7c0,0-3.4,3-12.9-0.8C376.6,153.9,383.2,151.7,389.5,154.7z"/>
	<path class="st4" d="M389.9,154.7c0,0-1.6-2.6-4-2.1c-2.4,0.5-5.8,7-5.8,7s4-0.3,6.8-2.1C389.7,155.7,389.9,154.7,389.9,154.7z"/>
	<g>
		<path class="st4" d="M410.6,93.1l-3.7,0c1-9.1,0.2-18.3,0.2-18.3l3.7,0C410.8,74.8,409.8,83.9,410.6,93.1z"/>
		<path class="st4" d="M410.5,112.3l-3.7,0c1-9.1,0.2-18.3,0.2-18.3l3.7,0C410.6,94,409.6,103.1,410.5,112.3z"/>
		<rect class="st5" height="0.9" transform="matrix(1 8.604757e-03 -8.604757e-03 1 0.8197 -3.514)" width="3.7" x="407" y="93"/>
		
			<rect class="st5" height="0.9" transform="matrix(1 8.604757e-03 -8.604757e-03 1 0.9851 -3.5119)" width="3.7" x="406.8" y="112.3"/>
		<path class="st4" d="M410.3,131.5l-3.7,0c1-9.1,0.2-18.3,0.2-18.3l3.7,0C410.4,113.2,409.4,122.4,410.3,131.5z"/>
		<path class="st4" d="M410.1,150.7l-3.7,0c1-9.1,0.2-18.3,0.2-18.3l3.7,0C410.3,132.4,409.3,141.6,410.1,150.7z"/>
		
			<rect class="st5" height="0.9" transform="matrix(1 8.604757e-03 -8.604757e-03 1 1.1506 -3.5097)" width="3.7" x="406.6" y="131.5"/>
		
			<rect class="st5" height="0.9" transform="matrix(1 8.604757e-03 -8.604757e-03 1 1.316 -3.5076)" width="3.7" x="406.5" y="150.7"/>
		<path class="st4" d="M410,170l-3.7,0c1-9.1,0.2-18.3,0.2-18.3l3.7,0C410.1,151.7,409.1,160.8,410,170z"/>
		<path class="st4" d="M409.8,189.2l-3.7,0c1-9.1,0.2-18.3,0.2-18.3l3.7,0C409.9,170.9,409,180,409.8,189.2z"/>
		
			<rect class="st5" height="0.9" transform="matrix(1 8.604757e-03 -8.604757e-03 1 1.4814 -3.5055)" width="3.7" x="406.3" y="169.9"/>
		
			<rect class="st5" height="0.9" transform="matrix(1 8.604757e-03 -8.604757e-03 1 1.6468 -3.5033)" width="3.7" x="406.1" y="189.2"/>
		<path class="st4" d="M409.6,208.4l-3.7,0c1-9.1,0.2-18.3,0.2-18.3l3.7,0C409.8,190.1,408.8,199.3,409.6,208.4z"/>
		
			<rect class="st5" height="0.9" transform="matrix(1 8.604757e-03 -8.604757e-03 1 1.8122 -3.5012)" width="3.7" x="406" y="208.4"/>
		<path class="st4" d="M409.5,227.6l-3.7,0c1-9.1,0.2-18.3,0.2-18.3l3.7,0C409.6,209.3,408.6,218.5,409.5,227.6z"/>
		<path class="st4" d="M409.3,246.9l-3.7,0c1-9.1,0.2-18.3,0.2-18.3l3.7,0C409.5,228.6,408.5,237.7,409.3,246.9z"/>
		
			<rect class="st5" height="0.9" transform="matrix(1 8.604757e-03 -8.604757e-03 1 1.9777 -3.4991)" width="3.7" x="405.8" y="227.6"/>
		
			<rect class="st5" height="0.9" transform="matrix(1 8.604757e-03 -8.604757e-03 1 2.1431 -3.4969)" width="3.7" x="405.6" y="246.8"/>
		<path class="st4" d="M409.1,266.1l-3.7,0c1-9.1,0.2-18.3,0.2-18.3l3.7,0C409.3,247.8,408.3,256.9,409.1,266.1z"/>
		<path class="st4" d="M409,285.3l-3.7,0c1-9.1,0.2-18.3,0.2-18.3l3.7,0C409.1,267,408.1,276.2,409,285.3z"/>
		
			<rect class="st5" height="0.9" transform="matrix(1 8.604757e-03 -8.604757e-03 1 2.3085 -3.4948)" width="3.7" x="405.5" y="266.1"/>
		
			<rect class="st5" height="0.9" transform="matrix(1 8.604757e-03 -8.604757e-03 1 2.4739 -3.4926)" width="3.7" x="405.3" y="285.3"/>
		<path class="st4" d="M408.8,304.5l-3.7,0c1-9.1,0.2-18.3,0.2-18.3l3.7,0C409,286.2,408,295.4,408.8,304.5z"/>
		<path class="st4" d="M408.6,323.8l-3.7,0c1-9.1,0.2-18.3,0.2-18.3l3.7,0C408.8,305.5,407.8,314.6,408.6,323.8z"/>
		
			<rect class="st5" height="0.9" transform="matrix(1 8.604757e-03 -8.604757e-03 1 2.6394 -3.4905)" width="3.7" x="405.1" y="304.5"/>
		
			<rect class="st5" height="0.9" transform="matrix(1 8.604757e-03 -8.604757e-03 1 2.8048 -3.4884)" width="3.7" x="405" y="323.7"/>
		<path class="st4" d="M408.5,343l-3.7,0c1-9.1,0.2-18.3,0.2-18.3l3.7,0C408.6,324.7,407.6,333.8,408.5,343z"/>
		<path class="st4" d="M408.3,362.2l-3.7,0c1-9.1,0.2-18.3,0.2-18.3l3.7,0C408.5,343.9,407.5,353.1,408.3,362.2z"/>
		
			<rect class="st5" height="0.9" transform="matrix(1 8.604757e-03 -8.604757e-03 1 2.9702 -3.4862)" width="3.7" x="404.8" y="343"/>
	</g>
	<path class="st5" d="M380.3,113.7c0,0-5.1,2.3-14.4-5.4C365.9,108.2,377.3,108.7,380.3,113.7z"/>
	<path class="st4" d="M439.1,262.3c0.9-0.6,1.9-1.5,2.8-2.8c2.3-3.4,5-6,5-6c-9.2,4.3-10.1,8.5-10.2,9.6c-9.6,2.3-16.3,1.1-18.8,1.1   l3.9-8c0.7,0,2.3,0,4.2-1c2.7-1.3,6.3-1.9,6.3-1.9c-7-2.6-9.9,1.1-10.7,2.4c-2.3-5-7.7-7.2-7.7-7.2c3,6,6.2,7.3,7.4,7.5l-3.7,7.3   c-0.3,0.7-0.8,1.3-1.5,1.6c-4.1,2.4-8.8,4.6-8.8,4.6l0.5,1.8c0.1,0,2.9-2.9,9.8-6.2c0.3,0,1.1,0,2.3,0.1c0.9,1.3,3.8,4.8,8.9,4.8   c0,0-2.6-3.3-5.5-4.7c4.1,0,9.7-0.4,14.8-2c0.5,1.1,2.9,4.6,11.2,2.6C444,261.5,440.7,261.7,439.1,262.3z"/>
	<path class="st4" d="M375.6,78.2c0,0,2.6-5.9,11-2.8c0,0-3.7,0.6-6.3,1.9C377.5,78.5,375.6,78.2,375.6,78.2z"/>
	<path class="st4" d="M386.2,75.9c0,0-2.1-0.8-3.3-3.1c-1.2-2.4-0.2-7.5-0.2-7.5s2.2,3.8,3,7S386.2,75.9,386.2,75.9z"/>
	<g>
		<path class="st6" d="M415.9,322.4h-15.2H398h-15.2c0,0-4.7,15.7-7.7,48.4c0,0,3,6.5,15,13.2h8h2.8h8c12-6.7,15-13.2,15-13.2    C420.7,338.1,415.9,322.4,415.9,322.4z"/>
		<path class="st7" d="M422.4,359.1c0,0,0.5,4.4,0.7,6.7c0.2,1.6,0.3,3.3,0.5,5c0,0-3,6.5-15,13.2h-8H398h-8    c-12-6.7-15-13.2-15-13.2c3-32.7,7.7-48.4,7.7-48.4H398h2.8h15.2c0,0,0.3,1.1,0.8,3.2l-27,1.5c0,0-4.2,25.4-3.5,43.1    c0,0,18.5,3,32.4,0.2C418.7,370.5,421.2,365.3,422.4,359.1z"/>
		<rect class="st6" height="3.7" width="41.2" x="378.8" y="320.4"/>
	</g>
</g>
<g>
	<g>
		<g>
			<g>
				
					<rect class="st8" height="3.5" transform="matrix(0.9999 1.100713e-02 -1.100713e-02 0.9999 3.2246 -1.6823)" width="8.6" x="150.1" y="290.4"/>
				
					<rect class="st8" height="3.5" transform="matrix(0.9999 1.100713e-02 -1.100713e-02 0.9999 3.215 -1.1018)" width="8.6" x="97.4" y="289.8"/>
			</g>
			<polygon class="st8" points="95.4,283.1 97.2,280.5 142.1,281 143.8,283.6    "/>
			<polygon class="st9" points="141.7,279.8 97.6,279.5 97.6,280.1 141.7,280.8    "/>
			
				<rect class="st8" height="2.9" transform="matrix(0.9999 1.100713e-02 -1.100713e-02 0.9999 3.0877 -1.3)" width="0.9" x="119.2" y="278.4"/>
			<polygon class="st8" points="147.9,276.1 131.6,276.6 128.1,278.3 129.7,278.4 131.5,277.3 147.7,276.8 154.2,278.1 154.3,277.5         "/>
			<polygon class="st10" points="125.4,277.6 124.9,279.2 130.7,279.3 130.9,277.4    "/>
			<polygon class="st10" points="152.4,276.4 152.4,283.5 160.6,283.6 160.7,279.5 155.7,276.2    "/>
			<polygon class="st11" points="152.4,276.4 152.4,283.5 160.6,283.6 160.6,281.7 153.5,280.7    "/>
			
				<rect class="st10" height="8.4" transform="matrix(0.9999 1.100713e-02 -1.100713e-02 0.9999 3.1642 -1.393)" width="67.4" x="94.4" y="282.6"/>
			
				<rect class="st8" height="1.5" transform="matrix(0.9999 1.100713e-02 -1.100713e-02 0.9999 3.1913 -1.6805)" width="4.6" x="152" y="288.3"/>
			
				<rect class="st8" height="0.6" transform="matrix(0.9999 1.100713e-02 -1.100713e-02 0.9999 3.1855 -1.0903)" width="7.7" x="96.8" y="288.5"/>
			
				<rect class="st8" height="1.5" transform="matrix(0.9999 1.100713e-02 -1.100713e-02 0.9999 3.192 -1.7224)" width="1.5" x="157.3" y="288.4"/>
		</g>
	</g>
	<g>
		<path class="st5" d="M74.6,244.3c0,0,10.6-0.9,8,10.6c-2.6,11.5-9.9,12.5-9.9,12.5l-5.2-4L74.6,244.3z"/>
		<path class="st6" d="M81.6,258.3c-3.1,8.3-8.9,9.1-8.9,9.1l-5.2-4l7.1-19c0,0,1.5-0.1,3.2,0.3c0,0,0.6,5.3-2.7,13.3L81.6,258.3z"/>
		<path class="st5" d="M80.6,262.2H70.3h-7.8H52.2c0,0-8.2,13.9,10.1,31.5h0.2h7.8h0.2C88.8,276.1,80.6,262.2,80.6,262.2z"/>
		<path class="st6" d="M70.5,293.7h-8h-0.2c-18.3-17.6-10.1-31.5-10.1-31.5h10.3h7.8h10.3c0,0,1,1.6,1.5,4.5l-24.2,1.2    c0,0-0.7,11.8,5.9,22.3l9.4,0.5L70.5,293.7z"/>
		<path class="st4" d="M54,261.7c0,0-9.8-39,10.7-37.5c20.4,1.5,7,37.5,7,37.5H54z"/>
		<path class="st5" d="M54,261.7c0,0-9.8-39,10.7-37.5c-10.9,8.7-6.1,37.5-6.1,37.5H54z"/>
		<path class="st5" d="M65.3,261.7h-2.7c0,0-3.9-22.5,2-37.5C64.6,224.2,65.5,238.3,65.3,261.7z"/>
		<path class="st5" d="M64.6,224.2c0,0,10,10.2,3.6,37.5h1.8C70.1,261.7,80.8,233.5,64.6,224.2z"/>
		<polygon class="st5" points="49.4,260.8 84,260.8 84.2,264.1 49.2,263.8   "/>
	</g>
	<g>
		<polygon class="st5" points="67.1,369.5 60.6,369.5 52.3,364.3 167,364.3 158.8,369.5 152.2,369.5 155,384 151.4,384 146,369.5     143.7,369.5 139.3,369.5 80.1,369.5 75.7,369.5 73.3,369.5 67.9,384 64.3,384   "/>
		<polygon class="st6" points="152.2,369.5 152.8,372.6 147.2,372.6 146,369.5 73.3,369.5 72.1,372.6 66.5,372.6 67.1,369.5     60.6,369.5 52.3,364.3 167,364.3 158.8,369.5   "/>
		<rect class="st5" height="71.1" width="126.1" x="47.1" y="293.2"/>
		<rect class="st6" height="62.8" width="118.1" x="50.8" y="298.5"/>
		<rect class="st4" height="59.1" width="56.1" x="110.6" y="300.4"/>
		<rect class="st4" height="59.1" width="56.1" x="52.6" y="300.4"/>
		<rect class="st5" height="32.2" width="2.8" x="115.8" y="313.7"/>
		<rect class="st5" height="32.2" width="2.8" x="100.8" y="313.7"/>
		<rect class="st6" height="31.5" width="1.5" x="115.1" y="312.5"/>
		<rect class="st6" height="31.5" width="1.5" x="102.8" y="312.5"/>
	</g>
</g>
<g>
	<path class="st8" d="M373.4,182.2c-19.6-37.5-52.6-65-93-77.6c-32.5-10.2-66.7-9.6-98.3,1.2L182,105l-3.2,0.3l0.1,1.6   c-6.5,2.4-12.9,5.2-19.2,8.5l1.6,3c5.8-3.1,11.8-5.7,17.9-8l0.2,2.5c-5.2,0.8-10,2.9-14.1,6c-7.7,13.6-4.7,38.6,8.2,42.8l36.4-1.5   c3.1-4.8,4.9-10.6,4.9-16.7c0-17-13.8-30.8-30.8-30.8c-0.5,0-0.9,0-1.4,0l-0.3-3.4c31.2-10.9,64.9-11.5,97-1.5   c39.5,12.3,71.8,39.3,91,76c16.6,31.7,21.7,68.4,14.5,103.3c-5.9,28.3-19.6,54.5-39.3,75.3l-0.8-0.8l-8.6,7.8l-7.4-0.6l-0.6,3.1   l-32.9,1.4V384h59.7v-10.8l-7.2-1.4l0.4-1.5l-3.4-0.3l4.1-4.1l-1.1-1.1c20.2-21.3,34.3-48,40.3-77   C395.6,252,390.3,214.5,373.4,182.2z"/>
	<path class="st6" d="M165.3,118.9c-7.4,5.6-12.1,14.5-12.1,24.5c0,7.1,2.4,13.6,6.4,18.9l13.9-0.6   C168.5,154.4,163.7,141.4,165.3,118.9z"/>
</g>
<g>
	<path class="st8" d="M211.8,384l32-63.4l5.4,2.5l-34.7,61H211.8z"/>
	<path class="st8" d="M286.6,328.7l6.1,1.8l8.5,53.5h-2.4L286.6,328.7z"/>
	<path class="st12" d="M227.3,303.5l86.1,15.5c0,5.8-0.7,11.7-2.7,17l-72.6-2.7l-13.1-0.4C225.1,333.1,221.6,312.5,227.3,303.5z"/>
	<path class="st13" d="M240.6,316.2c0,0,17.4,4.2,31.6,1.1l42.1,2.2l-86.4-15.2l-2.2,28.8l13.1,0.4L240.6,316.2z"/>
	<path class="st12" d="M300.4,314.4l14.6,5.3c9.1-33.5,20.6-66.1,34.1-98L329.5,210C329.3,210,311.8,251.7,300.4,314.4z"/>
	<path class="st13" d="M329.7,210l-10.1,38.2c0,0,2.5,25.2-13.4,54.2l7.6,17.4l-13.4-4.5C300.7,315.1,309.8,258.6,329.7,210z"/>
	<path class="st14" d="M296.7,247.4l-22.4,12l-1.6,5.9c9.4-1.7,18.6-5,26.8-9.8L296.7,247.4z"/>
	<path class="st6" d="M282.6,282.7L233,260.4l-27.7,35.2l5.1,6.7l3.5-2.9v0.2c0.2,1.3,0.2,2.7,0.4,4c2.4,15.6,6.4,30.7,12.2,45.4   l8.4-2l-2.4-33.4l-3.5-6.7c0,0,13.5,4.9,36.3,4.9c22.8,0,31-10.9,31-10.9l-8.4-11.6L282.6,282.7z M225,292.5l-3.1,0.4l13.7-11.4   l3.1-6.2l14.2,14.3L225,292.5z"/>
	<path class="st15" d="M271.2,288.1l-17.5,1.6L239.5,275L271.2,288.1z"/>
	<path class="st14" d="M236.4,358c3.6,1.8,3.6,3.1,3.4,6.2c-0.4,6,2.9,4,2,9.8c-0.2,2.2-0.7,4.2-1.8,6c0,0-2.2,3.3-2.5,0.2   c-0.2-6.5-2.2-8.7-4.5-14.5c-2.2-5.8-6.5-17.2-6.5-17.2l8.5-2L236.4,358z"/>
	<path class="st14" d="M211,302.1l-4.2,3.3c-0.9,0.9-1.5,2.2-1.8,3.6c-0.7,2.9-1.3,3.1-3.9,3.3c-2.6,0.2-5.9,2.5-10.3,3.8   c-4.4,1.3-12.3-0.9-7.7-2.2c5.5-1.3,8.8-6.5,14.7-10.5c3.1-2.2,5.7-5.1,8.1-8L211,302.1z"/>
	<path class="st16" d="M228.7,258.7l28.3,12.2c0.7,0.2,1.1-0.2,1.6-0.7V270l0.4-0.9l-30.3-12.8l-0.4,0.9v0.2   C227.8,258.1,228.3,258.5,228.7,258.7z"/>
	<path class="st16" d="M224,224.1l3.4,30.7c0,0.7,0.6,0.9,1.1,0.9l0.4,0.7v-0.7l-3.6-32.7h-0.2h-0.2C224.5,223,224,223.4,224,224.1z   "/>
	<path class="st15" d="M214.7,302.7l-0.5-3.7l8.2-6.7l3.2-0.2L214.7,302.7z"/>
	<path class="st14" d="M306.1,227.6c-2.9-3.1-4.5-6.9-4.7-11.1l0.2-2c3.4-12.8,2.2-30.1-13.2-27c-19.3,4-13.9,21.7-13.5,23.9   l-1.3,4.9l2,0.7c1.6,3.1,3.6,6.2,5.8,8.8c3.1-0.9,6.1-2.2,8.7-3.8c3.6,2.7,5.4,7.1,4.5,11.5L306.1,227.6z"/>
	<path class="st17" d="M276,192.6l-4-1.8c0,0-6,8-3.3,15.1c0,0,0.9-5.3,2.9-7.1c0,0,2.7,5.3,6.2,6.2l-0.2-3.3c2.7,2.4,6.2,4,9.8,4.7   c0.4,2.4,1.6,4.9,3.1,6.9c0.2,2.2,0,4.4-1.1,6.5c2.2-1.8,3.6-4.4,3.8-7.1c-2-2.7-2.5-6.2-1.1-9.3c0.4-1.3,2-1.8,3.3-1.3   c0.2,0.2,0.7,0.2,0.9,0.7c1.1,1.8,0.9,4-0.4,5.6l1.6,2.2l-0.7,2c1.1,1.6,3.1,2.2,4.9,2.2l-0.2,2l3.8-0.2l2.2-2.4   c-0.2-1.8-1.1-3.3-2.2-4.7h4v-4.2l-2.7-1.6l2.9-0.4l-0.4-2.4c2.5-0.2,4.9,0.4,6.9,1.8c-0.7-1.6-2-2.9-3.6-3.6l3.3-0.2l-0.2-4.9   c-1.1-0.2-2.2,0-3.1,0.4c0.2-0.9,0.9-1.8,1.6-2.4c-2,0.7-3.8,2-5.1,3.6c0.4-2.4,0.2-5.1-0.9-7.3c0,2.9-0.9,5.6-2.2,8   c0,0-0.7-16.2-22.3-10.9L276,192.6z"/>
	<path class="st14" d="M258.9,256.1c-3.5-0.6-6.9-1.7-10.2-3l-0.2,0.6l-1.8-0.2l-0.4,1.9l-6.9,2.4c1.3,1.7,4.2,0.9,4.2,0.9   c0.4,0,1.3-0.4,2.4-0.4v5.2c1.1,0,2.2-0.6,2.4-1.7l1.5,1.9c1.1-1.1,1.1-2.6,0.2-3.7l0.2-1.1l2,1.1c2.4,3.9,8.2,3,8.2,3l1.5-2.8   L258.9,256.1z"/>
	<path class="st14" d="M268.5,234.4c1.6,7.6,11.6,26.5,11.6,26.5l-1.8,1.6c-1.6,1.3-3.3,2.2-5.3,2.9c-5.3-12-9.1-30.7-9.1-30.7   L268.5,234.4z"/>
	<path class="st14" d="M262.9,233.6l-1.5-1.5l0.4-1.7l-0.4-1.3l0.9-1.3l-0.4-1.1l1.5-1.1l-0.2-1.5l2.8-1.5c0.2-0.7,0.9-1.1,1.5-1.1   c1.1,0,1.9,0.9,2.1,2.2C269.8,224.9,262.9,233.6,262.9,233.6z"/>
	<path class="st13" d="M265.8,220.6l11.1,4.8c0,0-2.2,9.1-8,13.1l-6.6-2.5C262,230.5,263.2,225.3,265.8,220.6z"/>
	<path class="st17" d="M187.3,311c0.2,2.2,0.2,4.2-0.2,6.4c5.3,2.4,10.4,5.5,15,9.2l-0.7,1.3c-7.3-5.9-15.7-10.3-24.5-13.4   C176.9,314.5,178,309.9,187.3,311z"/>
	<path class="st17" d="M234.9,373c1.8-0.9,4-1.3,6-1.1l3.8-13.9l1.3,0.4l-7.8,25.6C235.1,381.1,234,376.9,234.9,373z"/>
	<path class="st17" d="M279.3,280.3c1.3,4,3.5,7.7,6.2,11.1c2.9,3.8,6.9,6.9,11.3,8.9c0,0,36.2-52.2,8.9-72.4l-11.5,5.8   c-1.1,7.5-4.9,14.6-10.6,19.7c0,0-0.7,4,6,10.2C287.5,269.9,284,275.7,279.3,280.3z"/>
	<path class="st18" d="M309.4,245.8l-3.6,8.5l-0.9-0.4l-2.5-0.7c-10.2,19.5-23.2,27.8-23.2,27.8c1.3,4,3.3,7.8,6.2,11.2   C296.9,278.9,305.2,263,309.4,245.8z"/>
	<path class="st14" d="M259,255.9l25.1,18.3l11.5-25.1l4.4-9.4c1.1-2,3.8-2.7,5.8-1.6c0,0,0.2,0,0.2,0.2c2,1.1,2.9,3.4,2.4,5.4   c-0.9,3.4-2.2,6.5-3.5,9.6c-4.9,11.6-11.3,22.6-19.5,32.2c0,0-15.5-13.4-24.6-23"/>
	<path class="st17" d="M293.1,248.1l12.3,5.8l7.3-11.9l-5.4-7.2l-7.3-0.4L293.1,248.1z"/>
	<path class="st8" d="M237.8,384l29.8-99.2l7.6,2.4L240.8,384H237.8z"/>
	<path class="st8" d="M253.7,282.2l-0.4-4.2c3.4-0.7,6.9-0.7,10.3,0l49,17.1l-1.1,3.6L253.7,282.2z"/>
	<path class="st8" d="M294.8,292.9l6.1,1.6l11.8,89.5h-2.4L294.8,292.9z"/>
</g>
</svg>
