<?xml version="1.0" encoding="UTF-8" standalone="no"?>
<svg xmlns="http://www.w3.org/2000/svg" xmlns:xlink="http://www.w3.org/1999/xlink" id="Laag_1" viewBox="0 0 1920 1080">
  <defs>
    <style>.cls-1{fill:#fac15c;}.cls-2{fill:#fa6800;}.cls-3,.cls-4,.cls-5{fill:#00526e;}.cls-6{fill:#003e53;}.cls-7{fill:#007cc1;}.cls-8{fill:#e94e1b;}.cls-9{fill:#ffa933;}.cls-10{fill:#ff9300;}.cls-11{fill:#7d4e24;}.cls-12{fill:#00a19a;}.cls-13{fill:#936037;}.cls-14{fill:#8d2f2a;}.cls-15,.cls-16{fill:#907253;}.cls-17{fill:#bc3f38;}.cls-18{fill:#a6a7a7;}.cls-19{fill:#b17f4a;}.cls-20{fill:#dddfde;}.cls-21{fill:#dfc5a4;}.cls-22{fill:#d5ecf4;}.cls-23{fill:#432918;}.cls-24{fill:#414141;}.cls-25{fill:#87b2bf;}.cls-26{fill:#283241;}.cls-27{fill:#388099;}.cls-28{fill:#377f95;}.cls-29{fill:#33758b;}.cls-30{fill:#343434;}.cls-31{fill:url(#Naamloos_verloop_106);}.cls-16{opacity:.2;}.cls-4{opacity:.7;}.cls-32{fill:#131720;opacity:.3;}.cls-5{opacity:.4;}</style>
    <linearGradient gradientTransform="translate(3660.279 485.502) rotate(-164.203) scale(1 -1)" gradientUnits="userSpaceOnUse" id="Naamloos_verloop_106" x1="3162.661" x2="3224.092" y1="561.889" y2="561.889">
      <stop offset="0" stop-color="#855f38"/>
      <stop offset=".107" stop-color="#956a3e"/>
      <stop offset=".259" stop-color="#a47645"/>
      <stop offset=".433" stop-color="#ae7c48"/>
      <stop offset=".675" stop-color="#b17f4a"/>
    </linearGradient>
  </defs>
  <rect class="cls-10" height="1080" width="1920"/>
  <polygon class="cls-9" points="172.262 620.974 172.014 73.027 521 73 967.986 73.027 1920 0 1920 835.528 139 835.528 172.262 620.974"/>
  <rect class="cls-1" height="603" width="399" x="148" y="44"/>
  <rect class="cls-1" height="603" width="399" x="594" y="44"/>
  <rect class="cls-17" height="244.472" width="1920" x="0" y="835.528"/>
  <g>
    <path class="cls-2" d="M584.144,38V656h418.856V38h-418.856Zm35.065,147.842h78.942v91.4h-78.901l-.041-91.4Zm.052,115.833h78.89v95.917h-78.847l-.043-95.917Zm78.89,108.134v101.803h-78.795l-.046-101.803h78.841Zm103.904-12.216v-95.917h79.479v95.917h-79.479Zm79.479,12.216v101.803h-79.479v-101.803h79.479Zm-79.479-132.566v-91.4h79.479v91.4h-79.479Zm-91.692,120.35v-95.917h79.48v95.917h-79.48Zm79.48,12.216v101.803h-79.48v-101.803h79.48Zm-79.48-132.566v-91.4h79.48v91.4h-79.48Zm0-103.616V73.027h79.48v100.599h-79.48Zm79.48,350.202v97.145h-79.48v-97.145h79.48Zm12.212,0h79.479v97.145h-79.479v-97.145Zm0-350.202V73.027h79.479v100.599h-79.479Zm91.69,236.183h74.392l.046,101.803h-74.438v-101.803Zm0-12.216v-95.917h74.343l.043,95.917h-74.387Zm0-120.35v-91.4h74.291l.042,91.4h-74.333Zm0-103.616V73.027h74.24l.045,100.599h-74.286Zm-195.594-100.599v100.599h-78.948l-.045-100.599h78.994Zm-78.79,450.802h78.79v97.145h-78.746l-.044-97.145Zm274.384,97.145v-97.145h74.444l.044,97.145h-74.488Z"/>
    <path class="cls-8" d="M978.503,63.852h-368.515s0,567.394,0,567.394l-8.337,8.337V55.515h385.189l-8.337,8.337Z"/>
  </g>
  <g>
    <path class="cls-2" d="M137,38V656h418.856V38H137Zm35.065,147.842h78.942v91.4h-78.901l-.041-91.4Zm.052,115.833h78.89v95.917h-78.847l-.043-95.917Zm78.89,108.134v101.803h-78.795l-.046-101.803h78.841Zm103.904-12.216v-95.917h79.478v95.917h-79.478Zm79.478,12.216v101.803h-79.478v-101.803h79.478Zm-79.478-132.566v-91.4h79.478v91.4h-79.478Zm-91.692,120.35v-95.917h79.48v95.917h-79.48Zm79.48,12.216v101.803h-79.48v-101.803h79.48Zm-79.48-132.566v-91.4h79.48v91.4h-79.48Zm0-103.616V73.027h79.48v100.599h-79.48Zm79.48,350.202v97.145h-79.48v-97.145h79.48Zm12.212,0h79.478v97.145h-79.478v-97.145Zm0-350.202V73.027h79.478v100.599h-79.478Zm91.69,236.183h74.392l.046,101.803h-74.438v-101.803Zm0-12.216v-95.917h74.343l.043,95.917h-74.387Zm0-120.35v-91.4h74.291l.042,91.4h-74.333Zm0-103.616V73.027h74.24l.045,100.599h-74.286ZM251.008,73.027v100.599h-78.948l-.045-100.599h78.994Zm-78.79,450.802h78.79v97.145h-78.746l-.044-97.145Zm274.384,97.145v-97.145h74.444l.044,97.145h-74.488Z"/>
    <path class="cls-8" d="M531.36,63.852H162.845s0,567.394,0,567.394l-8.337,8.337V55.515h385.189l-8.337,8.337Z"/>
  </g>
  <g>
    <polygon class="cls-3" points="1628.555 447.507 1528.946 484.963 1528.619 521.058 1585.325 487.728 1585.427 476.448 1628.474 456.531 1628.555 447.507"/>
    <polygon class="cls-3" points="1664.548 511.836 1528.24 563.091 1527.794 612.485 1605.39 566.875 1605.53 551.439 1664.436 524.185 1664.548 511.836"/>
    <polygon class="cls-26" points="1182.083 519.813 1477.273 519.813 1475.617 412.462 1396.382 410.096 1392.592 431.435 1182.083 429.54 1182.083 519.813"/>
    <rect class="cls-26" height="31.808" transform="translate(2998.955 1639.994) rotate(-180)" width="18.286" x="1490.334" y="804.093"/>
    <circle class="cls-26" cx="1490.334" cy="835.901" r="18.286"/>
    <rect class="cls-26" height="26.123" transform="translate(2356.329 1645.679) rotate(-180)" width="18.286" x="1169.021" y="809.778"/>
    <circle class="cls-26" cx="1169.021" cy="835.901" r="18.286"/>
    <polygon class="cls-28" points="1140.056 488.465 1378.005 488.465 1458.987 436.219 1529.519 436.219 1526.676 806.935 1142.898 809.778 1140.056 488.465"/>
    <polygon class="cls-3" points="1122 449.511 1302.249 446.668 1302.249 519.813 1124.843 522.656 1122 449.511"/>
    <rect class="cls-3" height="99.267" transform="translate(2565.313 1170.241) rotate(-180)" width="248.169" x="1158.572" y="535.487"/>
    <rect class="cls-3" height="49.634" transform="translate(2565.313 1340.04) rotate(-180)" width="248.169" x="1158.572" y="645.203"/>
    <rect class="cls-3" height="49.634" transform="translate(2565.313 1460.206) rotate(-180)" width="248.169" x="1158.572" y="705.286"/>
    <path class="cls-28" d="M1158.572,435.272h242.944s0-86.206,0-86.206c0,0-41.797-13.062-122.778-13.062-80.981,0-120.166,13.062-120.166,13.062v86.206Z"/>
    <polygon class="cls-22" points="1265.677 424.822 1385.842 424.822 1385.842 388.25 1266.202 391.616 1265.677 424.822"/>
  </g>
  <g>
    <rect class="cls-26" height="16.395" transform="translate(3708.773 1691.605) rotate(-180)" width="30.447" x="1839.163" y="837.605"/>
    <rect class="cls-26" height="16.395" transform="translate(3579.956 1691.605) rotate(-180)" width="30.447" x="1774.754" y="837.605"/>
    <g>
      <polygon class="cls-3" points="1756.396 443.743 1890.055 445.202 1890.537 742.95 1755.298 743.693 1756.396 443.743"/>
      <polygon class="cls-6" points="1890.537 742.95 1890.671 825.804 1874.295 843.37 1771.241 843.37 1754.998 825.804 1755.298 743.693 1890.537 742.95"/>
    </g>
    <g>
      <polygon class="cls-25" points="1756.396 373.534 1756.396 329.387 1766.584 329.387 1766.584 346.367 1786.96 346.367 1786.96 329.387 1892.235 329.387 1892.235 373.534 1895.631 373.534 1895.631 387.118 1892.235 387.118 1892.235 397.306 1861.671 427.87 1860.272 444.877 1789.001 444.099 1786.96 427.87 1756.396 397.306 1756.396 387.118 1753 387.118 1753 373.534 1756.396 373.534"/>
      <polygon class="cls-1" points="1786.96 278.447 1766.584 278.447 1766.584 329.387 1756.396 329.387 1756.396 271.655 1753 271.655 1753 258.071 1756.396 258.071 1756.396 220.715 1766.584 210.527 1882.047 213.37 1892.235 220.715 1892.235 258.071 1895.631 258.071 1895.631 271.655 1892.235 271.655 1892.235 329.387 1786.96 329.387 1786.96 278.447"/>
      <polygon class="cls-29" points="1778.478 613.843 1869.445 613.843 1866.602 475.999 1780.61 474.577 1778.478 613.843"/>
      <polygon class="cls-26" points="1796.719 563.432 1851.484 561.991 1850.257 499.214 1797.148 498.079 1796.719 563.432"/>
      <rect class="cls-29" height="23.772" transform="translate(3628.255 1087.85) rotate(-180)" width="13.584" x="1807.336" y="532.039"/>
      <polygon class="cls-3" points="1817.524 569.395 1820.92 555.811 1807.336 555.811 1810.732 569.395 1817.524 569.395"/>
      <rect class="cls-29" height="23.772" transform="translate(3675.799 1087.85) rotate(-180)" width="13.584" x="1831.108" y="532.039"/>
      <polygon class="cls-3" points="1841.296 569.395 1844.692 555.811 1831.108 555.811 1834.504 569.395 1841.296 569.395"/>
    </g>
  </g>
  <path class="cls-26" d="M1575.295,148.517s55.879-23.948,55.879-53.219l5.322-4.787V0h5.322V90.511s5.322,4.787,5.322,4.787c0,29.27,55.879,53.219,55.879,53.219l-7.983,10.644h-111.759s-7.983-10.644-7.983-10.644Z"/>
  <path class="cls-26" d="M1443.877,185.627l-5.322-55.879,7.983-2.661V0h5.322V127.087s7.983,2.661,7.983,2.661l-5.322,55.879c23.948,42.575,31.931,87.811,31.931,87.811h-74.506s7.983-45.236,31.931-87.811Z"/>
  <polygon class="cls-20" points="314.507 892.149 439.639 929.225 523.061 908.37 400.246 878.245 314.507 892.149"/>
  <g>
    <path class="cls-30" d="M560.563,119.866s-11.511,14.366-40.03,15.867l6.004-32.272,34.026,16.405Z"/>
    <g>
      <path class="cls-26" d="M258.827,913.261l11.884-172.597,11.469-46.674s-20.206-225.607,6.061-275.794l102.816-1.148s-18.522,212.547,68.736,485.092l-1.964,1.795,17.872,15.995,30.608,5.815,3.027,10.287-45.085,4.294s-19.703-4.843-33.264-4.843l-.342,4.843h-18.389s-6.986-26.35-6.986-26.35l-2.502,.313-25.082-176.009,1.882-32.842-37.749-141.971-8.485-29.172c-11.182,42.215-15.391,114.118-15.391,154.845-7.514,117.006,3.197,220.346,3.197,220.346l-8.945,.159,10.834,16.836,13.218,3.147,3.147,9.441-36.506,6.124-21.715,.328-4.405-5.193h-10.701s-3.462-27.065-3.462-27.065h-3.777Z"/>
      <path class="cls-32" d="M333.334,534.294s11.402-31.935,26.431-50.72l-9.753,57.785,29.556,164.08-46.234-171.144Z"/>
      <g>
        <path class="cls-12" d="M436.849,216.834s3.862,62.23,9.294,87.569l-26.569,30.402,5.327,8.391-8.503,3.661-10.38-12.387,6.915-9.595-17.952-54.082,11.787-21.867,30.081-32.093Z"/>
        <path class="cls-5" d="M412.933,324.876l-17.952-54.082,29.648-44.583s-12.78,51.348-12.137,89.09c0,0,6.518-2.006,18.471-13.326l-18.03,22.901Z"/>
        <path class="cls-12" d="M288.241,418.196l23.023-134.765-11.368,22.009,2.176,4.624-4.788,12.236s-2.445-1.118-6.206-3.013c-7.74-3.899-21.055-11.089-30.128-18.609-3.729-3.091-6.741-6.238-8.354-9.234l8.512-13.832s2.202,.42,5.782,1.241l60.682-105.817s22.419-16.141,66.167-23.805l34.055,44.32,9.056,23.283c-56.787,58.346-35.862,166.166-35.862,166.166l-12.768,18.443,2.837,15.605-102.816,1.148"/>
        <path class="cls-19" d="M495.21,243.146l-49.066,61.257-26.569,30.402,5.327,8.391s8.048,11.144,17.826,17.411c34.776-41.265,70.265-111.03,70.265-111.03l-17.782-6.431Z"/>
        <path class="cls-19" d="M404.595,149.87l6.236,52.386,15.637-15.247s15.6-14.746,33.787-8.22l10.819,14.192s14.458-3.765,24.057-13.193l13.893,1.043s.616-10.224,8.215-23.927c0,0,5.221-9.998,9.81-17.287,4.588-7.289,22.52-41.598-20.287-68.34,0,0-29.298-20.07-60.036,16.151-10.61,12.502-11.483,24.628-13.764,36.52-4.41,22.99-28.366,25.923-28.366,25.923Z"/>
        <path class="cls-27" d="M425.364,107.354c-.067-.196-.106-.377-.175-.574,.053,.193,.12,.382,.175,.574Z"/>
        <path class="cls-19" d="M517.977,245.045l7.595-4.139,.563-7.548,3.066-4.477-1.641-6.498,2.893-4.186-4.833-6.432,3.005-5.696-9.891-9.845s-.708-4.758-4.833-6.432c-4.125-1.674-8.471,1.645-11.247,6.295-2.775,4.65,15.323,48.957,15.323,48.957Z"/>
        <path class="cls-7" d="M520.637,191.054l-49.327,6.036s-.958,37.269,17.671,60.213l29.019-2.39s10.502-26.843,2.637-63.859Z"/>
        <polygon class="cls-3" points="410.517 215.927 410.831 202.256 427.159 185.852 429.502 193.937 410.517 215.927"/>
        <path class="cls-31" d="M432.961,123.947c-4.41,22.99-28.366,25.923-28.366,25.923l6.236,52.386,15.637-15.247s15.6-14.746,33.787-8.22c0,0-30.87-32.354-12.006-70.216l-15.288,15.374Z"/>
        <path class="cls-5" d="M391.057,417.048l-102.816,1.148,23.023-134.765-11.368,22.009-19.104-16.657,17.024,5.32s20.889-45.169,46.425-93.049c-25.536,76.608-32.984,193.649-32.984,193.649l76.963,6.739,2.837,15.605Z"/>
        <polygon class="cls-19" points="305.796 422.849 291.077 319.288 260.95 300.679 257.738 305.809 290.368 434.021 305.796 422.849"/>
        <polygon class="cls-3" points="410.831 202.256 396.059 208.606 392.445 144.999 405.618 146.585 410.831 202.256"/>
      </g>
      <path class="cls-30" d="M442.057,59.295c14.217-8.061,43.527-11.02,43.527-11.02l-11.549,9.038c67.512,1.866,86.528,62.552,86.528,62.552,0,0-31.451,11.877-63.898-23.739-32.673,2.361-38.698,33.743-38.698,33.743l-7.281-5.272,11.319-21.431s5.139-10.244-3.368-13.25c0,0-10.305-1.551-10.388,18.657l-15.288,15.374,9.096-64.651Z"/>
    </g>
  </g>
  <polygon class="cls-14" points="339.393 939.067 523.233 1080 413.621 1080 281.172 945.519 339.393 939.067"/>
  <path class="cls-14" d="M412.256,940.326h51.995s54.83,9.755,54.83,9.755l-4.635,6.952-9.269,4.635,2.317,16.221s257.579,102.112,252.359,102.112h-123.531l-205.299-116.016-18.769-23.659Z"/>
  <polygon class="cls-20" points="548.77 885.197 597.432 917.639 734.151 908.37 666.95 880.563 548.77 885.197"/>
  <polygon class="cls-14" points="1355.025 933.642 1876.023 1080 1920 1080 1920 1033.788 1439.292 936.177 1481.002 929.225 1355.025 933.642"/>
  <polygon class="cls-14" points="1043.859 945.519 1643.276 1080 1360.868 1080 973.074 945.519 1043.859 945.519"/>
  <g>
    <g>
      <path class="cls-7" d="M1047.184,420.416l-30.404-31.671,57.008-135.552-13.935-3.801-2.533-40.539,24.07-27.87,7.601,3.801,2.534-15.202,10.134-7.601,11.353,7.825,62.093,42.794,20.3,13.99-9.976,14.252s87.549,213.706,95.488,236.74l-20.428,39.43-6.176,2.85-216.629,70.309-13.777-57.958,13.302-33.254s9.976-26.604,9.976-78.544Z"/>
      <path class="cls-24" d="M1385.429,887.086s42.756-.95,71.734,1.425l1.9,5.226s-40.38,23.278-104.039,39.905c0,0-6.176-14.727-6.176-27.554l-3.801-6.651,38.005-17.577,2.375,5.226Z"/>
      <path class="cls-24" d="M964.048,902.288l1.425-6.651,29.454-.95-.475,7.126,15.202,21.853s19.003,3.801,34.205,16.627v5.226h-70.784s-26.604-24.703-26.604-24.703c0,0,3.801-12.352,17.577-18.527Z"/>
      <path class="cls-12" d="M960.723,894.212s13.347-111.882,34.725-152.738l19.907-18.76,22.328-132.543,216.629-70.309,79.811,159.621,53.207,199.526-4.276,2.85-38.005,17.577-3.801,1.425-99.288-143.469-1.9-18.052-85.986-55.107s-84.086,89.628-153.762,209.978l-5.384,.475-29.454,.95-4.751-1.425Z"/>
      <polygon class="cls-4" points="1104.667 292.782 1085.664 372.593 1123.669 402.997 1122.185 405.432 1129.37 411.31 1098.313 441.061 1180.352 424.929 1104.667 368.792 1104.667 292.782"/>
      <path class="cls-4" d="M1023.906,532.214l13.302-33.254s9.976-26.604,9.976-78.544l98.955,29.878-5.899,25.365-77.38-11.853-26.604,68.409,26.604,34.205,191.45-46.556-216.629,70.309-13.777-57.958Z"/>
      <polygon class="cls-4" points="1073.788 253.193 1084.942 228.016 1127.355 234.643 1084.279 212.773 1071.687 216.087 1081.389 180.984 1057.319 208.854 1059.852 249.393 1073.788 253.193"/>
      <polygon class="cls-4" points="1088.99 184.784 1137.958 209.46 1091.524 169.582 1088.99 184.784"/>
      <g>
        <path class="cls-21" d="M1167.375,75.52l50.357,35.788,2.375,61.283-5.701,1.9c-4.276,7.601-12.827,30.879-12.827,30.879-8.551,3.325-21.853,2.375-21.853,2.375l-4.623,4.854-53.552-36.908-8.017-71.668,53.84-28.504Z"/>
        <path class="cls-15" d="M1102.291,104.182c32.779-32.304,62.233-34.68,62.233-34.68,44.181,5.226,74.585,38.005,74.585,38.005-12.352,3.325-21.378,3.801-21.378,3.801,0,0-33.254,1.584-55.424-7.284l12.035,10.135s1.267,19.636-8.868,37.372l-9.684-2.069s-.93-12.187-11.29-10.317c-8.955,1.617-11.095,13.041-5.839,21.801l-17.11,14.746-8.541-5.886c1.866-26.218-10.72-65.624-10.72-65.624Z"/>
      </g>
      <path class="cls-16" d="M1179.727,207.746s-19.003-5.226-34.205-23.911c0,0,9.282,14.775,29.582,28.765l4.623-4.854Z"/>
      <path class="cls-5" d="M1154.073,684.234s27.87-39.272,67.142-65.875l-35.471,60.808,54.316,60.175-85.986-55.107Z"/>
    </g>
    <g>
      <polygon class="cls-11" points="1348.599 419.325 1304.546 407.311 1306.618 442.922 1302.341 442.758 1303.671 450.418 1314.71 590.522 1352.014 566.029 1348.916 439.431 1350.976 438.956 1348.599 419.325"/>
      <polygon class="cls-13" points="1314.71 590.522 1135.758 604.192 1124.196 461.587 1303.014 441.397 1303.671 450.418 1314.71 590.522"/>
      <path class="cls-23" d="M1193.353,483.304c-4.942,.377-9.254-3.322-9.631-8.264-.377-4.942,3.322-9.254,8.264-9.631l12.395-.947,16.102-1.23,16.242-1.241c4.942-.377,9.254,3.322,9.631,8.264,.377,4.942-3.322,9.254-8.264,9.631l-44.738,3.418Z"/>
      <polygon class="cls-11" points="1124.537 466.061 1124.196 461.587 1303.014 441.397 1303.671 450.418 1124.537 466.061"/>
      <polygon class="cls-11" points="1298.058 559.76 1302.531 559.418 1295.137 550.983 1289.11 560.444 1293.584 560.102 1294.951 577.997 1286.003 578.681 1284.636 560.785 1289.11 560.444 1281.716 552.009 1275.689 561.469 1280.162 561.127 1281.529 579.022 1277.056 579.364 1277.397 583.838 1281.871 583.496 1286.345 583.154 1295.293 582.471 1299.766 582.129 1304.24 581.787 1303.899 577.314 1299.425 577.655 1298.058 559.76"/>
      <polygon class="cls-13" points="1123.453 462.744 1306.618 442.922 1304.546 407.311 1120.836 421.665 1123.453 462.744"/>
      <path class="cls-21" d="M1147.296,453.638l22.402,19.893,9.452,.983,2.769,2.772,8.083-.191,4.008,2.251,10.008-2.896,16.465-13.218-16.102,1.23-9.511-7.345,.839-6.9,12.17-1.339s7.526-.533,7.989-7.003l-11.974-.248-17.709-.189-27.45-5.338-11.438,17.538Z"/>
    </g>
    <path class="cls-7" d="M1085.664,372.593l75.812,58.234-23.595,36.572s-58.397-13.567-90.697-46.984l38.48-47.823Z"/>
    <polygon class="cls-20" points="1299.113 443.805 1244.845 449.703 1284.17 478.804 1299.113 443.805"/>
    <g>
      <path class="cls-18" d="M934.972,552.774s-1.263-17.047,17.678-22.098c8.185-2.183,31.568,3.788,31.568,3.788l-49.246,18.31Z"/>
      <path class="cls-20" d="M909.011,528.746l-40.111-40.111s-40.111,24.775-119.154,28.314l25.954,63.706s97.919-21.235,133.311-51.909Z"/>
      <path class="cls-20" d="M1087.131,524.994s-26.517-29.674-59.98-22.098l-74.501,27.78s43.564-5.051,65.662,33.462l68.819-39.145Z"/>
      <path class="cls-20" d="M798.115,658.518l-58.987-51.909s-49.549,37.752-120.334,46.01l42.471,74.324s82.582-28.314,136.85-68.425Z"/>
    </g>
  </g>
  <polygon class="cls-14" points="139 836 0 836 0 1080 175.716 1080 139 836"/>
</svg>
