<?xml version="1.0" encoding="UTF-8" standalone="no"?>
<svg xmlns="http://www.w3.org/2000/svg" id="Laag_1" viewBox="0 0 1920 1080">
  <defs>
    <style>.cls-1{fill:#e0eff3;}.cls-1,.cls-2,.cls-3,.cls-4,.cls-5,.cls-6,.cls-7,.cls-8,.cls-9,.cls-10,.cls-11,.cls-12,.cls-13,.cls-14,.cls-15,.cls-16,.cls-17,.cls-18,.cls-19,.cls-20,.cls-21,.cls-22,.cls-23,.cls-24,.cls-25{stroke-width:0px;}.cls-2{fill:none;}.cls-3{fill:#87b2bf;}.cls-4{opacity:.8;}.cls-4,.cls-22{fill:#fff;}.cls-5{fill:#58f797;}.cls-6{fill:#80aab7;}.cls-7{fill:#cde4ec;}.cls-8{fill:#a5530a;}.cls-9{opacity:.2;}.cls-9,.cls-12{fill:#283241;}.cls-10{fill:#003e53;}.cls-11{fill:#377f95;}.cls-13{fill:#e2eef1;}.cls-14{fill:#85b0bd;}.cls-15{fill:#dab795;}.cls-16{fill:#377f93;}.cls-17{fill:#d3eaf2;}.cls-18{fill:#05617a;}.cls-19{fill:#377f91;}.cls-20{fill:#cca687;}.cls-21{fill:#377f8d;}.cls-23{fill:#00526e;}.cls-24{fill:#4bef85;}.cls-25{fill:#83aebb;}</style>
  </defs>
  <rect class="cls-13" height="1080" width="1920"/>
  <polygon class="cls-7" points="1196.364 486.433 451.857 1080 0 1080 0 0 1920 0 1920 642.637 1583.401 486.433 1196.364 486.433"/>
  <path class="cls-23" d="M441.688,350.108s21.777,28.376,41.574,38.934c19.797,10.558,31.015,32.995,46.853,40.254,15.838,7.259,31.015,0,31.015,0l-1.98-15.838s-11.878-5.939-13.858-11.878c-1.98-5.939-5.279-17.157-27.056-18.477-21.777-1.32-53.452-12.538-76.549-32.995Z"/>
  <path class="cls-10" d="M574.988,555.998l-8.579,1.98c5.059-41.354-9.239-88.647-9.239-88.647-7.919-1.98-8.579-7.039-14.518-14.958-5.939-7.919-11.218-13.198-32.335-13.858-21.117-.66-31.015-25.076-31.015-25.076,31.675,13.198,33.655.66,50.153,6.599,16.498,5.939,12.538,14.518,21.777,17.817,0,0,18.697,4.619,11.438,22.657l-2.42,5.499s14.518,60.051,14.738,87.987"/>
  <path class="cls-23" d="M497.12,358.027s16.498,5.279,31.675,5.279,39.594,1.98,46.853,11.878c7.259,9.899,15.178,46.853,15.178,46.853l-3.959,21.117-7.259-19.137s-22.437-11.878-32.995-30.356c-10.558-18.477-12.538-18.477-27.716-22.437-15.178-3.959-21.777-13.198-21.777-13.198Z"/>
  <path class="cls-10" d="M579.608,253.102c-5.28-36.295-30.356-41.574-53.453-42.234-23.097-.66-46.014-15.843-68.211-3.632,0,0,31.489,0,38.755,9.689,7.267,9.689,12.111,36.333,36.333,48.444,24.222,12.111,14.239,27.327,34.036,34.586,0,0,.664.162,1.791.384,4.485,48.7,16.386,194.673,5.057,263.182l7.203.79c11.69-70.703-2.852-219.122-7.6-263.215,8.134,1.051,21.23,1.291,22.585-7.741,1.98-13.198-11.218-3.959-16.497-40.254Z"/>
  <path class="cls-10" d="M706.31,111.222c-14.518,2.64-29.696,27.056-43.554,32.995-13.858,5.939-15.838,23.756-34.316,11.218-18.477-12.538-11.218,19.137-10.558,25.736.66,6.599,0,13.198-4.619,20.457-6.312,13.197,2.831,31.879,2.292,47.809-21.116,67.175-37.944,166.675-41.637,314.083l7.203.79s-5.578-337.414,104.37-433.109c.184-.156.368-.311.552-.466.374-.322.752-.636,1.13-.953,10.737-8.799,22.805-15.801,36.294-19.882,0,0,2.639-3.959,3.299-11.218,0,0-5.939,9.899-20.456,12.538Z"/>
  <path class="cls-23" d="M654.177,239.904c-34.975,9.899-13.198,6.599-40.255,30.355-26.196,23.002,1.428,48.477,3.209,50.072-12.237,32.946-39.098,117.901-42.143,235.666l5.279-.66s2.872-144.401,41.178-234.567c12.823-3.118,42.339-33.697,49.888-45.892,8.579-13.858,13.198-17.158,33.656-30.356,20.457-13.198,21.776-37.615,21.776-37.615-11.218,21.777-37.614,23.097-72.589,32.995Z"/>
  <path class="cls-21" d="M441.688,242.543s9.899,24.416,38.934,40.914c29.036,16.498,91.727,61.371,85.787,274.52l8.579-1.98s-1.98-124.722-19.137-175.534c0,0-1.32-9.239,5.279-13.858,6.599-4.619,11.878-19.797.66-37.615-11.218-17.817-.66-25.076-25.736-32.335-25.076-7.259-14.518-14.518-29.696-18.477-15.178-3.959-32.335-9.239-45.533-19.797-13.198-10.558-19.137-15.838-19.137-15.838Z"/>
  <path class="cls-23" d="M472.703,451.733s9.239,14.518,25.076,18.477c15.838,3.959,25.076,18.477,36.955,19.797,0,0,21.777,29.696,21.117,69.29h5.279s.22-34.095-22.877-70.17c0,0,8.799-1.76,3.3-12.978-5.499-11.218-13.198-9.899-23.757-11.658s-9.239,1.54-18.037-3.3c-8.799-4.839-14.958,0-27.056-9.459Z"/>
  <path class="cls-10" d="M680.793,323.492c-14.958,5.719-13.198,11.878-27.276,16.278-14.078,4.399-5.719,7.919-21.117,13.198-15.398,5.279-8.359,6.599-19.797,20.677-11.439,14.078,3.959,30.796,3.959,30.796l4.338-1.972c-4.62,24.924-19.045,108.037-15.336,155.51l7.039-.88c-4.529-18.118-2.505-90.189,13.644-157.06l4.833-2.197c6.159-12.318,24.197-45.314,54.552-63.791,30.356-18.477,32.996-32.995,32.996-32.995-8.359,10.998-22.877,16.717-37.835,22.437Z"/>
  <path class="cls-23" d="M616.562,554.458h5.279s6.159-162.776,113.503-179.494c0,0-7.479-3.959-16.718-.88-9.239,3.08-7.919,9.239-22.877,11.438-14.958,2.2-12.318,10.119-24.196,11.878-11.878,1.76-10.998-2.2-18.477,3.519-7.479,5.719-2.64,9.239-9.239,16.718-6.599,7.479,1.32,23.317,1.32,23.317,0,0-27.276,71.27-28.596,113.503Z"/>
  <path class="cls-21" d="M662.756,382.443c-16.718-.44-40.182-1.07-46.194,11.878-5.719,12.318-9.238,7.919-13.638,16.278,0,0-6.159,14.958,8.579,18.917.079.021-22.657,51.662-31.236,125.822l7.259,1.32s4.053-83.158,27.294-125.973c15.164,3.332,12.718-8.963,26.819-19.646,14.517-10.998,38.274-19.797,48.833-43.114,0,0-10.999,14.958-27.716,14.518Z"/>
  <path class="cls-21" d="M533.397,546.809v55.651c0,29.813,15.979,63.601,15.979,99.377h79.344c0-35.776,15.979-69.564,15.979-99.377v-55.651h-111.302Z"/>
  <path class="cls-23" d="M555.26,546.809v55.651c0,29.813,15.979,63.601,15.979,99.377h-21.863c0-35.776-15.979-69.564-15.979-99.377v-55.651h21.863Z"/>
  <rect class="cls-22" height="306.291" width="398.533" x="1190.306" y="471.118"/>
  <rect class="cls-17" height="309.862" width="411.791" x="1183.987" y="157.653"/>
  <polygon class="cls-4" points="1367.857 164.828 1326.982 164.828 1227.349 463.912 1297.603 463.912 1367.857 164.828"/>
  <polygon class="cls-4" points="1407.455 164.828 1380.631 164.828 1317.402 463.912 1369.135 463.912 1407.455 164.828"/>
  <path class="cls-14" d="M1173.419,121.587v689.153h432.927V121.587h-432.927ZM1583.401,767.499h-387.037v-281.067h387.037v281.067ZM1583.401,457.627h-387.037V176.56h387.037v281.067Z"/>
  <path class="cls-16" d="M1173.419,121.587v689.153h11.449V121.587h-11.449Z"/>
  <path class="cls-16" d="M1594.897,121.587v689.153h11.449V121.587h-11.449Z"/>
  <rect class="cls-14" height="713.477" width="38.32" x="1139.678" y="105.371"/>
  <rect class="cls-14" height="713.477" width="38.32" x="1601.767" y="105.371"/>
  <polygon class="cls-16" points="1139.678 797.228 1179.362 797.228 1182.555 787.308 1595.778 787.308 1600.249 797.228 1640.087 797.228 1640.087 818.848 1139.678 818.848 1139.678 797.228"/>
  <rect class="cls-14" height="48.646" width="542.235" x="1118.765" y="807.148"/>
  <rect class="cls-16" height="6.756" width="387.037" x="1196.364" y="479.677"/>
  <polygon class="cls-16" points="1640.087 147.733 1600.403 147.733 1597.21 157.653 1183.987 157.653 1179.516 147.733 1139.678 147.733 1139.678 126.112 1640.087 126.112 1640.087 147.733"/>
  <rect class="cls-16" height="48.646" transform="translate(2779.765 226.979) rotate(180)" width="500.409" x="1139.678" y="89.167"/>
  <rect class="cls-23" height="34.232" width="542.235" x="1118.765" y="79.247"/>
  <polygon class="cls-23" points="1651.739 131.591 1128.026 133.352 1128.026 121.587 1651.739 121.587 1651.739 131.591"/>
  <polygon class="cls-23" points="1651.739 154.901 1128.026 154.901 1128.026 144.973 1651.739 140.043 1651.739 154.901"/>
  <polygon class="cls-23" points="1651.739 173.822 1128.026 169.244 1128.026 161.878 1651.739 163.286 1651.739 173.822"/>
  <polygon class="cls-23" points="1651.739 192.287 1128.026 193.544 1128.026 178.048 1651.739 182.627 1651.739 192.287"/>
  <polygon class="cls-23" points="1651.739 211.857 1128.026 213.46 1128.026 203.757 1651.739 201.319 1651.739 211.857"/>
  <polygon class="cls-23" points="1651.739 234.633 1128.026 232.636 1128.026 222.492 1651.739 222.492 1651.739 234.633"/>
  <polygon class="cls-23" points="1651.739 253.766 1128.026 255.806 1128.026 241.44 1651.739 243.665 1651.739 253.766"/>
  <polygon class="cls-23" points="1651.739 276.979 1128.026 274.897 1128.026 264.838 1651.739 263.275 1651.739 276.979"/>
  <rect class="cls-23" height="184.675" width="4.471" x="1181.355" y="90.507"/>
  <rect class="cls-23" height="184.675" width="4.471" x="1593.939" y="90.507"/>
  <rect class="cls-23" height="184.675" width="4.471" x="1387.647" y="90.507"/>
  <rect class="cls-23" height="544.116" width="3.832" x="1605.531" y="94.561"/>
  <polygon class="cls-23" points="282.963 490.696 261.975 469.708 270.038 461.644 291.106 482.712 282.963 490.696"/>
  <polygon class="cls-23" points="424.004 615.609 417.207 624.94 435.898 643.631 443.962 635.567 424.004 615.609"/>
  <polygon class="cls-12" points="429.082 620.687 424.004 615.609 417.207 624.94 420.714 628.447 429.082 620.687"/>
  <path class="cls-23" d="M358.477,683.248v-20.838h-11.968v20.838c-21.306,1.53-37.734,10.808-37.734,10.808h87.436s-16.428-9.279-37.735-10.808Z"/>
  <path class="cls-12" d="M358.477,671.34v-8.931h-11.968v8.49c3.207.291,7.419.532,11.968.441Z"/>
  <path class="cls-23" d="M352.493,668.111c-63.933,0-115.949-52.016-115.949-115.949,0-36.899,17.816-71.933,47.661-93.718l6.727,9.214c-26.916,19.643-42.983,51.232-42.983,84.504,0,57.644,46.9,104.544,104.544,104.544,33.034,0,64.49-15.882,84.144-42.486l9.17,6.779c-21.792,29.5-56.679,47.112-93.314,47.112Z"/>
  <circle class="cls-25" cx="352.493" cy="552.164" r="98.842"/>
  <path class="cls-10" d="M293.978,472.513l.568.514,8.454-5.792,7.279-1.324.305,1.607-2.458.41-5.705,5.852,1.722,1.304,6.595-2.926,7.111.384.135,3.125,7.662-.95-1.564,3.715,1.919,1.87-1.678,2.106.532,4.636,2.425,4.422.523,3.878-1.878,1.351-2.017-2.154,1.206-2.005-1.642-2.538-3.211.799-4.864,4.989-2.105-1.679-2.708,3.161,1.441,1.593-2.23,3.439,1.173,2.828.494,1.604-.734,1.904,2.214,2.72-1.288,3.048.683,1.602-.578,6.734,1.147.743,1.225-.489.578.751-.458,1.237,2.866,1.859,1.029-1.056,1.422.077.734-1.905-.607-3.024,2.561.252,2.403,2.717,2.775,2.144,1.967-1.825-.309-1.986.235-3.888-2.497-2.621-.883-2.357-3.799-.71-1.724-1.495.158-2.465-1.544-2.255-.789-2.453,1.691-1.158,1.365,3.014,1.182,3.586,3.614,1.091,2.83-.983,1.249,1.406,1.319-.586,1.05.65-1.211,1.626,1.358,2.446,1.52.36,1.732,2.062-3.552,3.835-.055,3.127-2.724,1.835-1.48,2.861-1.146-.744-2-.827-.885-2.547-1.809-.64-.439,2.753,2.024,2.722,1.415-.492.765.559-.652.861.684,1.602-1.576,2.768c.804,3.59-1.326,7.502-1.326,7.502l.966,1.504-.818,2.758-2.547.885.878,1.979-3.273,3.358.869,1.221,3.491-.893,4.518,1.069,2.694,5.221-3.891,3.991-4.499.432-2.789,2.1.603,1.865,3.867,2.367,1.49,5.382,1.587,1.827,2.421.396,4.54-.626,1.425.266,4.338-5.314.36-5.263-2.882-3.09,1.399-1.723-.309-1.986,1.385-2.86-1.594-2.396,1.536-2.151,1.845-.166,1.23-3.853-.457-2.41,2.266-.597,2.731,2.381,10.342-2.547,2.432,1.248.594,1.982-3.648,3.741,1.435,1.119,6.223-2.353-1.158-1.691-1.904-.734,1.302-1.911-.117-1.799-3.063-2.425,2.072-.974.081-1.043-6.435.65-2.067,1.353-8.068-1.129.628-2.755,9.378-.214,2.444-1.547,6.101,2.955,1.988-.12,3.995,1.276,2.916-1.648-2.216-2.909.647-1.24-.954-.557-1.506.777-1.917-1.681.731-2.094-1.153-1.312,1.408-1.06.043-4.074-3.436-2.041-1.554-3.012-2.058-5.374,2.832-.794,2.864,1.669.998-3.518-3.555-3.839,1.868-2.108,3.736,3.269,7.528-4.075,2.489,2.053-1.961,2.204,1.058,1.218-6.101,4.53s-2.212,4.955-2.437,9.6l-1.261,5.133,1.341,1.12,1.324-.206s5.034.978,7.108.194l1.492-1.914.065-2.37,2.262-.976,1.96-2.394-.966-1.504s-.216-2.081,1.311-1.153l1.528.928,1.895-.024,5.758,5.801-4.844,6.504.312,2.175-7.475,8.244-3.686.71-2.142,2.964,3.653,4.123s-12.212,8.303-17.503,9.508l-1.823-1.777.357-1.711-4.49-2.88-12.075,11.618-.331,3.794-1.549,4.851-3.579,1.751-2.451.979-.837,1.242.326,3.312-2.132,3.722,1.763,4.525,1.912,1.302s-3.679,8.764-2.124,19.261l1.936,3.196,1.043.082,4.885,4.202,1.557,3.202,6.109,3.523,2.365-.314,1.441,1.592,3.115-.892,1.914,1.491s5.89,1.252,11.737-.907l9.008-6.936,1.801.072,10.197-10.268,4.535-1.005,1.971-1.446-.108-1.041,1.221-.869,2.636-1.36,2.683,2.43-.916,2.475,3.43,1.472,4.343-1.192,5.588-.166,1.914,1.491,1.036-.487-.355,1.9.307,1.796,2.118,2.626,3.799.71.375.366c11.661-13.03,19.252-28.378,22.8-44.435l-1.279.112-1.401-5.856-3.838-3.741-1.735-24.707s-2.494-9.917-8.069-16.099l-1.223.678,1,4.157-.196,6.919-4.327,2.518-4.936-.695-2.064,1.542-5.873.075-3.252-2.422-4.259.338-1.912-1.302-7.017-.48-2.18-.067,3.106-1.65-.398-1.511,11.747-.149,2.59,2.525,8.42-.96,3.528,1.756,3.125-.134.837-1.243s-.363-21.124-9.031-32.194l-3.307.705-3.219.23-.741,1.336,1.65,3.106-.817,2.758-4.176-.515-4.806,2.051-1.991-.069-.221-2.461,5.087-2.339,3.115-.892.914-2.665-.148-4.262,2.561.252-.595-9.562,3.964-1.187.65-1.051,5.125.693,7.416,4.754c-2.821-3.655-5.914-7.167-9.315-10.483-35.139-34.257-89.252-37.055-127.514-8.876Z"/>
  <polygon class="cls-10" points="319.001 540.567 317.816 539.824 318.506 538.585 317.897 538.044 315.184 538.549 313.624 537.183 312.403 537.8 311.684 536.841 312.293 535.317 312.833 534.656 312.142 533.776 310.685 534.37 308.809 532.85 307.304 533.759 306.303 535.21 308.204 536.65 308.558 537.771 309.758 539.612 310.694 539.181 313.022 541.296 314.065 543.088 313.17 544.694 314.313 546.118 313.674 547.303 314.36 547.765 315.526 546.992 316.189 547.689 315.369 548.955 317.129 549.639 317.984 549.026 318.903 547.184 319.893 546.91 322.165 544.632 321.205 543.128 322.432 540.968 320.767 539.55 319.001 540.567"/>
  <polygon class="cls-10" points="310.775 543.495 311.185 542.81 309.179 541.371 308.177 542.77 308.429 544.048 306.858 546.029 307.159 547.045 306.753 547.992 307.229 548.457 307.902 547.925 308.615 548.465 308.102 549.256 308.844 549.979 309.731 549.863 310.285 550.249 312.532 547.997 312.308 546.85 312.977 545.952 310.775 543.495"/>
  <path class="cls-10" d="M260.273,572.094l.489,1.226-.923,1.906,1.058,1.218,3.566-2.698-3.753-4.595-.729-5.202,3.427,1.283.051,3.979,5.183,5.24,1.12-1.341-2.813-5.176-1.607-7.18-2.564-7.926-.185-7.104-2.856-1.101.012-6.537-2.176.312-.834,8.916-2.365.315,1.623-13.949,2.309-4.672-.316,4.93,2.173-.501,2.547,6.6,2.072-.974-1.235-7.753-2.669-1.293,1.793-7.981.95,7.662,2.13,3.573,1.314-.964-.005-7.864.981-4.845-.648-6.245-1.528-.928.163-2.086,2.952,1.194.067-2.18-2.583-1.957,2.758-6.667-.742-.627c-15.092,24.307-18.627,53.674-10.693,80.336l.898-6.714,1.59-1.631Z"/>
  <path class="cls-10" d="M275.112,546.893l-.41-2.458,1.399-1.818-.895-3.305.434-3.132,2.71-2.972,3.086-3.166-.41-2.458,1.298-2.29,2.281.54,2.324-3.535-.6-2.456.926-1.717-1.151-1.122-1.413.682-.863-.842,1.024-1.434,2.648-.413-1.554-3.012,1.206-2.005-1.249-1.406.829-1.811-.966-1.504,1.492-1.914-.319-2.744-1.419.113.458-1.238-1.156-1.501-5.722,4.526-2.091-.542-5.329,5.658,1.547,2.444-2.056,2.3,2.106,1.678-.657.482.587,1.509-.916,2.475,1.261,2.353-1.604.494-.621,3.324,1.813,1.019-1.015,2.192-2.518,3.159c-1.666,10.538,2.003,15.987,2.003,15.987l1.531,1.117,1.973-1.257Z"/>
  <polygon class="cls-10" points="293.66 530.171 294.864 527.977 296.077 526.54 294.638 525.137 292.857 526.581 293.213 524.871 292.075 524.696 290.501 527.653 288.429 528.627 287.012 528.929 287.429 531.956 289.25 533.543 290.768 533.714 293.211 532.167 293.66 530.171"/>
  <path class="cls-9" d="M253.99,560.044c1.798,22.608,11.318,44.717,28.612,62.011,38.6,38.6,101.183,38.6,139.783,0-70.285-.885-128.183-20.471-168.395-62.011Z"/>
  <rect class="cls-12" height="5.013" width="87.436" x="308.775" y="694.057"/>
  <polygon class="cls-19" points="287.049 1018.267 259.375 1018.267 224.039 996.129 712.366 996.129 677.455 1018.267 649.356 1018.267 661.277 1080 645.95 1080 622.96 1018.267 613.168 1018.267 594.435 1018.267 342.395 1018.267 323.662 1018.267 313.445 1018.267 290.455 1080 275.128 1080 287.049 1018.267"/>
  <polygon class="cls-23" points="649.356 1018.267 651.91 1031.465 628.069 1031.465 622.96 1018.267 313.445 1018.267 308.336 1031.465 284.494 1031.465 287.049 1018.267 259.375 1018.267 224.039 996.129 712.366 996.129 677.455 1018.267 649.356 1018.267"/>
  <rect class="cls-19" height="299.298" width="536.862" x="201.9" y="696.831"/>
  <rect class="cls-23" height="267.367" width="502.803" x="217.652" y="715.99"/>
  <rect class="cls-25" height="251.614" width="238.842" x="472.247" y="724.079"/>
  <rect class="cls-25" height="251.614" width="238.842" x="225.316" y="724.079"/>
  <rect class="cls-19" height="137.089" width="11.921" x="494.386" y="780.703"/>
  <rect class="cls-19" height="137.089" width="11.921" x="430.524" y="780.703"/>
  <rect class="cls-23" height="134.109" width="6.386" x="491.405" y="775.594"/>
  <rect class="cls-23" height="134.109" width="6.386" x="439.039" y="775.594"/>
  <path class="cls-8" d="M732.598,307.032s18.416,79.076,46.554,131.152l10.198,3.187c2.369,18.157,7.649,27.407,7.649,27.407h138.311l43.878-88.553c10.52-21.23,14.123-54.538,14.123-54.538l13.385,4.78,11.473,6.692s-35.374-108.035-119.508-119.508l9.561-9.561s-73.617-3.824-145.322,38.243c0,0-6.692,13.385-6.692,26.77,0,0-25.814,1.912-33.462,16.253l16.253-.956s-3.238,7.626-6.4,18.632Z"/>
  <path class="cls-18" d="M621.571,598.378s-60.542,119.03-73.067,192.083l-16.7,6.262,4.175,16.7-12.522,43.833-26.091,21.917-48.008,59.488,76.323,65.655h78.873l33.705-63.568,22.081-44.258,23.837-147.772s-8.322-100.299-62.607-150.339Z"/>
  <path class="cls-18" d="M1081.075,633.267s37.844,128.504,46.765,212.368h-128.473l81.707-212.368Z"/>
  <path class="cls-23" d="M1072.079,656.941l-6.245,74.942,39.628-5.994c9.268,38.938,18.523,83.509,22.378,119.746h-128.473l72.712-188.694Z"/>
  <path class="cls-20" d="M886.232,595.616c-42.845-3.383-73.939-58.565-84.281-84.136l.658-9.216c2.265-29.556-8.382-71.361-8.382-71.361l139.814,10.425-8.328,95.826s33.18,64.199-39.481,58.462Z"/>
  <path class="cls-7" d="M970.139,979.968s-109.057,33.736-203.415-3.569l3.628-429.81,16.458-16.019s61.662,40.157,88.872,39.499c27.21-.658,53.982-26.991,53.982-26.991l16.238,22.821,32.477,125.518-8.239,288.55Z"/>
  <path class="cls-6" d="M878.973,588.502l50.032,27.649-15.141-34.891-38.182-11.191-37.524,16.458-23.041,24.358s38.84-16.458,63.856-22.383Z"/>
  <polygon class="cls-23" points="888.847 621.418 902.672 579.944 875.681 570.069 851.982 577.311 859.882 622.076 888.847 621.418"/>
  <polygon class="cls-10" points="897.208 596.336 902.672 579.944 875.681 570.069 851.982 577.311 854.785 593.196 875.681 587.185 897.208 596.336"/>
  <path class="cls-23" d="M888.847,621.418l-15.141-3.292-13.825,3.95-5.266,9.875-.658,219.218,4.549,147.589,57.364-.956,17.085-176.915s-9.216-100.063-44.107-199.468Z"/>
  <path class="cls-7" d="M801.951,511.479l.658-9.215-15.8,28.307s1.317,27.649,28.307,80.313l60.564-40.814s-40.815-16.458-73.73-58.591Z"/>
  <path class="cls-7" d="M931.258,543.066c-.027-3.379-3.266-8.228-5.784-12.838l.238,6.926s-25.674,26.332-50.031,32.915c0,0,28.307,14.483,53.323,46.082,0,0,2.603-29.144,2.254-73.085Z"/>
  <path class="cls-18" d="M1081.075,633.267c-36.208-12.508-115.205-58.588-115.205-58.588-21.064-13.168-34.612-31.612-34.612-31.612,0,0,28.687,94.811,26.054,151.862-2.605,56.447-65.091,204.934-66.429,208.1-41.461-72.27-73.131-165.09-73.131-165.09-23.702-80.312-39.499-188.276-39.499-188.276l8.558-19.092-11.191-.657-25.016,27.648-129.03,40.818c78,258.356,34.232,338.37,34.232,338.37l-3.557,67.567h343.789l-6.47-53.742,25.016-65.172,66.492-252.134Z"/>
  <path class="cls-23" d="M890.822,903.175s-138.026-181.913-174.014-292.51l23.699-15.799-21.944-11.411,3.784,11.034-25.427,13.829s40.148,157.022,193.902,294.858Z"/>
  <path class="cls-15" d="M949.332,527.416c23.583-43.979,29.913-113.299,29.913-113.299l-2.633-22.821,7.9-15.799-1.755-24.577c8.777-53.543-26.332-71.098-26.332-71.098,0,0-94.797-44.765-158.873-1.755l-10.533,75.486s-15.726-8.507-21.943,11.41c-6.577,21.076,10.357,74.288,29.152,65.94,11.371,55.915,57.179,83.858,93.564,97.457,26.232,9.805,61.541-.943,61.541-.943Z"/>
  <path class="cls-20" d="M984.512,375.497s-33.268-6.15-43.888,9.215c4.884,25.427,12.532,64.944,12.532,64.944,0,0-12.748,4.462-35.055,3.187,0,0,13.384,8.922,35.693,8.285.637,25.496-4.462,61.826-4.462,61.826-29.923,8.842-58.935,5.165-79.495-.19,5.59,2.186,11.535,4.099,17.954,5.596,0,0,31.585,11.165,61.541-.944,24.221-36.33,29.914-113.298,29.914-113.298l-2.633-22.822,7.899-15.799Z"/>
  <path class="cls-8" d="M971.321,265.454l46.847,71.705c-101.98-5.099-200.774-35.374-200.774-35.374l17.209,14.341s-8.605,20.077-12.476,40.938l-9.216,6.583-2.194,27.649-8.777-1.755s-2.633-21.066-14.922-35.988l3.511-84.703s73.713-61.716,180.792-3.396Z"/>
  <path class="cls-2" d="M659.318,905.572l-54.763,98.743h47.693l3.556-67.568s2.175-19.303,3.514-31.176Z"/>
  <path class="cls-23" d="M999.425,730.275c11.609-35.847,18.794-74.12,16.694-111.712l-26.331-15.799,1.755-6.143-14.923,5.266,29.848,17.554s4.825,126.397-115.648,283.736l-25.28-26.317-16.061,25.079s-116.249,5.671-161.137-4.644c-16.166-161.884-55.302-259.726-55.302-259.726,0,0,30.09,116.487,31.446,204.959l-10.556,36.899-32.258-15.881-37.222-4.468,40.696,20.843,12.903,27.792-32.755,46.653-30.274-11.911-12.407-2.484-9.926-40.199v-16.376l-29.231-26.142-26.091,21.916-48.008,59.489,76.323,65.655h78.873l54.763-98.744c-1.338,11.873-3.513,31.176-3.513,31.176l-3.557,67.568h343.79l64.891-279.123-61.503,5.082Z"/>
  <path class="cls-12" d="M559.64,996.732l7.137-12.936s-2.453-17.62-7.583-26.319c-5.13-8.699-25.65-24.312-66.467-16.059l-60.11,29.33,8.81,28.661,6.914,3.123v1.784h111.075l.223-7.583Z"/>
  <path class="cls-15" d="M504.325,886.549l-1.338,11.152s-7.583,2.23-20.966-.892l-16.951,6.691-3.123,10.26h-7.137l-15.167,21.412-.446,4.907s-14.275,8.03-23.196,21.858c0,0,1.338,30.78,24.089,40.594,0,0,11.598-3.569,10.26-13.829l3.123-2.23,2.677,7.583s7.137,4.907,14.275,1.338c7.137-3.569,6.245-14.275,6.245-14.275l-7.137-15.613-.892-7.583s5.799,7.583,15.613,2.23c9.814-5.353,8.476-18.736,8.476-18.736,0,0,45.947-11.598,66.467,16.059,0,0,7.137,16.505,7.583,26.319,0,0,25.427,10.26,29.888-16.059l-26.319-16.505s-12.49-2.23-19.628-7.583l-14.275-41.932v-12.49s-5.353-11.152-16.059-12.044c-10.706-.892-16.059,9.368-16.059,9.368Z"/>
  <path class="cls-20" d="M493.842,924.912l-1.115,16.505s44.163-10.595,66.467,16.059c0,0,4.907,11.933,7.583,26.319,0,0,25.65,12.044,29.888-16.059,0,0-18.847,4.684-29.553-3.68l-30.445-37.137-.223-25.204s.892,14.832-11.487,20.185c-12.379,5.353-15.39-9.702-15.39-9.702l-4.349-13.048-9.033,22.416-6.022-10.706,3.68,14.052Z"/>
  <polygon class="cls-20" points="462.393 919.782 465.069 935.618 468.638 957.923 469.53 965.506 476.668 981.119 461.278 959.93 458.155 932.942 462.393 919.782"/>
  <polygon class="cls-20" points="441.427 952.57 447.003 975.32 453.471 986.472 450.349 988.703 438.081 974.874 435.851 962.384 441.427 952.57"/>
  <path class="cls-12" d="M806.882,1004.315h483.901v-24.592h-502.247v6.246c0,10.132,8.214,18.346,18.346,18.346Z"/>
  <path class="cls-12" d="M900.442,992.799h335.953c2.765,0,5.007-2.242,5.007-5.006l43.478-240.769c0-2.766-2.241-5.007-5.005-5.007h-335.953c-2.766,0-5.007,2.241-5.007,5.007l-43.48,240.769c0,2.763,2.242,5.006,5.007,5.006Z"/>
  <path class="cls-12" d="M911.21,992.799h385.281c3.25,0,5.886-2.679,5.886-5.984l42.767-238.813c0-3.307-2.635-5.985-5.887-5.985h-385.281c-3.25,0-5.885,2.678-5.885,5.985l-42.768,238.813c0,3.304,2.636,5.984,5.887,5.984Z"/>
  <polygon class="cls-3" points="1134.067 919.362 1515.65 967.048 1516.098 996.81 1132.35 997.084 1134.067 919.362"/>
  <polygon class="cls-11" points="1132.35 997.084 1138.268 917.816 1515.65 967.048 1515.645 978.987 1164.792 936.398 1158.798 998.08 1132.35 997.084"/>
  <polygon class="cls-23" points="1545.452 967.695 1130.808 911.402 1127.104 1004.316 1545.094 1003.806 1545.482 994.087 1137.706 992.973 1141.325 923.893 1543.972 976.289 1545.452 967.695"/>
  <polygon class="cls-3" points="1157.226 829.677 1528.535 929.72 1524.86 959.257 1144.767 906.412 1157.226 829.677"/>
  <polygon class="cls-11" points="1144.767 906.412 1161.601 828.727 1528.535 929.72 1526.878 941.543 1200.639 859.473 1193.984 915.849 1144.767 906.412"/>
  <polygon class="cls-23" points="1557.961 934.486 1155.1 821.341 1138.571 912.848 1552.608 970.2 1554.338 960.628 1150.64 903.082 1163.787 835.168 1555.306 942.792 1557.961 934.486"/>
  <polygon class="cls-3" points="1528.018 837.83 1147.669 781.136 1139.233 809.681 1508.769 913.15 1528.018 837.83"/>
  <polygon class="cls-11" points="1522.994 846.999 1524.387 835.211 1147.669 781.136 1139.233 809.681 1231.821 838.924 1232.495 812.394 1522.994 846.999"/>
  <polygon class="cls-23" points="1118.791 773.744 1533.298 831.039 1511.877 921.526 1109.424 808.621 1111.664 799.157 1504.717 907.75 1519.809 840.242 1117.905 782.42 1118.791 773.744"/>
  <path class="cls-1" d="M1613.998,972.463s-25.663,15.308-25.438,30.165h-227.803v-32.641s253.241,2.476,253.241,2.476Z"/>
  <polygon class="cls-5" points="1289.171 706.155 1499.248 721.688 1618.022 970.887 1614.532 974.939 1384.179 974.939 1362.243 1000.602 1592.439 1000.602 1589.531 1004.316 1359.069 1004.316 1270.262 746.676 1289.171 706.155"/>
  <path class="cls-22" d="M1332.358,753.368c-.698-4.672.542-7.264,3.445-7.294.51-.005,1.132.071,1.967.273l.99.253-1.034-6.04,1.773-.004,3.287,19.288-1.503.025-.634-2.285-.59-.2-1.545,1.96c-.483.61-1.111.806-1.688.819-2.171.046-3.835-2.573-4.468-6.793ZM1336.598,758.096c.311-.005.692-.145,1.038-.544l1.725-1.938c.563-.634.746-1.133.598-1.995l-.881-5.088-1.5-.325c-2.852-.626-3.96,1.147-3.337,5.42.446,2.799,1.315,4.49,2.356,4.469Z"/>
  <path class="cls-22" d="M1345.663,752.878c-.672-4.389.72-6.866,3.869-6.869,2.613,0,4.706,1.709,5.163,4.135.355,1.804-.45,2.58-2.354,2.874l-4.614.727c.554,2.902,1.743,4.317,3.626,4.297.842-.007,1.484-.298,2.339-1.054l1.392-1.247,1.364,1.617-1.55,1.38c-.957.858-1.953,1.23-3.171,1.242-3.169.038-5.356-2.532-6.063-7.102ZM1347.495,751.904l4.169-.67c.95-.157,1.352-.496,1.18-1.347-.253-1.19-1.323-1.935-2.831-1.935-1.905.006-2.717,1.255-2.518,3.952Z"/>
  <path class="cls-22" d="M1338.741,773.255l9.727-.263,1.123,3.652-6.248.176,1.203,3.921,5.739-.18,1.112,3.593-5.739.194,2.026,6.574-3.479.143-5.463-17.81Z"/>
  <path class="cls-22" d="M1355.671,787.27l4.101-.123-2.132-6.859-3.701.097-1.032-3.335,7.155-.163,3.162,10.16,3.613-.094,1.033,3.295-11.166.342-1.032-3.319ZM1354.672,772.932c-.462-1.489-.049-2.246,1.657-2.279,1.68-.029,2.555.707,3.012,2.19.462,1.481.049,2.237-1.633,2.27-1.707.032-2.585-.719-3.036-2.181Z"/>
  <path class="cls-22" d="M1366.025,776.779l2.528-.038.779,1.362.665-.011c.418-1.15,1.153-1.645,2.569-1.664,2.544-.027,4.262,1.472,5.209,4.475l2.858,9.051-3.456.069-2.524-8.011c-.463-1.466-1.204-2.138-2.358-2.123-1.218.021-1.588.765-1.142,2.182l2.523,8.03-3.457.084-4.195-13.406Z"/>
  <path class="cls-22" d="M1382.009,786.295c-.84-2.66.254-4.058,2.958-4.086l2.962-.027-.269-.851c-.474-1.497-1.247-2.123-2.419-2.116-1.041.006-1.569.517-1.31,1.618l-3.102.031c-.781-2.895.463-4.518,3.741-4.538,3.385-.013,5.485,1.635,6.543,4.959l2.7,8.473-2.619.028-.758-1.342-.665.006c-.514,1.183-1.155,1.621-2.636,1.643-2.571.04-4.324-1.266-5.126-3.799ZM1388.837,785.032l-.229-.723-2.018.018c-1.105.014-1.531.568-1.222,1.544.28.877.951,1.446,2.1,1.431,1.379-.015,1.829-.822,1.369-2.27Z"/>
  <path class="cls-22" d="M1392.602,776.563h2.521s.779,1.342.779,1.342l.665.002c.42-1.116,1.151-1.588,2.568-1.583,2.548.015,4.267,1.51,5.209,4.457l2.861,8.887-3.455.011-2.527-7.866c-.458-1.438-1.204-2.109-2.358-2.112-1.218-.002-1.582.723-1.14,2.113l2.526,7.885-3.45.028-4.2-13.166Z"/>
  <path class="cls-22" d="M1407.567,783.167c-1.503-4.67-.283-6.782,3.503-6.74,3.454.046,5.776,1.84,7.042,5.276l-3.363-.036c-.582-1.453-1.435-2.048-2.653-2.061-1.529-.016-1.852.968-1.008,3.578.843,2.604,1.8,3.589,3.329,3.597,1.239.007,1.726-.602,1.305-2.17l3.411.031c1.004,3.564-.225,5.29-3.698,5.277-3.787-.007-6.376-2.121-7.869-6.753Z"/>
  <path class="cls-22" d="M1422.114,786.542l4.098.049-2.138-6.55-3.695-.06-1.032-3.186,7.148.14,3.171,9.704,3.604.055,1.036,3.147-11.156-.127-1.035-3.172ZM1421.099,772.983c-.464-1.426-.052-2.123,1.653-2.081,1.678.041,2.554.769,3.012,2.188.464,1.415.052,2.108-1.629,2.071-1.705-.037-2.583-.783-3.036-2.178Z"/>
  <path class="cls-22" d="M1434.178,783.493c-1.502-4.583-.241-6.623,3.544-6.517,4,.121,6.484,2.468,7.715,7.432l-7.705-.19c.868,2.292,1.916,3.273,3.487,3.305,1.196.027,1.763-.509,1.595-1.49l3.142.078c.612,2.702-.747,4.173-3.932,4.106-3.743-.071-6.351-2.177-7.846-6.723ZM1437.105,782.045l4.493.113c-.593-1.593-1.557-2.461-2.973-2.499-1.351-.036-1.835.699-1.52,2.386Z"/>
  <path class="cls-22" d="M1448.563,787.032l3.099.086-2.141-6.433-2.721-.088-1.036-3.128,5.136.184.759,1.301.665.026c.576-1.23,1.256-1.466,2.585-1.413l1.817.077,1.099,3.294-3.031-.115c-1.241-.046-1.628.552-1.223,1.771l1.544,4.628,3.694.119,1.037,3.09-10.246-.286-1.037-3.113Z"/>
  <path class="cls-22" d="M1461.95,787.448l4.096.15-2.139-6.366-3.696-.154-1.034-3.097,7.145.32,3.177,9.432,3.607.148,1.038,3.058-11.156-.408-1.037-3.083ZM1460.925,774.352c-.459-1.385-.053-2.047,1.651-1.962,1.683.086,2.553.808,3.017,2.189.459,1.374.051,2.032-1.632,1.951-1.702-.079-2.582-.822-3.036-2.178Z"/>
  <path class="cls-22" d="M1472.27,778.591l2.519.129.786,1.289.665.033c.415-1.017,1.148-1.417,2.562-1.34,2.54.144,4.259,1.618,5.205,4.402l2.871,8.396-3.446-.161-2.536-7.432c-.465-1.36-1.212-2.021-2.358-2.081-1.216-.063-1.584.59-1.136,1.905l2.535,7.451-3.452-.148-4.216-12.444Z"/>
  <path class="cls-22" d="M1491.076,793.078l4.29.218c1.479.076,1.707-.523,1.284-1.996l-.261-1.009-.729-.226c-.543,1.131-1.281,1.316-2.3,1.263-2.717-.139-4.904-2.077-6.316-6.201-1.411-4.128-.528-5.978,2.328-5.805,1.013.063,2.01.375,3.407,1.67l.659.039-.074-1.229,2.523.165,3.971,11.515c1.188,3.428.06,4.995-3.193,4.829l-4.555-.223-1.036-3.01ZM1494.835,786.594l-.717-2.086c-.457-1.325-1.322-2.013-2.493-2.082-1.46-.089-1.714.878-1.022,2.898.695,2.024,1.636,3.054,3.096,3.137,1.171.064,1.584-.568,1.135-1.867Z"/>
  <path class="cls-22" d="M1501.463,788.597l3.381.21c.435,1.062,1.398,1.593,2.724,1.677,1.283.082,1.839-.309,1.568-1.086-.208-.597-.727-.963-1.552-1.177l-3.142-.766c-2.246-.551-3.632-1.742-4.276-3.609-.887-2.571.442-3.789,3.753-3.56,3.032.219,5.403,1.471,6.458,4.119l-3.252-.228c-.437-.948-1.344-1.443-2.512-1.524-1.125-.078-1.611.274-1.373.963.176.508.619.854,1.332,1.035l2.948.719c2.688.656,4.136,1.783,4.856,3.842.942,2.695-.467,3.922-4.116,3.692-3.338-.2-5.7-1.446-6.797-4.306Z"/>
  <path class="cls-22" d="M1349.86,812.659c-1.02-6.323.188-9.031,4.309-9.23,3.681-.168,5.825,1.875,6.78,5.86l-3.48.17c-.366-1.602-1.064-2.47-2.369-2.405-1.778.087-2.201,1.684-1.507,5.936.681,4.121,1.431,5.44,3.161,5.339,1.644-.093,2.443-1.346,2.047-3.691l-2.508.137-.944-3.019,6.166-.315,1.625,9.685-2.216.128-.503-1.383-.642.036c-.51,1.261-1.412,1.906-2.919,1.996-3.548.22-5.902-2.758-7-9.245Z"/>
  <path class="cls-22" d="M1368.226,817.249l-.557-5.61-.591-.38-2.764,2.147-2.104-2.894,3.39-2.666c.574-.457,1.219-.692,1.863-.717,1.799-.074,3.26,1.37,3.447,3.729l.533,5.597.591.378,2.767-2.129,2.105,2.869-3.371,2.645c-.596.46-1.221.693-1.863.728-1.818.095-3.283-1.333-3.445-3.696ZM1365.859,803.182c-.242-1.419.251-2.001,1.776-2.058,1.729-.062,2.685.692,2.96,2.338.235,1.391-.246,1.998-1.754,2.055-1.75.071-2.715-.706-2.982-2.335Z"/>
  <path class="cls-22" d="M1377.371,813.956c-.726-4.755.485-7.229,3.631-7.338.58-.019,1.353.031,2.413.197l.024.003-.998-5.311,3.414-.091,3.195,18.457-2.591.104-.684-2.205-.677-.148-1.239,1.681c-.499.756-1.229,1.066-2.007,1.099-2.239.1-3.804-2.201-4.482-6.449ZM1382.338,816.577c.244-.011.521-.123.784-.434l.957-1.069c.491-.572.627-1.057.481-1.931l-.505-3-.945-.145c-1.869-.309-2.711.779-2.327,3.667.254,1.935.846,2.941,1.554,2.912Z"/>
  <path class="cls-22" d="M1391.052,815.766l3.323-.114c.334,1.181,1.137,1.582,2.466,1.539,1.307-.043,2.023-.468,1.85-1.406-.1-.59-.506-1.026-1.341-1.174l-2.994-.552c-2.234-.405-3.516-1.739-3.875-3.828-.456-2.614,1-3.93,4.215-4.013,3.102-.071,5.358,1.118,6.108,3.856l-3.21.081c-.366-1.06-1.108-1.417-2.28-1.386-1.176.033-1.784.428-1.636,1.245.078.521.444.885,1.131,1.01l2.83.52c2.663.497,4.028,1.75,4.429,4.094.471,2.758-1.063,4.045-4.628,4.168-3.415.123-5.62-1.093-6.389-4.04Z"/>
  <polygon class="cls-24" points="1592.439 1000.602 1589.531 1004.316 1359.069 1004.316 1270.262 746.676 1289.171 706.155 1384.179 974.939 1362.243 1000.602 1592.439 1000.602"/>
  <path class="cls-22" d="M1315.74,854.124l-1.468,2.208-.781-2.616,1.483-2.073-.672-2.247-1.401,2.36-.788-2.6,1.486-2.29c-1.037-5.569-.213-10.165,2.586-14.687,3.119-5.125,5.444-4.83,7.126.288l-2.25,3.648c-.938-2.774-2.19-3.143-3.792-.551-1.461,2.344-1.673,4.727-1.505,7.975l.554.156.988-2.495,2.132-3.392.432,3.084-3.252,5.104.61,2.056,3.232-5.041.445,3.051-1.485,2.304-1.363,1.196-.136,1.245c1.304,1.944,2.369,2.28,3.836.039,1.607-2.478,1.894-5.384,1.104-8.545l2.274-3.616c1.449,5.731.791,11.086-2.365,15.918-2.833,4.26-5.059,4.133-7.029-.481Z"/>
  <rect class="cls-12" height="75.684" width="1688.467" x="99.481" y="1004.316"/>
</svg>
