<?xml version="1.0" encoding="UTF-8"?>
<svg id="layer" xmlns="http://www.w3.org/2000/svg" viewBox="0 0 600 163.4">
  <defs>
    <style>
      .cls-1 {
        fill: #00526e;
      }
    </style>
  </defs>
  <path class="cls-1" d="M486.4,100.2c-1.4-2.3-2.4-3.6-3.6-4.3-2.7-1.6-6.5-.6-8.2,2.3-1,1.9-1,6-1,7.4v57.8h-65.3V0h65.3v68.9L523.4,0h71.9l-56.3,71.9,61,91.5h-74.5l-39.1-63.2ZM254.1,163.4h73.8L388.5.1h-66.1l-28.5,91h-.5L265.1,0h-68.9l57.9,163.4ZM117.2,163.4h74.5l-61-91.5L187,0h-71.9l-49.8,68.9V0H0v163.3h65.3v-57.8c0-1.4,0-5.6,1-7.4,1.7-2.9,5.5-3.9,8.2-2.3,1.2.7,2.2,2,3.6,4.3l39.1,63.3Z"/>
</svg>