<?xml version="1.0" encoding="UTF-8"?>
<svg id="Layer_1" data-name="Layer 1" xmlns="http://www.w3.org/2000/svg" viewBox="0 0 58.33 58.33">
  <defs>
    <style>
      .cls-1 {
        fill: #fff;
      }

      .cls-2 {
        fill: #aa418c;
      }
    </style>
  </defs>
  <circle class="cls-2" cx="29.17" cy="29.17" r="29.17"/>
  <path class="cls-1" d="M48.61,29.43c-.09-2.35-2.06-4.19-4.42-4.11-1.04.04-2.04.47-2.79,1.18-3.32-2.26-7.23-3.5-11.24-3.59l1.89-9.11,6.25,1.31c.17,1.6,1.61,2.76,3.22,2.59s2.76-1.61,2.59-3.22-1.61-2.77-3.22-2.59c-.92.09-1.75.63-2.21,1.43l-7.15-1.43c-.49-.11-.97.2-1.08.69h0s-2.16,10.14-2.16,10.14c-4.06.07-8.02,1.31-11.39,3.59-1.71-1.61-4.41-1.53-6.02.19-1.61,1.71-1.53,4.41.19,6.02.33.31.72.58,1.15.77-.03.43-.03.86,0,1.28,0,6.54,7.62,11.86,17.02,11.86s17.02-5.31,17.02-11.86c.03-.43.03-.86,0-1.28,1.47-.73,2.39-2.24,2.36-3.88h0ZM19.41,32.35c0-1.61,1.31-2.92,2.92-2.92s2.92,1.31,2.92,2.92-1.31,2.92-2.92,2.92c-1.62-.01-2.92-1.31-2.92-2.92ZM36.37,40.49v-.12c-2.08,1.56-4.61,2.36-7.21,2.25-2.6.11-5.14-.69-7.21-2.25-.28-.33-.23-.83.11-1.11.29-.24.7-.24,1,0,1.76,1.28,3.9,1.94,6.07,1.84,2.18.12,4.32-.51,6.1-1.78.32-.31.84-.31,1.15.01.31.32.31.84-.01,1.15ZM35.98,35.49h-.15l.02-.11c-1.61,0-2.92-1.31-2.92-2.92s1.31-2.92,2.92-2.92,2.92,1.31,2.92,2.92c.06,1.61-1.19,2.97-2.8,3.03h0Z"/>
</svg>