<?xml version="1.0" encoding="UTF-8"?>
<svg id="Layer_1" data-name="Layer 1" xmlns="http://www.w3.org/2000/svg" viewBox="0 0 58.33 58.33">
  <defs>
    <style>
      .cls-1 {
        fill: #fff;
      }

      .cls-2 {
        fill: #aa418c;
      }
    </style>
  </defs>
  <circle class="cls-2" cx="29.17" cy="29.17" r="29.17"/>
  <path class="cls-1" d="M37.51,27.89c-.15-.07-.3-.14-.46-.21-.27-4.96-2.98-7.8-7.53-7.83h-.06c-2.72,0-4.99,1.16-6.38,3.28l2.5,1.72c1.04-1.58,2.67-1.92,3.88-1.92h.04c1.5.01,2.63.44,3.36,1.3.53.62.89,1.47,1.06,2.55-1.33-.23-2.76-.3-4.3-.21-4.33.25-7.11,2.77-6.92,6.28.09,1.78.98,3.31,2.5,4.31,1.28.85,2.93,1.26,4.64,1.17,2.26-.12,4.04-.99,5.28-2.57.94-1.2,1.53-2.75,1.8-4.71,1.08.65,1.88,1.51,2.32,2.54.75,1.75.79,4.62-1.55,6.97-2.06,2.05-4.53,2.94-8.26,2.97-4.14-.03-7.27-1.36-9.31-3.95-1.91-2.42-2.89-5.93-2.93-10.41.04-4.48,1.02-7.99,2.93-10.41,2.04-2.59,5.17-3.92,9.31-3.95,4.17.03,7.36,1.37,9.47,3.97,1.04,1.28,1.82,2.88,2.33,4.75l2.93-.78c-.62-2.3-1.61-4.29-2.95-5.93-2.71-3.34-6.68-5.05-11.79-5.08h-.02c-5.1.03-9.02,1.75-11.65,5.1-2.34,2.98-3.55,7.13-3.59,12.32h0v.02c.04,5.2,1.25,9.34,3.59,12.32,2.63,3.35,6.56,5.06,11.65,5.1h.02c4.53-.03,7.73-1.22,10.36-3.85,3.44-3.44,3.34-7.75,2.2-10.4-.81-1.9-2.37-3.44-4.49-4.46h0ZM29.68,35.25c-1.9.11-3.87-.74-3.96-2.57-.07-1.35.96-2.86,4.08-3.04.36-.02.71-.03,1.05-.03,1.13,0,2.19.11,3.15.32-.36,4.49-2.47,5.22-4.32,5.32h0Z"/>
</svg>