<?xml version="1.0" encoding="UTF-8"?>
<svg id="Layer_1" data-name="Layer 1" xmlns="http://www.w3.org/2000/svg" viewBox="0 0 58.33 58.33">
  <defs>
    <style>
      .cls-1 {
        fill: #fff;
      }

      .cls-2 {
        fill: #aa418c;
      }
    </style>
  </defs>
  <circle class="cls-2" cx="29.17" cy="29.17" r="29.17"/>
  <path class="cls-1" d="M40.44,40.44h-4.73v-7.43c0-1.77,0-4.05-2.47-4.05s-2.85,1.93-2.85,3.92v7.56h-4.75v-15.27h4.53v2.08h.06c.93-1.58,2.66-2.51,4.49-2.44,4.81,0,5.7,3.16,5.7,7.27l.02,8.36ZM20.29,23.08c-1.12,0-2.12-.67-2.55-1.7s-.19-2.22.6-3.01c.79-.79,1.98-1.02,3.01-.6,1.03.43,1.7,1.44,1.7,2.55,0,.73-.29,1.43-.81,1.94-.52.52-1.21.81-1.94.81ZM17.91,40.44v-15.27h4.75v15.27h-4.75ZM15.53,13.17c-1.29-.02-2.34,1.01-2.36,2.3v27.39c.01,1.29,1.06,2.32,2.35,2.31h27.28c.62,0,1.22-.23,1.66-.67.44-.43.7-1.03.71-1.65h0V15.48c0-.62-.26-1.21-.71-1.65-.44-.43-1.04-.67-1.66-.67H15.53Z"/>
</svg>