<?xml version="1.0" encoding="UTF-8"?>
<svg id="Layer_1" data-name="Layer 1" xmlns="http://www.w3.org/2000/svg" viewBox="0 0 58.33 58.33">
  <defs>
    <style>
      .cls-1 {
        fill: #fff;
      }

      .cls-2 {
        fill: #aa418c;
      }
    </style>
  </defs>
  <circle class="cls-2" cx="29.17" cy="29.17" r="29.17"/>
  <path class="cls-1" d="M29.19,16.09c4.27,0,4.78.02,6.47.09,1.56.07,2.41.33,2.97.55.75.29,1.28.64,1.84,1.2.56.56.91,1.09,1.2,1.84.22.56.48,1.41.55,2.97.08,1.69.09,2.19.09,6.47s-.02,4.78-.09,6.47c-.07,1.56-.33,2.41-.55,2.97-.29.75-.64,1.28-1.2,1.84-.56.56-1.09.91-1.84,1.2-.56.22-1.41.48-2.97.55-1.69.08-2.19.09-6.47.09s-4.78-.02-6.47-.09c-1.56-.07-2.41-.33-2.97-.55-.75-.29-1.28-.64-1.84-1.2-.56-.56-.91-1.09-1.2-1.84-.22-.56-.48-1.41-.55-2.97-.08-1.69-.09-2.19-.09-6.47s.02-4.78.09-6.47c.07-1.56.33-2.41.55-2.97.29-.75.64-1.28,1.2-1.84.56-.56,1.09-.91,1.84-1.2.56-.22,1.41-.48,2.97-.55,1.69-.08,2.19-.09,6.47-.09M29.19,13.21c-4.35,0-4.89.02-6.6.1-1.7.08-2.87.35-3.88.74-1.05.41-1.94.96-2.83,1.85-.89.89-1.44,1.78-1.85,2.83-.4,1.02-.67,2.18-.74,3.88-.08,1.71-.1,2.25-.1,6.6s.02,4.89.1,6.6c.08,1.7.35,2.87.74,3.88.41,1.05.96,1.94,1.85,2.83.89.89,1.78,1.44,2.83,1.85,1.02.4,2.18.67,3.88.74,1.71.08,2.25.1,6.6.1s4.89-.02,6.6-.1c1.7-.08,2.87-.35,3.88-.74,1.05-.41,1.94-.96,2.83-1.85.89-.89,1.44-1.78,1.85-2.83.4-1.02.67-2.18.74-3.88.08-1.71.1-2.25.1-6.6s-.02-4.89-.1-6.6c-.08-1.7-.35-2.87-.74-3.88-.41-1.05-.96-1.94-1.85-2.83-.89-.89-1.78-1.44-2.83-1.85-1.02-.4-2.18-.67-3.88-.74-1.71-.08-2.25-.1-6.6-.1M39.65,20.67c0,1.06-.86,1.92-1.92,1.92s-1.92-.86-1.92-1.92.86-1.92,1.92-1.92,1.92.86,1.92,1.92M29.19,21c-4.54,0-8.22,3.68-8.22,8.22s3.68,8.22,8.22,8.22,8.22-3.68,8.22-8.22-3.68-8.22-8.22-8.22M29.19,34.54c-2.94,0-5.33-2.39-5.33-5.33s2.39-5.33,5.33-5.33,5.33,2.39,5.33,5.33-2.39,5.33-5.33,5.33"/>
</svg>