<?xml version="1.0" encoding="UTF-8"?>
<svg id="Layer_1" data-name="Layer 1" xmlns="http://www.w3.org/2000/svg" viewBox="0 0 58.33 58.33">
  <defs>
    <style>
      .cls-1 {
        fill: #fff;
      }

      .cls-2 {
        fill: #aa418c;
      }
    </style>
  </defs>
  <circle class="cls-2" cx="29.17" cy="29.17" r="29.17"/>
  <path class="cls-1" d="M43.39,13.17H14.95c-.98,0-1.78.8-1.78,1.78h0v28.44c0,.98.8,1.78,1.78,1.78h15.31v-12.36h-4.15v-4.86h4.15v-3.55c0-4.14,2.53-6.39,6.23-6.39,1.23-.02,2.46.03,3.68.16v4.28h-2.52c-2,0-2.39,1-2.39,2.36v3.08h4.82l-.62,4.84h-4.2v12.43h8.13c.98,0,1.78-.8,1.78-1.78V14.95c0-.98-.8-1.78-1.78-1.78Z"/>
</svg>