<?xml version="1.0" encoding="UTF-8"?>
<svg id="Layer_1" data-name="Layer 1" xmlns="http://www.w3.org/2000/svg" viewBox="0 0 58.33 58.33">
  <defs>
    <style>
      .cls-1 {
        fill: #fff;
      }

      .cls-2 {
        fill: #aa418c;
      }
    </style>
  </defs>
  <circle class="cls-2" cx="29.17" cy="29.17" r="29.17"/>
  <path class="cls-1" d="M24.8,35.51l11.15-6.34-11.15-6.34v12.68ZM50.5,29.17s0,6.99-.89,10.33c-.49,1.85-1.94,3.3-3.77,3.8-3.33.9-16.67.9-16.67.9,0,0-13.34,0-16.67-.9-1.84-.49-3.28-1.95-3.77-3.8-.89-3.35-.89-10.33-.89-10.33,0,0,0-6.99.89-10.33.49-1.85,1.94-3.3,3.77-3.8,3.33-.9,16.67-.9,16.67-.9,0,0,13.34,0,16.67.9,1.84.49,3.28,1.95,3.77,3.8.89,3.35.89,10.33.89,10.33Z"/>
</svg>